<svg width="100%" height="100%" viewBox="0 0 103 100" fill="none" xmlns="http://www.w3.org/2000/svg">
<path d="M18.1005 13.3679L49.8596 4.85813C61.4331 1.75702 69.8167 6.81599 73.0401 18.8461L81.8773 51.8267C85.1007 63.8568 80.3698 72.4298 68.7963 75.5309L37.0372 84.0407C25.4638 87.1418 17.1104 82.0747 13.8869 70.0447L5.04977 37.064C1.82632 25.034 6.52706 16.469 18.1005 13.3679Z" fill="url(#paint0_linear_10714_617)"/>
<g filter="url(#filter0_f_10714_617)">
<path d="M26.299 23.5464L47.8608 17.769C55.7182 15.6636 61.3481 18.8671 63.4272 26.6267L69.1273 47.8997C71.2065 55.6593 67.9327 61.2486 60.0752 63.3539L38.5135 69.1314C30.6561 71.2368 25.0467 68.0277 22.9676 60.2682L17.2675 38.9952C15.1883 31.2356 18.4416 25.6518 26.299 23.5464Z" fill="#30AD31" fill-opacity="0.5"/>
</g>
<g filter="url(#filter1_b_10714_617)">
<mask id="path-3-outside-1_10714_617" maskUnits="userSpaceOnUse" x="22.2207" y="19.2031" width="81" height="81" fill="black">
<rect fill="white" x="22.2207" y="19.2031" width="81" height="81"/>
<path d="M80.9632 20.2031H44.2144C30.7832 20.2031 23.2207 27.7656 23.2207 41.1968V77.985C23.2207 91.3374 30.7832 98.9787 44.2144 98.9787H81.0026C94.3944 98.9787 101.996 91.3374 101.996 77.985V41.1968C101.996 27.7656 94.355 20.2031 80.9632 20.2031Z"/>
</mask>
<path d="M80.9632 20.2031H44.2144C30.7832 20.2031 23.2207 27.7656 23.2207 41.1968V77.985C23.2207 91.3374 30.7832 98.9787 44.2144 98.9787H81.0026C94.3944 98.9787 101.996 91.3374 101.996 77.985V41.1968C101.996 27.7656 94.355 20.2031 80.9632 20.2031Z" fill="#72DC60" fill-opacity="0.35"/>
<path d="M80.9632 21.2031C81.5155 21.2031 81.9632 20.7554 81.9632 20.2031C81.9632 19.6508 81.5155 19.2031 80.9632 19.2031V21.2031ZM80.9632 19.2031C80.4109 19.2031 79.9632 19.6508 79.9632 20.2031C79.9632 20.7554 80.4109 21.2031 80.9632 21.2031V19.2031ZM80.9632 19.2031H44.2144V21.2031H80.9632V19.2031ZM44.2144 19.2031C37.3145 19.2031 31.7811 21.1487 27.9737 24.9561C24.1663 28.7636 22.2207 34.2969 22.2207 41.1968H24.2207C24.2207 34.6655 26.0563 29.702 29.3879 26.3704C32.7196 23.0387 37.6831 21.2031 44.2144 21.2031V19.2031ZM22.2207 41.1968V77.985H24.2207V41.1968H22.2207ZM22.2207 77.985C22.2207 84.8469 24.167 90.3789 27.9728 94.1951C31.7789 98.0118 37.3117 99.9787 44.2144 99.9787V97.9787C37.6858 97.9787 32.7218 96.1249 29.3889 92.7829C26.0556 89.4404 24.2207 84.4755 24.2207 77.985H22.2207ZM44.2144 99.9787H81.0026V97.9787H44.2144V99.9787ZM81.0026 99.9787C87.8863 99.9787 93.4184 98.0115 97.2289 94.1956C101.039 90.38 102.996 84.8483 102.996 77.985H100.996C100.996 84.4741 99.1523 89.4393 95.8138 92.7824C92.4755 96.1253 87.5107 97.9787 81.0026 97.9787V99.9787ZM102.996 77.985V41.1968H100.996V77.985H102.996ZM102.996 41.1968C102.996 34.2941 101.029 28.761 97.2073 24.9547C93.3859 21.149 87.844 19.2031 80.9632 19.2031V21.2031C87.4742 21.2031 92.4488 23.0385 95.796 26.3718C99.1425 29.7045 100.996 34.6683 100.996 41.1968H102.996Z" fill="url(#paint1_linear_10714_617)" mask="url(#path-3-outside-1_10714_617)"/>
</g>
<g filter="url(#filter2_bd_10714_617)">
<mask id="path-5-inside-2_10714_617" fill="white">
<path d="M77.0242 62.8566H65.8381V74.0034C65.8381 75.8152 64.3807 77.2726 62.5689 77.2726C60.7571 77.2726 59.2997 75.8152 59.2997 74.0034V62.8566H48.153C46.3411 62.8173 44.8838 61.3599 44.8838 59.5481C44.8838 58.6776 45.2383 57.8544 45.8291 57.2242C46.4593 56.6334 47.2864 56.2789 48.153 56.2789H59.2997V45.1715C59.2997 43.3597 60.7571 41.9023 62.5689 41.9023C64.3807 41.9023 65.8381 43.3597 65.8381 45.1715V56.2789H77.0242C78.836 56.2789 80.2934 57.7362 80.2934 59.5481C80.2934 61.3599 78.836 62.8173 77.0242 62.8566Z"/>
</mask>
<path d="M77.0242 62.8566H65.8381V74.0034C65.8381 75.8152 64.3807 77.2726 62.5689 77.2726C60.7571 77.2726 59.2997 75.8152 59.2997 74.0034V62.8566H48.153C46.3411 62.8173 44.8838 61.3599 44.8838 59.5481C44.8838 58.6776 45.2383 57.8544 45.8291 57.2242C46.4593 56.6334 47.2864 56.2789 48.153 56.2789H59.2997V45.1715C59.2997 43.3597 60.7571 41.9023 62.5689 41.9023C64.3807 41.9023 65.8381 43.3597 65.8381 45.1715V56.2789H77.0242C78.836 56.2789 80.2934 57.7362 80.2934 59.5481C80.2934 61.3599 78.836 62.8173 77.0242 62.8566Z" fill="url(#paint2_linear_10714_617)"/>
<path d="M65.8381 62.8566V62.6566H65.6381V62.8566H65.8381ZM59.2997 62.8566H59.4997V62.6566H59.2997V62.8566ZM48.153 62.8566L48.1486 63.0566H48.153V62.8566ZM45.8291 57.2242L45.692 57.078L45.6832 57.0874L45.8291 57.2242ZM59.2997 56.2789V56.4789H59.4997V56.2789H59.2997ZM65.8381 56.2789H65.6381V56.4789H65.8381V56.2789ZM77.0242 62.6566H65.8381V63.0566H77.0242V62.6566ZM65.6381 62.8566V74.0034H66.0381V62.8566H65.6381ZM65.6381 74.0034C65.6381 75.7048 64.2703 77.0726 62.5689 77.0726V77.4726C64.4912 77.4726 66.0381 75.9257 66.0381 74.0034H65.6381ZM62.5689 77.0726C60.8675 77.0726 59.4997 75.7048 59.4997 74.0034H59.0997C59.0997 75.9257 60.6466 77.4726 62.5689 77.4726V77.0726ZM59.4997 74.0034V62.8566H59.0997V74.0034H59.4997ZM59.2997 62.6566H48.153V63.0566H59.2997V62.6566ZM48.1573 62.6567C46.4517 62.6196 45.0838 61.2486 45.0838 59.5481H44.6838C44.6838 61.4712 46.2306 63.0149 48.1486 63.0566L48.1573 62.6567ZM45.0838 59.5481C45.0838 58.7327 45.4159 57.9573 45.975 57.361L45.6832 57.0874C45.0606 57.7515 44.6838 58.6225 44.6838 59.5481H45.0838ZM45.9659 57.3701C46.5621 56.8111 47.3414 56.4789 48.153 56.4789V56.0789C47.2315 56.0789 46.3565 56.4556 45.6923 57.0783L45.9659 57.3701ZM48.153 56.4789H59.2997V56.0789H48.153V56.4789ZM59.4997 56.2789V45.1715H59.0997V56.2789H59.4997ZM59.4997 45.1715C59.4997 43.4701 60.8675 42.1023 62.5689 42.1023V41.7023C60.6466 41.7023 59.0997 43.2492 59.0997 45.1715H59.4997ZM62.5689 42.1023C64.2703 42.1023 65.6381 43.4701 65.6381 45.1715H66.0381C66.0381 43.2492 64.4912 41.7023 62.5689 41.7023V42.1023ZM65.6381 45.1715V56.2789H66.0381V45.1715H65.6381ZM65.8381 56.4789H77.0242V56.0789H65.8381V56.4789ZM77.0242 56.4789C78.7256 56.4789 80.0934 57.8467 80.0934 59.5481H80.4934C80.4934 57.6258 78.9465 56.0789 77.0242 56.0789V56.4789ZM80.0934 59.5481C80.0934 61.2486 78.7255 62.6196 77.0199 62.6567L77.0286 63.0566C78.9466 63.0149 80.4934 61.4712 80.4934 59.5481H80.0934Z" fill="url(#paint3_linear_10714_617)" fill-opacity="0.5" mask="url(#path-5-inside-2_10714_617)"/>
</g>
<defs>
<filter id="filter0_f_10714_617" x="0.653931" y="1.13675" width="85.0848" height="84.6263" filterUnits="userSpaceOnUse" color-interpolation-filters="sRGB">
<feFlood flood-opacity="0" result="BackgroundImageFix"/>
<feBlend mode="normal" in="SourceGraphic" in2="BackgroundImageFix" result="shape"/>
<feGaussianBlur stdDeviation="8" result="effect1_foregroundBlur_10714_617"/>
</filter>
<filter id="filter1_b_10714_617" x="-1.7793" y="-4.79688" width="128.776" height="128.776" filterUnits="userSpaceOnUse" color-interpolation-filters="sRGB">
<feFlood flood-opacity="0" result="BackgroundImageFix"/>
<feGaussianBlur in="BackgroundImage" stdDeviation="12"/>
<feComposite in2="SourceAlpha" operator="in" result="effect1_backgroundBlur_10714_617"/>
<feBlend mode="normal" in="SourceGraphic" in2="effect1_backgroundBlur_10714_617" result="shape"/>
</filter>
<filter id="filter2_bd_10714_617" x="29.8838" y="26.9023" width="65.4097" height="65.3702" filterUnits="userSpaceOnUse" color-interpolation-filters="sRGB">
<feFlood flood-opacity="0" result="BackgroundImageFix"/>
<feGaussianBlur in="BackgroundImage" stdDeviation="7.5"/>
<feComposite in2="SourceAlpha" operator="in" result="effect1_backgroundBlur_10714_617"/>
<feColorMatrix in="SourceAlpha" type="matrix" values="0 0 0 0 0 0 0 0 0 0 0 0 0 0 0 0 0 0 127 0" result="hardAlpha"/>
<feOffset dx="5" dy="5"/>
<feGaussianBlur stdDeviation="5"/>
<feColorMatrix type="matrix" values="0 0 0 0 0.454902 0 0 0 0 0.870588 0 0 0 0 0.376471 0 0 0 0.5 0"/>
<feBlend mode="normal" in2="effect1_backgroundBlur_10714_617" result="effect2_dropShadow_10714_617"/>
<feBlend mode="normal" in="SourceGraphic" in2="effect2_dropShadow_10714_617" result="shape"/>
</filter>
<linearGradient id="paint0_linear_10714_617" x1="-1.86611e-05" y1="18.218" x2="65.1972" y2="61.1595" gradientUnits="userSpaceOnUse">
<stop stop-color="#9BF763"/>
<stop offset="1" stop-color="#26AB5B"/>
</linearGradient>
<linearGradient id="paint1_linear_10714_617" x1="35.7605" y1="29.3806" x2="86.0109" y2="91.6169" gradientUnits="userSpaceOnUse">
<stop stop-color="white" stop-opacity="0.25"/>
<stop offset="1" stop-color="white" stop-opacity="0"/>
</linearGradient>
<linearGradient id="paint2_linear_10714_617" x1="77.7829" y1="48.2895" x2="38.34" y2="49.5769" gradientUnits="userSpaceOnUse">
<stop stop-color="white"/>
<stop offset="1" stop-color="white" stop-opacity="0.2"/>
</linearGradient>
<linearGradient id="paint3_linear_10714_617" x1="48.6982" y1="53.7673" x2="78.7658" y2="53.9335" gradientUnits="userSpaceOnUse">
<stop stop-color="white"/>
<stop offset="1" stop-color="white" stop-opacity="0"/>
</linearGradient>
</defs>
</svg>
