<svg width="100%" height="100%" viewBox="0 0 111 95" fill="none" xmlns="http://www.w3.org/2000/svg">
<path fill-rule="evenodd" clip-rule="evenodd" d="M56.324 33.6996C56.3243 33.6974 56.3248 33.6952 56.3254 33.6929L56.5127 32.994C58.398 24.5597 53.2749 16.1319 44.8982 13.8873C36.5214 11.6428 27.8708 16.3799 25.2864 24.627C25.1826 24.8493 25.1187 25.088 25.0973 25.3324L29.6983 26.5652C29.802 26.3429 29.8659 26.1042 29.8873 25.8598C31.4932 19.8662 37.6706 16.3139 43.6849 17.9254C49.6991 19.5369 53.2727 25.702 51.6667 31.6956C51.6051 31.9377 51.5872 32.1889 51.6138 32.4375L51.6163 32.4382L24.8525 25.2668C20.8469 24.1935 15.8565 25.6905 12.7088 32.4656L5.08954 51.177C-0.708729 64.8605 5.65952 70.3761 15.2177 72.9373L41.1298 79.8804C50.6603 82.4341 59.1388 79.19 60.7535 66.0921L63.5384 46.0853C63.9256 38.7838 60.5437 34.8303 56.5934 33.7718L56.324 33.6996Z" fill="url(#paint0_linear_10714_389)"/>
<g opacity="0.5" filter="url(#filter0_f_10714_389)">
<path d="M28.1451 45.4313C30.0339 40.5292 35.3166 37.8418 40.3909 39.2015C45.4653 40.5611 48.6965 45.5299 47.8813 50.7196L46.7089 58.1826C45.6875 64.6845 39.2558 68.867 32.8985 67.1636C26.5411 65.4601 23.0624 58.6221 25.4288 52.4806L28.1451 45.4313Z" fill="#0062FF"/>
</g>
<g filter="url(#filter1_bd_10714_389)">
<path fill-rule="evenodd" clip-rule="evenodd" d="M78.5645 23.2421C78.6546 23.5308 80.0937 29.5194 80.0455 29.8181L74.6375 31.2672C74.4754 31.045 72.8802 25.3101 72.5448 24.1042L72.5446 24.1036L72.4858 23.8924C70.5523 16.6766 63.1152 12.3999 55.8745 14.34C48.6338 16.2801 44.3315 23.7025 46.2649 30.9183C46.3898 31.1859 48.2272 38.0427 48.2528 38.337L42.7137 39.8212C42.5888 39.5535 40.7514 32.6967 40.7258 32.4025C38.456 22.2482 44.6238 12.1017 54.7088 9.39944C64.7938 6.69717 75.2084 12.4004 78.3199 22.3292L78.5645 23.2421ZM55.5202 51.7142C53.6834 52.2064 51.7838 51.0728 51.2772 49.1823C50.7706 47.2917 51.849 45.3602 53.6858 44.868C55.5226 44.3758 57.4223 45.5094 57.9288 47.4C58.4354 49.2905 57.357 51.222 55.5202 51.7142ZM73.0611 43.3459C73.5677 45.2364 75.4673 46.37 77.3041 45.8778C79.1409 45.3857 80.2193 43.4541 79.7127 41.5636C79.2062 39.6731 77.3065 38.5395 75.4697 39.0316C73.6329 39.5238 72.5545 41.4554 73.0611 43.3459Z" fill="url(#paint1_linear_10714_389)"/>
</g>
<g filter="url(#filter2_b_10714_389)">
<mask id="path-4-outside-1_10714_389" maskUnits="userSpaceOnUse" x="26.2595" y="18.8242" width="86.3005" height="77.8153" fill="black">
<rect fill="white" x="26.2595" y="18.8242" width="86.3005" height="77.8153"/>
<path fill-rule="evenodd" clip-rule="evenodd" d="M104.287 55.4153L95.1469 32.8792C91.1553 25.0334 85.2494 22.947 80.4935 24.2213L42.2798 34.4607C37.4574 35.7528 33.1554 40.3176 33.9518 49.2764L37.2713 73.372C39.4628 91.1291 49.4228 93.0465 60.9301 89.9631L92.1263 81.6041C103.6 78.5296 110.488 70.0435 104.287 55.4153ZM55.6203 51.6514C53.7835 52.1436 51.8838 51.01 51.3773 49.1195C50.8707 47.2289 51.9491 45.2974 53.7859 44.8052C55.6227 44.313 57.5223 45.4466 58.0289 47.3372C58.5355 49.2277 57.4571 51.1592 55.6203 51.6514ZM73.1612 43.2831C73.6677 45.1736 75.5674 46.3072 77.4042 45.815C79.241 45.3229 80.3194 43.3913 79.8128 41.5008C79.3062 39.6102 77.4066 38.4767 75.5698 38.9688C73.733 39.461 72.6546 41.3926 73.1612 43.2831Z"/>
</mask>
<path fill-rule="evenodd" clip-rule="evenodd" d="M104.287 55.4153L95.1469 32.8792C91.1553 25.0334 85.2494 22.947 80.4935 24.2213L42.2798 34.4607C37.4574 35.7528 33.1554 40.3176 33.9518 49.2764L37.2713 73.372C39.4628 91.1291 49.4228 93.0465 60.9301 89.9631L92.1263 81.6041C103.6 78.5296 110.488 70.0435 104.287 55.4153ZM55.6203 51.6514C53.7835 52.1436 51.8838 51.01 51.3773 49.1195C50.8707 47.2289 51.9491 45.2974 53.7859 44.8052C55.6227 44.313 57.5223 45.4466 58.0289 47.3372C58.5355 49.2277 57.4571 51.1592 55.6203 51.6514ZM73.1612 43.2831C73.6677 45.1736 75.5674 46.3072 77.4042 45.815C79.241 45.3229 80.3194 43.3913 79.8128 41.5008C79.3062 39.6102 77.4066 38.4767 75.5698 38.9688C73.733 39.461 72.6546 41.3926 73.1612 43.2831Z" fill="#3EA0FE" fill-opacity="0.35"/>
<path d="M95.1469 32.8792L96.0736 32.5034C96.0629 32.477 96.0511 32.4511 96.0382 32.4258L95.1469 32.8792ZM104.287 55.4153L103.36 55.7911C103.362 55.7959 103.364 55.8008 103.366 55.8056L104.287 55.4153ZM80.4935 24.2213L80.7523 25.1873L80.4935 24.2213ZM33.9518 49.2764L32.9557 49.3649C32.9572 49.381 32.959 49.3969 32.9612 49.4129L33.9518 49.2764ZM37.2713 73.372L38.2639 73.2495L38.262 73.2355L37.2713 73.372ZM94.2202 33.2551L103.36 55.7911L105.213 55.0395L96.0736 32.5034L94.2202 33.2551ZM80.7523 25.1873C84.9526 24.0618 90.4279 25.8088 94.2556 33.3327L96.0382 32.4258C91.8828 24.2579 85.5462 21.8322 80.2347 23.2554L80.7523 25.1873ZM42.5386 35.4266L80.7523 25.1873L80.2347 23.2554L42.021 33.4947L42.5386 35.4266ZM34.9479 49.1878C34.5652 44.8832 35.4144 41.7372 36.8465 39.5395C38.2785 37.3422 40.3431 36.0149 42.5386 35.4266L42.021 33.4947C39.3941 34.1986 36.8965 35.7997 35.1709 38.4476C33.4456 41.095 32.542 44.7108 32.9557 49.3649L34.9479 49.1878ZM38.262 73.2355L34.9424 49.1399L32.9612 49.4129L36.2807 73.5084L38.262 73.2355ZM60.6713 88.9972C54.9909 90.5192 49.945 90.7293 46.0896 88.6067C42.2858 86.5126 39.3402 81.9713 38.2638 73.2495L36.2789 73.4944C37.394 82.5297 40.5241 87.8257 45.125 90.3587C49.6743 92.8633 55.362 92.4903 61.1889 90.929L60.6713 88.9972ZM91.8675 80.6382L60.6713 88.9972L61.1889 90.929L92.3851 82.57L91.8675 80.6382ZM103.366 55.8056C106.388 62.9352 106.147 68.3759 103.958 72.3609C101.755 76.3723 97.4511 79.142 91.8675 80.6382L92.3851 82.57C98.2756 80.9917 103.153 77.9812 105.711 73.3238C108.284 68.6401 108.386 62.5236 105.207 55.025L103.366 55.8056ZM50.4113 49.3783C51.0537 51.7758 53.4828 53.2594 55.8791 52.6173L55.3615 50.6855C54.0842 51.0277 52.7139 50.2441 52.3432 48.8606L50.4113 49.3783ZM53.527 43.8393C51.1307 44.4814 49.7689 46.9807 50.4113 49.3783L52.3432 48.8606C51.9725 47.4771 52.7674 46.1134 54.0447 45.7711L53.527 43.8393ZM58.9948 47.0783C58.3524 44.6808 55.9234 43.1972 53.527 43.8393L54.0447 45.7711C55.3219 45.4289 56.6923 46.2125 57.063 47.596L58.9948 47.0783ZM55.8791 52.6173C58.2754 51.9752 59.6372 49.4759 58.9948 47.0783L57.063 47.596C57.4337 48.9795 56.6387 50.3432 55.3615 50.6855L55.8791 52.6173ZM77.1454 44.8491C75.8681 45.1914 74.4978 44.4078 74.1271 43.0243L72.1952 43.5419C72.8377 45.9395 75.2667 47.4231 77.663 46.781L77.1454 44.8491ZM78.8469 41.7596C79.2176 43.1431 78.4226 44.5069 77.1454 44.8491L77.663 46.781C80.0593 46.1389 81.4211 43.6395 80.7787 41.242L78.8469 41.7596ZM75.8286 39.9347C77.1058 39.5925 78.4762 40.3761 78.8469 41.7596L80.7787 41.242C80.1363 38.8444 77.7073 37.3608 75.3109 38.0029L75.8286 39.9347ZM74.1271 43.0243C73.7564 41.6408 74.5513 40.277 75.8286 39.9347L75.3109 38.0029C72.9146 38.645 71.5528 41.1443 72.1952 43.5419L74.1271 43.0243Z" fill="url(#paint2_linear_10714_389)" mask="url(#path-4-outside-1_10714_389)"/>
</g>
<defs>
<filter id="filter0_f_10714_389" x="4.68359" y="18.8496" width="63.3232" height="68.6953" filterUnits="userSpaceOnUse" color-interpolation-filters="sRGB">
<feFlood flood-opacity="0" result="BackgroundImageFix"/>
<feBlend mode="normal" in="SourceGraphic" in2="BackgroundImageFix" result="shape"/>
<feGaussianBlur stdDeviation="10" result="effect1_foregroundBlur_10714_389"/>
</filter>
<filter id="filter1_bd_10714_389" x="25.2562" y="-6.27061" width="69.7905" height="73.0998" filterUnits="userSpaceOnUse" color-interpolation-filters="sRGB">
<feFlood flood-opacity="0" result="BackgroundImageFix"/>
<feGaussianBlur in="BackgroundImage" stdDeviation="7.5"/>
<feComposite in2="SourceAlpha" operator="in" result="effect1_backgroundBlur_10714_389"/>
<feColorMatrix in="SourceAlpha" type="matrix" values="0 0 0 0 0 0 0 0 0 0 0 0 0 0 0 0 0 0 127 0" result="hardAlpha"/>
<feOffset dx="5" dy="5"/>
<feGaussianBlur stdDeviation="5"/>
<feColorMatrix type="matrix" values="0 0 0 0 0.15375 0 0 0 0 0.522433 0 0 0 0 0.9 0 0 0 0.5 0"/>
<feBlend mode="normal" in2="effect1_backgroundBlur_10714_389" result="effect2_dropShadow_10714_389"/>
<feBlend mode="normal" in="SourceGraphic" in2="effect2_dropShadow_10714_389" result="shape"/>
</filter>
<filter id="filter2_b_10714_389" x="8.85632" y="-1.12807" width="122.762" height="117.298" filterUnits="userSpaceOnUse" color-interpolation-filters="sRGB">
<feFlood flood-opacity="0" result="BackgroundImageFix"/>
<feGaussianBlur in="BackgroundImage" stdDeviation="12"/>
<feComposite in2="SourceAlpha" operator="in" result="effect1_backgroundBlur_10714_389"/>
<feBlend mode="normal" in="SourceGraphic" in2="effect1_backgroundBlur_10714_389" result="shape"/>
</filter>
<linearGradient id="paint0_linear_10714_389" x1="73.2433" y1="21.4824" x2="-6.64592" y2="52.4147" gradientUnits="userSpaceOnUse">
<stop stop-color="#39AFFD"/>
<stop offset="1" stop-color="#477FFF"/>
</linearGradient>
<linearGradient id="paint1_linear_10714_389" x1="85.4815" y1="11.3719" x2="32.4096" y2="26.4817" gradientUnits="userSpaceOnUse">
<stop stop-color="white"/>
<stop offset="1" stop-color="white" stop-opacity="0.2"/>
</linearGradient>
<linearGradient id="paint2_linear_10714_389" x1="40.0289" y1="42.1121" x2="87.7372" y2="83.6803" gradientUnits="userSpaceOnUse">
<stop stop-color="white" stop-opacity="0.25"/>
<stop offset="1" stop-color="white" stop-opacity="0"/>
</linearGradient>
</defs>
</svg>
