<svg width="100%" height="100%" viewBox="0 0 98 84" fill="none" xmlns="http://www.w3.org/2000/svg">
<path fill-rule="evenodd" clip-rule="evenodd" d="M47.7931 13.7434H48.4229C56.6996 13.7434 63.417 20.6612 63.417 29.147V46.1187C63.417 54.6045 56.6996 61.4916 48.4229 61.4916H19.9941C11.7174 61.4916 5 54.6045 5 46.1187V29.147C5 20.6612 11.7174 13.7434 19.9941 13.7434H20.6238C20.6838 10.0539 22.0933 6.61034 24.6423 4.0277C27.2212 1.41431 30.5199 0.0922374 34.2385 0C41.6756 0 47.7032 6.14916 47.7931 13.7434ZM27.792 7.31608C26.1127 9.03785 25.183 11.313 25.1231 13.742H43.2959C43.2059 8.69964 39.1875 4.61045 34.2395 4.61045C31.9304 4.61045 29.5313 5.56357 27.792 7.31608Z" fill="url(#paint0_linear_10714_191)"/>
<g opacity="0.5" filter="url(#filter0_f_10714_191)">
<path d="M26.4679 52.7949L41.833 52.7949C47.4064 52.7949 50.6514 50.1249 50.6514 45.5499L50.6514 30.0549C50.6514 25.4049 47.4064 22.7949 41.833 22.7949L26.4679 22.7949C20.8047 22.7949 17.6514 25.4049 17.6514 30.0549L17.6514 45.5499C17.6514 50.1249 20.8047 52.7949 26.4679 52.7949Z" fill="#FA452D"/>
</g>
<g filter="url(#filter1_bd_10714_191)">
<path d="M77.3746 23.3173C77.3856 23.5888 77.242 29.1202 77.1308 29.3683H72.1008C72.0034 29.1161 71.9517 22.7385 71.9483 22.4683C71.9483 15.7569 66.4889 10.3162 59.7544 10.3162C53.0199 10.3162 47.5605 15.7569 47.5605 22.4683C47.6067 22.7295 47.6067 29.107 47.5606 29.3683H42.4086C42.3625 29.107 42.3624 22.7295 42.4086 22.4683C42.8 13.1286 50.5116 5.75781 59.8916 5.75781C69.2716 5.75781 76.9832 13.1286 77.3746 22.4683V23.3173Z" fill="url(#paint1_linear_10714_191)"/>
<path d="M77.2746 23.3173H77.2746V22.4704C76.8844 13.1856 69.2176 5.85781 59.8916 5.85781C50.5649 5.85781 42.8977 13.1867 42.5085 22.4724L42.5079 22.4858L42.5071 22.4856C42.5071 22.4856 42.507 22.4858 42.507 22.4863L42.5067 22.4881L42.506 22.4948C42.5054 22.5005 42.5048 22.5079 42.5042 22.5171C42.5029 22.5356 42.5016 22.5599 42.5004 22.5901C42.4979 22.6502 42.4956 22.7315 42.4934 22.8312C42.4891 23.0305 42.4855 23.3016 42.4826 23.6208C42.4769 24.2591 42.474 25.0886 42.474 25.9183C42.474 26.7479 42.4769 27.5775 42.4827 28.2158C42.4855 28.535 42.4892 28.8061 42.4935 29.0054C42.4956 29.105 42.498 29.1863 42.5004 29.2465C42.5008 29.2541 42.5011 29.2614 42.5014 29.2683H47.4678C47.4681 29.2614 47.4684 29.2541 47.4688 29.2465C47.4712 29.1863 47.4736 29.105 47.4757 29.0054C47.48 28.8061 47.4836 28.535 47.4865 28.2158C47.4923 27.5775 47.4952 26.7479 47.4951 25.9183C47.4951 25.0886 47.4923 24.2591 47.4865 23.6208C47.4836 23.3016 47.48 23.0305 47.4757 22.8312C47.4735 22.7315 47.4712 22.6502 47.4687 22.5901C47.4675 22.5599 47.4662 22.5356 47.4649 22.5171C47.4643 22.5079 47.4637 22.5005 47.4631 22.4948L47.4624 22.4881L47.4621 22.4863C47.4621 22.4858 47.462 22.4856 47.462 22.4856L47.4605 22.477V22.4683C47.4605 15.7013 52.965 10.2162 59.7544 10.2162C66.5436 10.2162 72.048 15.701 72.0483 22.4676M77.2746 23.3173L71.9483 22.4683M77.2746 23.3173L77.2747 23.3214C77.28 23.4524 77.2471 24.8978 77.1986 26.3483C77.1744 27.0719 77.1464 27.7944 77.1175 28.3512C77.103 28.6297 77.0884 28.866 77.074 29.04C77.0667 29.1271 77.0597 29.1975 77.0528 29.2494C77.0519 29.2561 77.0511 29.2624 77.0502 29.2683M77.2746 23.3173L77.0502 29.2683M72.0483 22.4676C72.0483 22.4678 72.0483 22.468 72.0483 22.4683H71.9483M72.0483 22.4676C72.0483 22.4674 72.0483 22.4672 72.0483 22.467L71.9483 22.4683M72.0483 22.4676C72.0486 22.4915 72.0493 22.5597 72.0503 22.6646C72.0551 23.174 72.0682 24.5491 72.0893 25.9235C72.102 26.7532 72.1177 27.582 72.1363 28.2189C72.1456 28.5374 72.1556 28.8073 72.1662 29.0051C72.1716 29.1041 72.1771 29.1841 72.1826 29.2428C72.1835 29.2519 72.1843 29.2604 72.1852 29.2683M71.9483 22.4683C71.9486 22.4915 71.9493 22.5597 71.9503 22.6651C71.9609 23.7884 72.0117 29.1378 72.1008 29.3683M72.1852 29.2683H72.1008V29.3683M72.1852 29.2683H77.0502M72.1852 29.2683C72.187 29.2859 72.1889 29.3004 72.1906 29.3121C72.193 29.3276 72.1946 29.3333 72.1945 29.3333C72.1945 29.3334 72.1943 29.333 72.1941 29.3323L72.1008 29.3683M72.1008 29.3683L77.0502 29.2683" stroke="url(#paint2_linear_10714_191)" stroke-opacity="0.5" stroke-width="0.2"/>
</g>
<g filter="url(#filter2_b_10714_191)">
<path d="M23.4014 42.2406C23.4014 31.5495 31.8644 22.834 42.2921 22.834H78.1088C88.5365 22.834 96.9995 31.5495 96.9995 42.2406V63.6228C96.9995 74.3139 88.5365 82.9908 78.1088 82.9908H42.2921C31.8644 82.9908 23.4014 74.3139 23.4014 63.6228V42.2406Z" fill="#FFAC95" fill-opacity="0.4"/>
<path d="M42.2921 22.334C31.5753 22.334 22.9014 31.2866 22.9014 42.2406V63.6228C22.9014 74.5782 31.5766 83.4908 42.2921 83.4908H78.1088C88.8243 83.4908 97.4995 74.5782 97.4995 63.6228V42.2406C97.4995 31.2866 88.8256 22.334 78.1088 22.334H42.2921Z" stroke="url(#paint3_linear_10714_191)" stroke-linecap="round" stroke-linejoin="round"/>
</g>
<g filter="url(#filter3_bd_10714_191)">
<mask id="path-7-inside-1_10714_191" fill="white">
<path fill-rule="evenodd" clip-rule="evenodd" d="M45.5045 39.7783C47.0913 39.7783 48.3381 38.4613 48.3381 36.8732V32.3798C48.3381 30.7916 47.0913 29.4746 45.5045 29.4746C43.9555 29.4746 42.6709 30.7916 42.6709 32.3798V36.8732C42.6709 38.4613 43.9555 39.7783 45.5045 39.7783ZM74.5602 39.7786C76.147 39.7786 77.3938 38.4616 77.3938 36.8734V32.3801C77.3938 30.7919 76.147 29.4749 74.5602 29.4749C73.0112 29.4749 71.7266 30.7919 71.7266 32.3801V36.8734C71.7266 38.4616 73.0112 39.7786 74.5602 39.7786Z"/>
</mask>
<path fill-rule="evenodd" clip-rule="evenodd" d="M45.5045 39.7783C47.0913 39.7783 48.3381 38.4613 48.3381 36.8732V32.3798C48.3381 30.7916 47.0913 29.4746 45.5045 29.4746C43.9555 29.4746 42.6709 30.7916 42.6709 32.3798V36.8732C42.6709 38.4613 43.9555 39.7783 45.5045 39.7783ZM74.5602 39.7786C76.147 39.7786 77.3938 38.4616 77.3938 36.8734V32.3801C77.3938 30.7919 76.147 29.4749 74.5602 29.4749C73.0112 29.4749 71.7266 30.7919 71.7266 32.3801V36.8734C71.7266 38.4616 73.0112 39.7786 74.5602 39.7786Z" fill="url(#paint4_linear_10714_191)"/>
<path d="M48.1381 36.8732C48.1381 38.3574 46.9745 39.5783 45.5045 39.5783V39.9783C47.2082 39.9783 48.5381 38.5653 48.5381 36.8732H48.1381ZM48.1381 32.3798V36.8732H48.5381V32.3798H48.1381ZM45.5045 29.6746C46.9745 29.6746 48.1381 30.8956 48.1381 32.3798H48.5381C48.5381 30.6877 47.2082 29.2746 45.5045 29.2746V29.6746ZM42.8709 32.3798C42.8709 30.8974 44.0706 29.6746 45.5045 29.6746V29.2746C43.8403 29.2746 42.4709 30.6859 42.4709 32.3798H42.8709ZM42.8709 36.8732V32.3798H42.4709V36.8732H42.8709ZM45.5045 39.5783C44.0706 39.5783 42.8709 38.3556 42.8709 36.8732H42.4709C42.4709 38.567 43.8403 39.9783 45.5045 39.9783V39.5783ZM77.1938 36.8734C77.1938 38.3576 76.0302 39.5786 74.5602 39.5786V39.9786C76.2639 39.9786 77.5938 38.5656 77.5938 36.8734H77.1938ZM77.1938 32.3801V36.8734H77.5938V32.3801H77.1938ZM74.5602 29.6749C76.0302 29.6749 77.1938 30.8959 77.1938 32.3801H77.5938C77.5938 30.688 76.2639 29.2749 74.5602 29.2749V29.6749ZM71.9266 32.3801C71.9266 30.8976 73.1263 29.6749 74.5602 29.6749V29.2749C72.896 29.2749 71.5266 30.6862 71.5266 32.3801H71.9266ZM71.9266 36.8734V32.3801H71.5266V36.8734H71.9266ZM74.5602 39.5786C73.1263 39.5786 71.9266 38.3559 71.9266 36.8734H71.5266C71.5266 38.5673 72.896 39.9786 74.5602 39.9786V39.5786Z" fill="url(#paint5_linear_10714_191)" fill-opacity="0.5" mask="url(#path-7-inside-1_10714_191)"/>
</g>
<defs>
<filter id="filter0_f_10714_191" x="0.651367" y="5.79492" width="67" height="64" filterUnits="userSpaceOnUse" color-interpolation-filters="sRGB">
<feFlood flood-opacity="0" result="BackgroundImageFix"/>
<feBlend mode="normal" in="SourceGraphic" in2="BackgroundImageFix" result="shape"/>
<feGaussianBlur stdDeviation="8.5" result="effect1_foregroundBlur_10714_191"/>
</filter>
<filter id="filter1_bd_10714_191" x="27.374" y="-9.24219" width="65.0012" height="53.6105" filterUnits="userSpaceOnUse" color-interpolation-filters="sRGB">
<feFlood flood-opacity="0" result="BackgroundImageFix"/>
<feGaussianBlur in="BackgroundImage" stdDeviation="7.5"/>
<feComposite in2="SourceAlpha" operator="in" result="effect1_backgroundBlur_10714_191"/>
<feColorMatrix in="SourceAlpha" type="matrix" values="0 0 0 0 0 0 0 0 0 0 0 0 0 0 0 0 0 0 127 0" result="hardAlpha"/>
<feOffset dx="5" dy="5"/>
<feGaussianBlur stdDeviation="5"/>
<feColorMatrix type="matrix" values="0 0 0 0 1 0 0 0 0 0.447059 0 0 0 0 0.368627 0 0 0 0.5 0"/>
<feBlend mode="normal" in2="effect1_backgroundBlur_10714_191" result="effect2_dropShadow_10714_191"/>
<feBlend mode="normal" in="SourceGraphic" in2="effect2_dropShadow_10714_191" result="shape"/>
</filter>
<filter id="filter2_b_10714_191" x="7.40137" y="6.83398" width="105.598" height="92.1568" filterUnits="userSpaceOnUse" color-interpolation-filters="sRGB">
<feFlood flood-opacity="0" result="BackgroundImageFix"/>
<feGaussianBlur in="BackgroundImage" stdDeviation="7.5"/>
<feComposite in2="SourceAlpha" operator="in" result="effect1_backgroundBlur_10714_191"/>
<feBlend mode="normal" in="SourceGraphic" in2="effect1_backgroundBlur_10714_191" result="shape"/>
</filter>
<filter id="filter3_bd_10714_191" x="27.6709" y="14.4746" width="64.7229" height="40.304" filterUnits="userSpaceOnUse" color-interpolation-filters="sRGB">
<feFlood flood-opacity="0" result="BackgroundImageFix"/>
<feGaussianBlur in="BackgroundImage" stdDeviation="7.5"/>
<feComposite in2="SourceAlpha" operator="in" result="effect1_backgroundBlur_10714_191"/>
<feColorMatrix in="SourceAlpha" type="matrix" values="0 0 0 0 0 0 0 0 0 0 0 0 0 0 0 0 0 0 127 0" result="hardAlpha"/>
<feOffset dx="5" dy="5"/>
<feGaussianBlur stdDeviation="5"/>
<feColorMatrix type="matrix" values="0 0 0 0 1 0 0 0 0 0.447059 0 0 0 0 0.368627 0 0 0 0.5 0"/>
<feBlend mode="normal" in2="effect1_backgroundBlur_10714_191" result="effect2_dropShadow_10714_191"/>
<feBlend mode="normal" in="SourceGraphic" in2="effect2_dropShadow_10714_191" result="shape"/>
</filter>
<linearGradient id="paint0_linear_10714_191" x1="38.5091" y1="34.8635" x2="-13.7964" y2="59.024" gradientUnits="userSpaceOnUse">
<stop stop-color="#FFA78F"/>
<stop offset="1" stop-color="#F23E2C"/>
</linearGradient>
<linearGradient id="paint1_linear_10714_191" x1="74.8937" y1="10.0214" x2="35.9552" y2="11.9035" gradientUnits="userSpaceOnUse">
<stop stop-color="white"/>
<stop offset="1" stop-color="white" stop-opacity="0.2"/>
</linearGradient>
<linearGradient id="paint2_linear_10714_191" x1="75.8755" y1="18.0625" x2="41.9171" y2="20.1597" gradientUnits="userSpaceOnUse">
<stop stop-color="white"/>
<stop offset="1" stop-color="white" stop-opacity="0"/>
</linearGradient>
<linearGradient id="paint3_linear_10714_191" x1="35.117" y1="29.8423" x2="71.21" y2="84.5326" gradientUnits="userSpaceOnUse">
<stop stop-color="white" stop-opacity="0.25"/>
<stop offset="1" stop-color="white" stop-opacity="0"/>
</linearGradient>
<linearGradient id="paint4_linear_10714_191" x1="74.932" y1="31.3353" x2="36.6747" y2="35.5387" gradientUnits="userSpaceOnUse">
<stop stop-color="white"/>
<stop offset="1" stop-color="white" stop-opacity="0.2"/>
</linearGradient>
<linearGradient id="paint5_linear_10714_191" x1="75.906" y1="34.8446" x2="42.7427" y2="39.5002" gradientUnits="userSpaceOnUse">
<stop stop-color="white"/>
<stop offset="1" stop-color="white" stop-opacity="0"/>
</linearGradient>
</defs>
</svg>
