<svg width="100%" height="100%" viewBox="0 0 106 98" fill="none" xmlns="http://www.w3.org/2000/svg">
<path fill-rule="evenodd" clip-rule="evenodd" d="M74.0459 17.3158C72.545 15.5531 71.0441 14.7483 68.7553 14.7483H18.0816C16.8809 14.7483 15.9053 13.8286 15.7927 12.5985L15.0798 4.01442C14.9672 2.71149 14.0292 1.64232 12.7534 1.40856L3.80437 0.0328136C2.26596 -0.200948 0.802596 0.837566 0.539941 2.40492C0.277285 3.93778 1.32791 5.43232 2.82879 5.70057C6.167 6.28761 8.68928 9.05227 8.96841 12.4302L11.9467 48.4713C12.3594 53.5297 16.4869 57.4347 21.4773 57.4347H62.414C67.1793 57.4347 71.2317 53.8746 71.9071 49.0423L75.4717 23.9033C75.8094 21.6079 75.5468 19.0786 74.0459 17.3158Z" fill="url(#paint0_linear_10714_163)"/>
<g filter="url(#filter0_f_10714_163)">
<rect x="18.3444" y="25" width="45" height="27" rx="5" fill="#2AA42B" fill-opacity="0.5"/>
</g>
<g filter="url(#filter1_b_10714_163)">
<mask id="path-3-outside-1_10714_163" maskUnits="userSpaceOnUse" x="22" y="14.168" width="84" height="84" fill="black">
<rect fill="white" x="22" y="14.168" width="84" height="84"/>
<path fill-rule="evenodd" clip-rule="evenodd" d="M30.779 31.2052C28.2901 31.2052 26.658 32.0803 25.026 33.9972C23.3939 35.914 23.1083 38.6643 23.4755 41.1604L27.3516 68.4964C28.0861 73.7511 32.4926 77.6223 37.6744 77.6223H82.1889C87.6155 77.6223 92.1037 73.3761 92.5525 67.8755L96.3062 22.4502L102.467 21.3668C104.099 21.0751 105.242 19.4499 104.956 17.7831C104.671 16.0787 103.079 14.9495 101.406 15.2037L91.6753 16.6996C90.288 16.9538 89.268 18.1164 89.1456 19.5332L88.3703 28.8675C88.2479 30.2051 87.1871 31.2052 85.8815 31.2052H30.779ZM82.8431 84.209C86.2704 84.209 89.0449 87.0426 89.0449 90.5429C89.0449 94.0016 86.2704 96.8352 82.8431 96.8352C79.4566 96.8352 76.6821 94.0016 76.6821 90.5429C76.6821 87.0426 79.4566 84.209 82.8431 84.209ZM36.9417 84.209C40.369 84.209 43.1436 87.0426 43.1436 90.5429C43.1436 94.0016 40.369 96.8352 36.9417 96.8352C33.5552 96.8352 30.7807 94.0016 30.7807 90.5429C30.7807 87.0426 33.5552 84.209 36.9417 84.209Z"/>
</mask>
<path fill-rule="evenodd" clip-rule="evenodd" d="M30.779 31.2052C28.2901 31.2052 26.658 32.0803 25.026 33.9972C23.3939 35.914 23.1083 38.6643 23.4755 41.1604L27.3516 68.4964C28.0861 73.7511 32.4926 77.6223 37.6744 77.6223H82.1889C87.6155 77.6223 92.1037 73.3761 92.5525 67.8755L96.3062 22.4502L102.467 21.3668C104.099 21.0751 105.242 19.4499 104.956 17.7831C104.671 16.0787 103.079 14.9495 101.406 15.2037L91.6753 16.6996C90.288 16.9538 89.268 18.1164 89.1456 19.5332L88.3703 28.8675C88.2479 30.2051 87.1871 31.2052 85.8815 31.2052H30.779ZM82.8431 84.209C86.2704 84.209 89.0449 87.0426 89.0449 90.5429C89.0449 94.0016 86.2704 96.8352 82.8431 96.8352C79.4566 96.8352 76.6821 94.0016 76.6821 90.5429C76.6821 87.0426 79.4566 84.209 82.8431 84.209ZM36.9417 84.209C40.369 84.209 43.1436 87.0426 43.1436 90.5429C43.1436 94.0016 40.369 96.8352 36.9417 96.8352C33.5552 96.8352 30.7807 94.0016 30.7807 90.5429C30.7807 87.0426 33.5552 84.209 36.9417 84.209Z" fill="#72DC60" fill-opacity="0.35"/>
<path d="M25.026 33.9972L25.7874 34.6455V34.6455L25.026 33.9972ZM23.4755 41.1604L24.4649 41.0148L24.4656 41.02L23.4755 41.1604ZM27.3516 68.4964L28.3417 68.356L28.342 68.358L27.3516 68.4964ZM92.5525 67.8755L91.5558 67.7942L91.5559 67.7932L92.5525 67.8755ZM96.3062 22.4502L95.3096 22.3678C95.3471 21.9148 95.6854 21.544 96.133 21.4653L96.3062 22.4502ZM102.467 21.3668L102.643 22.3512L102.64 22.3516L102.467 21.3668ZM104.956 17.7831L103.971 17.952L103.97 17.9483L104.956 17.7831ZM101.406 15.2037L101.254 14.2153L101.256 14.215L101.406 15.2037ZM91.6753 16.6996L91.495 15.716C91.5044 15.7143 91.5139 15.7127 91.5233 15.7112L91.6753 16.6996ZM89.1456 19.5332L88.149 19.4505L88.1493 19.4472L89.1456 19.5332ZM88.3703 28.8675L89.367 28.9503L89.3662 28.9586L88.3703 28.8675ZM24.2646 33.3489C25.1377 32.3234 26.056 31.5232 27.1364 30.9867C28.2231 30.4472 29.4112 30.2052 30.779 30.2052V32.2052C29.6579 32.2052 28.7855 32.4009 28.0259 32.778C27.2601 33.1583 26.5463 33.7541 25.7874 34.6455L24.2646 33.3489ZM22.4862 41.3059C22.0997 38.6792 22.364 35.5811 24.2646 33.3489L25.7874 34.6455C24.4238 36.2469 24.1169 38.6494 24.4649 41.0148L22.4862 41.3059ZM26.3615 68.6368L22.4854 41.3008L24.4656 41.02L28.3417 68.356L26.3615 68.6368ZM37.6744 78.6223C31.9815 78.6223 27.163 74.3712 26.3613 68.6348L28.342 68.358C29.0091 73.1311 33.0038 76.6223 37.6744 76.6223V78.6223ZM82.1889 78.6223H37.6744V76.6223H82.1889V78.6223ZM93.5492 67.9568C93.0596 73.9565 88.156 78.6223 82.1889 78.6223V76.6223C87.075 76.6223 91.1477 72.7956 91.5558 67.7942L93.5492 67.9568ZM97.3028 22.5326L93.5491 67.9579L91.5559 67.7932L95.3096 22.3678L97.3028 22.5326ZM102.64 22.3516L96.4794 23.4351L96.133 21.4653L102.294 20.3819L102.64 22.3516ZM105.942 17.6142C106.319 19.8165 104.822 21.9617 102.643 22.3512L102.291 20.3824C103.376 20.1884 104.164 19.0833 103.971 17.952L105.942 17.6142ZM101.256 14.215C103.465 13.8793 105.566 15.3709 105.942 17.6178L103.97 17.9483C103.775 16.7866 102.693 16.0196 101.557 16.1923L101.256 14.215ZM91.5233 15.7112L101.254 14.2153L101.558 16.192L91.8272 17.688L91.5233 15.7112ZM88.1493 19.4472C88.3088 17.601 89.6457 16.0549 91.495 15.716L91.8555 17.6833C90.9304 17.8528 90.2272 18.6319 90.1419 19.6193L88.1493 19.4472ZM87.3738 28.7847L88.149 19.4505L90.1421 19.616L89.3669 28.9503L87.3738 28.7847ZM85.8815 30.2052C86.6435 30.2052 87.2967 29.6261 87.3745 28.7764L89.3662 28.9586C89.1991 30.7841 87.7307 32.2052 85.8815 32.2052V30.2052ZM30.779 30.2052H85.8815V32.2052H30.779V30.2052ZM88.0449 90.5429C88.0449 87.5749 85.6984 85.209 82.8431 85.209V83.209C86.8425 83.209 90.0449 86.5103 90.0449 90.5429H88.0449ZM82.8431 95.8352C85.7026 95.8352 88.0449 93.465 88.0449 90.5429H90.0449C90.0449 94.5383 86.8382 97.8352 82.8431 97.8352V95.8352ZM77.6821 90.5429C77.6821 93.4693 80.0286 95.8352 82.8431 95.8352V97.8352C78.8845 97.8352 75.6821 94.5339 75.6821 90.5429H77.6821ZM82.8431 85.209C80.0329 85.209 77.6821 87.5706 77.6821 90.5429H75.6821C75.6821 86.5146 78.8803 83.209 82.8431 83.209V85.209ZM42.1436 90.5429C42.1436 87.5749 39.797 85.209 36.9417 85.209V83.209C40.9411 83.209 44.1436 86.5103 44.1436 90.5429H42.1436ZM36.9417 95.8352C39.8012 95.8352 42.1436 93.465 42.1436 90.5429H44.1436C44.1436 94.5383 40.9369 97.8352 36.9417 97.8352V95.8352ZM31.7807 90.5429C31.7807 93.4693 34.1273 95.8352 36.9417 95.8352V97.8352C32.9831 97.8352 29.7807 94.5339 29.7807 90.5429H31.7807ZM36.9417 85.209C34.1315 85.209 31.7807 87.5706 31.7807 90.5429H29.7807C29.7807 86.5146 32.9789 83.209 36.9417 83.209V85.209Z" fill="url(#paint1_linear_10714_163)" mask="url(#path-3-outside-1_10714_163)"/>
</g>
<g filter="url(#filter2_bd_10714_163)">
<mask id="path-5-inside-2_10714_163" fill="white">
<path fill-rule="evenodd" clip-rule="evenodd" d="M44.2023 52.8678H55.5043C57.218 52.8678 58.5645 51.451 58.5645 49.7425C58.5645 47.9923 57.218 46.6172 55.5043 46.6172H44.2023C42.4887 46.6172 41.1422 47.9923 41.1422 49.7425C41.1422 51.451 42.4887 52.8678 44.2023 52.8678Z"/>
</mask>
<path fill-rule="evenodd" clip-rule="evenodd" d="M44.2023 52.8678H55.5043C57.218 52.8678 58.5645 51.451 58.5645 49.7425C58.5645 47.9923 57.218 46.6172 55.5043 46.6172H44.2023C42.4887 46.6172 41.1422 47.9923 41.1422 49.7425C41.1422 51.451 42.4887 52.8678 44.2023 52.8678Z" fill="url(#paint2_linear_10714_163)"/>
<path d="M44.2023 52.6678H55.5043V53.0678H44.2023V52.6678ZM55.5043 52.6678C57.1019 52.6678 58.3645 51.3463 58.3645 49.7425H58.7645C58.7645 51.5557 57.3341 53.0678 55.5043 53.0678V52.6678ZM58.3645 49.7425C58.3645 48.0988 57.1036 46.8172 55.5043 46.8172V46.4172C57.3324 46.4172 58.7645 47.8859 58.7645 49.7425H58.3645ZM55.5043 46.8172H44.2023V46.4172H55.5043V46.8172ZM44.2023 46.8172C42.6031 46.8172 41.3422 48.0988 41.3422 49.7425H40.9422C40.9422 47.8859 42.3742 46.4172 44.2023 46.4172V46.8172ZM41.3422 49.7425C41.3422 51.3463 42.6048 52.6678 44.2023 52.6678V53.0678C42.3725 53.0678 40.9422 51.5557 40.9422 49.7425H41.3422Z" fill="url(#paint3_linear_10714_163)" fill-opacity="0.5" mask="url(#path-5-inside-2_10714_163)"/>
</g>
<defs>
<filter id="filter0_f_10714_163" x="4.34436" y="11" width="73" height="55" filterUnits="userSpaceOnUse" color-interpolation-filters="sRGB">
<feFlood flood-opacity="0" result="BackgroundImageFix"/>
<feBlend mode="normal" in="SourceGraphic" in2="BackgroundImageFix" result="shape"/>
<feGaussianBlur stdDeviation="7" result="effect1_foregroundBlur_10714_163"/>
</filter>
<filter id="filter1_b_10714_163" x="-1.66626" y="-9.83209" width="131.666" height="131.667" filterUnits="userSpaceOnUse" color-interpolation-filters="sRGB">
<feFlood flood-opacity="0" result="BackgroundImageFix"/>
<feGaussianBlur in="BackgroundImage" stdDeviation="12"/>
<feComposite in2="SourceAlpha" operator="in" result="effect1_backgroundBlur_10714_163"/>
<feBlend mode="normal" in="SourceGraphic" in2="effect1_backgroundBlur_10714_163" result="shape"/>
</filter>
<filter id="filter2_bd_10714_163" x="26.1422" y="31.6172" width="47.4222" height="36.2506" filterUnits="userSpaceOnUse" color-interpolation-filters="sRGB">
<feFlood flood-opacity="0" result="BackgroundImageFix"/>
<feGaussianBlur in="BackgroundImage" stdDeviation="7.5"/>
<feComposite in2="SourceAlpha" operator="in" result="effect1_backgroundBlur_10714_163"/>
<feColorMatrix in="SourceAlpha" type="matrix" values="0 0 0 0 0 0 0 0 0 0 0 0 0 0 0 0 0 0 127 0" result="hardAlpha"/>
<feOffset dx="5" dy="5"/>
<feGaussianBlur stdDeviation="5"/>
<feColorMatrix type="matrix" values="0 0 0 0 0.454902 0 0 0 0 0.870588 0 0 0 0 0.376471 0 0 0 0.5 0"/>
<feBlend mode="normal" in2="effect1_backgroundBlur_10714_163" result="effect2_dropShadow_10714_163"/>
<feBlend mode="normal" in="SourceGraphic" in2="effect2_dropShadow_10714_163" result="shape"/>
</filter>
<linearGradient id="paint0_linear_10714_163" x1="75.6025" y1="0" x2="38.0482" y2="57.4328" gradientUnits="userSpaceOnUse">
<stop stop-color="#9BF763"/>
<stop offset="1" stop-color="#26AB5B"/>
</linearGradient>
<linearGradient id="paint1_linear_10714_163" x1="92" y1="24.6823" x2="39.9049" y2="89.2029" gradientUnits="userSpaceOnUse">
<stop stop-color="white" stop-opacity="0.25"/>
<stop offset="1" stop-color="white" stop-opacity="0"/>
</linearGradient>
<linearGradient id="paint2_linear_10714_163" x1="42.3774" y1="47.7459" x2="61.6457" y2="49.497" gradientUnits="userSpaceOnUse">
<stop stop-color="white"/>
<stop offset="1" stop-color="white" stop-opacity="0.2"/>
</linearGradient>
<linearGradient id="paint3_linear_10714_163" x1="56.6877" y1="48.714" x2="41.8968" y2="48.9415" gradientUnits="userSpaceOnUse">
<stop stop-color="white"/>
<stop offset="1" stop-color="white" stop-opacity="0"/>
</linearGradient>
</defs>
</svg>
