<svg width="100%" height="100%" viewBox="0 0 103 105" fill="none" xmlns="http://www.w3.org/2000/svg">
<path fill-rule="evenodd" clip-rule="evenodd" d="M24.0845 14.9566C23.1425 16.2219 21.1163 20.5307 20.1408 22.7207L87.893 51.1413C88.7734 48.9069 90.4418 44.4083 90.6723 42.8888C92.188 34.2699 88.1808 26.6156 79.9051 22.254L46.3507 8.17872C37.3814 5.26205 29.2013 7.76422 24.0845 14.9566ZM8.1029 51.3825L20.1279 22.7161L87.9062 51.1476L75.7848 80.0438C70.8267 91.8636 60.3382 96.01 48.4342 91.0165L19.3067 78.7981C7.5143 73.8515 3.11158 63.2814 8.1029 51.3825Z" fill="url(#paint0_linear_10714_406)"/>
<g opacity="0.5" filter="url(#filter0_f_10714_406)">
<path d="M64.946 28.4908L46.1541 20.9059C39.3378 18.1546 33.6188 20.8892 30.6196 28.3198L20.4617 53.4862C17.4133 61.0385 19.671 66.8795 26.4873 69.6307L45.2791 77.2157C52.2053 80.0113 57.7729 77.3289 60.8212 69.7765L70.9791 44.6101C73.9783 37.1796 71.8721 31.2865 64.946 28.4908Z" fill="#EB6F0A"/>
</g>
<g filter="url(#filter1_b_10714_406)">
<mask id="path-3-outside-1_10714_406" maskUnits="userSpaceOnUse" x="26.7578" y="27.2734" width="76" height="78" fill="black">
<rect fill="white" x="26.7578" y="27.2734" width="76" height="78"/>
<path fill-rule="evenodd" clip-rule="evenodd" d="M28.4048 43.1368C28.0256 44.668 27.8239 49.4251 27.7715 51.822H101.243C101.191 49.421 100.989 44.6272 100.614 43.1368C98.6776 34.6026 92.0215 29.0942 82.7028 28.2734H46.3159C36.9166 29.0534 30.3412 34.525 28.4048 43.1368ZM27.7578 51.8228V82.9092C27.7578 95.8125 35.9066 103.857 48.6944 103.857H80.2809C93.1898 103.857 101.258 95.9758 101.258 83.1583V51.8228H27.7578ZM44.5393 69.6017C44.62 71.4759 46.1529 72.95 48.0085 72.8643C49.8239 72.7867 51.2761 71.235 51.1954 69.3526C51.1551 67.5192 49.6625 66.0859 47.8472 66.0859C45.9915 66.1717 44.5393 67.7234 44.5393 69.6017ZM61.1193 69.6017C61.2 71.4759 62.7329 72.95 64.5886 72.8643C66.4039 72.7867 67.8561 71.235 67.7755 69.3526C67.7351 67.5192 66.2425 66.0859 64.4272 66.0859C62.5716 66.1717 61.1193 67.7234 61.1193 69.6017ZM77.6992 84.4201C77.6992 86.2984 79.1918 87.8501 81.0474 87.8909C82.9434 87.8909 84.4763 86.3393 84.4763 84.4201C84.4763 82.505 82.9434 80.9534 81.0474 80.9534H81.0071C79.1514 80.9942 77.6588 82.5418 77.6992 84.4201ZM64.5886 87.6868C62.7329 87.7726 61.2 86.2985 61.1193 84.4202C61.1193 82.5418 62.5716 80.9943 64.4272 80.9085C66.2425 80.9085 67.7351 82.3418 67.7755 84.1793C67.8561 86.0576 66.4039 87.6093 64.5886 87.6868ZM47.9682 87.6868C46.1125 87.7726 44.5796 86.2985 44.4989 84.4202C44.4989 82.5418 45.9512 80.9943 47.8068 80.9085C49.6221 80.9085 51.1147 82.3418 51.1551 84.1793C51.2357 86.0576 49.7835 87.6093 47.9682 87.6868ZM81.0472 66.1309C79.1915 66.1717 77.7393 67.6825 77.7393 69.5609V69.6017C77.7796 71.476 79.3126 72.9051 81.1682 72.8643C82.9835 72.8275 84.4358 71.2759 84.3954 69.3975C84.3148 67.5968 82.8625 66.1309 81.0472 66.1309Z"/>
</mask>
<path fill-rule="evenodd" clip-rule="evenodd" d="M28.4048 43.1368C28.0256 44.668 27.8239 49.4251 27.7715 51.822H101.243C101.191 49.421 100.989 44.6272 100.614 43.1368C98.6776 34.6026 92.0215 29.0942 82.7028 28.2734H46.3159C36.9166 29.0534 30.3412 34.525 28.4048 43.1368ZM27.7578 51.8228V82.9092C27.7578 95.8125 35.9066 103.857 48.6944 103.857H80.2809C93.1898 103.857 101.258 95.9758 101.258 83.1583V51.8228H27.7578ZM44.5393 69.6017C44.62 71.4759 46.1529 72.95 48.0085 72.8643C49.8239 72.7867 51.2761 71.235 51.1954 69.3526C51.1551 67.5192 49.6625 66.0859 47.8472 66.0859C45.9915 66.1717 44.5393 67.7234 44.5393 69.6017ZM61.1193 69.6017C61.2 71.4759 62.7329 72.95 64.5886 72.8643C66.4039 72.7867 67.8561 71.235 67.7755 69.3526C67.7351 67.5192 66.2425 66.0859 64.4272 66.0859C62.5716 66.1717 61.1193 67.7234 61.1193 69.6017ZM77.6992 84.4201C77.6992 86.2984 79.1918 87.8501 81.0474 87.8909C82.9434 87.8909 84.4763 86.3393 84.4763 84.4201C84.4763 82.505 82.9434 80.9534 81.0474 80.9534H81.0071C79.1514 80.9942 77.6588 82.5418 77.6992 84.4201ZM64.5886 87.6868C62.7329 87.7726 61.2 86.2985 61.1193 84.4202C61.1193 82.5418 62.5716 80.9943 64.4272 80.9085C66.2425 80.9085 67.7351 82.3418 67.7755 84.1793C67.8561 86.0576 66.4039 87.6093 64.5886 87.6868ZM47.9682 87.6868C46.1125 87.7726 44.5796 86.2985 44.4989 84.4202C44.4989 82.5418 45.9512 80.9943 47.8068 80.9085C49.6221 80.9085 51.1147 82.3418 51.1551 84.1793C51.2357 86.0576 49.7835 87.6093 47.9682 87.6868ZM81.0472 66.1309C79.1915 66.1717 77.7393 67.6825 77.7393 69.5609V69.6017C77.7796 71.476 79.3126 72.9051 81.1682 72.8643C82.9835 72.8275 84.4358 71.2759 84.3954 69.3975C84.3148 67.5968 82.8625 66.1309 81.0472 66.1309Z" fill="#FFCBB9" fill-opacity="0.35"/>
<path d="M27.7715 51.822L26.7717 51.8001C26.7658 52.0691 26.8686 52.3291 27.0567 52.5214C27.2448 52.7136 27.5025 52.822 27.7715 52.822V51.822ZM28.4048 43.1368L29.3755 43.3771C29.3772 43.3702 29.3789 43.3632 29.3805 43.3561L28.4048 43.1368ZM101.243 51.822V52.822C101.512 52.822 101.77 52.7136 101.958 52.5214C102.146 52.3291 102.249 52.0691 102.243 51.8002L101.243 51.822ZM100.614 43.1368L99.6387 43.358C99.6404 43.3657 99.6423 43.3733 99.6442 43.3809L100.614 43.1368ZM82.7028 28.2734L82.7906 27.2773C82.7614 27.2747 82.7321 27.2734 82.7028 27.2734V28.2734ZM46.3159 28.2734V27.2734C46.2883 27.2734 46.2607 27.2746 46.2332 27.2769L46.3159 28.2734ZM27.7578 51.8228V50.8228C27.2055 50.8228 26.7578 51.2705 26.7578 51.8228H27.7578ZM101.258 51.8228H102.258C102.258 51.2705 101.81 50.8228 101.258 50.8228V51.8228ZM48.0085 72.8643L47.9658 71.8652L47.9624 71.8653L48.0085 72.8643ZM44.5393 69.6017H43.5393C43.5393 69.616 43.5396 69.6304 43.5402 69.6447L44.5393 69.6017ZM51.1954 69.3526L50.1957 69.3746C50.1958 69.3815 50.196 69.3885 50.1963 69.3954L51.1954 69.3526ZM47.8472 66.0859V65.0859C47.8318 65.0859 47.8164 65.0863 47.801 65.087L47.8472 66.0859ZM64.5886 72.8643L64.5459 71.8652L64.5424 71.8653L64.5886 72.8643ZM61.1193 69.6017H60.1193C60.1193 69.616 60.1196 69.6304 60.1202 69.6447L61.1193 69.6017ZM67.7755 69.3526L66.7757 69.3746C66.7758 69.3815 66.7761 69.3885 66.7764 69.3954L67.7755 69.3526ZM64.4272 66.0859V65.0859C64.4118 65.0859 64.3964 65.0863 64.381 65.087L64.4272 66.0859ZM81.0474 87.8909L81.0254 88.8907C81.0327 88.8909 81.0401 88.8909 81.0474 88.8909V87.8909ZM77.6992 84.4201H78.6992C78.6992 84.4129 78.6991 84.4058 78.6989 84.3986L77.6992 84.4201ZM81.0071 80.9534V79.9534C80.9997 79.9534 80.9924 79.9534 80.9851 79.9536L81.0071 80.9534ZM61.1193 84.4202H60.1193C60.1193 84.4345 60.1196 84.4488 60.1202 84.4631L61.1193 84.4202ZM64.5886 87.6868L64.5459 86.6878L64.5424 86.6879L64.5886 87.6868ZM64.4272 80.9085V79.9085C64.4118 79.9085 64.3964 79.9089 64.381 79.9096L64.4272 80.9085ZM67.7755 84.1793L66.7757 84.2012C66.7758 84.2082 66.7761 84.2152 66.7764 84.2222L67.7755 84.1793ZM44.4989 84.4202H43.4989C43.4989 84.4345 43.4992 84.4488 43.4998 84.4631L44.4989 84.4202ZM47.9682 87.6868L47.9255 86.6878L47.922 86.6879L47.9682 87.6868ZM47.8068 80.9085V79.9085C47.7914 79.9085 47.776 79.9089 47.7607 79.9096L47.8068 80.9085ZM51.1551 84.1793L50.1553 84.2012C50.1555 84.2082 50.1557 84.2152 50.156 84.2222L51.1551 84.1793ZM81.0472 66.1309V65.1309C81.0399 65.1309 81.0325 65.1309 81.0252 65.1311L81.0472 66.1309ZM77.7393 69.6017H76.7393C76.7393 69.6089 76.7394 69.6161 76.7395 69.6232L77.7393 69.6017ZM81.1682 72.8643L81.148 71.8645L81.1462 71.8645L81.1682 72.8643ZM84.3954 69.3975L85.3952 69.3761C85.395 69.3683 85.3948 69.3605 85.3944 69.3528L84.3954 69.3975ZM28.7712 51.8439C28.7972 50.6559 28.8603 48.8811 28.9637 47.2168C29.0694 45.5151 29.2118 44.0383 29.3755 43.3771L27.4341 42.8964C27.2187 43.7665 27.0706 45.4339 26.9675 47.0928C26.8622 48.789 26.7982 50.5912 26.7717 51.8001L28.7712 51.8439ZM101.243 50.822H27.7715V52.822H101.243V50.822ZM99.6442 43.3809C99.8047 44.0186 99.9461 45.4906 100.051 47.1995C100.154 48.8685 100.217 50.6537 100.243 51.8439L102.243 51.8002C102.217 50.5893 102.153 48.7771 102.048 47.0764C101.945 45.4155 101.798 43.7454 101.584 42.8927L99.6442 43.3809ZM82.6151 29.2696C91.5436 30.056 97.8076 35.2878 99.6387 43.358L101.589 42.9155C99.5476 33.9175 92.4994 28.1324 82.7906 27.2773L82.6151 29.2696ZM46.3159 29.2734H82.7028V27.2734H46.3159V29.2734ZM29.3805 43.3561C31.2127 35.2075 37.396 30.017 46.3986 29.27L46.2332 27.2769C36.4372 28.0897 29.4697 33.8425 27.4292 42.9174L29.3805 43.3561ZM28.7578 82.9092V51.8228H26.7578V82.9092H28.7578ZM48.6944 102.857C42.5127 102.857 37.5507 100.917 34.1366 97.5134C30.7231 94.1108 28.7578 89.147 28.7578 82.9092H26.7578C26.7578 89.5746 28.8669 95.0846 32.7247 98.9299C36.5819 102.775 42.0882 104.857 48.6944 104.857V102.857ZM80.2809 102.857H48.6944V104.857H80.2809V102.857ZM100.258 83.1583C100.258 89.3536 98.3127 94.252 94.9088 97.6013C91.5029 100.953 86.531 102.857 80.2809 102.857V104.857C86.9396 104.857 92.4562 102.82 96.3115 99.0269C100.169 95.2313 102.258 89.7805 102.258 83.1583H100.258ZM100.258 51.8228V83.1583H102.258V51.8228H100.258ZM27.7578 52.8228H101.258V50.8228H27.7578V52.8228ZM47.9624 71.8653C46.6921 71.924 45.5967 70.9129 45.5384 69.5587L43.5402 69.6447C43.6433 72.039 45.6137 73.976 48.0547 73.8632L47.9624 71.8653ZM50.1963 69.3954C50.2534 70.7278 49.2276 71.8113 47.9658 71.8652L48.0512 73.8634C50.4201 73.7621 52.2988 71.7423 52.1945 69.3098L50.1963 69.3954ZM47.8472 67.0859C49.1258 67.0859 50.1674 68.0918 50.1957 69.3746L52.1952 69.3306C52.1427 66.9466 50.1992 65.0859 47.8472 65.0859V67.0859ZM45.5393 69.6017C45.5393 68.2426 46.5864 67.1453 47.8933 67.0849L47.801 65.087C45.3966 65.1981 43.5393 67.2041 43.5393 69.6017H45.5393ZM64.5424 71.8653C63.2721 71.924 62.1767 70.9129 62.1184 69.5587L60.1202 69.6447C60.2233 72.039 62.1937 73.976 64.6347 73.8632L64.5424 71.8653ZM66.7764 69.3954C66.8335 70.7278 65.8076 71.8113 64.5459 71.8652L64.6313 73.8634C67.0001 73.7621 68.8788 71.7423 68.7745 69.3098L66.7764 69.3954ZM64.4272 67.0859C65.7059 67.0859 66.7475 68.0918 66.7757 69.3746L68.7752 69.3306C68.7228 66.9466 66.7792 65.0859 64.4272 65.0859V67.0859ZM62.1193 69.6017C62.1193 68.2426 63.1665 67.1453 64.4734 67.0849L64.381 65.087C61.9767 65.1981 60.1193 67.2041 60.1193 69.6017H62.1193ZM81.0694 86.8912C79.7711 86.8626 78.6992 85.7686 78.6992 84.4201H76.6992C76.6992 86.8283 78.6124 88.8376 81.0254 88.8907L81.0694 86.8912ZM83.4763 84.4201C83.4763 85.7985 82.3797 86.8909 81.0474 86.8909V88.8909C83.5071 88.8909 85.4763 86.8801 85.4763 84.4201H83.4763ZM81.0474 81.9534C82.3805 81.9534 83.4763 83.0466 83.4763 84.4201H85.4763C85.4763 81.9635 83.5063 79.9534 81.0474 79.9534V81.9534ZM81.0071 81.9534H81.0474V79.9534H81.0071V81.9534ZM78.6989 84.3986C78.6705 83.0722 79.7255 81.9818 81.0291 81.9531L80.9851 79.9536C78.5774 80.0066 76.6472 82.0114 76.6994 84.4416L78.6989 84.3986ZM60.1202 84.4631C60.2232 86.8607 62.193 88.7986 64.6347 88.6858L64.5424 86.6879C63.2729 86.7466 62.1768 85.7363 62.1184 84.3773L60.1202 84.4631ZM64.381 79.9096C61.9781 80.0206 60.1193 82.0211 60.1193 84.4202H62.1193C62.1193 83.0626 63.165 81.9679 64.4734 81.9074L64.381 79.9096ZM68.7752 84.1573C68.7228 81.77 66.78 79.9085 64.4272 79.9085V81.9085C65.7051 81.9085 66.7474 82.9136 66.7757 84.2012L68.7752 84.1573ZM64.6313 88.6859C66.9993 88.5847 68.8789 86.5657 68.7745 84.1363L66.7764 84.2222C66.8334 85.5495 65.8084 86.6338 64.5459 86.6878L64.6313 88.6859ZM43.4998 84.4631C43.6028 86.8607 45.5726 88.7986 48.0143 88.6858L47.922 86.6879C46.6525 86.7466 45.5564 85.7363 45.498 84.3773L43.4998 84.4631ZM47.7607 79.9096C45.3577 80.0206 43.4989 82.0211 43.4989 84.4202H45.4989C45.4989 83.0626 46.5446 81.9679 47.853 81.9074L47.7607 79.9096ZM52.1548 84.1573C52.1024 81.77 50.1596 79.9085 47.8068 79.9085V81.9085C49.0847 81.9085 50.127 82.9136 50.1553 84.2012L52.1548 84.1573ZM48.0109 88.6859C50.3789 88.5847 52.2585 86.5657 52.1541 84.1363L50.156 84.2222C50.213 85.5495 49.188 86.6338 47.9255 86.6878L48.0109 88.6859ZM78.7393 69.5609C78.7393 68.212 79.7713 67.1592 81.0692 67.1306L81.0252 65.1311C78.6118 65.1842 76.7393 67.1531 76.7393 69.5609H78.7393ZM78.7393 69.6017V69.5609H76.7393V69.6017H78.7393ZM81.1462 71.8645C79.8312 71.8935 78.7673 70.8904 78.7391 69.5802L76.7395 69.6232C76.792 72.0615 78.794 73.9168 81.1902 73.864L81.1462 71.8645ZM83.3957 69.419C83.4247 70.7714 82.3843 71.8395 81.148 71.8645L81.1885 73.8641C83.5828 73.8156 85.4468 71.7803 85.3952 69.3761L83.3957 69.419ZM81.0472 67.1309C82.2997 67.1309 83.3384 68.1475 83.3964 69.4423L85.3944 69.3528C85.2911 67.046 83.4253 65.1309 81.0472 65.1309V67.1309Z" fill="url(#paint1_linear_10714_406)" mask="url(#path-3-outside-1_10714_406)"/>
</g>
<g filter="url(#filter2_bd_10714_406)">
<mask id="path-5-inside-2_10714_406" fill="white">
<path fill-rule="evenodd" clip-rule="evenodd" d="M52.5259 37.7878C52.5259 39.5885 51.1947 40.9319 49.4197 40.9319C47.6447 40.9319 46.3135 39.5885 46.3135 37.7878V25.3377C46.3135 23.537 47.6447 22.1895 49.4197 22.1895C51.1947 22.1895 52.5259 23.537 52.5259 25.3377V37.7878ZM82.7017 37.7878C82.7017 39.5885 81.3301 40.9319 79.5955 40.9319C77.8205 40.9319 76.4893 39.5885 76.4893 37.7878V25.3377C76.4893 23.537 77.8205 22.1895 79.5955 22.1895C81.3301 22.1895 82.7017 23.537 82.7017 25.3377V37.7878Z"/>
</mask>
<path fill-rule="evenodd" clip-rule="evenodd" d="M52.5259 37.7878C52.5259 39.5885 51.1947 40.9319 49.4197 40.9319C47.6447 40.9319 46.3135 39.5885 46.3135 37.7878V25.3377C46.3135 23.537 47.6447 22.1895 49.4197 22.1895C51.1947 22.1895 52.5259 23.537 52.5259 25.3377V37.7878ZM82.7017 37.7878C82.7017 39.5885 81.3301 40.9319 79.5955 40.9319C77.8205 40.9319 76.4893 39.5885 76.4893 37.7878V25.3377C76.4893 23.537 77.8205 22.1895 79.5955 22.1895C81.3301 22.1895 82.7017 23.537 82.7017 25.3377V37.7878Z" fill="url(#paint2_linear_10714_406)"/>
<path d="M49.4197 41.3319C51.4198 41.3319 52.9259 39.8052 52.9259 37.7878H52.1259C52.1259 39.3719 50.9695 40.5319 49.4197 40.5319V41.3319ZM45.9135 37.7878C45.9135 39.8052 47.4196 41.3319 49.4197 41.3319V40.5319C47.8698 40.5319 46.7135 39.3719 46.7135 37.7878H45.9135ZM45.9135 25.3377V37.7878H46.7135V25.3377H45.9135ZM49.4197 21.7895C47.4189 21.7895 45.9135 23.321 45.9135 25.3377H46.7135C46.7135 23.7529 47.8705 22.5895 49.4197 22.5895V21.7895ZM52.9259 25.3377C52.9259 23.321 51.4205 21.7895 49.4197 21.7895V22.5895C50.9688 22.5895 52.1259 23.7529 52.1259 25.3377H52.9259ZM52.9259 37.7878V25.3377H52.1259V37.7878H52.9259ZM79.5955 41.3319C81.5518 41.3319 83.1017 39.8086 83.1017 37.7878H82.3017C82.3017 39.3684 81.1084 40.5319 79.5955 40.5319V41.3319ZM76.0893 37.7878C76.0893 39.8052 77.5953 41.3319 79.5955 41.3319V40.5319C78.0456 40.5319 76.8893 39.3719 76.8893 37.7878H76.0893ZM76.0893 25.3377V37.7878H76.8893V25.3377H76.0893ZM79.5955 21.7895C77.5947 21.7895 76.0893 23.321 76.0893 25.3377H76.8893C76.8893 23.7529 78.0463 22.5895 79.5955 22.5895V21.7895ZM83.1017 25.3377C83.1017 23.3176 81.5525 21.7895 79.5955 21.7895V22.5895C81.1077 22.5895 82.3017 23.7564 82.3017 25.3377H83.1017ZM83.1017 37.7878V25.3377H82.3017V37.7878H83.1017Z" fill="url(#paint3_linear_10714_406)" mask="url(#path-5-inside-2_10714_406)"/>
</g>
<g filter="url(#filter3_bd_10714_406)">
<mask id="path-7-inside-3_10714_406" fill="white">
<path fill-rule="evenodd" clip-rule="evenodd" d="M44.5764 69.6388C44.6571 71.5131 46.19 72.9871 48.0457 72.9014C49.861 72.8238 51.3132 71.2721 51.2326 69.3897C51.1922 67.5563 49.6996 66.123 47.8843 66.123C46.0287 66.2088 44.5764 67.7605 44.5764 69.6388ZM61.1556 69.6388C61.2362 71.5131 62.7692 72.9871 64.6248 72.9014C66.4401 72.8238 67.8924 71.2721 67.8117 69.3897C67.7714 67.5563 66.2788 66.123 64.4635 66.123C62.6078 66.2088 61.1556 67.7605 61.1556 69.6388ZM77.7354 84.457C77.7354 86.3354 79.228 87.887 81.0837 87.9279C82.9796 87.9279 84.5126 86.3762 84.5126 84.457C84.5126 82.542 82.9796 80.9903 81.0837 80.9903H81.0433C79.1877 81.0311 77.6951 82.5787 77.7354 84.457ZM64.6248 87.724C62.7692 87.8098 61.2362 86.3357 61.1556 84.4573C61.1556 82.579 62.6078 81.0314 64.4635 80.9457C66.2788 80.9457 67.7714 82.3789 67.8117 84.2164C67.8924 86.0948 66.4401 87.6464 64.6248 87.724ZM48.0044 87.724C46.1488 87.8098 44.6158 86.3357 44.5352 84.4573C44.5352 82.579 45.9874 81.0314 47.8431 80.9457C49.6584 80.9457 51.151 82.3789 51.1913 84.2164C51.272 86.0948 49.8197 87.6464 48.0044 87.724ZM81.0835 66.1681C79.2278 66.2089 77.7756 67.7197 77.7756 69.5981V69.6389C77.8159 71.5131 79.3488 72.9423 81.2045 72.9015C83.0198 72.8647 84.4721 71.3131 84.4317 69.4347C84.351 67.634 82.8988 66.1681 81.0835 66.1681Z"/>
</mask>
<path fill-rule="evenodd" clip-rule="evenodd" d="M44.5764 69.6388C44.6571 71.5131 46.19 72.9871 48.0457 72.9014C49.861 72.8238 51.3132 71.2721 51.2326 69.3897C51.1922 67.5563 49.6996 66.123 47.8843 66.123C46.0287 66.2088 44.5764 67.7605 44.5764 69.6388ZM61.1556 69.6388C61.2362 71.5131 62.7692 72.9871 64.6248 72.9014C66.4401 72.8238 67.8924 71.2721 67.8117 69.3897C67.7714 67.5563 66.2788 66.123 64.4635 66.123C62.6078 66.2088 61.1556 67.7605 61.1556 69.6388ZM77.7354 84.457C77.7354 86.3354 79.228 87.887 81.0837 87.9279C82.9796 87.9279 84.5126 86.3762 84.5126 84.457C84.5126 82.542 82.9796 80.9903 81.0837 80.9903H81.0433C79.1877 81.0311 77.6951 82.5787 77.7354 84.457ZM64.6248 87.724C62.7692 87.8098 61.2362 86.3357 61.1556 84.4573C61.1556 82.579 62.6078 81.0314 64.4635 80.9457C66.2788 80.9457 67.7714 82.3789 67.8117 84.2164C67.8924 86.0948 66.4401 87.6464 64.6248 87.724ZM48.0044 87.724C46.1488 87.8098 44.6158 86.3357 44.5352 84.4573C44.5352 82.579 45.9874 81.0314 47.8431 80.9457C49.6584 80.9457 51.151 82.3789 51.1913 84.2164C51.272 86.0948 49.8197 87.6464 48.0044 87.724ZM81.0835 66.1681C79.2278 66.2089 77.7756 67.7197 77.7756 69.5981V69.6389C77.8159 71.5131 79.3488 72.9423 81.2045 72.9015C83.0198 72.8647 84.4721 71.3131 84.4317 69.4347C84.351 67.634 82.8988 66.1681 81.0835 66.1681Z" fill="url(#paint4_linear_10714_406)"/>
<path d="M48.0457 72.9014L48.0286 72.5017L48.0272 72.5018L48.0457 72.9014ZM44.5764 69.6388H44.1764V69.6474L44.1768 69.656L44.5764 69.6388ZM51.2326 69.3897L50.8326 69.3985L50.8329 69.4068L51.2326 69.3897ZM47.8843 66.123V65.723H47.8751L47.8659 65.7235L47.8843 66.123ZM64.6248 72.9014L64.6077 72.5017L64.6064 72.5018L64.6248 72.9014ZM61.1556 69.6388H60.7556V69.6474L60.7559 69.656L61.1556 69.6388ZM67.8117 69.3897L67.4117 69.3985L67.4121 69.4068L67.8117 69.3897ZM64.4635 66.123V65.723H64.4542L64.445 65.7235L64.4635 66.123ZM81.0837 87.9279L81.0749 88.3279H81.0837V87.9279ZM77.7354 84.457H78.1355L78.1353 84.4484L77.7354 84.457ZM81.0433 80.9903V80.5902L81.0345 80.5904L81.0433 80.9903ZM61.1556 84.4573H60.7556V84.4659L60.7559 84.4745L61.1556 84.4573ZM64.6248 87.724L64.6077 87.3244L64.6064 87.3244L64.6248 87.724ZM64.4635 80.9457V80.5457H64.4542L64.445 80.5461L64.4635 80.9457ZM67.8117 84.2164L67.4117 84.2252L67.4121 84.2336L67.8117 84.2164ZM44.5352 84.4573H44.1352V84.4659L44.1355 84.4745L44.5352 84.4573ZM48.0044 87.724L47.9873 87.3244L47.986 87.3244L48.0044 87.724ZM47.8431 80.9457V80.5457H47.8338L47.8246 80.5461L47.8431 80.9457ZM51.1913 84.2164L50.7913 84.2252L50.7917 84.2336L51.1913 84.2164ZM81.0835 66.1681V65.768L81.0747 65.7682L81.0835 66.1681ZM77.7756 69.6389H77.3755L77.3757 69.6475L77.7756 69.6389ZM81.2045 72.9015L81.1964 72.5016L81.1957 72.5016L81.2045 72.9015ZM84.4317 69.4347L84.8317 69.4261L84.8313 69.4168L84.4317 69.4347ZM48.0272 72.5018C46.4057 72.5767 45.0478 71.2878 44.976 69.6216L44.1768 69.656C44.2664 71.7383 45.9744 73.3975 48.0641 73.301L48.0272 72.5018ZM50.8329 69.4068C50.9042 71.0692 49.6225 72.4336 48.0286 72.5017L48.0628 73.301C50.0995 73.214 51.7223 71.475 51.6322 69.3726L50.8329 69.4068ZM47.8843 66.523C49.485 66.523 50.7972 67.7853 50.8327 69.3985L51.6325 69.3809C51.5873 67.3273 49.9143 65.723 47.8843 65.723V66.523ZM44.9764 69.6388C44.9764 67.9682 46.2666 66.5982 47.9028 66.5226L47.8659 65.7235C45.7907 65.8194 44.1764 67.5528 44.1764 69.6388H44.9764ZM64.6064 72.5018C62.9849 72.5767 61.6269 71.2878 61.5552 69.6216L60.7559 69.656C60.8456 71.7383 62.5535 73.3975 64.6433 73.301L64.6064 72.5018ZM67.4121 69.4068C67.4833 71.0692 66.2016 72.4336 64.6077 72.5017L64.6419 73.301C66.6786 73.214 68.3015 71.475 68.2113 69.3726L67.4121 69.4068ZM64.4635 66.523C66.0641 66.523 67.3763 67.7853 67.4118 69.3985L68.2116 69.3809C68.1664 67.3273 66.4935 65.723 64.4635 65.723V66.523ZM61.5556 69.6388C61.5556 67.9682 62.8458 66.5982 64.4819 66.5226L64.445 65.7235C62.3699 65.8194 60.7556 67.5528 60.7556 69.6388H61.5556ZM81.0925 87.528C79.4597 87.492 78.1354 86.1234 78.1354 84.457H77.3354C77.3354 86.5473 78.9963 88.282 81.0749 88.3278L81.0925 87.528ZM84.1126 84.457C84.1126 86.1599 82.7542 87.5279 81.0837 87.5279V88.3279C83.2051 88.3279 84.9126 86.5925 84.9126 84.457H84.1126ZM81.0837 81.3903C82.7545 81.3903 84.1126 82.7586 84.1126 84.457H84.9126C84.9126 82.3253 83.2048 80.5903 81.0837 80.5903V81.3903ZM81.0433 81.3903H81.0837V80.5903H81.0433V81.3903ZM78.1353 84.4484C78.0997 82.7909 79.4173 81.4262 81.0521 81.3902L81.0345 80.5904C78.958 80.6361 77.2904 82.3665 77.3355 84.4656L78.1353 84.4484ZM60.7559 84.4745C60.8455 86.5606 62.5532 88.2202 64.6433 88.1236L64.6064 87.3244C62.9852 87.3994 61.627 86.1108 61.5552 84.4402L60.7559 84.4745ZM64.445 80.5461C62.3704 80.642 60.7556 82.3707 60.7556 84.4573H61.5556C61.5556 82.7873 62.8452 81.4209 64.4819 81.3453L64.445 80.5461ZM68.2116 84.2077C68.1664 82.1502 66.4938 80.5457 64.4635 80.5457V81.3457C66.0638 81.3457 67.3763 82.6077 67.4118 84.2252L68.2116 84.2077ZM64.6419 88.1237C66.6783 88.0366 68.3015 86.298 68.2113 84.1993L67.4121 84.2336C67.4833 85.8915 66.202 87.2562 64.6077 87.3244L64.6419 88.1237ZM44.1355 84.4745C44.2251 86.5606 45.9328 88.2202 48.0229 88.1236L47.986 87.3244C46.3647 87.3994 45.0065 86.1108 44.9348 84.4402L44.1355 84.4745ZM47.8246 80.5461C45.75 80.642 44.1352 82.3707 44.1352 84.4573H44.9352C44.9352 82.7873 46.2248 81.4209 47.8615 81.3453L47.8246 80.5461ZM51.5912 84.2077C51.546 82.1502 49.8734 80.5457 47.8431 80.5457V81.3457C49.4434 81.3457 50.7559 82.6077 50.7914 84.2252L51.5912 84.2077ZM48.0215 88.1237C50.0579 88.0366 51.6811 86.298 51.5909 84.1993L50.7917 84.2336C50.8629 85.8915 49.5816 87.2562 47.9873 87.3244L48.0215 88.1237ZM78.1756 69.5981C78.1756 67.9315 79.4597 66.6039 81.0923 66.568L81.0747 65.7682C78.9959 65.8139 77.3756 67.508 77.3756 69.5981H78.1756ZM78.1756 69.6389V69.5981H77.3756V69.6389H78.1756ZM81.1957 72.5016C79.5563 72.5376 78.211 71.2789 78.1755 69.6303L77.3757 69.6475C77.4209 71.7474 79.1414 73.347 81.2133 73.3014L81.1957 72.5016ZM84.0318 69.4433C84.0676 71.1113 82.7801 72.4695 81.1964 72.5016L81.2126 73.3014C83.2595 73.26 84.8765 71.5148 84.8316 69.4261L84.0318 69.4433ZM81.0835 66.5681C82.6737 66.5681 83.9605 67.8543 84.0321 69.4526L84.8313 69.4168C84.7416 67.4137 83.1239 65.7681 81.0835 65.7681V66.5681Z" fill="url(#paint5_linear_10714_406)" mask="url(#path-7-inside-3_10714_406)"/>
</g>
<g opacity="0.5" filter="url(#filter4_b_10714_406)">
<path d="M31.5077 52.1296C31.5077 53.8643 32.8511 55.2358 34.6519 55.2358L92.8596 55.2358C94.6603 55.2358 96.0078 53.8643 96.0078 52.1296C96.0078 50.3547 94.6603 49.0234 92.8596 49.0234L34.6519 49.0234C32.8511 49.0234 31.5077 50.3547 31.5077 52.1296Z" fill="url(#paint6_linear_10714_406)" fill-opacity="0.5"/>
</g>
<defs>
<filter id="filter0_f_10714_406" x="0.129883" y="0.858215" width="91.178" height="96.4378" filterUnits="userSpaceOnUse" color-interpolation-filters="sRGB">
<feFlood flood-opacity="0" result="BackgroundImageFix"/>
<feBlend mode="normal" in="SourceGraphic" in2="BackgroundImageFix" result="shape"/>
<feGaussianBlur stdDeviation="9.5" result="effect1_foregroundBlur_10714_406"/>
</filter>
<filter id="filter1_b_10714_406" x="2.75781" y="3.27344" width="123.5" height="125.583" filterUnits="userSpaceOnUse" color-interpolation-filters="sRGB">
<feFlood flood-opacity="0" result="BackgroundImageFix"/>
<feGaussianBlur in="BackgroundImage" stdDeviation="12"/>
<feComposite in2="SourceAlpha" operator="in" result="effect1_backgroundBlur_10714_406"/>
<feBlend mode="normal" in="SourceGraphic" in2="effect1_backgroundBlur_10714_406" result="shape"/>
</filter>
<filter id="filter2_bd_10714_406" x="31.3135" y="7.18945" width="66.3882" height="48.7425" filterUnits="userSpaceOnUse" color-interpolation-filters="sRGB">
<feFlood flood-opacity="0" result="BackgroundImageFix"/>
<feGaussianBlur in="BackgroundImage" stdDeviation="7.5"/>
<feComposite in2="SourceAlpha" operator="in" result="effect1_backgroundBlur_10714_406"/>
<feColorMatrix in="SourceAlpha" type="matrix" values="0 0 0 0 0 0 0 0 0 0 0 0 0 0 0 0 0 0 127 0" result="hardAlpha"/>
<feOffset dx="5" dy="5"/>
<feGaussianBlur stdDeviation="5"/>
<feColorMatrix type="matrix" values="0 0 0 0 1 0 0 0 0 0.537255 0 0 0 0 0.160784 0 0 0 0.2 0"/>
<feBlend mode="normal" in2="effect1_backgroundBlur_10714_406" result="effect2_dropShadow_10714_406"/>
<feBlend mode="normal" in="SourceGraphic" in2="effect2_dropShadow_10714_406" result="shape"/>
</filter>
<filter id="filter3_bd_10714_406" x="29.5352" y="51.123" width="69.9774" height="51.8048" filterUnits="userSpaceOnUse" color-interpolation-filters="sRGB">
<feFlood flood-opacity="0" result="BackgroundImageFix"/>
<feGaussianBlur in="BackgroundImage" stdDeviation="7.5"/>
<feComposite in2="SourceAlpha" operator="in" result="effect1_backgroundBlur_10714_406"/>
<feColorMatrix in="SourceAlpha" type="matrix" values="0 0 0 0 0 0 0 0 0 0 0 0 0 0 0 0 0 0 127 0" result="hardAlpha"/>
<feOffset dx="5" dy="5"/>
<feGaussianBlur stdDeviation="5"/>
<feColorMatrix type="matrix" values="0 0 0 0 1 0 0 0 0 0.52549 0 0 0 0 0.137255 0 0 0 0.5 0"/>
<feBlend mode="normal" in2="effect1_backgroundBlur_10714_406" result="effect2_dropShadow_10714_406"/>
<feBlend mode="normal" in="SourceGraphic" in2="effect2_dropShadow_10714_406" result="shape"/>
</filter>
<filter id="filter4_b_10714_406" x="16.5077" y="34.0234" width="94.5001" height="36.2124" filterUnits="userSpaceOnUse" color-interpolation-filters="sRGB">
<feFlood flood-opacity="0" result="BackgroundImageFix"/>
<feGaussianBlur in="BackgroundImage" stdDeviation="7.5"/>
<feComposite in2="SourceAlpha" operator="in" result="effect1_backgroundBlur_10714_406"/>
<feBlend mode="normal" in="SourceGraphic" in2="effect1_backgroundBlur_10714_406" result="shape"/>
</filter>
<linearGradient id="paint0_linear_10714_406" x1="63.1265" y1="15.2158" x2="33.8891" y2="84.9151" gradientUnits="userSpaceOnUse">
<stop stop-color="#FFB37F"/>
<stop offset="1" stop-color="#FF7B0D"/>
</linearGradient>
<linearGradient id="paint1_linear_10714_406" x1="39.4578" y1="37.079" x2="87.9385" y2="95.4685" gradientUnits="userSpaceOnUse">
<stop stop-color="white" stop-opacity="0.25"/>
<stop offset="1" stop-color="white" stop-opacity="0"/>
</linearGradient>
<linearGradient id="paint2_linear_10714_406" x1="80.5078" y1="38.0234" x2="81.6005" y2="23.946" gradientUnits="userSpaceOnUse">
<stop stop-color="white"/>
<stop offset="1" stop-color="white" stop-opacity="0.2"/>
</linearGradient>
<linearGradient id="paint3_linear_10714_406" x1="79.5078" y1="25.0234" x2="94.3032" y2="30.5728" gradientUnits="userSpaceOnUse">
<stop stop-color="white" stop-opacity="0.25"/>
<stop offset="1" stop-color="white" stop-opacity="0"/>
</linearGradient>
<linearGradient id="paint4_linear_10714_406" x1="81.6782" y1="70.0606" x2="14.2736" y2="65.6194" gradientUnits="userSpaceOnUse">
<stop stop-color="white"/>
<stop offset="1" stop-color="white" stop-opacity="0.2"/>
</linearGradient>
<linearGradient id="paint5_linear_10714_406" x1="50.8989" y1="68.6633" x2="61.3954" y2="92.4981" gradientUnits="userSpaceOnUse">
<stop stop-color="white" stop-opacity="0.25"/>
<stop offset="1" stop-color="white" stop-opacity="0"/>
</linearGradient>
<linearGradient id="paint6_linear_10714_406" x1="48.9165" y1="52.042" x2="46.6039" y2="44.7986" gradientUnits="userSpaceOnUse">
<stop stop-color="white"/>
<stop offset="1" stop-color="white" stop-opacity="0.2"/>
</linearGradient>
</defs>
</svg>
