<svg width="100%" height="100%" viewBox="0 0 110 104" fill="none" xmlns="http://www.w3.org/2000/svg">
<g filter="url(#filter0_b_10714_563)">
<path d="M56.4879 5.49146L20.5286 15.1267C7.42452 18.638 1.98921 28.0512 5.50011 41.154L15.1253 77.0758C18.6362 90.1786 28.0499 95.613 41.154 92.1018L77.1133 82.4665C90.2174 78.9553 95.6185 69.5513 92.1076 56.4484L82.4824 20.5267C78.9715 7.42382 69.592 1.98022 56.4879 5.49146Z" fill="url(#paint0_linear_10714_563)"/>
</g>
<g opacity="0.5" filter="url(#filter1_f_10714_563)">
<path d="M74.2065 52.5673L67.6764 27.8315C65.3078 18.8592 59.3796 14.8361 51.5848 16.8939L25.1848 23.8633C17.2622 25.9548 14.1944 32.3527 16.563 41.325L23.0931 66.0609C25.4999 75.1778 31.2869 79.0803 39.2095 76.9888L65.6096 70.0194C73.4044 67.9616 76.6133 61.6843 74.2065 52.5673Z" fill="#FF624D"/>
</g>
<g filter="url(#filter2_b_10714_563)">
<mask id="path-3-outside-1_10714_563" maskUnits="userSpaceOnUse" x="28.2744" y="21.4375" width="82" height="82" fill="black">
<rect fill="white" x="28.2744" y="21.4375" width="82" height="82"/>
<path d="M87.7495 22.4375H50.5252C36.9601 22.4375 29.2744 30.1232 29.2744 43.6883V80.8772C29.2744 94.4423 36.9601 102.128 50.5252 102.128H87.7495C101.315 102.128 108.965 94.4423 108.965 80.8772V43.6883C108.965 30.1232 101.315 22.4375 87.7495 22.4375Z"/>
</mask>
<path d="M87.7495 22.4375H50.5252C36.9601 22.4375 29.2744 30.1232 29.2744 43.6883V80.8772C29.2744 94.4423 36.9601 102.128 50.5252 102.128H87.7495C101.315 102.128 108.965 94.4423 108.965 80.8772V43.6883C108.965 30.1232 101.315 22.4375 87.7495 22.4375Z" fill="#FFAC95" fill-opacity="0.4"/>
<path d="M87.7495 23.4375C88.3018 23.4375 88.7495 22.9898 88.7495 22.4375C88.7495 21.8852 88.3018 21.4375 87.7495 21.4375V23.4375ZM87.7495 21.4375C87.1972 21.4375 86.7495 21.8852 86.7495 22.4375C86.7495 22.9898 87.1972 23.4375 87.7495 23.4375V21.4375ZM87.7495 21.4375H50.5252V23.4375H87.7495V21.4375ZM50.5252 21.4375C43.5568 21.4375 37.9599 23.4148 34.1058 27.2689C30.2517 31.123 28.2744 36.7198 28.2744 43.6883H30.2744C30.2744 37.0917 32.14 32.0631 35.52 28.6831C38.9001 25.3031 43.9286 23.4375 50.5252 23.4375V21.4375ZM28.2744 43.6883V80.8772H30.2744V43.6883H28.2744ZM28.2744 80.8772C28.2744 87.8456 30.2517 93.4425 34.1058 97.2966C37.9599 101.151 43.5568 103.128 50.5252 103.128V101.128C43.9286 101.128 38.9001 99.2624 35.52 95.8824C32.14 92.5023 30.2744 87.4738 30.2744 80.8772H28.2744ZM50.5252 103.128H87.7495V101.128H50.5252V103.128ZM87.7495 103.128C94.718 103.128 100.307 101.151 104.152 97.2957C107.997 93.4412 109.965 87.8444 109.965 80.8772H107.965C107.965 87.4751 106.107 92.5036 102.736 95.8832C99.3652 99.2625 94.3461 101.128 87.7495 101.128V103.128ZM109.965 80.8772V43.6883H107.965V80.8772H109.965ZM109.965 43.6883C109.965 36.7211 107.997 31.1243 104.152 27.2697C100.307 23.4149 94.718 21.4375 87.7495 21.4375V23.4375C94.3461 23.4375 99.3652 25.303 102.736 28.6822C106.107 32.0618 107.965 37.0904 107.965 43.6883H109.965Z" fill="url(#paint1_linear_10714_563)" mask="url(#path-3-outside-1_10714_563)"/>
</g>
<g filter="url(#filter3_bd_10714_563)">
<mask id="path-5-inside-2_10714_563" fill="white">
<path fill-rule="evenodd" clip-rule="evenodd" d="M69.2606 38.7303C67.4543 38.7303 65.9667 40.2178 65.9667 42.0595V82.5069C65.9667 84.3132 67.4543 85.8008 69.2606 85.8008C71.1023 85.8008 72.5899 84.3132 72.5899 82.5069V42.0595C72.5899 40.2178 71.1023 38.7303 69.2606 38.7303ZM50.6661 51.8007C48.8597 51.8007 47.3722 53.2882 47.3722 55.13V82.5081C47.3722 84.3144 48.8597 85.8019 50.6661 85.8019C52.5078 85.8019 53.9953 84.3144 53.9953 82.5081V55.13C53.9953 53.2882 52.5078 51.8007 50.6661 51.8007ZM84.2783 69.5802C84.2783 67.7385 85.7658 66.2509 87.6076 66.2509C89.4139 66.2509 90.9014 67.7385 90.9014 69.5802V82.5078C90.9014 84.3141 89.4139 85.8016 87.5721 85.8016C85.7658 85.8016 84.2783 84.3141 84.2783 82.5078V69.5802Z"/>
</mask>
<path fill-rule="evenodd" clip-rule="evenodd" d="M69.2606 38.7303C67.4543 38.7303 65.9667 40.2178 65.9667 42.0595V82.5069C65.9667 84.3132 67.4543 85.8008 69.2606 85.8008C71.1023 85.8008 72.5899 84.3132 72.5899 82.5069V42.0595C72.5899 40.2178 71.1023 38.7303 69.2606 38.7303ZM50.6661 51.8007C48.8597 51.8007 47.3722 53.2882 47.3722 55.13V82.5081C47.3722 84.3144 48.8597 85.8019 50.6661 85.8019C52.5078 85.8019 53.9953 84.3144 53.9953 82.5081V55.13C53.9953 53.2882 52.5078 51.8007 50.6661 51.8007ZM84.2783 69.5802C84.2783 67.7385 85.7658 66.2509 87.6076 66.2509C89.4139 66.2509 90.9014 67.7385 90.9014 69.5802V82.5078C90.9014 84.3141 89.4139 85.8016 87.5721 85.8016C85.7658 85.8016 84.2783 84.3141 84.2783 82.5078V69.5802Z" fill="url(#paint2_linear_10714_563)"/>
<path d="M66.3667 42.0595C66.3667 40.4359 67.678 39.1303 69.2606 39.1303V38.3303C67.2306 38.3303 65.5667 39.9997 65.5667 42.0595H66.3667ZM66.3667 82.5069V42.0595H65.5667V82.5069H66.3667ZM69.2606 85.4008C67.6752 85.4008 66.3667 84.0923 66.3667 82.5069H65.5667C65.5667 84.5341 67.2334 86.2008 69.2606 86.2008V85.4008ZM72.1899 82.5069C72.1899 84.0895 70.8842 85.4008 69.2606 85.4008V86.2008C71.3205 86.2008 72.9899 84.5369 72.9899 82.5069H72.1899ZM72.1899 42.0595V82.5069H72.9899V42.0595H72.1899ZM69.2606 39.1303C70.8814 39.1303 72.1899 40.4387 72.1899 42.0595H72.9899C72.9899 39.9969 71.3232 38.3303 69.2606 38.3303V39.1303ZM47.7722 55.13C47.7722 53.5063 49.0834 52.2007 50.6661 52.2007V51.4007C48.636 51.4007 46.9722 53.0701 46.9722 55.13H47.7722ZM47.7722 82.5081V55.13H46.9722V82.5081H47.7722ZM50.6661 85.4019C49.0806 85.4019 47.7722 84.0935 47.7722 82.5081H46.9722C46.9722 84.5353 48.6388 86.2019 50.6661 86.2019V85.4019ZM53.5953 82.5081C53.5953 84.0907 52.2897 85.4019 50.6661 85.4019V86.2019C52.7259 86.2019 54.3953 84.5381 54.3953 82.5081H53.5953ZM53.5953 55.13V82.5081H54.3953V55.13H53.5953ZM50.6661 52.2007C52.2869 52.2007 53.5953 53.5091 53.5953 55.13H54.3953C54.3953 53.0673 52.7287 51.4007 50.6661 51.4007V52.2007ZM87.6076 65.8509C85.5449 65.8509 83.8783 67.5176 83.8783 69.5802H84.6783C84.6783 67.9594 85.9867 66.6509 87.6076 66.6509V65.8509ZM91.3014 69.5802C91.3014 67.5203 89.6376 65.8509 87.6076 65.8509V66.6509C89.1902 66.6509 90.5014 67.9566 90.5014 69.5802H91.3014ZM91.3014 82.5078V69.5802H90.5014V82.5078H91.3014ZM87.5721 86.2016C89.632 86.2016 91.3014 84.5378 91.3014 82.5078H90.5014C90.5014 84.0904 89.1958 85.4016 87.5721 85.4016V86.2016ZM83.8783 82.5078C83.8783 84.535 85.5449 86.2016 87.5721 86.2016V85.4016C85.9867 85.4016 84.6783 84.0932 84.6783 82.5078H83.8783ZM83.8783 69.5802V82.5078H84.6783V69.5802H83.8783Z" fill="url(#paint3_linear_10714_563)" mask="url(#path-5-inside-2_10714_563)"/>
</g>
<defs>
<filter id="filter0_b_10714_563" x="-8.54314" y="-8.55109" width="114.698" height="114.696" filterUnits="userSpaceOnUse" color-interpolation-filters="sRGB">
<feFlood flood-opacity="0" result="BackgroundImageFix"/>
<feGaussianBlur in="BackgroundImage" stdDeviation="6.5"/>
<feComposite in2="SourceAlpha" operator="in" result="effect1_backgroundBlur_10714_563"/>
<feBlend mode="normal" in="SourceGraphic" in2="effect1_backgroundBlur_10714_563" result="shape"/>
</filter>
<filter id="filter1_f_10714_563" x="2.78293" y="3.36597" width="85.2077" height="87.1744" filterUnits="userSpaceOnUse" color-interpolation-filters="sRGB">
<feFlood flood-opacity="0" result="BackgroundImageFix"/>
<feBlend mode="normal" in="SourceGraphic" in2="BackgroundImageFix" result="shape"/>
<feGaussianBlur stdDeviation="6.5" result="effect1_foregroundBlur_10714_563"/>
</filter>
<filter id="filter2_b_10714_563" x="13.2744" y="6.4375" width="111.69" height="111.69" filterUnits="userSpaceOnUse" color-interpolation-filters="sRGB">
<feFlood flood-opacity="0" result="BackgroundImageFix"/>
<feGaussianBlur in="BackgroundImage" stdDeviation="7.5"/>
<feComposite in2="SourceAlpha" operator="in" result="effect1_backgroundBlur_10714_563"/>
<feBlend mode="normal" in="SourceGraphic" in2="effect1_backgroundBlur_10714_563" result="shape"/>
</filter>
<filter id="filter3_bd_10714_563" x="32.3722" y="23.7303" width="73.5293" height="77.0717" filterUnits="userSpaceOnUse" color-interpolation-filters="sRGB">
<feFlood flood-opacity="0" result="BackgroundImageFix"/>
<feGaussianBlur in="BackgroundImage" stdDeviation="7.5"/>
<feComposite in2="SourceAlpha" operator="in" result="effect1_backgroundBlur_10714_563"/>
<feColorMatrix in="SourceAlpha" type="matrix" values="0 0 0 0 0 0 0 0 0 0 0 0 0 0 0 0 0 0 127 0" result="hardAlpha"/>
<feOffset dx="5" dy="5"/>
<feGaussianBlur stdDeviation="5"/>
<feColorMatrix type="matrix" values="0 0 0 0 1 0 0 0 0 0.447059 0 0 0 0 0.368627 0 0 0 0.5 0"/>
<feBlend mode="normal" in2="effect1_backgroundBlur_10714_563" result="effect2_dropShadow_10714_563"/>
<feBlend mode="normal" in="SourceGraphic" in2="effect2_dropShadow_10714_563" result="shape"/>
</filter>
<linearGradient id="paint0_linear_10714_563" x1="55.8524" y1="52.4372" x2="-2.97539" y2="103.453" gradientUnits="userSpaceOnUse">
<stop stop-color="#FFA78F"/>
<stop offset="1" stop-color="#F23E2C"/>
</linearGradient>
<linearGradient id="paint1_linear_10714_563" x1="41.9598" y1="31.7215" x2="92.7939" y2="94.6807" gradientUnits="userSpaceOnUse">
<stop stop-color="white" stop-opacity="0.25"/>
<stop offset="1" stop-color="white" stop-opacity="0"/>
</linearGradient>
<linearGradient id="paint2_linear_10714_563" x1="36.1047" y1="73.6678" x2="56.4956" y2="115.558" gradientUnits="userSpaceOnUse">
<stop stop-color="white"/>
<stop offset="1" stop-color="white" stop-opacity="0.2"/>
</linearGradient>
<linearGradient id="paint3_linear_10714_563" x1="54.3013" y1="44.2142" x2="84.7371" y2="79.0728" gradientUnits="userSpaceOnUse">
<stop stop-color="white" stop-opacity="0.25"/>
<stop offset="1" stop-color="white" stop-opacity="0"/>
</linearGradient>
</defs>
</svg>
