<svg width="100%" height="100%" viewBox="0 0 104 96" fill="none" xmlns="http://www.w3.org/2000/svg">
<path d="M65.936 26C84.528 26 98.0001 41.168 98.0001 58C98.0001 63.376 96.4321 68.912 93.6801 73.9681C93.1681 74.8001 93.1041 75.8561 93.4561 76.8481L95.6001 84.0161C96.0801 85.7441 94.6081 87.0241 92.9761 86.5121L86.512 84.5921C84.752 84.0161 83.376 84.7521 81.7408 85.7441C77.0688 88.4961 71.248 89.9041 66 89.9041C50.128 89.9041 34 77.6481 34 57.904C34 40.88 47.76 26 65.936 26Z" fill="url(#paint0_linear_10714_108)"/>
<g opacity="0.5" filter="url(#filter0_f_10714_108)">
<path d="M86.3695 58.319C86.3695 69.7353 77.1171 78.9857 65.7029 78.9857C54.2887 78.9857 45.0362 69.7353 45.0362 58.319C45.0362 46.9069 54.2887 37.6523 65.7029 37.6523C77.1171 37.6523 86.3695 46.9069 86.3695 58.319Z" fill="#8237FF"/>
</g>
<g filter="url(#filter1_b_10714_108)">
<mask id="path-3-outside-1_10714_108" maskUnits="userSpaceOnUse" x="0" y="0" width="84" height="84" fill="black">
<rect fill="white" width="84" height="84"/>
<path d="M41.915 1C18.1908 1 1 20.355 1 41.8333C1 48.6933 3.00083 55.7575 6.5125 62.2092C7.16583 63.2708 7.2475 64.6183 6.79833 65.8842L4.0625 75.0308C3.45 77.2358 5.32833 78.8692 7.41083 78.2158L15.6592 75.7658C17.905 75.0308 19.6608 75.97 21.7474 77.2358C27.7091 80.7475 35.1367 82.5442 41.8333 82.5442C62.0867 82.5442 82.6667 66.905 82.6667 41.7108C82.6667 19.9875 65.1083 1 41.915 1Z"/>
</mask>
<path d="M41.915 1C18.1908 1 1 20.355 1 41.8333C1 48.6933 3.00083 55.7575 6.5125 62.2092C7.16583 63.2708 7.2475 64.6183 6.79833 65.8842L4.0625 75.0308C3.45 77.2358 5.32833 78.8692 7.41083 78.2158L15.6592 75.7658C17.905 75.0308 19.6608 75.97 21.7474 77.2358C27.7091 80.7475 35.1367 82.5442 41.8333 82.5442C62.0867 82.5442 82.6667 66.905 82.6667 41.7108C82.6667 19.9875 65.1083 1 41.915 1Z" fill="#BA90FF" fill-opacity="0.35"/>
<path d="M41.915 2C42.4673 2 42.915 1.55228 42.915 1C42.915 0.447715 42.4673 0 41.915 0V2ZM6.5125 62.2092L5.63418 62.6872C5.64266 62.7028 5.65155 62.7182 5.66084 62.7333L6.5125 62.2092ZM6.79833 65.8842L5.85591 65.5498C5.85029 65.5656 5.84508 65.5815 5.84027 65.5976L6.79833 65.8842ZM4.0625 75.0308L3.10444 74.7443C3.10256 74.7506 3.10074 74.7569 3.09898 74.7632L4.0625 75.0308ZM7.41083 78.2158L7.1261 77.2572C7.12122 77.2587 7.11635 77.2602 7.11149 77.2617L7.41083 78.2158ZM15.6592 75.7658L15.9439 76.7244C15.9527 76.7218 15.9615 76.7191 15.9702 76.7162L15.6592 75.7658ZM21.7474 77.2358L21.2287 78.0909L21.2399 78.0975L21.7474 77.2358ZM41.915 0C41.3627 0 40.915 0.447715 40.915 1C40.915 1.55228 41.3627 2 41.915 2V0ZM41.915 0C17.6057 0 0 19.8362 0 41.8333H2C2 20.8738 18.776 2 41.915 2V0ZM0 41.8333C0 48.8843 2.05494 56.1114 5.63418 62.6872L7.39082 61.7311C3.94672 55.4036 2 48.5024 2 41.8333H0ZM5.66084 62.7333C6.13142 63.498 6.22039 64.5226 5.85591 65.5498L7.74076 66.2186C8.27461 64.7141 8.20025 63.0437 7.36416 61.6851L5.66084 62.7333ZM5.84027 65.5976L3.10444 74.7443L5.02056 75.3174L7.75639 66.1707L5.84027 65.5976ZM3.09898 74.7632C2.69802 76.2067 3.10385 77.5598 4.04824 78.4305C4.98142 79.2907 6.34982 79.5968 7.71017 79.17L7.11149 77.2617C6.38935 77.4882 5.77733 77.3043 5.40385 76.96C5.04157 76.626 4.81448 76.06 5.02602 75.2985L3.09898 74.7632ZM7.69557 79.1744L15.9439 76.7244L15.3744 74.8072L7.1261 77.2572L7.69557 79.1744ZM15.9702 76.7162C17.7353 76.1386 19.1168 76.8096 21.2287 78.0908L22.2661 76.3809C20.2048 75.1304 18.0747 73.9231 15.3481 74.8154L15.9702 76.7162ZM21.2399 78.0975C27.371 81.7089 34.9772 83.5442 41.8333 83.5442V81.5442C35.2961 81.5442 28.0472 79.7861 22.255 76.3742L21.2399 78.0975ZM41.8333 83.5442C62.5583 83.5442 83.6667 67.5346 83.6667 41.7108H81.6667C81.6667 66.2754 61.615 81.5442 41.8333 81.5442V83.5442ZM83.6667 41.7108C83.6667 19.4575 65.6827 0 41.915 0V2C64.534 2 81.6667 20.5175 81.6667 41.7108H83.6667Z" fill="url(#paint1_linear_10714_108)" mask="url(#path-3-outside-1_10714_108)"/>
</g>
<g filter="url(#filter2_bd_10714_108)">
<mask id="path-5-inside-2_10714_108" fill="white">
<path fill-rule="evenodd" clip-rule="evenodd" d="M41.7535 47.1003C38.8543 47.0595 36.5268 44.732 36.5268 41.8328C36.5268 38.9745 38.8951 36.6062 41.7535 36.647C44.6526 36.647 46.9801 38.9745 46.9801 41.8737C46.9801 44.732 44.6526 47.1003 41.7535 47.1003ZM22.9278 47.1004C20.0695 47.1004 17.7012 44.7321 17.7012 41.8738C17.7012 38.9746 20.0287 36.6471 22.9278 36.6471C25.827 36.6471 28.1545 38.9746 28.1545 41.8738C28.1545 44.7321 25.827 47.0596 22.9278 47.1004ZM55.3504 41.8737C55.3504 44.732 57.6779 47.1003 60.577 47.1003C63.4762 47.1003 65.8037 44.732 65.8037 41.8737C65.8037 38.9745 63.4762 36.647 60.577 36.647C57.6779 36.647 55.3504 38.9745 55.3504 41.8737Z"/>
</mask>
<path fill-rule="evenodd" clip-rule="evenodd" d="M41.7535 47.1003C38.8543 47.0595 36.5268 44.732 36.5268 41.8328C36.5268 38.9745 38.8951 36.6062 41.7535 36.647C44.6526 36.647 46.9801 38.9745 46.9801 41.8737C46.9801 44.732 44.6526 47.1003 41.7535 47.1003ZM22.9278 47.1004C20.0695 47.1004 17.7012 44.7321 17.7012 41.8738C17.7012 38.9746 20.0287 36.6471 22.9278 36.6471C25.827 36.6471 28.1545 38.9746 28.1545 41.8738C28.1545 44.7321 25.827 47.0596 22.9278 47.1004ZM55.3504 41.8737C55.3504 44.732 57.6779 47.1003 60.577 47.1003C63.4762 47.1003 65.8037 44.732 65.8037 41.8737C65.8037 38.9745 63.4762 36.647 60.577 36.647C57.6779 36.647 55.3504 38.9745 55.3504 41.8737Z" fill="url(#paint2_linear_10714_108)"/>
<path d="M41.7535 47.1003L41.7478 47.5003H41.7535V47.1003ZM41.7535 36.647L41.7478 37.047H41.7535V36.647ZM22.9278 47.1004V47.5005L22.9335 47.5004L22.9278 47.1004ZM36.1268 41.8328C36.1268 44.954 38.6333 47.4564 41.7479 47.5003L41.7591 46.7004C39.0754 46.6626 36.9268 44.51 36.9268 41.8328H36.1268ZM41.7592 36.247C38.6744 36.203 36.1268 38.7547 36.1268 41.8328H36.9268C36.9268 39.1943 39.1159 37.0094 41.7478 37.047L41.7592 36.247ZM47.3801 41.8737C47.3801 38.7536 44.8736 36.247 41.7535 36.247V37.047C44.4317 37.047 46.5801 39.1954 46.5801 41.8737H47.3801ZM41.7535 47.5003C44.8756 47.5003 47.3801 44.9509 47.3801 41.8737H46.5801C46.5801 44.5131 44.4297 46.7003 41.7535 46.7003V47.5003ZM17.3012 41.8738C17.3012 44.953 19.8486 47.5004 22.9278 47.5004V46.7004C20.2904 46.7004 18.1012 44.5112 18.1012 41.8738H17.3012ZM22.9278 36.2471C19.8078 36.2471 17.3012 38.7537 17.3012 41.8738H18.1012C18.1012 39.1955 20.2496 37.0471 22.9278 37.0471V36.2471ZM28.5545 41.8738C28.5545 38.7537 26.0479 36.2471 22.9278 36.2471V37.0471C25.6061 37.0471 27.7545 39.1955 27.7545 41.8738H28.5545ZM22.9335 47.5004C26.046 47.4565 28.5545 44.9561 28.5545 41.8738H27.7545C27.7545 44.5081 25.608 46.6626 22.9222 46.7005L22.9335 47.5004ZM60.577 46.7003C57.9008 46.7003 55.7504 44.5131 55.7504 41.8737H54.9504C54.9504 44.9509 57.4549 47.5003 60.577 47.5003V46.7003ZM65.4037 41.8737C65.4037 44.5131 63.2533 46.7003 60.577 46.7003V47.5003C63.6991 47.5003 66.2037 44.9509 66.2037 41.8737H65.4037ZM60.577 37.047C63.2553 37.047 65.4037 39.1954 65.4037 41.8737H66.2037C66.2037 38.7536 63.6971 36.247 60.577 36.247V37.047ZM55.7504 41.8737C55.7504 39.1954 57.8988 37.047 60.577 37.047V36.247C57.457 36.247 54.9504 38.7536 54.9504 41.8737H55.7504Z" fill="url(#paint3_linear_10714_108)" mask="url(#path-5-inside-2_10714_108)"/>
</g>
<defs>
<filter id="filter0_f_10714_108" x="28.0362" y="20.6523" width="75.3333" height="75.3333" filterUnits="userSpaceOnUse" color-interpolation-filters="sRGB">
<feFlood flood-opacity="0" result="BackgroundImageFix"/>
<feBlend mode="normal" in="SourceGraphic" in2="BackgroundImageFix" result="shape"/>
<feGaussianBlur stdDeviation="8.5" result="effect1_foregroundBlur_10714_108"/>
</filter>
<filter id="filter1_b_10714_108" x="-24" y="-24" width="131.667" height="131.544" filterUnits="userSpaceOnUse" color-interpolation-filters="sRGB">
<feFlood flood-opacity="0" result="BackgroundImageFix"/>
<feGaussianBlur in="BackgroundImage" stdDeviation="12"/>
<feComposite in2="SourceAlpha" operator="in" result="effect1_backgroundBlur_10714_108"/>
<feBlend mode="normal" in="SourceGraphic" in2="effect1_backgroundBlur_10714_108" result="shape"/>
</filter>
<filter id="filter2_bd_10714_108" x="2.70117" y="21.6465" width="78.1025" height="40.4539" filterUnits="userSpaceOnUse" color-interpolation-filters="sRGB">
<feFlood flood-opacity="0" result="BackgroundImageFix"/>
<feGaussianBlur in="BackgroundImage" stdDeviation="7.5"/>
<feComposite in2="SourceAlpha" operator="in" result="effect1_backgroundBlur_10714_108"/>
<feColorMatrix in="SourceAlpha" type="matrix" values="0 0 0 0 0 0 0 0 0 0 0 0 0 0 0 0 0 0 127 0" result="hardAlpha"/>
<feOffset dx="5" dy="5"/>
<feGaussianBlur stdDeviation="5"/>
<feColorMatrix type="matrix" values="0 0 0 0 0.577356 0 0 0 0 0.359375 0 0 0 0 0.9375 0 0 0 0.5 0"/>
<feBlend mode="normal" in2="effect1_backgroundBlur_10714_108" result="effect2_dropShadow_10714_108"/>
<feBlend mode="normal" in="SourceGraphic" in2="effect2_dropShadow_10714_108" result="shape"/>
</filter>
<linearGradient id="paint0_linear_10714_108" x1="66" y1="26" x2="66" y2="89.9041" gradientUnits="userSpaceOnUse">
<stop stop-color="#BC94FF"/>
<stop offset="1" stop-color="#9F66FF"/>
</linearGradient>
<linearGradient id="paint1_linear_10714_108" x1="14" y1="10.5" x2="66" y2="75" gradientUnits="userSpaceOnUse">
<stop stop-color="white" stop-opacity="0.25"/>
<stop offset="1" stop-color="white" stop-opacity="0"/>
</linearGradient>
<linearGradient id="paint2_linear_10714_108" x1="62.3932" y1="38.5342" x2="9.93538" y2="46.4043" gradientUnits="userSpaceOnUse">
<stop stop-color="white"/>
<stop offset="1" stop-color="white" stop-opacity="0.2"/>
</linearGradient>
<linearGradient id="paint3_linear_10714_108" x1="25.3583" y1="37.8644" x2="27.6808" y2="51.1001" gradientUnits="userSpaceOnUse">
<stop stop-color="white" stop-opacity="0.25"/>
<stop offset="1" stop-color="white" stop-opacity="0"/>
</linearGradient>
</defs>
</svg>
