<svg width="100%" height="100%" viewBox="0 0 110 108" fill="none" xmlns="http://www.w3.org/2000/svg">
<path d="M57.0098 15.7667L29.1922 23.0683C18.3154 25.9232 13.0461 35.3238 16.0895 46.45L23.1134 72.1285C26.1481 83.2233 35.5096 88.7835 46.3864 85.9286L74.2041 78.627C85.0809 75.772 90.318 66.3799 87.2832 55.2851L80.2594 29.6067C77.216 18.4804 67.8866 12.9117 57.0098 15.7667Z" fill="url(#paint0_linear_10714_135)"/>
<g opacity="0.5" filter="url(#filter0_f_10714_135)">
<rect x="33.0156" y="75.9273" width="43.6506" height="45.4523" rx="13" transform="rotate(-105 33.0156 75.9273)" fill="#8237FF"/>
</g>
<g filter="url(#filter1_b_10714_135)">
<path d="M87.5762 32.8418H54.7588C41.9271 32.8418 33.2969 41.6666 33.2969 54.7927V85.0864C33.2969 98.1753 41.9271 107 54.7588 107H87.5762C100.408 107 109 98.1753 109 85.0864V54.7927C109 41.6666 100.408 32.8418 87.5762 32.8418Z" fill="#BA90FF" fill-opacity="0.35"/>
<path d="M87.5762 32.3418H54.7588C48.2248 32.3418 42.7249 34.5911 38.8584 38.5454C34.9929 42.4987 32.7969 48.1183 32.7969 54.7927V85.0864C32.7969 91.7426 34.9931 97.3529 38.8586 101.301C42.725 105.251 48.2248 107.5 54.7588 107.5H87.5762C94.1102 107.5 99.6008 105.251 103.458 101.301C107.314 97.3522 109.5 91.742 109.5 85.0864V54.7927C109.5 48.1189 107.314 42.4994 103.458 38.5459C99.6009 34.5912 94.1103 32.3418 87.5762 32.3418Z" stroke="url(#paint1_linear_10714_135)" stroke-linecap="round" stroke-linejoin="round"/>
</g>
<g filter="url(#filter2_bd_10714_135)">
<mask id="path-5-inside-1_10714_135" fill="white">
<path fill-rule="evenodd" clip-rule="evenodd" d="M83.2197 83.6758C83.6777 83.9391 84.1773 84.0652 84.6732 84.0652C85.6384 84.0652 86.5809 83.5794 87.1146 82.7081C87.3811 82.2698 87.5102 81.789 87.5147 81.3133C87.5149 81.2932 87.5148 81.273 87.5146 81.2529C87.503 80.3167 87.0095 79.4081 86.1305 78.8914L72.6553 71.0195L72.6553 53.8864C72.6553 52.3513 71.3835 51.1055 69.8164 51.1055C68.2494 51.1055 66.9775 52.3513 66.9775 53.8864V72.5991V72.6003C66.9775 73.5792 67.5037 74.4876 68.3591 74.9919L83.2197 83.6758Z"/>
</mask>
<path fill-rule="evenodd" clip-rule="evenodd" d="M83.2197 83.6758C83.6777 83.9391 84.1773 84.0652 84.6732 84.0652C85.6384 84.0652 86.5809 83.5794 87.1146 82.7081C87.3811 82.2698 87.5102 81.789 87.5147 81.3133C87.5149 81.2932 87.5148 81.273 87.5146 81.2529C87.503 80.3167 87.0095 79.4081 86.1305 78.8914L72.6553 71.0195L72.6553 53.8864C72.6553 52.3513 71.3835 51.1055 69.8164 51.1055C68.2494 51.1055 66.9775 52.3513 66.9775 53.8864V72.5991V72.6003C66.9775 73.5792 67.5037 74.4876 68.3591 74.9919L83.2197 83.6758Z" fill="url(#paint2_linear_10714_135)"/>
<path d="M83.2197 83.6758L83.0179 84.0212L83.0204 84.0226L83.2197 83.6758ZM87.1146 82.7081L87.4557 82.917L87.4564 82.9158L87.1146 82.7081ZM87.5147 81.3133L87.9147 81.3171V81.317L87.5147 81.3133ZM87.5146 81.2529L87.1146 81.2578L87.1146 81.258L87.5146 81.2529ZM86.1305 78.8914L86.3332 78.5466L86.3322 78.5461L86.1305 78.8914ZM72.6553 71.0195H72.2553V71.2491L72.4535 71.3649L72.6553 71.0195ZM72.6553 53.8864H73.0553H72.6553ZM68.3591 74.9919L68.156 75.3365L68.1573 75.3372L68.3591 74.9919ZM84.6732 83.6652C84.2457 83.6652 83.815 83.5567 83.419 83.329L83.0204 84.0226C83.5404 84.3215 84.109 84.4652 84.6732 84.4652V83.6652ZM86.7735 82.4991C86.3163 83.2456 85.5066 83.6652 84.6732 83.6652V84.4652C85.7702 84.4652 86.8455 83.9132 87.4557 82.917L86.7735 82.4991ZM87.1147 81.3095C87.1109 81.7148 87.0011 82.1248 86.7728 82.5003L87.4564 82.9158C87.7611 82.4147 87.9095 81.8632 87.9147 81.3171L87.1147 81.3095ZM87.1146 81.258C87.1148 81.2752 87.1149 81.2923 87.1147 81.3095L87.9147 81.317C87.9149 81.294 87.9148 81.2709 87.9146 81.2478L87.1146 81.258ZM87.9146 81.248C87.9013 80.1746 87.3354 79.1357 86.3332 78.5466L85.9278 79.2363C86.6837 79.6806 87.1048 80.4588 87.1146 81.2578L87.9146 81.248ZM86.3322 78.5461L72.8571 70.6741L72.4535 71.3649L85.9287 79.2368L86.3322 78.5461ZM72.2553 53.8864L72.2553 71.0195H73.0553L73.0553 53.8864H72.2553ZM69.8164 51.5055C71.1704 51.5055 72.2553 52.58 72.2553 53.8864H73.0553C73.0553 52.1227 71.5966 50.7055 69.8164 50.7055V51.5055ZM67.3775 53.8864C67.3775 52.58 68.4625 51.5055 69.8164 51.5055V50.7055C68.0363 50.7055 66.5775 52.1227 66.5775 53.8864H67.3775ZM67.3775 72.5991V53.8864H66.5775V72.5991H67.3775ZM67.3775 72.6003V72.5991H66.5775V72.6003H67.3775ZM68.5623 74.6473C67.8261 74.2133 67.3775 73.4344 67.3775 72.6003H66.5775C66.5775 73.7239 67.1813 74.7619 68.156 75.3365L68.5623 74.6473ZM83.4215 83.3305L68.5609 74.6465L68.1573 75.3372L83.0179 84.0212L83.4215 83.3305Z" fill="url(#paint3_linear_10714_135)" mask="url(#path-5-inside-1_10714_135)"/>
</g>
<defs>
<filter id="filter0_f_10714_135" x="0.636475" y="0.91864" width="97.3643" height="96.0902" filterUnits="userSpaceOnUse" color-interpolation-filters="sRGB">
<feFlood flood-opacity="0" result="BackgroundImageFix"/>
<feBlend mode="normal" in="SourceGraphic" in2="BackgroundImageFix" result="shape"/>
<feGaussianBlur stdDeviation="12" result="effect1_foregroundBlur_10714_135"/>
</filter>
<filter id="filter1_b_10714_135" x="8.29688" y="7.8418" width="125.703" height="124.158" filterUnits="userSpaceOnUse" color-interpolation-filters="sRGB">
<feFlood flood-opacity="0" result="BackgroundImageFix"/>
<feGaussianBlur in="BackgroundImage" stdDeviation="12"/>
<feComposite in2="SourceAlpha" operator="in" result="effect1_backgroundBlur_10714_135"/>
<feBlend mode="normal" in="SourceGraphic" in2="effect1_backgroundBlur_10714_135" result="shape"/>
</filter>
<filter id="filter2_bd_10714_135" x="51.9775" y="36.1055" width="50.5373" height="62.9597" filterUnits="userSpaceOnUse" color-interpolation-filters="sRGB">
<feFlood flood-opacity="0" result="BackgroundImageFix"/>
<feGaussianBlur in="BackgroundImage" stdDeviation="7.5"/>
<feComposite in2="SourceAlpha" operator="in" result="effect1_backgroundBlur_10714_135"/>
<feColorMatrix in="SourceAlpha" type="matrix" values="0 0 0 0 0 0 0 0 0 0 0 0 0 0 0 0 0 0 127 0" result="hardAlpha"/>
<feOffset dx="5" dy="5"/>
<feGaussianBlur stdDeviation="5"/>
<feColorMatrix type="matrix" values="0 0 0 0 0.577356 0 0 0 0 0.359375 0 0 0 0 0.9375 0 0 0 0.5 0"/>
<feBlend mode="normal" in2="effect1_backgroundBlur_10714_135" result="effect2_dropShadow_10714_135"/>
<feBlend mode="normal" in="SourceGraphic" in2="effect2_dropShadow_10714_135" result="shape"/>
</filter>
<linearGradient id="paint0_linear_10714_135" x1="43.0849" y1="19.4217" x2="59.6293" y2="82.4526" gradientUnits="userSpaceOnUse">
<stop stop-color="#BC94FF"/>
<stop offset="1" stop-color="#9F66FF"/>
</linearGradient>
<linearGradient id="paint1_linear_10714_135" x1="45.3476" y1="41.4813" x2="92.4381" y2="101.019" gradientUnits="userSpaceOnUse">
<stop stop-color="white" stop-opacity="0.25"/>
<stop offset="1" stop-color="white" stop-opacity="0"/>
</linearGradient>
<linearGradient id="paint2_linear_10714_135" x1="86.0587" y1="57.0573" x2="63.1673" y2="57.5224" gradientUnits="userSpaceOnUse">
<stop stop-color="white"/>
<stop offset="1" stop-color="white" stop-opacity="0.2"/>
</linearGradient>
<linearGradient id="paint3_linear_10714_135" x1="70.2467" y1="54.9453" x2="91.052" y2="71.0013" gradientUnits="userSpaceOnUse">
<stop stop-color="white" stop-opacity="0.25"/>
<stop offset="1" stop-color="white" stop-opacity="0"/>
</linearGradient>
</defs>
</svg>
