<svg width="100%" height="100%" viewBox="0 0 97 99" fill="none" xmlns="http://www.w3.org/2000/svg">
<path d="M76.5593 13.8768L45.2477 5.48684C33.0047 2.20635 22.4674 8.59535 19.0417 21.38L11.1347 50.8895C7.71873 63.6381 13.6508 74.4362 25.8937 77.7167L57.2054 86.1066C69.4483 89.3871 79.9486 82.992 83.3645 70.2434L91.2716 40.734C94.6972 27.9493 88.8023 17.1573 76.5593 13.8768Z" fill="url(#paint0_linear_10714_490)"/>
<g filter="url(#filter0_f_10714_490)">
<path d="M67.1702 25.6971L47.4554 20.4145C39.7468 18.349 33.1121 22.3717 30.9552 30.4214L25.9767 49.0015C23.8259 57.0285 27.5609 63.8273 35.2695 65.8928L54.9843 71.1754C62.6929 73.2409 69.3042 69.2143 71.455 61.1874L76.4336 42.6072C78.5905 34.5576 74.8788 27.7626 67.1702 25.6971Z" fill="#E31352" fill-opacity="0.5"/>
</g>
<g filter="url(#filter1_b_10714_490)">
<mask id="path-3-outside-1_10714_490" maskUnits="userSpaceOnUse" x="0" y="22.0527" width="77" height="77" fill="black">
<rect fill="white" y="22.0527" width="77" height="77"/>
<path d="M54.6157 23.0527H22.1995C9.52467 23.0527 1 31.9513 1 45.187V75.7374C1 88.9357 9.52467 97.8306 22.1995 97.8306H54.6157C67.2906 97.8306 75.7778 88.9357 75.7778 75.7374V45.187C75.7778 31.9513 67.2906 23.0527 54.6157 23.0527Z"/>
</mask>
<path d="M54.6157 23.0527H22.1995C9.52467 23.0527 1 31.9513 1 45.187V75.7374C1 88.9357 9.52467 97.8306 22.1995 97.8306H54.6157C67.2906 97.8306 75.7778 88.9357 75.7778 75.7374V45.187C75.7778 31.9513 67.2906 23.0527 54.6157 23.0527Z" fill="#FF749F" fill-opacity="0.35"/>
<path d="M54.6157 22.0527C54.0634 22.0527 53.6157 22.5004 53.6157 23.0527C53.6157 23.605 54.0634 24.0527 54.6157 24.0527V22.0527ZM54.6157 22.0527H22.1995V24.0527H54.6157V22.0527ZM22.1995 22.0527C15.6193 22.0527 10.0484 24.3681 6.12452 28.4648C2.20423 32.5576 0 38.3524 0 45.187H2C2 38.7859 4.05811 33.5135 7.56886 29.8482C11.076 26.1866 16.1049 24.0527 22.1995 24.0527V22.0527ZM0 45.187V75.7374H2V45.187H0ZM0 75.7374C0 82.5541 2.20469 88.3386 6.12502 92.4256C10.0488 96.5162 15.6195 98.8306 22.1995 98.8306V96.8306C16.1047 96.8306 11.0756 94.6975 7.56836 91.0411C4.05765 87.3811 2 82.1191 2 75.7374H0ZM22.1995 98.8306H54.6157V96.8306H22.1995V98.8306ZM54.6157 98.8306C61.1959 98.8306 66.7577 96.5161 70.6724 92.4247C74.5833 88.3372 76.7778 82.5529 76.7778 75.7374H74.7778C74.7778 82.1203 72.7288 87.3825 69.2273 91.042C65.7296 94.6976 60.7103 96.8306 54.6157 96.8306V98.8306ZM76.7778 75.7374V45.187H74.7778V75.7374H76.7778ZM76.7778 45.187C76.7778 38.3536 74.5837 32.559 70.6729 28.4657C66.7582 24.3683 61.1961 22.0527 54.6157 22.0527V24.0527C60.7102 24.0527 65.7292 26.1865 69.2268 29.8473C72.7283 33.5122 74.7778 38.7847 74.7778 45.187H76.7778Z" fill="url(#paint1_linear_10714_490)" mask="url(#path-3-outside-1_10714_490)"/>
</g>
<g filter="url(#filter2_bd_10714_490)">
<path d="M49.6414 67.0647C50.9126 68.3359 50.9126 70.3923 49.6414 71.6598C49.0058 72.2954 48.1832 72.6356 47.3233 72.6356C46.5007 72.6356 45.6782 72.3365 45.0425 71.6598L38.3873 65.0457L31.7321 71.6598C31.0965 72.2954 30.2739 72.6356 29.414 72.6356C28.5914 72.6356 27.7315 72.2954 27.0959 71.6598C25.8247 70.3923 25.8247 68.3359 27.0959 67.0273L33.7511 60.4094L27.0959 53.7505C25.8247 52.483 25.8247 50.3892 27.0959 49.118C28.3671 47.843 30.4235 47.843 31.7321 49.118L38.3873 55.7695L45.0052 49.118C46.3138 47.843 48.3702 47.843 49.6414 49.118C50.9126 50.3892 50.9126 52.483 49.6414 53.7505L42.9862 60.4094L49.6414 67.0647Z" fill="url(#paint2_linear_10714_490)"/>
<path d="M49.5002 71.5181L49.5 71.5183C48.901 72.1173 48.129 72.4356 47.3233 72.4356C46.5504 72.4356 45.7825 72.1555 45.1883 71.5228L45.1884 71.5228L45.1835 71.5179L38.5283 64.9038L38.3873 64.7637L38.2463 64.9038L31.5911 71.5179L31.5907 71.5183C30.9917 72.1173 30.2197 72.4356 29.414 72.4356C28.6444 72.4356 27.8354 72.1164 27.2373 71.5183L27.2371 71.5181C26.0459 70.3304 26.0423 68.4002 27.2381 67.1679L33.8921 60.5513L34.0343 60.4099L33.8926 60.2681L27.2373 53.6091L27.2371 53.6088C26.0444 52.4196 26.0441 50.4526 27.2373 49.2594L27.2375 49.2592C28.4292 48.064 30.3595 48.0608 31.5916 49.2603L38.2459 55.9109L38.3877 56.0526L38.5291 55.9105L45.1447 49.2612C45.1451 49.2609 45.1454 49.2605 45.1458 49.2602C46.3779 48.0608 48.3081 48.0641 49.4998 49.2592L49.5 49.2594C50.6932 50.4526 50.6929 52.4196 49.5002 53.6088L49.4999 53.6091L42.8447 60.2681L42.7034 60.4095L42.8447 60.5509L49.5 67.2061C50.6932 68.3993 50.6929 70.3289 49.5002 71.5181Z" stroke="url(#paint3_linear_10714_490)" stroke-width="0.4"/>
</g>
<defs>
<filter id="filter0_f_10714_490" x="8.375" y="2.87839" width="85.6653" height="85.8329" filterUnits="userSpaceOnUse" color-interpolation-filters="sRGB">
<feFlood flood-opacity="0" result="BackgroundImageFix"/>
<feBlend mode="normal" in="SourceGraphic" in2="BackgroundImageFix" result="shape"/>
<feGaussianBlur stdDeviation="8.5" result="effect1_foregroundBlur_10714_490"/>
</filter>
<filter id="filter1_b_10714_490" x="-24" y="-1.94727" width="124.778" height="124.778" filterUnits="userSpaceOnUse" color-interpolation-filters="sRGB">
<feFlood flood-opacity="0" result="BackgroundImageFix"/>
<feGaussianBlur in="BackgroundImage" stdDeviation="12"/>
<feComposite in2="SourceAlpha" operator="in" result="effect1_backgroundBlur_10714_490"/>
<feBlend mode="normal" in="SourceGraphic" in2="effect1_backgroundBlur_10714_490" result="shape"/>
</filter>
<filter id="filter2_bd_10714_490" x="11.1425" y="33.1618" width="54.4524" height="54.4738" filterUnits="userSpaceOnUse" color-interpolation-filters="sRGB">
<feFlood flood-opacity="0" result="BackgroundImageFix"/>
<feGaussianBlur in="BackgroundImage" stdDeviation="7.5"/>
<feComposite in2="SourceAlpha" operator="in" result="effect1_backgroundBlur_10714_490"/>
<feColorMatrix in="SourceAlpha" type="matrix" values="0 0 0 0 0 0 0 0 0 0 0 0 0 0 0 0 0 0 127 0" result="hardAlpha"/>
<feOffset dx="5" dy="5"/>
<feGaussianBlur stdDeviation="5"/>
<feColorMatrix type="matrix" values="0 0 0 0 1 0 0 0 0 0.321569 0 0 0 0 0.54902 0 0 0 0.5 0"/>
<feBlend mode="normal" in2="effect1_backgroundBlur_10714_490" result="effect2_dropShadow_10714_490"/>
<feBlend mode="normal" in="SourceGraphic" in2="effect2_dropShadow_10714_490" result="shape"/>
</filter>
<linearGradient id="paint0_linear_10714_490" x1="55.23" y1="52.0535" x2="-16.5064" y2="65.9068" gradientUnits="userSpaceOnUse">
<stop stop-color="#FF759F"/>
<stop offset="1" stop-color="#FF196E"/>
</linearGradient>
<linearGradient id="paint1_linear_10714_490" x1="12.9034" y1="31.7644" x2="70.6312" y2="93.929" gradientUnits="userSpaceOnUse">
<stop stop-color="white" stop-opacity="0.25"/>
<stop offset="1" stop-color="white" stop-opacity="0"/>
</linearGradient>
<linearGradient id="paint2_linear_10714_490" x1="48.8611" y1="52.5812" x2="21.6235" y2="53.4685" gradientUnits="userSpaceOnUse">
<stop stop-color="white"/>
<stop offset="1" stop-color="white" stop-opacity="0.2"/>
</linearGradient>
<linearGradient id="paint3_linear_10714_490" x1="30.0349" y1="51.013" x2="45.6495" y2="70.3351" gradientUnits="userSpaceOnUse">
<stop stop-color="white" stop-opacity="0.25"/>
<stop offset="1" stop-color="white" stop-opacity="0"/>
</linearGradient>
</defs>
</svg>
