<svg width="100%" height="100%" viewBox="0 0 112 80" fill="none" xmlns="http://www.w3.org/2000/svg">
<path d="M71.591 43.0084L39.1671 10.5283C35.754 7.04499 30.0832 6.94764 26.5582 10.353C25.3295 11.4906 24.4871 12.9743 24.0907 14.5389L12.1786 59.2189C11.5458 64.0418 15.0188 68.4791 19.91 69.0764C20.8817 69.1717 21.8829 69.1331 22.842 68.9375L67.4101 56.9955C69.661 56.2631 71.4947 54.7046 72.5954 52.602C73.6945 50.4934 73.8966 48.0819 73.1686 45.8517C72.8482 44.8996 72.3853 44.0244 71.591 43.0084Z" fill="url(#paint0_linear_10714_267)"/>
<g filter="url(#filter0_f_10714_267)">
<path d="M58.9743 45.8193L40.3848 27.1976C38.428 25.2005 35.1768 25.1447 33.1558 27.0971C32.4514 27.7493 31.9684 28.5999 31.7411 29.4969L24.9117 55.1132C24.5489 57.8782 26.54 60.4223 29.3442 60.7647C29.9014 60.8194 30.4753 60.7972 31.0252 60.6851L56.5773 53.8384C57.8678 53.4185 58.9191 52.525 59.5502 51.3195C60.1803 50.1106 60.2962 48.728 59.8787 47.4494C59.6951 46.9035 59.4297 46.4017 58.9743 45.8193Z" fill="#E31352"/>
</g>
<g filter="url(#filter1_b_10714_267)">
<path d="M109.895 58.7173L80.2144 7.20549C77.1116 1.70271 70.0486 -0.320378 64.4962 2.75876C62.5774 3.7703 61.026 5.34426 60.0053 7.16908L30.1203 59.0814C27.7116 64.9038 30.5694 71.6205 36.4893 74.0077C37.6732 74.4528 38.9389 74.7401 40.2045 74.817H99.9744C103.036 74.6551 105.853 73.3199 107.936 71.0581C110.018 68.7882 111.079 65.8385 110.916 62.8039C110.834 61.5051 110.548 60.2548 109.895 58.7173Z" fill="#FF749F" fill-opacity="0.35"/>
<path d="M110.355 58.5217C110.348 58.5032 110.339 58.4851 110.328 58.4676L80.6499 6.95991C80.6496 6.95931 80.6493 6.95871 80.6489 6.95811C77.4121 1.21985 70.0507 -0.889982 64.2584 2.31893C62.2526 3.37754 60.6349 5.02043 59.5705 6.92226C59.57 6.92317 59.5694 6.92409 59.5689 6.925L29.687 58.832C29.6762 58.8507 29.6666 58.8702 29.6583 58.8903C27.1414 64.9742 30.1295 71.9822 36.3023 74.4714L36.3022 74.4716L36.3133 74.4758C37.5398 74.9368 38.8544 75.2359 40.1742 75.316C40.1763 75.3162 40.1784 75.3163 40.1805 75.3164C40.1885 75.3168 40.1965 75.317 40.2045 75.317H99.9744C99.9832 75.317 99.992 75.3167 100.001 75.3163C103.194 75.1475 106.134 73.7537 108.303 71.3967L108.304 71.3961C110.476 69.0281 111.586 65.9473 111.415 62.777L111.415 62.7725C111.329 61.412 111.029 60.1064 110.355 58.5217Z" stroke="url(#paint1_linear_10714_267)" stroke-linecap="round" stroke-linejoin="round"/>
</g>
<g filter="url(#filter2_bd_10714_267)">
<mask id="path-5-inside-1_10714_267" fill="white">
<path fill-rule="evenodd" clip-rule="evenodd" d="M70.0908 44.7185C72.0504 44.7185 73.6427 43.096 73.6427 41.1538V29.7072C73.6427 27.761 72.0504 26.1871 70.0908 26.1871C68.1311 26.1871 66.498 27.761 66.498 29.7072V41.1538C66.498 43.096 68.1311 44.7185 70.0908 44.7185ZM66.498 54.9939C66.498 56.932 68.1311 58.5546 70.0908 58.5546C72.0504 58.5546 73.6427 56.932 73.6427 54.9494C73.6427 53.0113 72.0504 51.4293 70.0908 51.4293C68.1311 51.4293 66.498 53.0477 66.498 54.9939Z"/>
</mask>
<path fill-rule="evenodd" clip-rule="evenodd" d="M70.0908 44.7185C72.0504 44.7185 73.6427 43.096 73.6427 41.1538V29.7072C73.6427 27.761 72.0504 26.1871 70.0908 26.1871C68.1311 26.1871 66.498 27.761 66.498 29.7072V41.1538C66.498 43.096 68.1311 44.7185 70.0908 44.7185ZM66.498 54.9939C66.498 56.932 68.1311 58.5546 70.0908 58.5546C72.0504 58.5546 73.6427 56.932 73.6427 54.9494C73.6427 53.0113 72.0504 51.4293 70.0908 51.4293C68.1311 51.4293 66.498 53.0477 66.498 54.9939Z" fill="url(#paint2_linear_10714_267)"/>
<path d="M73.2427 41.1538C73.2427 42.8782 71.8264 44.3185 70.0908 44.3185V45.1185C72.2745 45.1185 74.0427 43.3138 74.0427 41.1538H73.2427ZM73.2427 29.7072V41.1538H74.0427V29.7072H73.2427ZM70.0908 26.5871C71.8332 26.5871 73.2427 27.9856 73.2427 29.7072H74.0427C74.0427 27.5364 72.2677 25.7871 70.0908 25.7871V26.5871ZM66.898 29.7072C66.898 27.9915 68.3423 26.5871 70.0908 26.5871V25.7871C67.9199 25.7871 66.098 27.5306 66.098 29.7072H66.898ZM66.898 41.1538V29.7072H66.098V41.1538H66.898ZM70.0908 44.3185C68.3492 44.3185 66.898 42.8723 66.898 41.1538H66.098C66.098 43.3197 67.913 45.1185 70.0908 45.1185V44.3185ZM70.0908 58.1546C68.3489 58.1546 66.898 56.708 66.898 54.9939H66.098C66.098 57.156 67.9133 58.9546 70.0908 58.9546V58.1546ZM73.2427 54.9494C73.2427 56.7172 71.8235 58.1546 70.0908 58.1546V58.9546C72.2774 58.9546 74.0427 57.1469 74.0427 54.9494H73.2427ZM70.0908 51.8293C71.8326 51.8293 73.2427 53.2353 73.2427 54.9494H74.0427C74.0427 52.7873 72.2683 51.0293 70.0908 51.0293V51.8293ZM66.898 54.9939C66.898 53.2717 68.3489 51.8293 70.0908 51.8293V51.0293C67.9133 51.0293 66.098 52.8237 66.098 54.9939H66.898Z" fill="url(#paint3_linear_10714_267)" mask="url(#path-5-inside-1_10714_267)"/>
</g>
<defs>
<filter id="filter0_f_10714_267" x="5.86902" y="6.66568" width="73.256" height="73.1276" filterUnits="userSpaceOnUse" color-interpolation-filters="sRGB">
<feFlood flood-opacity="0" result="BackgroundImageFix"/>
<feBlend mode="normal" in="SourceGraphic" in2="BackgroundImageFix" result="shape"/>
<feGaussianBlur stdDeviation="9.5" result="effect1_foregroundBlur_10714_267"/>
</filter>
<filter id="filter1_b_10714_267" x="4.26501" y="-23.6833" width="131.667" height="123.5" filterUnits="userSpaceOnUse" color-interpolation-filters="sRGB">
<feFlood flood-opacity="0" result="BackgroundImageFix"/>
<feGaussianBlur in="BackgroundImage" stdDeviation="12"/>
<feComposite in2="SourceAlpha" operator="in" result="effect1_backgroundBlur_10714_267"/>
<feBlend mode="normal" in="SourceGraphic" in2="effect1_backgroundBlur_10714_267" result="shape"/>
</filter>
<filter id="filter2_bd_10714_267" x="51.498" y="11.1871" width="37.1447" height="62.3675" filterUnits="userSpaceOnUse" color-interpolation-filters="sRGB">
<feFlood flood-opacity="0" result="BackgroundImageFix"/>
<feGaussianBlur in="BackgroundImage" stdDeviation="7.5"/>
<feComposite in2="SourceAlpha" operator="in" result="effect1_backgroundBlur_10714_267"/>
<feColorMatrix in="SourceAlpha" type="matrix" values="0 0 0 0 0 0 0 0 0 0 0 0 0 0 0 0 0 0 127 0" result="hardAlpha"/>
<feOffset dx="5" dy="5"/>
<feGaussianBlur stdDeviation="5"/>
<feColorMatrix type="matrix" values="0 0 0 0 1 0 0 0 0 0.376471 0 0 0 0 0.580392 0 0 0 1 0"/>
<feBlend mode="normal" in2="effect1_backgroundBlur_10714_267" result="effect2_dropShadow_10714_267"/>
<feBlend mode="normal" in="SourceGraphic" in2="effect2_dropShadow_10714_267" result="shape"/>
</filter>
<linearGradient id="paint0_linear_10714_267" x1="43.257" y1="38.0304" x2="-0.541218" y2="79.4193" gradientUnits="userSpaceOnUse">
<stop stop-color="#FF759F"/>
<stop offset="1" stop-color="#FF196E"/>
</linearGradient>
<linearGradient id="paint1_linear_10714_267" x1="42.2656" y1="9.8798" x2="87.8828" y2="72.6553" gradientUnits="userSpaceOnUse">
<stop stop-color="white" stop-opacity="0.25"/>
<stop offset="1" stop-color="white" stop-opacity="0"/>
</linearGradient>
<linearGradient id="paint2_linear_10714_267" x1="70.0712" y1="28.0128" x2="63.5112" y2="27.4053" gradientUnits="userSpaceOnUse">
<stop stop-color="white" stop-opacity="0.75"/>
<stop offset="1" stop-color="white" stop-opacity="0.2"/>
</linearGradient>
<linearGradient id="paint3_linear_10714_267" x1="67.6354" y1="29.9579" x2="78.3807" y2="32.8956" gradientUnits="userSpaceOnUse">
<stop stop-color="white" stop-opacity="0.25"/>
<stop offset="1" stop-color="white" stop-opacity="0"/>
</linearGradient>
</defs>
</svg>
