<svg width="100%" height="100%" viewBox="0 0 107 107" fill="none" xmlns="http://www.w3.org/2000/svg">
<path d="M88.0711 42.117L85.13 39.177C83.9863 38.0336 83.3327 36.482 83.3327 34.8527V30.6428C83.3327 23.8645 77.8182 18.356 71.0374 18.356H66.83C65.1961 18.356 63.6439 17.6986 62.5001 16.5553L59.5182 13.5785C54.6981 8.80104 46.8961 8.80104 42.1169 13.6153L39.1758 16.5553C38.0321 17.6986 36.4799 18.356 34.8459 18.356H30.6386C23.8578 18.356 18.3433 23.8645 18.3433 30.6428V34.8078C18.3433 36.482 17.6897 38.0336 16.546 39.177L13.5641 42.1619C8.78483 46.9761 8.82568 54.7794 13.6049 59.5528L16.546 62.452C17.6897 63.6361 18.3433 65.1878 18.3433 66.8252V71.027C18.3433 77.8053 23.8578 83.3219 30.6386 83.3219H34.8459C36.4799 83.3219 38.0321 83.9711 39.1758 85.1145L42.1578 88.0994C44.5678 90.4677 47.7131 91.6478 50.8584 91.6478C54.0037 91.6478 57.149 90.4677 59.5591 88.0545L62.5001 85.1145C63.6439 83.9711 65.1961 83.3219 66.83 83.3219H71.0374C77.8182 83.3219 83.3327 77.8053 83.3327 71.027V66.8252C83.3327 65.1878 83.9863 63.6361 85.13 62.4928L88.0302 59.5936C88.0711 59.5528 88.1119 59.516 88.1528 59.4711C90.4403 57.1477 91.7066 54.0403 91.6657 50.7736C91.6657 47.507 90.3994 44.4036 88.0711 42.117Z" fill="url(#paint0_linear_10714_205)"/>
<g opacity="0.5" filter="url(#filter0_f_10714_205)">
<path d="M75.4877 45.0591L73.5405 43.1126C72.7832 42.3556 72.3505 41.3283 72.3505 40.2496V37.4622C72.3505 32.9744 68.6994 29.3274 64.2099 29.3274H61.4243C60.3425 29.3274 59.3148 28.8921 58.5575 28.1351L56.5832 26.1642C53.3919 23.0011 48.2263 23.0011 45.062 26.1886L43.1148 28.1351C42.3575 28.8921 41.3298 29.3274 40.248 29.3274H37.4624C32.9729 29.3274 29.3218 32.9744 29.3218 37.4622V40.2198C29.3218 41.3283 28.8891 42.3556 28.1319 43.1126L26.1576 45.0889C22.9933 48.2763 23.0204 53.4428 26.1846 56.6032L28.1319 58.5227C28.8891 59.3067 29.3218 60.334 29.3218 61.4182V64.2001C29.3218 68.6879 32.9729 72.3404 37.4624 72.3404H40.248C41.3298 72.3404 42.3575 72.7702 43.1148 73.5272L45.0891 75.5035C46.6847 77.0715 48.7672 77.8529 50.8497 77.8529C52.9321 77.8529 55.0146 77.0715 56.6103 75.4738L58.5575 73.5272C59.3148 72.7702 60.3425 72.3404 61.4243 72.3404H64.2099C68.6994 72.3404 72.3505 68.6879 72.3505 64.2001V61.4182C72.3505 60.334 72.7832 59.3067 73.5405 58.5497L75.4607 56.6302C75.4877 56.6032 75.5147 56.5789 75.5418 56.5491C77.0563 55.0108 77.8947 52.9534 77.8677 50.7906C77.8677 48.6278 77.0293 46.5731 75.4877 45.0591Z" fill="#E46800"/>
</g>
<g filter="url(#filter1_b_10714_205)">
<mask id="path-3-outside-1_10714_205" maskUnits="userSpaceOnUse" x="23.166" y="23.1699" width="84" height="84" fill="black">
<rect fill="white" x="23.166" y="23.1699" width="84" height="84"/>
<path d="M102.237 56.2869L99.296 53.3469C98.1523 52.2035 97.4987 50.6519 97.4987 49.0226V44.8127C97.4987 38.0344 91.9842 32.526 85.2034 32.526H80.9961C79.3621 32.526 77.8099 31.8685 76.6661 30.7252L73.6842 27.7485C68.8642 22.971 61.0622 22.971 56.2829 27.7852L53.3419 30.7252C52.1981 31.8685 50.6459 32.526 49.012 32.526H44.8046C38.0238 32.526 32.5093 38.0344 32.5093 44.8127V48.9777C32.5093 50.6519 31.8557 52.2035 30.712 53.3469L27.7301 56.3318C22.9508 61.146 22.9917 68.9493 27.7709 73.7227L30.712 76.6219C31.8557 77.806 32.5093 79.3577 32.5093 80.9951V85.1969C32.5093 91.9752 38.0238 97.4918 44.8046 97.4918H49.012C50.6459 97.4918 52.1981 98.141 53.3419 99.2844L56.3238 102.269C58.7338 104.638 61.8791 105.818 65.0244 105.818C68.1697 105.818 71.315 104.638 73.7251 102.224L76.6661 99.2844C77.8099 98.141 79.3621 97.4918 80.9961 97.4918H85.2034C91.9842 97.4918 97.4987 91.9752 97.4987 85.1969V80.9951C97.4987 79.3577 98.1523 77.806 99.296 76.6627L102.196 73.7635C102.237 73.7227 102.278 73.686 102.319 73.641C104.606 71.3176 105.873 68.2102 105.832 64.9435C105.832 61.6769 104.565 58.5735 102.237 56.2869Z"/>
</mask>
<path d="M102.237 56.2869L99.296 53.3469C98.1523 52.2035 97.4987 50.6519 97.4987 49.0226V44.8127C97.4987 38.0344 91.9842 32.526 85.2034 32.526H80.9961C79.3621 32.526 77.8099 31.8685 76.6661 30.7252L73.6842 27.7485C68.8642 22.971 61.0622 22.971 56.2829 27.7852L53.3419 30.7252C52.1981 31.8685 50.6459 32.526 49.012 32.526H44.8046C38.0238 32.526 32.5093 38.0344 32.5093 44.8127V48.9777C32.5093 50.6519 31.8557 52.2035 30.712 53.3469L27.7301 56.3318C22.9508 61.146 22.9917 68.9493 27.7709 73.7227L30.712 76.6219C31.8557 77.806 32.5093 79.3577 32.5093 80.9951V85.1969C32.5093 91.9752 38.0238 97.4918 44.8046 97.4918H49.012C50.6459 97.4918 52.1981 98.141 53.3419 99.2844L56.3238 102.269C58.7338 104.638 61.8791 105.818 65.0244 105.818C68.1697 105.818 71.315 104.638 73.7251 102.224L76.6661 99.2844C77.8099 98.141 79.3621 97.4918 80.9961 97.4918H85.2034C91.9842 97.4918 97.4987 91.9752 97.4987 85.1969V80.9951C97.4987 79.3577 98.1523 77.806 99.296 76.6627L102.196 73.7635C102.237 73.7227 102.278 73.686 102.319 73.641C104.606 71.3176 105.873 68.2102 105.832 64.9435C105.832 61.6769 104.565 58.5735 102.237 56.2869Z" fill="#FFCBB9" fill-opacity="0.35"/>
<path d="M99.296 53.3469L100.003 52.6396H100.003L99.296 53.3469ZM76.6661 30.7252L77.3731 30.018L77.3726 30.0175L76.6661 30.7252ZM73.6842 27.7485L74.3907 27.0407L74.3882 27.0382L73.6842 27.7485ZM56.2829 27.7852L56.9899 28.4925L56.9926 28.4897L56.2829 27.7852ZM53.3419 30.7252L54.0488 31.4325L53.3419 30.7252ZM30.712 53.3469L30.005 52.6396L30.0045 52.6401L30.712 53.3469ZM27.7301 56.3318L27.0226 55.625L27.0204 55.6273L27.7301 56.3318ZM27.7709 73.7227L27.0642 74.4303L27.0689 74.4349L27.7709 73.7227ZM30.712 76.6219L31.4313 75.9272C31.4256 75.9213 31.4198 75.9155 31.414 75.9097L30.712 76.6219ZM53.3419 99.2844L54.0493 98.5776L54.0488 98.5771L53.3419 99.2844ZM56.3238 102.269L55.6163 102.976L55.6229 102.983L56.3238 102.269ZM73.7251 102.224L73.0181 101.517L73.0175 101.518L73.7251 102.224ZM76.6661 99.2844L77.3731 99.9916L76.6661 99.2844ZM99.296 76.6627L100.003 77.3699H100.003L99.296 76.6627ZM102.196 73.7635L101.489 73.0563V73.0563L102.196 73.7635ZM102.319 73.641L101.606 72.9395C101.597 72.9489 101.588 72.9585 101.579 72.9682L102.319 73.641ZM105.832 64.9435H104.832L104.832 64.9561L105.832 64.9435ZM102.944 55.5796L100.003 52.6396L98.589 54.0541L101.53 56.9941L102.944 55.5796ZM100.003 52.6396C99.0444 51.6814 98.4987 50.3832 98.4987 49.0226H96.4987C96.4987 50.9206 97.2601 52.7257 98.589 54.0541L100.003 52.6396ZM98.4987 49.0226V44.8127H96.4987V49.0226H98.4987ZM98.4987 44.8127C98.4987 37.4813 92.5357 31.526 85.2034 31.526V33.526C91.4327 33.526 96.4987 38.5874 96.4987 44.8127H98.4987ZM85.2034 31.526H80.9961V33.526H85.2034V31.526ZM80.9961 31.526C79.6319 31.526 78.3327 30.9772 77.3731 30.018L75.9592 31.4325C77.2871 32.7599 79.0923 33.526 80.9961 33.526V31.526ZM77.3726 30.0175L74.3907 27.0407L72.9777 28.4562L75.9597 31.4329L77.3726 30.0175ZM74.3882 27.0382C69.1795 21.8756 60.7448 21.8713 55.5732 27.0807L56.9926 28.4897C61.3795 24.0707 68.5488 24.0663 72.9803 28.4587L74.3882 27.0382ZM55.5759 27.078L52.6349 30.018L54.0488 31.4325L56.9899 28.4925L55.5759 27.078ZM52.6349 30.018C51.6753 30.9772 50.3761 31.526 49.012 31.526V33.526C50.9157 33.526 52.7209 32.7599 54.0488 31.4325L52.6349 30.018ZM49.012 31.526H44.8046V33.526H49.012V31.526ZM44.8046 31.526C37.4723 31.526 31.5093 37.4813 31.5093 44.8127H33.5093C33.5093 38.5874 38.5753 33.526 44.8046 33.526V31.526ZM31.5093 44.8127V48.9777H33.5093V44.8127H31.5093ZM31.5093 48.9777C31.5093 50.3871 30.9608 51.6842 30.005 52.6396L31.419 54.0541C32.7507 52.7229 33.5093 50.9167 33.5093 48.9777H31.5093ZM30.0045 52.6401L27.0226 55.625L28.4375 57.0385L31.4195 54.0536L30.0045 52.6401ZM27.0204 55.6273C21.8514 60.8341 21.8966 69.2689 27.0643 74.4302L28.4776 73.0152C24.0868 68.6297 24.0503 61.458 28.4398 57.0363L27.0204 55.6273ZM27.0689 74.4349L30.01 77.334L31.414 75.9097L28.4729 73.0106L27.0689 74.4349ZM29.9927 77.3166C30.9647 78.3229 31.5093 79.6286 31.5093 80.9951H33.5093C33.5093 79.0868 32.7468 77.2892 31.4313 75.9272L29.9927 77.3166ZM31.5093 80.9951V85.1969H33.5093V80.9951H31.5093ZM31.5093 85.1969C31.5093 92.5274 37.4714 98.4918 44.8046 98.4918V96.4918C38.5762 96.4918 33.5093 91.423 33.5093 85.1969H31.5093ZM44.8046 98.4918H49.012V96.4918H44.8046V98.4918ZM49.012 98.4918C50.3795 98.4918 51.6778 99.0349 52.6349 99.9916L54.0488 98.5771C52.7185 97.2472 50.9123 96.4918 49.012 96.4918V98.4918ZM52.6344 99.9911L55.6163 102.976L57.0312 101.563L54.0493 98.5776L52.6344 99.9911ZM55.6229 102.983C58.2286 105.543 61.6294 106.818 65.0244 106.818V104.818C62.1289 104.818 59.239 103.732 57.0247 101.556L55.6229 102.983ZM65.0244 106.818C68.4206 106.818 71.825 105.542 74.4327 102.931L73.0175 101.518C70.8051 103.733 67.9189 104.818 65.0244 104.818V106.818ZM74.4321 102.932L77.3731 99.9916L75.9592 98.5771L73.0181 101.517L74.4321 102.932ZM77.3731 99.9916C78.3302 99.0349 79.6285 98.4918 80.9961 98.4918V96.4918C79.0957 96.4918 77.2896 97.2472 75.9592 98.5771L77.3731 99.9916ZM80.9961 98.4918H85.2034V96.4918H80.9961V98.4918ZM85.2034 98.4918C92.5366 98.4918 98.4987 92.5274 98.4987 85.1969H96.4987C96.4987 91.423 91.4318 96.4918 85.2034 96.4918V98.4918ZM98.4987 85.1969V80.9951H96.4987V85.1969H98.4987ZM98.4987 80.9951C98.4987 79.6257 99.0449 78.3277 100.003 77.3699L98.589 75.9555C97.2596 77.2844 96.4987 79.0897 96.4987 80.9951H98.4987ZM100.003 77.3699L102.903 74.4708L101.489 73.0563L98.589 75.9555L100.003 77.3699ZM102.903 74.4708C102.918 74.4556 102.922 74.4525 102.955 74.42C102.981 74.3947 103.018 74.3582 103.059 74.3139L101.579 72.9682C101.578 72.9688 101.574 72.9731 101.56 72.9877C101.551 72.9963 101.545 73.002 101.531 73.0151C101.52 73.0262 101.505 73.0405 101.489 73.0563L102.903 74.4708ZM103.031 74.3426C105.504 71.8312 106.876 68.4676 106.832 64.931L104.832 64.9561C104.869 67.9528 103.709 70.804 101.606 72.9395L103.031 74.3426ZM106.832 64.9435C106.832 61.4162 105.463 58.0534 102.938 55.5734L101.536 57.0003C103.668 59.0937 104.832 61.9376 104.832 64.9435H106.832Z" fill="url(#paint1_linear_10714_205)" mask="url(#path-3-outside-1_10714_205)"/>
</g>
<g filter="url(#filter2_bd_10714_205)">
<mask id="path-5-inside-2_10714_205" fill="white">
<path fill-rule="evenodd" clip-rule="evenodd" d="M57.0181 78.0098C56.3645 78.7039 55.4659 79.0714 54.4855 79.0714C53.546 79.0714 52.6473 78.7039 51.9938 78.0098C50.6049 76.6214 50.6049 74.3348 51.9938 72.9464L72.9897 51.9581C74.3786 50.5739 76.6252 50.5739 78.014 51.9581C79.4029 53.3464 79.4029 55.6372 78.014 57.0255L57.0181 78.0098ZM75.5222 79.0716C73.5207 79.0716 71.9276 77.4791 71.9276 75.4782C71.9276 73.5223 73.5207 71.9257 75.5222 71.9257C77.483 71.9257 79.076 73.5223 79.076 75.4782C79.076 77.4791 77.483 79.0716 75.5222 79.0716ZM58.0801 54.49C58.0801 52.53 56.487 50.9375 54.5263 50.9375C52.5656 50.9375 50.9316 52.53 50.9316 54.49C50.9316 56.4949 52.5656 58.0833 54.5263 58.0833C56.487 58.0833 58.0801 56.4949 58.0801 54.49Z"/>
</mask>
<path fill-rule="evenodd" clip-rule="evenodd" d="M57.0181 78.0098C56.3645 78.7039 55.4659 79.0714 54.4855 79.0714C53.546 79.0714 52.6473 78.7039 51.9938 78.0098C50.6049 76.6214 50.6049 74.3348 51.9938 72.9464L72.9897 51.9581C74.3786 50.5739 76.6252 50.5739 78.014 51.9581C79.4029 53.3464 79.4029 55.6372 78.014 57.0255L57.0181 78.0098ZM75.5222 79.0716C73.5207 79.0716 71.9276 77.4791 71.9276 75.4782C71.9276 73.5223 73.5207 71.9257 75.5222 71.9257C77.483 71.9257 79.076 73.5223 79.076 75.4782C79.076 77.4791 77.483 79.0716 75.5222 79.0716ZM58.0801 54.49C58.0801 52.53 56.487 50.9375 54.5263 50.9375C52.5656 50.9375 50.9316 52.53 50.9316 54.49C50.9316 56.4949 52.5656 58.0833 54.5263 58.0833C56.487 58.0833 58.0801 56.4949 58.0801 54.49Z" fill="url(#paint2_linear_10714_205)"/>
<path d="M57.0181 78.0098L56.7352 77.7267L56.7269 77.7356L57.0181 78.0098ZM51.9938 78.0098L52.2851 77.7354L52.2766 77.7269L51.9938 78.0098ZM51.9938 72.9464L51.711 72.6635H51.711L51.9938 72.9464ZM72.9897 51.9581L72.7073 51.6748L72.7069 51.6752L72.9897 51.9581ZM78.014 51.9581L78.2968 51.6752L78.2964 51.6748L78.014 51.9581ZM78.014 57.0255L78.2968 57.3084L78.2968 57.3084L78.014 57.0255ZM54.4855 79.4714C55.5684 79.4714 56.575 79.0639 57.3093 78.284L56.7269 77.7356C56.154 78.344 55.3633 78.6714 54.4855 78.6714V79.4714ZM51.7025 78.284C52.4352 79.0621 53.4409 79.4714 54.4855 79.4714V78.6714C53.6511 78.6714 52.8595 78.3458 52.285 77.7356L51.7025 78.284ZM51.711 72.6635C50.1659 74.2081 50.1659 76.7481 51.711 78.2927L52.2766 77.7269C51.044 76.4948 51.044 74.4614 52.2766 73.2293L51.711 72.6635ZM72.7069 51.6752L51.711 72.6635L52.2766 73.2293L73.2725 52.241L72.7069 51.6752ZM78.2964 51.6748C76.7515 50.135 74.2523 50.135 72.7073 51.6748L73.2721 52.2414C74.5048 51.0128 76.4989 51.0128 77.7317 52.2414L78.2964 51.6748ZM78.2968 57.3084C79.8419 55.7639 79.8419 53.2198 78.2968 51.6752L77.7312 52.241C78.9638 53.4731 78.9638 55.5105 77.7312 56.7426L78.2968 57.3084ZM57.3009 78.2927L78.2968 57.3084L77.7313 56.7426L56.7353 77.7269L57.3009 78.2927ZM71.5276 75.4782C71.5276 77.7001 73.2999 79.4716 75.5222 79.4716V78.6716C73.7415 78.6716 72.3276 77.258 72.3276 75.4782H71.5276ZM75.5222 71.5257C73.3026 71.5257 71.5276 73.2986 71.5276 75.4782H72.3276C72.3276 73.746 73.7388 72.3257 75.5222 72.3257V71.5257ZM79.476 75.4782C79.476 73.3016 77.704 71.5257 75.5222 71.5257V72.3257C77.2619 72.3257 78.676 73.7431 78.676 75.4782H79.476ZM75.5222 79.4716C77.7067 79.4716 79.476 77.6971 79.476 75.4782H78.676C78.676 77.261 77.2592 78.6716 75.5222 78.6716V79.4716ZM54.5263 51.3375C56.2662 51.3375 57.6801 52.7511 57.6801 54.49H58.4801C58.4801 52.3089 56.7078 50.5375 54.5263 50.5375V51.3375ZM51.3316 54.49C51.3316 52.757 52.7804 51.3375 54.5263 51.3375V50.5375C52.3508 50.5375 50.5316 52.303 50.5316 54.49H51.3316ZM54.5263 57.6833C52.7831 57.6833 51.3316 56.2706 51.3316 54.49H50.5316C50.5316 56.7192 52.3481 58.4833 54.5263 58.4833V57.6833ZM57.6801 54.49C57.6801 56.2766 56.2635 57.6833 54.5263 57.6833V58.4833C56.7104 58.4833 58.4801 56.7133 58.4801 54.49H57.6801Z" fill="url(#paint3_linear_10714_205)" mask="url(#path-5-inside-2_10714_205)"/>
</g>
<defs>
<filter id="filter0_f_10714_205" x="0.797852" y="0.794922" width="100.07" height="100.058" filterUnits="userSpaceOnUse" color-interpolation-filters="sRGB">
<feFlood flood-opacity="0" result="BackgroundImageFix"/>
<feBlend mode="normal" in="SourceGraphic" in2="BackgroundImageFix" result="shape"/>
<feGaussianBlur stdDeviation="11.5" result="effect1_foregroundBlur_10714_205"/>
</filter>
<filter id="filter1_b_10714_205" x="-0.833984" y="-0.830078" width="131.667" height="131.648" filterUnits="userSpaceOnUse" color-interpolation-filters="sRGB">
<feFlood flood-opacity="0" result="BackgroundImageFix"/>
<feGaussianBlur in="BackgroundImage" stdDeviation="12"/>
<feComposite in2="SourceAlpha" operator="in" result="effect1_backgroundBlur_10714_205"/>
<feBlend mode="normal" in="SourceGraphic" in2="effect1_backgroundBlur_10714_205" result="shape"/>
</filter>
<filter id="filter2_bd_10714_205" x="35.9316" y="35.9199" width="58.1444" height="58.1516" filterUnits="userSpaceOnUse" color-interpolation-filters="sRGB">
<feFlood flood-opacity="0" result="BackgroundImageFix"/>
<feGaussianBlur in="BackgroundImage" stdDeviation="7.5"/>
<feComposite in2="SourceAlpha" operator="in" result="effect1_backgroundBlur_10714_205"/>
<feColorMatrix in="SourceAlpha" type="matrix" values="0 0 0 0 0 0 0 0 0 0 0 0 0 0 0 0 0 0 127 0" result="hardAlpha"/>
<feOffset dx="5" dy="5"/>
<feGaussianBlur stdDeviation="5"/>
<feColorMatrix type="matrix" values="0 0 0 0 1 0 0 0 0 0.580392 0 0 0 0 0.247059 0 0 0 0.5 0"/>
<feBlend mode="normal" in2="effect1_backgroundBlur_10714_205" result="effect2_dropShadow_10714_205"/>
<feBlend mode="normal" in="SourceGraphic" in2="effect2_dropShadow_10714_205" result="shape"/>
</filter>
<linearGradient id="paint0_linear_10714_205" x1="50.8333" y1="10" x2="50.8333" y2="91.6478" gradientUnits="userSpaceOnUse">
<stop stop-color="#FFB37F"/>
<stop offset="1" stop-color="#FF7B0D"/>
</linearGradient>
<linearGradient id="paint1_linear_10714_205" x1="23.9278" y1="23.6147" x2="89.1888" y2="98.244" gradientUnits="userSpaceOnUse">
<stop stop-color="white" stop-opacity="0.4"/>
<stop offset="1" stop-color="white" stop-opacity="0"/>
</linearGradient>
<linearGradient id="paint2_linear_10714_205" x1="77.0806" y1="56.0035" x2="45.7304" y2="57.0254" gradientUnits="userSpaceOnUse">
<stop stop-color="white"/>
<stop offset="1" stop-color="white" stop-opacity="0.2"/>
</linearGradient>
<linearGradient id="paint3_linear_10714_205" x1="55.4118" y1="54.1996" x2="73.3705" y2="76.4362" gradientUnits="userSpaceOnUse">
<stop stop-color="white" stop-opacity="0.25"/>
<stop offset="1" stop-color="white" stop-opacity="0"/>
</linearGradient>
</defs>
</svg>
