<svg width="100%" height="100%" viewBox="0 0 107 107" fill="none" xmlns="http://www.w3.org/2000/svg">
<g filter="url(#filter0_b_10714_145)">
<path d="M89.6667 48.8333C89.6667 71.3856 71.3856 89.6667 48.8333 89.6667C26.2811 89.6667 8 71.3856 8 48.8333C8 26.2852 26.2811 8 48.8333 8C71.3856 8 89.6667 26.2852 89.6667 48.8333Z" fill="url(#paint0_linear_10714_145)"/>
</g>
<g filter="url(#filter1_f_10714_145)">
<path d="M48.9391 22.2559C34.4391 22.2559 22.6709 34.0266 22.6709 48.5241C22.6709 63.0267 34.4391 74.7922 48.9391 74.7922C63.4654 74.7922 75.2073 63.0267 75.2073 48.5241C75.2073 34.0266 63.4654 22.2559 48.9391 22.2559Z" fill="#FF3D22"/>
</g>
<g filter="url(#filter2_b_10714_145)">
<path d="M105.667 64.8333C105.667 87.3856 87.3856 105.667 64.8333 105.667C42.2811 105.667 24 87.3856 24 64.8333C24 42.2852 42.2811 24 64.8333 24C87.3856 24 105.667 42.2852 105.667 64.8333Z" fill="#FFAC95" fill-opacity="0.4"/>
<path d="M64.8333 106.167C87.6617 106.167 106.167 87.6617 106.167 64.8333C106.167 42.0091 87.6618 23.5 64.8333 23.5C42.0049 23.5 23.5 42.0091 23.5 64.8333C23.5 87.6617 42.0049 106.167 64.8333 106.167Z" stroke="url(#paint1_linear_10714_145)" stroke-linecap="round" stroke-linejoin="round"/>
</g>
<g filter="url(#filter3_bd_10714_145)">
<mask id="path-5-inside-1_10714_145" fill="white">
<path d="M80.5947 50.3783L73.9797 71.285C73.7347 72.1425 73.0406 72.8366 72.1831 73.0857L51.3581 79.615C49.9697 80.0682 48.6222 78.7166 49.0714 77.3283L55.6047 56.3808C55.8497 55.5233 56.5439 54.87 57.4014 54.5841L78.3081 48.0508C79.7372 47.6016 81.0439 48.9491 80.5947 50.3783Z"/>
</mask>
<path d="M80.5947 50.3783L73.9797 71.285C73.7347 72.1425 73.0406 72.8366 72.1831 73.0857L51.3581 79.615C49.9697 80.0682 48.6222 78.7166 49.0714 77.3283L55.6047 56.3808C55.8497 55.5233 56.5439 54.87 57.4014 54.5841L78.3081 48.0508C79.7372 47.6016 81.0439 48.9491 80.5947 50.3783Z" fill="url(#paint2_linear_10714_145)"/>
<path d="M73.9797 71.285L73.5982 71.1643L73.5951 71.1751L73.9797 71.285ZM72.1831 73.0857L72.0715 72.7015L72.0634 72.704L72.1831 73.0857ZM51.3581 79.615L51.2384 79.2333L51.2339 79.2347L51.3581 79.615ZM49.0714 77.3283L49.452 77.4514L49.4533 77.4474L49.0714 77.3283ZM55.6047 56.3808L55.9867 56.4999L55.9893 56.4907L55.6047 56.3808ZM57.4014 54.5841L57.2821 54.2023L57.2749 54.2047L57.4014 54.5841ZM78.3081 48.0508L78.4274 48.4326L78.428 48.4324L78.3081 48.0508ZM80.2134 50.2576L73.5984 71.1643L74.3611 71.4056L80.9761 50.499L80.2134 50.2576ZM73.5951 71.1751C73.3882 71.8995 72.7977 72.4907 72.0715 72.7016L72.2946 73.4698C73.2835 73.1826 74.0813 72.3854 74.3643 71.3949L73.5951 71.1751ZM72.0634 72.704L51.2384 79.2333L51.4777 79.9967L72.3027 73.4674L72.0634 72.704ZM51.2339 79.2347C50.1584 79.5858 49.1027 78.5309 49.452 77.4514L48.6908 77.2052C48.1417 78.9024 49.7811 80.5506 51.4822 79.9952L51.2339 79.2347ZM49.4533 77.4474L55.9866 56.4999L55.2229 56.2617L48.6895 77.2092L49.4533 77.4474ZM55.9893 56.4907C56.1932 55.777 56.778 55.2136 57.5279 54.9636L57.2749 54.2047C56.3098 54.5264 55.5062 55.2696 55.2201 56.2709L55.9893 56.4907ZM57.5207 54.9659L78.4274 48.4326L78.1888 47.669L57.2821 54.2023L57.5207 54.9659ZM78.428 48.4324C79.5364 48.084 80.5693 49.1252 80.2131 50.2584L80.9763 50.4982C81.5185 48.773 79.938 47.1192 78.1881 47.6692L78.428 48.4324Z" fill="url(#paint3_linear_10714_145)" mask="url(#path-5-inside-1_10714_145)"/>
</g>
<defs>
<filter id="filter0_b_10714_145" x="-5" y="-5" width="107.667" height="107.667" filterUnits="userSpaceOnUse" color-interpolation-filters="sRGB">
<feFlood flood-opacity="0" result="BackgroundImageFix"/>
<feGaussianBlur in="BackgroundImage" stdDeviation="6.5"/>
<feComposite in2="SourceAlpha" operator="in" result="effect1_backgroundBlur_10714_145"/>
<feBlend mode="normal" in="SourceGraphic" in2="effect1_backgroundBlur_10714_145" result="shape"/>
</filter>
<filter id="filter1_f_10714_145" x="0.670898" y="0.255859" width="96.5364" height="96.5364" filterUnits="userSpaceOnUse" color-interpolation-filters="sRGB">
<feFlood flood-opacity="0" result="BackgroundImageFix"/>
<feBlend mode="normal" in="SourceGraphic" in2="BackgroundImageFix" result="shape"/>
<feGaussianBlur stdDeviation="11" result="effect1_foregroundBlur_10714_145"/>
</filter>
<filter id="filter2_b_10714_145" x="8" y="8" width="113.667" height="113.667" filterUnits="userSpaceOnUse" color-interpolation-filters="sRGB">
<feFlood flood-opacity="0" result="BackgroundImageFix"/>
<feGaussianBlur in="BackgroundImage" stdDeviation="7.5"/>
<feComposite in2="SourceAlpha" operator="in" result="effect1_backgroundBlur_10714_145"/>
<feBlend mode="normal" in="SourceGraphic" in2="effect1_backgroundBlur_10714_145" result="shape"/>
</filter>
<filter id="filter3_bd_10714_145" x="33.9834" y="32.9629" width="61.7013" height="61.7413" filterUnits="userSpaceOnUse" color-interpolation-filters="sRGB">
<feFlood flood-opacity="0" result="BackgroundImageFix"/>
<feGaussianBlur in="BackgroundImage" stdDeviation="7.5"/>
<feComposite in2="SourceAlpha" operator="in" result="effect1_backgroundBlur_10714_145"/>
<feColorMatrix in="SourceAlpha" type="matrix" values="0 0 0 0 0 0 0 0 0 0 0 0 0 0 0 0 0 0 127 0" result="hardAlpha"/>
<feOffset dx="5" dy="5"/>
<feGaussianBlur stdDeviation="5"/>
<feColorMatrix type="matrix" values="0 0 0 0 1 0 0 0 0 0.447059 0 0 0 0 0.368627 0 0 0 0.3 0"/>
<feBlend mode="normal" in2="effect1_backgroundBlur_10714_145" result="effect2_dropShadow_10714_145"/>
<feBlend mode="normal" in="SourceGraphic" in2="effect2_dropShadow_10714_145" result="shape"/>
</filter>
<linearGradient id="paint0_linear_10714_145" x1="54.8456" y1="54.3021" x2="-16.914" y2="89.1932" gradientUnits="userSpaceOnUse">
<stop stop-color="#FFA78F"/>
<stop offset="1" stop-color="#F23E2C"/>
</linearGradient>
<linearGradient id="paint1_linear_10714_145" x1="37" y1="33.5143" x2="89.0946" y2="98.0347" gradientUnits="userSpaceOnUse">
<stop stop-color="white" stop-opacity="0.25"/>
<stop offset="1" stop-color="white" stop-opacity="0"/>
</linearGradient>
<linearGradient id="paint2_linear_10714_145" x1="65.207" y1="53.5" x2="59.5688" y2="77.8414" gradientUnits="userSpaceOnUse">
<stop stop-color="white"/>
<stop offset="1" stop-color="white" stop-opacity="0.2"/>
</linearGradient>
<linearGradient id="paint3_linear_10714_145" x1="54.0297" y1="51.6608" x2="74.2827" y2="76.7129" gradientUnits="userSpaceOnUse">
<stop stop-color="white" stop-opacity="0.25"/>
<stop offset="1" stop-color="white" stop-opacity="0"/>
</linearGradient>
</defs>
</svg>
