<svg width="100%" height="100%" viewBox="0 0 104 101" fill="none" xmlns="http://www.w3.org/2000/svg">
<path d="M66.8253 10.7906C62.4858 8.53293 57.4254 8.14376 52.8147 9.69332L22.3995 17.843C17.5992 18.8152 13.4113 21.6824 10.782 25.8073C8.52434 30.1468 8.13514 35.2072 9.69342 39.8504L17.8431 70.2653C18.8152 75.0656 21.6824 79.2535 25.8074 81.8827C30.1469 84.1404 35.2073 84.5295 39.8506 82.9712L70.2657 74.8215C75.0335 73.8581 79.2539 70.9822 81.8832 66.8572C84.1083 62.5265 84.5301 57.4574 82.9718 52.8141L74.8222 22.3992C73.8175 17.6076 70.9502 13.4198 66.8253 10.7906Z" fill="url(#paint0_linear_10714_319)"/>
<g opacity="0.5" filter="url(#filter0_f_10714_319)">
<path d="M51.47 19.3621L28.533 25.7601C20.2132 28.0808 16.564 33.7155 18.6113 41.0552L25.5453 65.914C27.6262 73.3741 33.6383 76.2102 41.9581 73.8895L64.895 67.4915C73.3489 65.1334 76.8882 59.6331 74.8073 52.1731L67.8733 27.3143C65.826 19.9745 59.9239 17.004 51.47 19.3621Z" fill="#30AD31"/>
</g>
<g filter="url(#filter1_b_10714_319)">
<mask id="path-3-outside-1_10714_319" maskUnits="userSpaceOnUse" x="28.2559" y="25.5605" width="76" height="76" fill="black">
<rect fill="white" x="28.2559" y="25.5605" width="76" height="76"/>
<path d="M97.4529 31.692C93.5319 28.1009 88.3284 26.2687 83.0515 26.5985H48.8254C43.5119 26.2687 38.3084 28.1009 34.3874 31.692C30.7962 35.613 28.964 40.8165 29.2938 46.1299V80.3558C28.964 85.6692 30.7962 90.8727 34.3874 94.7937C38.3084 98.3848 43.5119 100.217 48.8254 99.8872H83.0515C88.3284 100.217 93.5686 98.3848 97.4895 94.7937C101.044 90.8727 102.913 85.6692 102.583 80.3558V46.1299C102.876 40.8165 101.044 35.613 97.4529 31.692Z"/>
</mask>
<path d="M97.4529 31.692C93.5319 28.1009 88.3284 26.2687 83.0515 26.5985H48.8254C43.5119 26.2687 38.3084 28.1009 34.3874 31.692C30.7962 35.613 28.964 40.8165 29.2938 46.1299V80.3558C28.964 85.6692 30.7962 90.8727 34.3874 94.7937C38.3084 98.3848 43.5119 100.217 48.8254 99.8872H83.0515C88.3284 100.217 93.5686 98.3848 97.4895 94.7937C101.044 90.8727 102.913 85.6692 102.583 80.3558V46.1299C102.876 40.8165 101.044 35.613 97.4529 31.692Z" fill="#72DC60" fill-opacity="0.35"/>
<path d="M96.7775 32.4295C97.1848 32.8025 97.8173 32.7747 98.1903 32.3674C98.5634 31.9602 98.5356 31.3276 98.1283 30.9546L96.7775 32.4295ZM83.0515 26.5985V27.5985C83.0723 27.5985 83.0931 27.5978 83.1139 27.5965L83.0515 26.5985ZM48.8254 26.5985L48.7634 27.5965C48.7841 27.5978 48.8047 27.5985 48.8254 27.5985V26.5985ZM34.3874 31.692L33.712 30.9546C33.6904 30.9743 33.6697 30.995 33.6499 31.0166L34.3874 31.692ZM29.2938 46.1299H30.2938C30.2938 46.1093 30.2931 46.0886 30.2919 46.068L29.2938 46.1299ZM29.2938 80.3558L30.2919 80.4177C30.2931 80.3971 30.2938 80.3764 30.2938 80.3558H29.2938ZM34.3874 94.7937L33.6499 95.4691C33.6697 95.4907 33.6904 95.5114 33.712 95.5311L34.3874 94.7937ZM48.8254 99.8872V98.8872C48.8047 98.8872 48.7841 98.8879 48.7634 98.8892L48.8254 99.8872ZM83.0515 99.8872L83.1139 98.8892C83.0931 98.8879 83.0723 98.8872 83.0515 98.8872V99.8872ZM97.4895 94.7937L98.1649 95.5311C98.1878 95.5102 98.2096 95.4883 98.2304 95.4653L97.4895 94.7937ZM102.583 80.3558H101.583C101.583 80.3764 101.584 80.3971 101.585 80.4177L102.583 80.3558ZM102.583 46.1299L101.585 46.0748C101.584 46.0932 101.583 46.1115 101.583 46.1299H102.583ZM98.1903 31.0166C97.8173 30.6093 97.1848 30.5816 96.7775 30.9546C96.3702 31.3276 96.3424 31.9602 96.7155 32.3674L98.1903 31.0166ZM98.1283 30.9546C94.007 27.18 88.5372 25.2537 82.9892 25.6004L83.1139 27.5965C88.1196 27.2837 93.0568 29.0218 96.7775 32.4295L98.1283 30.9546ZM83.0515 25.5985H48.8254V27.5985H83.0515V25.5985ZM48.8873 25.6004C43.304 25.2538 37.834 27.1793 33.712 30.9546L35.0628 32.4295C38.7827 29.0224 43.7198 27.2835 48.7634 27.5965L48.8873 25.6004ZM33.6499 31.0166C29.8746 35.1386 27.9491 40.6086 28.2957 46.1919L30.2919 46.068C29.9788 41.0244 31.7178 36.0874 35.1248 32.3674L33.6499 31.0166ZM28.2938 46.1299V80.3558H30.2938V46.1299H28.2938ZM28.2957 80.2938C27.9491 85.8771 29.8746 91.3471 33.6499 95.4691L35.1248 94.1183C31.7178 90.3983 29.9788 85.4613 30.2919 80.4177L28.2957 80.2938ZM33.712 95.5311C37.834 99.3064 43.304 101.232 48.8873 100.885L48.7634 98.8892C43.7198 99.2022 38.7827 97.4633 35.0628 94.0562L33.712 95.5311ZM48.8254 100.887H83.0515V98.8872H48.8254V100.887ZM82.9892 100.885C88.5355 101.232 94.0424 99.3069 98.1649 95.5311L96.8141 94.0562C93.0947 97.4628 88.1213 99.2021 83.1139 98.8892L82.9892 100.885ZM98.2304 95.4653C101.963 91.3482 103.928 85.8814 103.581 80.2938L101.585 80.4177C101.898 85.457 100.125 90.3972 96.7487 94.122L98.2304 95.4653ZM103.583 80.3558V46.1299H101.583V80.3558H103.583ZM103.582 46.185C103.889 40.6066 101.966 35.1387 98.1903 31.0166L96.7155 32.3674C100.122 36.0872 101.863 41.0264 101.585 46.0748L103.582 46.185Z" fill="url(#paint1_linear_10714_319)" mask="url(#path-3-outside-1_10714_319)"/>
</g>
<g filter="url(#filter2_bd_10714_319)">
<mask id="path-5-inside-2_10714_319" fill="white">
<path d="M86.8605 56.282L62.1987 81.017C60.9161 82.2629 59.2304 82.9591 57.4715 82.9591H48.86C48.3836 82.9591 47.9439 82.7759 47.6141 82.4461C47.2843 82.1163 47.1377 81.6766 47.1377 81.2002L47.3576 72.5155C47.3942 70.7932 48.0905 69.1808 49.2997 67.9716L66.7792 50.4922C67.0724 50.199 67.5854 50.199 67.8786 50.4922L73.9982 56.5752C74.4013 56.9783 74.9877 57.2348 75.6106 57.2348C76.9665 57.2348 78.0292 56.1354 78.0292 54.8162C78.0292 54.1566 77.7727 53.5703 77.3696 53.1306C77.2596 52.984 71.4331 47.1942 71.4331 47.1942C71.0667 46.8278 71.0667 46.2048 71.4331 45.8384L73.8883 43.3465C76.1603 41.0746 79.8248 41.0746 82.0967 43.3465L86.8605 48.1103C89.0959 50.3456 89.0959 54.0101 86.8605 56.282Z"/>
</mask>
<path d="M86.8605 56.282L62.1987 81.017C60.9161 82.2629 59.2304 82.9591 57.4715 82.9591H48.86C48.3836 82.9591 47.9439 82.7759 47.6141 82.4461C47.2843 82.1163 47.1377 81.6766 47.1377 81.2002L47.3576 72.5155C47.3942 70.7932 48.0905 69.1808 49.2997 67.9716L66.7792 50.4922C67.0724 50.199 67.5854 50.199 67.8786 50.4922L73.9982 56.5752C74.4013 56.9783 74.9877 57.2348 75.6106 57.2348C76.9665 57.2348 78.0292 56.1354 78.0292 54.8162C78.0292 54.1566 77.7727 53.5703 77.3696 53.1306C77.2596 52.984 71.4331 47.1942 71.4331 47.1942C71.0667 46.8278 71.0667 46.2048 71.4331 45.8384L73.8883 43.3465C76.1603 41.0746 79.8248 41.0746 82.0967 43.3465L86.8605 48.1103C89.0959 50.3456 89.0959 54.0101 86.8605 56.282Z" fill="url(#paint2_linear_10714_319)"/>
<path d="M62.1987 81.017L62.338 81.1604L62.3403 81.1582L62.1987 81.017ZM47.1377 81.2002L46.9377 81.1951V81.2002H47.1377ZM47.3576 72.5155L47.5575 72.5205L47.5575 72.5197L47.3576 72.5155ZM49.2997 67.9716L49.4412 68.113L49.2997 67.9716ZM66.7792 50.4922L66.6378 50.3508L66.7792 50.4922ZM67.8786 50.4922L67.7372 50.6336L67.7376 50.634L67.8786 50.4922ZM73.9982 56.5752L74.1397 56.4337L74.1392 56.4333L73.9982 56.5752ZM77.3696 53.1306L77.2096 53.2506L77.2155 53.2585L77.2221 53.2657L77.3696 53.1306ZM71.4331 47.1942L71.2917 47.3356L71.2921 47.3361L71.4331 47.1942ZM71.4331 45.8384L71.5745 45.9798L71.5756 45.9787L71.4331 45.8384ZM73.8883 43.3465L73.7469 43.2051L73.7458 43.2062L73.8883 43.3465ZM82.0967 43.3465L81.9553 43.488L82.0967 43.3465ZM86.8605 48.1103L87.002 47.9689L86.8605 48.1103ZM86.7189 56.1408L62.057 80.8758L62.3403 81.1582L87.0022 56.4232L86.7189 56.1408ZM62.0593 80.8735C60.8131 82.0841 59.177 82.7591 57.4715 82.7591V83.1591C59.2839 83.1591 61.0191 82.4416 62.338 81.1604L62.0593 80.8735ZM57.4715 82.7591H48.86V83.1591H57.4715V82.7591ZM48.86 82.7591C48.4364 82.7591 48.0476 82.5968 47.7555 82.3047L47.4727 82.5875C47.8402 82.955 48.3309 83.1591 48.86 83.1591V82.7591ZM47.7555 82.3047C47.4707 82.0199 47.3377 81.6352 47.3377 81.2002H46.9377C46.9377 81.7179 47.0978 82.2127 47.4727 82.5875L47.7555 82.3047ZM47.3376 81.2053L47.5575 72.5205L47.1576 72.5104L46.9378 81.1951L47.3376 81.2053ZM47.5575 72.5197C47.5931 70.8494 48.268 69.2861 49.4412 68.113L49.1583 67.8301C47.9129 69.0756 47.1954 70.7369 47.1576 72.5112L47.5575 72.5197ZM49.4412 68.113L66.9207 50.6336L66.6378 50.3508L49.1583 67.8301L49.4412 68.113ZM66.9207 50.6336C67.1357 50.4186 67.5221 50.4186 67.7372 50.6336L68.02 50.3508C67.6487 49.9795 67.0091 49.9795 66.6378 50.3508L66.9207 50.6336ZM67.7376 50.634L73.8573 56.717L74.1392 56.4333L68.0196 50.3504L67.7376 50.634ZM73.8568 56.7166C74.297 57.1568 74.934 57.4348 75.6106 57.4348V57.0348C75.0413 57.0348 74.5057 56.7998 74.1397 56.4337L73.8568 56.7166ZM75.6106 57.4348C77.0789 57.4348 78.2292 56.2439 78.2292 54.8162H77.8292C77.8292 56.027 76.854 57.0348 75.6106 57.0348V57.4348ZM78.2292 54.8162C78.2292 54.1031 77.9515 53.4694 77.517 52.9954L77.2221 53.2657C77.5938 53.6712 77.8292 54.2101 77.8292 54.8162H78.2292ZM77.5296 53.0106C77.5131 52.9886 77.4715 52.9453 77.4287 52.9009C77.3792 52.8497 77.3104 52.7794 77.2254 52.693C77.0551 52.5203 76.8182 52.2818 76.5372 52C75.9753 51.4364 75.2365 50.6987 74.5013 49.9658C73.7661 49.2328 73.0343 48.5045 72.4863 47.9594C72.2123 47.6868 71.9842 47.46 71.8247 47.3014C71.7449 47.2221 71.6823 47.1599 71.6396 47.1174C71.6182 47.0962 71.6018 47.0799 71.5908 47.069C71.5853 47.0635 71.5811 47.0593 71.5783 47.0565C71.5769 47.0551 71.5759 47.0541 71.5752 47.0534C71.5748 47.053 71.5745 47.0528 71.5744 47.0526C71.5743 47.0525 71.5742 47.0524 71.5742 47.0524C71.5741 47.0524 71.5741 47.0523 71.4331 47.1942C71.2921 47.3361 71.2922 47.3361 71.2922 47.3361C71.2923 47.3362 71.2923 47.3362 71.2924 47.3363C71.2926 47.3365 71.2929 47.3368 71.2932 47.3371C71.2939 47.3378 71.295 47.3389 71.2964 47.3403C71.2992 47.343 71.3033 47.3472 71.3089 47.3527C71.3199 47.3636 71.3362 47.3799 71.3576 47.4011C71.4003 47.4435 71.4629 47.5058 71.5427 47.5851C71.7022 47.7437 71.9302 47.9704 72.2042 48.2429C72.7521 48.788 73.4838 49.5163 74.2189 50.2491C74.9541 50.9819 75.6925 51.7192 76.254 52.2824C76.5347 52.564 76.771 52.8019 76.9405 52.9738C77.0252 53.0598 77.0929 53.129 77.1409 53.1787C77.1954 53.2352 77.2123 53.2542 77.2096 53.2506L77.5296 53.0106ZM71.5745 47.0528C71.2862 46.7644 71.2862 46.2681 71.5745 45.9798L71.2917 45.6969C70.8471 46.1415 70.8471 46.8911 71.2917 47.3356L71.5745 47.0528ZM71.5756 45.9787L74.0308 43.4869L73.7458 43.2062L71.2907 45.698L71.5756 45.9787ZM74.0297 43.488C76.2236 41.2941 79.7614 41.2941 81.9553 43.488L82.2381 43.2051C79.8881 40.8551 76.097 40.8551 73.7469 43.2051L74.0297 43.488ZM81.9553 43.488L86.7191 48.2517L87.002 47.9689L82.2381 43.2051L81.9553 43.488ZM86.7191 48.2517C88.8757 50.4083 88.8773 53.947 86.718 56.1417L87.0031 56.4223C89.3144 54.0731 89.316 50.2829 87.002 47.9689L86.7191 48.2517Z" fill="url(#paint3_linear_10714_319)" fill-opacity="0.5" mask="url(#path-5-inside-2_10714_319)"/>
</g>
<defs>
<filter id="filter0_f_10714_319" x="0.0533447" y="0.568764" width="93.3364" height="92.1102" filterUnits="userSpaceOnUse" color-interpolation-filters="sRGB">
<feFlood flood-opacity="0" result="BackgroundImageFix"/>
<feBlend mode="normal" in="SourceGraphic" in2="BackgroundImageFix" result="shape"/>
<feGaussianBlur stdDeviation="9" result="effect1_foregroundBlur_10714_319"/>
</filter>
<filter id="filter1_b_10714_319" x="4.25586" y="1.56055" width="123.365" height="123.365" filterUnits="userSpaceOnUse" color-interpolation-filters="sRGB">
<feFlood flood-opacity="0" result="BackgroundImageFix"/>
<feGaussianBlur in="BackgroundImage" stdDeviation="12"/>
<feComposite in2="SourceAlpha" operator="in" result="effect1_backgroundBlur_10714_319"/>
<feBlend mode="normal" in="SourceGraphic" in2="effect1_backgroundBlur_10714_319" result="shape"/>
</filter>
<filter id="filter2_bd_10714_319" x="32.1377" y="26.6426" width="71.3993" height="71.3165" filterUnits="userSpaceOnUse" color-interpolation-filters="sRGB">
<feFlood flood-opacity="0" result="BackgroundImageFix"/>
<feGaussianBlur in="BackgroundImage" stdDeviation="7.5"/>
<feComposite in2="SourceAlpha" operator="in" result="effect1_backgroundBlur_10714_319"/>
<feColorMatrix in="SourceAlpha" type="matrix" values="0 0 0 0 0 0 0 0 0 0 0 0 0 0 0 0 0 0 127 0" result="hardAlpha"/>
<feOffset dx="5" dy="5"/>
<feGaussianBlur stdDeviation="5"/>
<feColorMatrix type="matrix" values="0 0 0 0 0.454902 0 0 0 0 0.870588 0 0 0 0 0.376471 0 0 0 0.5 0"/>
<feBlend mode="normal" in2="effect1_backgroundBlur_10714_319" result="effect2_dropShadow_10714_319"/>
<feBlend mode="normal" in="SourceGraphic" in2="effect2_dropShadow_10714_319" result="shape"/>
</filter>
<linearGradient id="paint0_linear_10714_319" x1="70.1956" y1="5" x2="38.6324" y2="71.0802" gradientUnits="userSpaceOnUse">
<stop stop-color="#9BF763"/>
<stop offset="1" stop-color="#26AB5B"/>
</linearGradient>
<linearGradient id="paint1_linear_10714_319" x1="40.9343" y1="35.1076" x2="87.7331" y2="93.0691" gradientUnits="userSpaceOnUse">
<stop stop-color="white" stop-opacity="0.25"/>
<stop offset="1" stop-color="white" stop-opacity="0"/>
</linearGradient>
<linearGradient id="paint2_linear_10714_319" x1="85.6018" y1="49.1035" x2="39.4871" y2="50.6101" gradientUnits="userSpaceOnUse">
<stop stop-color="white"/>
<stop offset="1" stop-color="white" stop-opacity="0.2"/>
</linearGradient>
<linearGradient id="paint3_linear_10714_319" x1="51.5973" y1="55.5023" x2="86.7511" y2="55.6967" gradientUnits="userSpaceOnUse">
<stop stop-color="white"/>
<stop offset="1" stop-color="white" stop-opacity="0"/>
</linearGradient>
</defs>
</svg>
