<svg width="100%" height="100%" viewBox="0 0 93 77" fill="none" xmlns="http://www.w3.org/2000/svg">
<path fill-rule="evenodd" clip-rule="evenodd" d="M6.32046 19.6465H45.6795C48.619 19.6465 51 22.0991 51 25.1271V28.9559C51 30.4248 50.426 31.8354 49.4067 32.8642L33.1441 49.314C33.0163 49.4445 32.8676 49.5486 32.7063 49.623V62.4848C32.7063 63.2643 32.2636 63.9696 31.5737 64.2958L20.557 69.4688C20.2996 69.5882 20.0268 69.6465 19.7539 69.6465C19.391 69.6465 19.0281 69.5404 18.7115 69.331C18.158 68.965 17.8234 68.334 17.8234 67.6579V49.5613C17.6589 49.4794 17.5087 49.3665 17.381 49.2265L2.43629 32.7899C1.51223 31.7744 1 30.4328 1 29.0407V25.1298C1 22.1018 3.38095 19.6465 6.32046 19.6465Z" fill="url(#paint0_linear_10714_255)"/>
<g filter="url(#filter0_f_10714_255)">
<rect x="27.2539" y="15.9668" width="23.6181" height="14.9844" rx="3" transform="rotate(45 27.2539 15.9668)" fill="#8237FF" fill-opacity="0.5"/>
</g>
<g filter="url(#filter1_b_10714_255)">
<mask id="path-3-outside-1_10714_255" maskUnits="userSpaceOnUse" x="17" y="1" width="76" height="76" fill="black">
<rect fill="white" x="17" y="1" width="76" height="76"/>
<path fill-rule="evenodd" clip-rule="evenodd" d="M25.8387 2H83.8268C88.1577 2 91.6655 5.61349 91.6655 10.0747V15.7156C91.6655 17.8798 90.8199 19.9581 89.3181 21.4738L65.3583 45.7095C64.945 46.1314 64.3837 46.3658 63.8035 46.3619L43.7422 46.2994C43.1316 46.2994 42.5514 46.0377 42.1342 45.5806L20.1161 21.3644C18.7547 19.8682 18 17.8915 18 15.8406V10.0786C18 5.61739 21.5079 2 25.8387 2ZM44.8157 52.9179L62.6964 52.9726C63.8114 52.9765 64.7139 53.9102 64.7139 55.0548V65.1139C64.7139 66.2624 64.0617 67.3016 63.0453 67.7821L46.8143 75.4036C46.435 75.5794 46.0331 75.6653 45.6311 75.6653C45.0964 75.6653 44.5616 75.5091 44.0952 75.2004C43.2798 74.6614 42.7868 73.7316 42.7868 72.7355V55.0001C42.7868 53.8477 43.697 52.914 44.8157 52.9179Z"/>
</mask>
<path fill-rule="evenodd" clip-rule="evenodd" d="M25.8387 2H83.8268C88.1577 2 91.6655 5.61349 91.6655 10.0747V15.7156C91.6655 17.8798 90.8199 19.9581 89.3181 21.4738L65.3583 45.7095C64.945 46.1314 64.3837 46.3658 63.8035 46.3619L43.7422 46.2994C43.1316 46.2994 42.5514 46.0377 42.1342 45.5806L20.1161 21.3644C18.7547 19.8682 18 17.8915 18 15.8406V10.0786C18 5.61739 21.5079 2 25.8387 2ZM44.8157 52.9179L62.6964 52.9726C63.8114 52.9765 64.7139 53.9102 64.7139 55.0548V65.1139C64.7139 66.2624 64.0617 67.3016 63.0453 67.7821L46.8143 75.4036C46.435 75.5794 46.0331 75.6653 45.6311 75.6653C45.0964 75.6653 44.5616 75.5091 44.0952 75.2004C43.2798 74.6614 42.7868 73.7316 42.7868 72.7355V55.0001C42.7868 53.8477 43.697 52.914 44.8157 52.9179Z" fill="#BA90FF" fill-opacity="0.35"/>
<path d="M89.3181 21.4738L88.6077 20.7699L88.607 20.7707L89.3181 21.4738ZM65.3583 45.7095L64.6472 45.0065L64.644 45.0097L65.3583 45.7095ZM63.8035 46.3619L63.8102 45.3619L63.8066 45.3619L63.8035 46.3619ZM43.7422 46.2994L43.7453 45.2994H43.7422V46.2994ZM42.1342 45.5806L41.3943 46.2533L41.3956 46.2547L42.1342 45.5806ZM20.1161 21.3644L20.856 20.6917L20.8557 20.6914L20.1161 21.3644ZM62.6964 52.9726L62.6999 51.9726L62.6995 51.9726L62.6964 52.9726ZM44.8157 52.9179L44.8122 53.9179L44.8127 53.9179L44.8157 52.9179ZM63.0453 67.7821L63.4704 68.6872L63.4727 68.6861L63.0453 67.7821ZM46.8143 75.4036L47.2348 76.3109L47.2393 76.3088L46.8143 75.4036ZM44.0952 75.2004L44.647 74.3665L44.6467 74.3663L44.0952 75.2004ZM83.8268 1H25.8387V3H83.8268V1ZM92.6655 10.0747C92.6655 5.08937 88.7377 1 83.8268 1V3C87.5776 3 90.6655 6.13761 90.6655 10.0747H92.6655ZM92.6655 15.7156V10.0747H90.6655V15.7156H92.6655ZM90.0285 22.1776C91.7193 20.4711 92.6655 18.1384 92.6655 15.7156H90.6655C90.6655 17.6212 89.9205 19.445 88.6077 20.7699L90.0285 22.1776ZM66.0695 46.4126L90.0293 22.1768L88.607 20.7707L64.6472 45.0065L66.0695 46.4126ZM63.7967 47.3619C64.6515 47.3676 65.472 47.0224 66.0726 46.4094L64.644 45.0097C64.418 45.2404 64.1159 45.364 63.8102 45.3619L63.7967 47.3619ZM43.7391 47.2994L63.8004 47.3619L63.8066 45.3619L43.7453 45.2994L43.7391 47.2994ZM41.3956 46.2547C41.9965 46.9131 42.8422 47.2994 43.7422 47.2994V45.2994C43.421 45.2994 43.1062 45.1622 42.8728 44.9065L41.3956 46.2547ZM19.3762 22.0371L41.3943 46.2533L42.8741 44.9079L20.856 20.6917L19.3762 22.0371ZM17 15.8406C17 18.1353 17.8441 20.3533 19.3765 22.0374L20.8557 20.6914C19.6653 19.3831 19 17.6478 19 15.8406H17ZM17 10.0786V15.8406H19V10.0786H17ZM25.8387 1C20.9272 1 17 5.09391 17 10.0786H19C19 6.14087 22.0885 3 25.8387 3V1ZM62.6995 51.9726L44.8188 51.9179L44.8127 53.9179L62.6934 53.9726L62.6995 51.9726ZM65.7139 55.0548C65.7139 53.3865 64.3927 51.9786 62.6999 51.9726L62.6929 53.9726C63.2301 53.9745 63.7139 54.4338 63.7139 55.0548H65.7139ZM65.7139 65.1139V55.0548H63.7139V65.1139H65.7139ZM63.4727 68.6861C64.8461 68.0368 65.7139 66.6409 65.7139 65.1139H63.7139C63.7139 65.884 63.2772 66.5663 62.6179 66.878L63.4727 68.6861ZM47.2393 76.3088L63.4704 68.6872L62.6203 66.8769L46.3892 74.4984L47.2393 76.3088ZM45.6311 76.6653C46.1768 76.6653 46.7224 76.5484 47.2348 76.3109L46.3937 74.4963C46.1476 74.6104 45.8893 74.6653 45.6311 74.6653V76.6653ZM43.5434 76.0344C44.1744 76.4519 44.9012 76.6653 45.6311 76.6653V74.6653C45.2915 74.6653 44.9488 74.5662 44.647 74.3665L43.5434 76.0344ZM41.7868 72.7355C41.7868 74.059 42.4414 75.3058 43.5437 76.0346L44.6467 74.3663C44.1182 74.0169 43.7868 73.4042 43.7868 72.7355H41.7868ZM41.7868 55.0001V72.7355H43.7868V55.0001H41.7868ZM44.8192 51.9179C43.1194 51.912 41.7868 53.3219 41.7868 55.0001H43.7868C43.7868 54.3735 44.2746 53.916 44.8122 53.9179L44.8192 51.9179Z" fill="url(#paint1_linear_10714_255)" mask="url(#path-3-outside-1_10714_255)"/>
</g>
<defs>
<filter id="filter0_f_10714_255" x="0.901001" y="0.209442" width="58.8108" height="58.8108" filterUnits="userSpaceOnUse" color-interpolation-filters="sRGB">
<feFlood flood-opacity="0" result="BackgroundImageFix"/>
<feBlend mode="normal" in="SourceGraphic" in2="BackgroundImageFix" result="shape"/>
<feGaussianBlur stdDeviation="8.5" result="effect1_foregroundBlur_10714_255"/>
</filter>
<filter id="filter1_b_10714_255" x="-7" y="-23" width="123.666" height="123.665" filterUnits="userSpaceOnUse" color-interpolation-filters="sRGB">
<feFlood flood-opacity="0" result="BackgroundImageFix"/>
<feGaussianBlur in="BackgroundImage" stdDeviation="12"/>
<feComposite in2="SourceAlpha" operator="in" result="effect1_backgroundBlur_10714_255"/>
<feBlend mode="normal" in="SourceGraphic" in2="effect1_backgroundBlur_10714_255" result="shape"/>
</filter>
<linearGradient id="paint0_linear_10714_255" x1="26" y1="19.6465" x2="26" y2="69.6465" gradientUnits="userSpaceOnUse">
<stop stop-color="#BC94FF"/>
<stop offset="1" stop-color="#9F66FF"/>
</linearGradient>
<linearGradient id="paint1_linear_10714_255" x1="29.7264" y1="10.5821" x2="76.717" y2="68.7813" gradientUnits="userSpaceOnUse">
<stop stop-color="white" stop-opacity="0.25"/>
<stop offset="1" stop-color="white" stop-opacity="0"/>
</linearGradient>
</defs>
</svg>
