<svg width="100%" height="100%" viewBox="0 0 106 95" fill="none" xmlns="http://www.w3.org/2000/svg">
<path d="M88.643 12.1165L59.9125 4.4182C49.4912 1.62582 41.7886 6.10193 38.987 16.5575L29.4985 51.9693C26.651 62.5963 31.1204 70.1869 41.5416 72.9793L70.2722 80.6776C80.8614 83.515 88.3559 79.1301 91.2034 68.5031L100.692 33.0913C103.494 22.6357 99.2323 14.9539 88.643 12.1165Z" fill="url(#paint0_linear_10714_286)"/>
<g opacity="0.5" filter="url(#filter0_f_10714_286)">
<path d="M81.1953 21.7384L61.5493 16.4743C54.4232 14.5649 49.1561 17.6256 47.2404 24.7752L40.7521 48.9899C38.805 56.2566 41.8612 61.4471 48.9873 63.3565L68.6333 68.6207C75.8743 70.5609 80.999 67.5625 82.9461 60.2957L89.4344 36.081C91.3502 28.9315 88.4363 23.6786 81.1953 21.7384Z" fill="#F86652"/>
</g>
<g filter="url(#filter1_b_10714_286)">
<mask id="path-3-outside-1_10714_286" maskUnits="userSpaceOnUse" x="5.96046e-08" y="10.8594" width="84" height="84" fill="black">
<rect fill="white" x="5.96046e-08" y="10.8594" width="84" height="84"/>
<path fill-rule="evenodd" clip-rule="evenodd" d="M1.00018 52.483V69.1433C0.999386 70.9516 1.14509 72.7571 1.43586 74.542C1.89316 77.6963 2.97957 80.7272 4.63086 83.4553C5.38309 84.772 6.29791 85.9893 7.35388 87.0786C12.2073 91.5174 18.6422 93.8276 25.2168 93.4918H58.4013C64.9654 93.8301 71.3899 91.5188 76.2279 87.0786C77.2967 85.9914 78.2238 84.774 78.9873 83.4553C80.6484 80.7252 81.7584 77.6973 82.2549 74.542C82.5156 72.7541 82.649 70.95 82.6542 69.1433V47.6933C82.7783 43.5864 82.1761 39.4898 80.8752 35.5915C80.214 33.6948 79.2044 31.9377 77.8981 30.4102C77.4873 29.9278 77.0381 29.4794 76.5547 29.0695C72.3576 25.7685 67.0694 24.1646 61.7415 24.5767H49.5006C46.6025 24.5202 43.869 23.1995 42.0267 20.955L38.0693 15.4838C36.2039 13.1522 33.3616 11.8142 30.3722 11.8605H21.8764C6.62756 11.8605 1 20.8101 1 36.028V52.4777C0.999985 52.4795 1.00004 52.4813 1.00018 52.483Z"/>
</mask>
<path fill-rule="evenodd" clip-rule="evenodd" d="M1.00018 52.483V69.1433C0.999386 70.9516 1.14509 72.7571 1.43586 74.542C1.89316 77.6963 2.97957 80.7272 4.63086 83.4553C5.38309 84.772 6.29791 85.9893 7.35388 87.0786C12.2073 91.5174 18.6422 93.8276 25.2168 93.4918H58.4013C64.9654 93.8301 71.3899 91.5188 76.2279 87.0786C77.2967 85.9914 78.2238 84.774 78.9873 83.4553C80.6484 80.7252 81.7584 77.6973 82.2549 74.542C82.5156 72.7541 82.649 70.95 82.6542 69.1433V47.6933C82.7783 43.5864 82.1761 39.4898 80.8752 35.5915C80.214 33.6948 79.2044 31.9377 77.8981 30.4102C77.4873 29.9278 77.0381 29.4794 76.5547 29.0695C72.3576 25.7685 67.0694 24.1646 61.7415 24.5767H49.5006C46.6025 24.5202 43.869 23.1995 42.0267 20.955L38.0693 15.4838C36.2039 13.1522 33.3616 11.8142 30.3722 11.8605H21.8764C6.62756 11.8605 1 20.8101 1 36.028V52.4777C0.999985 52.4795 1.00004 52.4813 1.00018 52.483Z" fill="#FFAC95" fill-opacity="0.4"/>
<path d="M1.00018 52.483H2.00018C2.00018 52.4574 1.99919 52.4317 1.99722 52.4061L1.00018 52.483ZM1.00018 69.1433L2.00018 69.1437V69.1433H1.00018ZM1.43586 74.542L2.42552 74.3985C2.42468 74.3927 2.42379 74.387 2.42285 74.3812L1.43586 74.542ZM4.63086 83.4553L5.49916 82.9592C5.49498 82.9519 5.49071 82.9447 5.48635 82.9375L4.63086 83.4553ZM7.35388 87.0786L6.63586 87.7746C6.64981 87.789 6.6642 87.803 6.679 87.8165L7.35388 87.0786ZM25.2168 93.4918V92.4918C25.1998 92.4918 25.1828 92.4923 25.1658 92.4932L25.2168 93.4918ZM58.4013 93.4918L58.4527 92.4932C58.4356 92.4923 58.4184 92.4918 58.4013 92.4918V93.4918ZM76.2279 87.0786L76.9041 87.8153C76.9167 87.8038 76.9291 87.7918 76.9411 87.7796L76.2279 87.0786ZM78.9873 83.4553L78.133 82.9355C78.1292 82.9417 78.1255 82.948 78.1218 82.9542L78.9873 83.4553ZM82.2549 74.542L83.2428 74.6974L83.2444 74.6863L82.2549 74.542ZM82.6542 69.1433L83.6542 69.1462V69.1433H82.6542ZM82.6542 47.6933L81.6547 47.6631C81.6544 47.6732 81.6542 47.6832 81.6542 47.6933H82.6542ZM80.8752 35.5915L81.8239 35.2749L81.8195 35.2623L80.8752 35.5915ZM77.8981 30.4102L77.1367 31.0584L77.1381 31.0601L77.8981 30.4102ZM76.5547 29.0695L77.2014 28.3068C77.1921 28.2989 77.1826 28.2911 77.1729 28.2835L76.5547 29.0695ZM61.7415 24.5767V25.5767C61.7672 25.5767 61.793 25.5757 61.8186 25.5737L61.7415 24.5767ZM49.5006 24.5767L49.4811 25.5765C49.4876 25.5766 49.4941 25.5767 49.5006 25.5767V24.5767ZM42.0267 20.955L41.2165 21.5411C41.2284 21.5576 41.2408 21.5737 41.2538 21.5895L42.0267 20.955ZM38.0693 15.4838L38.8795 14.8978C38.8701 14.8846 38.8603 14.8718 38.8501 14.8591L38.0693 15.4838ZM30.3722 11.8605V12.8605C30.3774 12.8605 30.3826 12.8605 30.3877 12.8604L30.3722 11.8605ZM1 52.4777L2 52.4882V52.4777H1ZM0.000180542 52.483V69.1433H2.00018V52.483H0.000180542ZM0.000180662 69.1428C-0.00063771 71.0052 0.149416 72.8645 0.448873 74.7028L2.42285 74.3812C2.14076 72.6496 1.99941 70.898 2.00018 69.1437L0.000180662 69.1428ZM0.446208 74.6854C0.922723 77.9724 2.05478 81.1305 3.77537 83.9731L5.48635 82.9375C3.90436 80.3238 2.86359 77.4203 2.42552 74.3985L0.446208 74.6854ZM3.76257 83.9514C4.55634 85.3408 5.52165 86.6252 6.63586 87.7746L8.07189 86.3826C7.07416 85.3533 6.20983 84.2032 5.49916 82.9592L3.76257 83.9514ZM6.679 87.8165C11.73 92.436 18.4264 94.84 25.2678 94.4905L25.1658 92.4932C18.858 92.8153 12.6847 90.5988 8.02875 86.3407L6.679 87.8165ZM25.2168 94.4918H58.4013V92.4918H25.2168V94.4918ZM58.3498 94.4905C65.1815 94.8426 71.8683 92.4371 76.9041 87.8153L75.5518 86.3419C70.9116 90.6006 64.7493 92.8176 58.4527 92.4932L58.3498 94.4905ZM76.9411 87.7796C78.0687 86.6324 79.047 85.3479 79.8527 83.9563L78.1218 82.9542C77.4005 84.2001 76.5246 85.3503 75.5148 86.3776L76.9411 87.7796ZM79.8415 83.9751C81.5705 81.1335 82.726 77.9818 83.2427 74.6974L81.267 74.3866C80.7909 77.4128 79.7262 80.3169 78.133 82.9355L79.8415 83.9751ZM83.2444 74.6863C83.5119 72.8515 83.6489 71.0002 83.6542 69.1462L81.6543 69.1404C81.6492 70.8998 81.5192 72.6566 81.2653 74.3977L83.2444 74.6863ZM83.6542 69.1433V47.6933H81.6542V69.1433H83.6542ZM83.6538 47.7235C83.7814 43.4989 83.162 39.2849 81.8238 35.2749L79.9266 35.908C81.1903 39.6947 81.7752 43.6739 81.6547 47.6631L83.6538 47.7235ZM81.8195 35.2623C81.1174 33.2481 80.0452 31.3822 78.658 29.7602L77.1381 31.0601C78.3636 32.4931 79.3107 34.1415 79.9309 35.9206L81.8195 35.2623ZM78.6595 29.7619C78.2137 29.2383 77.7261 28.7517 77.2014 28.3068L75.908 29.8323C76.3501 30.2072 76.761 30.6172 77.1367 31.0584L78.6595 29.7619ZM77.1729 28.2835C72.7785 24.8273 67.2421 23.1483 61.6644 23.5796L61.8186 25.5737C66.8967 25.1809 71.9367 26.7097 75.9365 29.8556L77.1729 28.2835ZM61.7415 23.5767H49.5006V25.5767H61.7415V23.5767ZM49.52 23.5768C46.9137 23.5261 44.4558 22.3382 42.7997 20.3206L41.2538 21.5895C43.2822 24.0607 46.2914 25.5143 49.4811 25.5765L49.52 23.5768ZM42.837 20.3689L38.8795 14.8978L37.259 16.0699L41.2165 21.5411L42.837 20.3689ZM38.8501 14.8591C36.7913 12.2857 33.6548 10.8096 30.3567 10.8607L30.3877 12.8604C33.0684 12.8189 35.6165 14.0187 37.2884 16.1086L38.8501 14.8591ZM30.3722 10.8605H21.8764V12.8605H30.3722V10.8605ZM21.8764 10.8605C14.0506 10.8605 8.49777 13.1662 4.93914 17.6127C1.41779 22.0127 3.33786e-06 28.3279 3.33786e-06 36.028H2C2 28.5102 3.396 22.7417 6.50064 18.8624C9.56801 15.0297 14.4534 12.8605 21.8764 12.8605V10.8605ZM3.33786e-06 36.028V52.4777H2V36.028H3.33786e-06ZM5.84125e-05 52.4672C-0.000268638 52.4984 0.000781774 52.5294 0.00314385 52.56L1.99722 52.4061C1.99931 52.4332 2.00024 52.4606 1.99995 52.4882L5.84125e-05 52.4672Z" fill="url(#paint1_linear_10714_286)" mask="url(#path-3-outside-1_10714_286)"/>
</g>
<g filter="url(#filter2_bd_10714_286)">
<path d="M62.4759 75.544H21.3765C19.5117 75.544 18 74.0354 18 72.1744C18 70.3133 19.5117 68.8047 21.3765 68.8047H62.8026C63.8083 68.8161 64.7499 69.2993 65.3441 70.1091C65.8607 70.7117 66.1213 71.4917 66.0703 72.2831C66.042 73.1834 65.6537 74.035 64.992 74.6477C64.3303 75.2604 63.4503 75.5832 62.5485 75.544H62.4759Z" fill="url(#paint2_linear_10714_286)"/>
<path d="M65.1829 70.2274L65.1874 70.2335L65.1923 70.2392C65.6749 70.8022 65.9183 71.5309 65.8707 72.2702L65.8706 72.2702L65.8703 72.2768C65.8438 73.1236 65.4785 73.9246 64.8561 74.501C64.2336 75.0774 63.4057 75.3811 62.5572 75.3442L62.5572 75.344H62.5485H62.4759H21.3765C19.6218 75.344 18.2 73.9245 18.2 72.1744C18.2 70.4242 19.6218 69.0047 21.3765 69.0047H62.8015C63.7439 69.0157 64.6261 69.4687 65.1829 70.2274Z" stroke="url(#paint3_linear_10714_286)" stroke-width="0.4"/>
</g>
<defs>
<filter id="filter0_f_10714_286" x="25.1768" y="0.917717" width="79.8315" height="83.2798" filterUnits="userSpaceOnUse" color-interpolation-filters="sRGB">
<feFlood flood-opacity="0" result="BackgroundImageFix"/>
<feBlend mode="normal" in="SourceGraphic" in2="BackgroundImageFix" result="shape"/>
<feGaussianBlur stdDeviation="7.5" result="effect1_foregroundBlur_10714_286"/>
</filter>
<filter id="filter1_b_10714_286" x="-15" y="-4.14062" width="113.67" height="113.665" filterUnits="userSpaceOnUse" color-interpolation-filters="sRGB">
<feFlood flood-opacity="0" result="BackgroundImageFix"/>
<feGaussianBlur in="BackgroundImage" stdDeviation="7.5"/>
<feComposite in2="SourceAlpha" operator="in" result="effect1_backgroundBlur_10714_286"/>
<feBlend mode="normal" in="SourceGraphic" in2="effect1_backgroundBlur_10714_286" result="shape"/>
</filter>
<filter id="filter2_bd_10714_286" x="3" y="53.8047" width="78.0765" height="36.7425" filterUnits="userSpaceOnUse" color-interpolation-filters="sRGB">
<feFlood flood-opacity="0" result="BackgroundImageFix"/>
<feGaussianBlur in="BackgroundImage" stdDeviation="7.5"/>
<feComposite in2="SourceAlpha" operator="in" result="effect1_backgroundBlur_10714_286"/>
<feColorMatrix in="SourceAlpha" type="matrix" values="0 0 0 0 0 0 0 0 0 0 0 0 0 0 0 0 0 0 127 0" result="hardAlpha"/>
<feOffset dx="5" dy="5"/>
<feGaussianBlur stdDeviation="5"/>
<feColorMatrix type="matrix" values="0 0 0 0 0.976471 0 0 0 0 0.435294 0 0 0 0 0.352941 0 0 0 0.5 0"/>
<feBlend mode="normal" in2="effect1_backgroundBlur_10714_286" result="effect2_dropShadow_10714_286"/>
<feBlend mode="normal" in="SourceGraphic" in2="effect2_dropShadow_10714_286" result="shape"/>
</filter>
<linearGradient id="paint0_linear_10714_286" x1="45.0383" y1="20.511" x2="72.4664" y2="118.626" gradientUnits="userSpaceOnUse">
<stop stop-color="#FFA78F"/>
<stop offset="1" stop-color="#F23E2C"/>
</linearGradient>
<linearGradient id="paint1_linear_10714_286" x1="14.0006" y1="21.3735" x2="66.0934" y2="85.8958" gradientUnits="userSpaceOnUse">
<stop stop-color="white" stop-opacity="0.25"/>
<stop offset="1" stop-color="white" stop-opacity="0"/>
</linearGradient>
<linearGradient id="paint2_linear_10714_286" x1="62.668" y1="70.0223" x2="11.8072" y2="81.8464" gradientUnits="userSpaceOnUse">
<stop stop-color="white"/>
<stop offset="1" stop-color="white" stop-opacity="0.2"/>
</linearGradient>
<linearGradient id="paint3_linear_10714_286" x1="25.653" y1="69.5902" x2="26.6368" y2="78.2784" gradientUnits="userSpaceOnUse">
<stop stop-color="white" stop-opacity="0.25"/>
<stop offset="1" stop-color="white" stop-opacity="0"/>
</linearGradient>
</defs>
</svg>
