<svg width="100%" height="100%" viewBox="0 0 108 102" fill="none" xmlns="http://www.w3.org/2000/svg">
<path d="M20.6127 14.0076L51.5157 5.72719C62.7773 2.70967 70.935 7.63229 74.0715 19.3381L82.6705 51.4298C85.807 63.1357 81.2036 71.4776 69.9421 74.4951L39.039 82.7756C27.7774 85.7931 19.6492 80.8626 16.5126 69.1568L7.91365 37.0651C4.77708 25.3592 9.35112 17.0252 20.6127 14.0076Z" fill="url(#paint0_linear_10714_153)"/>
<g filter="url(#filter0_f_10714_153)">
<path d="M29.3027 25.8578L50.2911 20.234C57.9396 18.1846 63.3847 21.1721 65.3467 28.4943L70.7255 48.5684C72.6875 55.8907 69.4657 61.2005 61.8172 63.2499L40.8287 68.8737C33.1802 70.9231 27.7551 67.9303 25.7931 60.608L20.4143 40.5339C18.4523 33.2117 21.6542 27.9072 29.3027 25.8578Z" fill="#0062FF" fill-opacity="0.5"/>
</g>
<g filter="url(#filter1_b_10714_153)">
<mask id="path-3-outside-1_10714_153" maskUnits="userSpaceOnUse" x="25.441" y="20.1562" width="75" height="75" fill="black">
<rect fill="white" x="25.441" y="20.1562" width="75" height="75"/>
<path d="M78.6703 21.1562H47.0924C34.7453 21.1562 26.441 29.8247 26.441 42.7181V72.4749C26.441 85.3319 34.7453 94.0004 47.0924 94.0004H78.6703C91.0174 94.0004 99.2852 85.3319 99.2852 72.4749V42.7181C99.2852 29.8247 91.0174 21.1562 78.6703 21.1562Z"/>
</mask>
<path d="M78.6703 21.1562H47.0924C34.7453 21.1562 26.441 29.8247 26.441 42.7181V72.4749C26.441 85.3319 34.7453 94.0004 47.0924 94.0004H78.6703C91.0174 94.0004 99.2852 85.3319 99.2852 72.4749V42.7181C99.2852 29.8247 91.0174 21.1562 78.6703 21.1562Z" fill="#3EA0FE" fill-opacity="0.35"/>
<path d="M78.6703 22.1562C79.2226 22.1562 79.6703 21.7085 79.6703 21.1562C79.6703 20.604 79.2226 20.1562 78.6703 20.1562V22.1562ZM78.6703 20.1562C78.118 20.1562 77.6703 20.604 77.6703 21.1562C77.6703 21.7085 78.118 22.1562 78.6703 22.1562V20.1562ZM78.6703 20.1562H47.0924V22.1562H78.6703V20.1562ZM47.0924 20.1562C40.676 20.1562 35.2422 22.4141 31.4144 26.4104C27.5902 30.403 25.441 36.0546 25.441 42.7181H27.441C27.441 36.4882 29.444 31.3589 32.8587 27.7939C36.2698 24.2326 41.1616 22.1562 47.0924 22.1562V20.1562ZM25.441 42.7181V72.4749H27.441V42.7181H25.441ZM25.441 72.4749C25.441 79.1209 27.5906 84.7635 31.4148 88.7512C35.2425 92.7426 40.6761 95.0004 47.0924 95.0004V93.0004C41.1615 93.0004 36.2695 90.924 32.8583 87.3669C29.4436 83.8061 27.441 78.686 27.441 72.4749H25.441ZM47.0924 95.0004H78.6703V93.0004H47.0924V95.0004ZM78.6703 95.0004C85.0868 95.0004 90.5117 92.7424 94.3305 88.7503C98.1455 84.7621 100.285 79.1197 100.285 72.4749H98.2852C98.2852 78.6872 96.291 83.8075 92.8853 87.3678C89.4833 90.9241 84.6009 93.0004 78.6703 93.0004V95.0004ZM100.285 72.4749V42.7181H98.2852V72.4749H100.285ZM100.285 42.7181C100.285 36.0559 98.1459 30.4044 94.3309 26.4113C90.512 22.4143 85.0868 20.1562 78.6703 20.1562V22.1562C84.6009 22.1562 89.483 24.2324 92.8848 27.793C96.2905 31.3575 98.2852 36.487 98.2852 42.7181H100.285Z" fill="url(#paint1_linear_10714_153)" mask="url(#path-3-outside-1_10714_153)"/>
</g>
<g filter="url(#filter2_bd_10714_153)">
<mask id="path-5-inside-2_10714_153" fill="white">
<path fill-rule="evenodd" clip-rule="evenodd" d="M41.0706 44.9259C41.0706 49.9663 45.1673 54.0686 50.2091 54.0686C55.2472 54.0686 59.3476 49.9663 59.3476 44.9259C59.3476 39.8855 55.2472 35.7832 50.2091 35.7832C45.1673 35.7832 41.0706 39.8855 41.0706 44.9259ZM90.8927 78.4791C92.2019 75.3693 92.8381 71.5952 91.6135 68.4552C91.2053 67.4136 90.5949 66.4436 89.738 65.5907C87.4911 63.3602 85.3912 61.2769 82.8942 59.7371C78.9741 57.2915 75.9475 60.7259 75.1311 61.8242C74.4798 62.7018 73.9041 63.6544 73.3206 64.6199C73.199 64.8211 73.0771 65.0229 72.954 65.2246L72.925 65.2727C71.1887 68.1487 69.1949 71.4512 65.7572 73.3766C60.7338 76.1581 56.9203 73.5955 54.1769 71.7311C53.1472 71.0367 52.1469 70.38 51.1503 69.9422C48.6938 68.8817 46.4836 70.0894 43.2033 74.256C41.4823 76.4336 39.7759 78.5924 38.0475 80.7436C37.0142 82.0305 37.2606 84.0157 38.6543 84.8762C40.8792 86.2462 43.5931 86.9821 46.6602 86.9821H77.481C79.2205 86.9821 80.9636 86.7444 82.6258 86.2009C86.3694 84.9781 89.3408 82.1777 90.8927 78.4791Z"/>
</mask>
<path fill-rule="evenodd" clip-rule="evenodd" d="M41.0706 44.9259C41.0706 49.9663 45.1673 54.0686 50.2091 54.0686C55.2472 54.0686 59.3476 49.9663 59.3476 44.9259C59.3476 39.8855 55.2472 35.7832 50.2091 35.7832C45.1673 35.7832 41.0706 39.8855 41.0706 44.9259ZM90.8927 78.4791C92.2019 75.3693 92.8381 71.5952 91.6135 68.4552C91.2053 67.4136 90.5949 66.4436 89.738 65.5907C87.4911 63.3602 85.3912 61.2769 82.8942 59.7371C78.9741 57.2915 75.9475 60.7259 75.1311 61.8242C74.4798 62.7018 73.9041 63.6544 73.3206 64.6199C73.199 64.8211 73.0771 65.0229 72.954 65.2246L72.925 65.2727C71.1887 68.1487 69.1949 71.4512 65.7572 73.3766C60.7338 76.1581 56.9203 73.5955 54.1769 71.7311C53.1472 71.0367 52.1469 70.38 51.1503 69.9422C48.6938 68.8817 46.4836 70.0894 43.2033 74.256C41.4823 76.4336 39.7759 78.5924 38.0475 80.7436C37.0142 82.0305 37.2606 84.0157 38.6543 84.8762C40.8792 86.2462 43.5931 86.9821 46.6602 86.9821H77.481C79.2205 86.9821 80.9636 86.7444 82.6258 86.2009C86.3694 84.9781 89.3408 82.1777 90.8927 78.4791Z" fill="url(#paint2_linear_10714_153)"/>
<path d="M91.6135 68.4552L91.7998 68.3825L91.7997 68.3822L91.6135 68.4552ZM90.8927 78.4791L90.7084 78.4015L90.7083 78.4018L90.8927 78.4791ZM89.738 65.5907L89.8791 65.449L89.8789 65.4488L89.738 65.5907ZM82.8942 59.7371L82.7884 59.9068L82.7893 59.9074L82.8942 59.7371ZM75.1311 61.8242L74.9706 61.7049L74.9705 61.705L75.1311 61.8242ZM73.3206 64.6199L73.1494 64.5165V64.5165L73.3206 64.6199ZM72.954 65.2246L72.7833 65.1205L72.7828 65.1212L72.954 65.2246ZM72.925 65.2727L73.0962 65.3761H73.0962L72.925 65.2727ZM65.7572 73.3766L65.8541 73.5516L65.855 73.5511L65.7572 73.3766ZM54.1769 71.7311L54.2893 71.5657L54.2887 71.5653L54.1769 71.7311ZM51.1503 69.9422L51.2308 69.7591L51.2296 69.7586L51.1503 69.9422ZM43.2033 74.256L43.3602 74.38L43.3605 74.3797L43.2033 74.256ZM38.0475 80.7436L37.8916 80.6183L37.8916 80.6184L38.0475 80.7436ZM38.6543 84.8762L38.5492 85.0464L38.5494 85.0465L38.6543 84.8762ZM82.6258 86.2009L82.5637 86.0108L82.5636 86.0108L82.6258 86.2009ZM50.2091 53.8686C45.2779 53.8686 41.2706 49.856 41.2706 44.9259H40.8706C40.8706 50.0766 45.0567 54.2686 50.2091 54.2686V53.8686ZM59.1476 44.9259C59.1476 49.8559 55.1367 53.8686 50.2091 53.8686V54.2686C55.3577 54.2686 59.5476 50.0767 59.5476 44.9259H59.1476ZM50.2091 35.9832C55.1367 35.9832 59.1476 39.9958 59.1476 44.9259H59.5476C59.5476 39.7751 55.3577 35.5832 50.2091 35.5832V35.9832ZM41.2706 44.9259C41.2706 39.9958 45.2779 35.9832 50.2091 35.9832V35.5832C45.0567 35.5832 40.8706 39.7751 40.8706 44.9259H41.2706ZM91.4272 68.5279C92.625 71.5992 92.0078 75.3148 90.7084 78.4015L91.0771 78.5567C92.396 75.4238 93.0513 71.5913 91.7998 68.3825L91.4272 68.5279ZM89.5969 65.7324C90.4331 66.5648 91.0287 67.511 91.4273 68.5282L91.7997 68.3822C91.382 67.3162 90.7566 66.3225 89.8791 65.449L89.5969 65.7324ZM82.7893 59.9074C85.2633 61.433 87.347 63.499 89.5971 65.7326L89.8789 65.4488C87.6351 63.2214 85.5192 61.1209 82.9992 59.5669L82.7893 59.9074ZM75.2916 61.9435C75.6924 61.4044 76.6311 60.2995 77.9399 59.6297C79.2364 58.9663 80.8972 58.727 82.7884 59.9068L83.0001 59.5674C80.9711 58.3017 79.1586 58.5568 77.7576 59.2737C76.369 59.9843 75.3862 61.1457 74.9706 61.7049L75.2916 61.9435ZM73.4918 64.7234C74.0762 63.7563 74.6471 62.8121 75.2917 61.9434L74.9705 61.705C74.3126 62.5916 73.7321 63.5525 73.1494 64.5165L73.4918 64.7234ZM73.1248 65.3287C73.2481 65.1266 73.3702 64.9245 73.4918 64.7234L73.1494 64.5165C73.0278 64.7177 72.9061 64.9191 72.7833 65.1205L73.1248 65.3287ZM73.0962 65.3761L73.1253 65.328L72.7828 65.1212L72.7538 65.1693L73.0962 65.3761ZM65.855 73.5511C69.3458 71.596 71.364 68.2453 73.0962 65.3761L72.7538 65.1693C71.0134 68.052 69.044 71.3065 65.6595 73.2021L65.855 73.5511ZM54.0645 71.8965C55.4331 72.8266 57.0983 73.9529 59.0593 74.489C61.0311 75.028 63.2943 74.9689 65.8541 73.5516L65.6604 73.2016C63.1967 74.5658 61.0415 74.6162 59.1648 74.1031C57.2773 73.5872 55.6641 72.5 54.2893 71.5657L54.0645 71.8965ZM51.0699 70.1253C52.0476 70.5548 53.0338 71.2014 54.0651 71.8969L54.2887 71.5653C53.2607 70.872 52.2462 70.2052 51.2308 69.7591L51.0699 70.1253ZM43.3605 74.3797C44.997 72.3011 46.3489 70.9846 47.5813 70.3146C48.7978 69.6533 49.9 69.6203 51.0711 70.1258L51.2296 69.7586C49.9441 69.2036 48.713 69.2441 47.3902 69.9632C46.0833 70.6737 44.69 72.0443 43.0462 74.1322L43.3605 74.3797ZM38.2034 80.8689C39.9324 78.7169 41.6393 76.5575 43.3602 74.38L43.0464 74.132C41.3253 76.3097 39.6194 78.4678 37.8916 80.6183L38.2034 80.8689ZM38.7594 84.706C37.4787 83.9154 37.2372 82.0722 38.2035 80.8688L37.8916 80.6184C36.7911 81.9889 37.0424 84.1161 38.5492 85.0464L38.7594 84.706ZM46.6602 86.7821C43.6254 86.7821 40.9487 86.0541 38.7592 84.7059L38.5494 85.0465C40.8097 86.4383 43.5609 87.1821 46.6602 87.1821V86.7821ZM77.481 86.7821H46.6602V87.1821H77.481V86.7821ZM82.5636 86.0108C80.9242 86.5468 79.2024 86.7821 77.481 86.7821V87.1821C79.2385 87.1821 81.0029 86.9419 82.6879 86.391L82.5636 86.0108ZM90.7083 78.4018C89.178 82.0489 86.25 84.8067 82.5637 86.0108L82.6879 86.391C86.4889 85.1495 89.5037 82.3065 91.0772 78.5565L90.7083 78.4018Z" fill="url(#paint3_linear_10714_153)" fill-opacity="0.5" mask="url(#path-5-inside-2_10714_153)"/>
</g>
<defs>
<filter id="filter0_f_10714_153" x="0.85022" y="0.602539" width="89.4375" height="87.902" filterUnits="userSpaceOnUse" color-interpolation-filters="sRGB">
<feFlood flood-opacity="0" result="BackgroundImageFix"/>
<feBlend mode="normal" in="SourceGraphic" in2="BackgroundImageFix" result="shape"/>
<feGaussianBlur stdDeviation="9.5" result="effect1_foregroundBlur_10714_153"/>
</filter>
<filter id="filter1_b_10714_153" x="1.44104" y="-3.84375" width="122.844" height="122.844" filterUnits="userSpaceOnUse" color-interpolation-filters="sRGB">
<feFlood flood-opacity="0" result="BackgroundImageFix"/>
<feGaussianBlur in="BackgroundImage" stdDeviation="12"/>
<feComposite in2="SourceAlpha" operator="in" result="effect1_backgroundBlur_10714_153"/>
<feBlend mode="normal" in="SourceGraphic" in2="effect1_backgroundBlur_10714_153" result="shape"/>
</filter>
<filter id="filter2_bd_10714_153" x="22.4127" y="20.7832" width="84.8561" height="81.1989" filterUnits="userSpaceOnUse" color-interpolation-filters="sRGB">
<feFlood flood-opacity="0" result="BackgroundImageFix"/>
<feGaussianBlur in="BackgroundImage" stdDeviation="7.5"/>
<feComposite in2="SourceAlpha" operator="in" result="effect1_backgroundBlur_10714_153"/>
<feColorMatrix in="SourceAlpha" type="matrix" values="0 0 0 0 0 0 0 0 0 0 0 0 0 0 0 0 0 0 127 0" result="hardAlpha"/>
<feOffset dx="5" dy="5"/>
<feGaussianBlur stdDeviation="5"/>
<feColorMatrix type="matrix" values="0 0 0 0 0.15375 0 0 0 0 0.522433 0 0 0 0 0.9 0 0 0 0.5 0"/>
<feBlend mode="normal" in2="effect1_backgroundBlur_10714_153" result="effect2_dropShadow_10714_153"/>
<feBlend mode="normal" in="SourceGraphic" in2="effect2_dropShadow_10714_153" result="shape"/>
</filter>
<linearGradient id="paint0_linear_10714_153" x1="7.73197" y1="17.459" x2="91.4726" y2="45.6258" gradientUnits="userSpaceOnUse">
<stop stop-color="#39AFFD"/>
<stop offset="1" stop-color="#3A76FF"/>
</linearGradient>
<linearGradient id="paint1_linear_10714_153" x1="38.0366" y1="29.6427" x2="84.5034" y2="87.1929" gradientUnits="userSpaceOnUse">
<stop stop-color="white" stop-opacity="0.25"/>
<stop offset="1" stop-color="white" stop-opacity="0.06"/>
</linearGradient>
<linearGradient id="paint2_linear_10714_153" x1="88.3796" y1="45.0287" x2="27.2847" y2="47.163" gradientUnits="userSpaceOnUse">
<stop stop-color="white"/>
<stop offset="1" stop-color="white" stop-opacity="0.2"/>
</linearGradient>
<linearGradient id="paint3_linear_10714_153" x1="43.3219" y1="52.958" x2="89.9021" y2="53.2335" gradientUnits="userSpaceOnUse">
<stop stop-color="white"/>
<stop offset="1" stop-color="white" stop-opacity="0"/>
</linearGradient>
</defs>
</svg>
