<svg width="100%" height="100%" viewBox="0 0 127 99" fill="none" xmlns="http://www.w3.org/2000/svg">
<g filter="url(#filter0_b_10714_95)">
<path d="M114.869 43.846C113.646 42.4131 112.172 41.2189 110.559 40.2508C107.021 38.0925 102.866 37.1987 98.7236 37.6645C98.5994 37.35 98.4117 37.0253 98.2466 36.721C98.0846 36.4116 97.853 35.7545 97.5923 35.3199L96.8817 34.3022C96.5392 33.7142 96.1276 33.189 95.6716 32.6684C95.6496 32.5891 95.6051 32.4894 95.532 32.3795L95.3812 32.2889C94.1787 30.8683 92.788 29.6512 91.2066 28.636L90.9254 28.4672C90.2096 28.0376 89.4672 27.6581 88.6859 27.3317L88.3792 27.1476C87.5524 26.787 86.6806 26.5072 85.7858 26.3179C74.3743 23.7148 64.7602 32.0278 62.2175 42.8115C61.078 48.418 61.1959 54.1951 62.5518 59.6997C64.6498 67.4963 67.5506 75.0096 71.2236 82.1518L71.6413 82.9623L72.5121 82.9599C80.5374 82.8039 88.5015 81.8114 96.3072 79.9936C101.826 78.6148 106.992 75.9744 111.378 72.3164C119.65 64.9712 122.464 52.5769 114.869 43.846Z" fill="url(#paint0_linear_10714_95)"/>
</g>
<g opacity="0.5" filter="url(#filter1_f_10714_95)">
<path d="M98.096 47.7022C97.3243 46.798 96.3942 46.0445 95.3762 45.4335C93.1435 44.0716 90.5219 43.5075 87.9076 43.8015C87.8292 43.603 87.7108 43.3981 87.6066 43.2061C87.5043 43.0109 87.3582 42.5962 87.1937 42.3219L86.7453 41.6798C86.5291 41.3087 86.2694 40.9772 85.9816 40.6487C85.9678 40.5987 85.9397 40.5358 85.8936 40.4664L85.7984 40.4093C85.0396 39.5128 84.162 38.7447 83.1641 38.1041L82.9866 37.9976C82.5349 37.7265 82.0664 37.487 81.5734 37.2811L81.3798 37.1649C80.8581 36.9374 80.308 36.7608 79.7433 36.6413C72.5422 34.9987 66.4753 40.2445 64.8708 47.0494C64.1517 50.5874 64.2261 54.233 65.0817 57.7066C66.4056 62.6265 68.2362 67.3678 70.554 71.8748L70.8176 72.3863L71.3671 72.3847C76.4314 72.2863 81.4571 71.66 86.3828 70.5129C89.8651 69.6428 93.1253 67.9766 95.8931 65.6682C101.113 61.0331 102.889 53.2118 98.096 47.7022Z" fill="#EE2965"/>
</g>
<g filter="url(#filter2_b_10714_95)">
<path d="M107.701 17.6996C107.404 17.4079 107.057 17.1736 106.683 16.9917C105.862 16.5852 104.93 16.469 104.027 16.6519C103.993 16.5851 103.946 16.5172 103.904 16.4534C103.862 16.3885 103.798 16.2483 103.732 16.1577L103.556 15.9474C103.469 15.8246 103.369 15.7169 103.258 15.6112C103.252 15.5941 103.24 15.5731 103.222 15.5503L103.187 15.5333C102.895 15.2438 102.565 15.0028 102.197 14.81L102.132 14.7783C101.966 14.6976 101.795 14.6285 101.617 14.5718L101.546 14.5372C101.357 14.4738 101.159 14.4292 100.959 14.4048C98.3957 14.0531 96.4403 16.0697 96.0897 18.4931C95.9476 19.7496 96.0856 21.0191 96.4909 22.2047C97.104 23.8805 97.8884 25.4783 98.8355 26.9795L98.9432 27.1498L99.1349 27.1324C100.899 26.9424 102.633 26.5694 104.316 26.0178C105.504 25.6072 106.59 24.9257 107.485 24.0353C109.164 22.2577 109.543 19.4745 107.701 17.6996Z" fill="url(#paint1_linear_10714_95)"/>
</g>
<g filter="url(#filter3_b_10714_95)">
<mask id="path-4-outside-1_10714_95" maskUnits="userSpaceOnUse" x="-1.15588" y="-1.1558" width="102.191" height="98.9319" fill="black">
<rect fill="white" x="-1.15588" y="-1.1558" width="102.191" height="98.9319"/>
<path d="M67.5521 4.42618C64.8356 4.00897 62.0692 4.09482 59.3646 4.56289C53.3993 5.55111 47.9584 8.52345 43.8262 12.9866C43.3892 12.7576 42.8725 12.5777 42.4001 12.399C41.9262 12.2117 41.0442 11.7066 40.3419 11.475L38.587 11.0282C37.6482 10.7051 36.693 10.5172 35.6931 10.3768C35.5933 10.3102 35.4491 10.2425 35.2636 10.1907L35.0107 10.2345C32.3284 9.81131 29.6322 9.79232 26.9178 10.1782L26.4463 10.2598C25.2461 10.4675 24.0644 10.7559 22.8904 11.1401L22.376 11.2291C21.1191 11.6188 19.8894 12.1406 18.7206 12.7844C3.63433 20.7855 0.93786 39.1313 8.40723 53.4664C12.4923 60.7454 18.1287 67.0144 24.8729 71.8025C34.6214 78.4149 44.9867 83.9493 55.8512 88.3379L57.0851 88.8351L58.0446 88.0024C66.7608 80.1811 74.612 71.4941 81.5016 62.0464C86.2831 55.2636 89.4732 47.423 90.8316 39.2019C92.9677 23.2044 84.2628 6.83174 67.5521 4.42618Z"/>
</mask>
<path d="M67.5521 4.42618C64.8356 4.00897 62.0692 4.09482 59.3646 4.56289C53.3993 5.55111 47.9584 8.52345 43.8262 12.9866C43.3892 12.7576 42.8725 12.5777 42.4001 12.399C41.9262 12.2117 41.0442 11.7066 40.3419 11.475L38.587 11.0282C37.6482 10.7051 36.693 10.5172 35.6931 10.3768C35.5933 10.3102 35.4491 10.2425 35.2636 10.1907L35.0107 10.2345C32.3284 9.81131 29.6322 9.79232 26.9178 10.1782L26.4463 10.2598C25.2461 10.4675 24.0644 10.7559 22.8904 11.1401L22.376 11.2291C21.1191 11.6188 19.8894 12.1406 18.7206 12.7844C3.63433 20.7855 0.93786 39.1313 8.40723 53.4664C12.4923 60.7454 18.1287 67.0144 24.8729 71.8025C34.6214 78.4149 44.9867 83.9493 55.8512 88.3379L57.0851 88.8351L58.0446 88.0024C66.7608 80.1811 74.612 71.4941 81.5016 62.0464C86.2831 55.2636 89.4732 47.423 90.8316 39.2019C92.9677 23.2044 84.2628 6.83174 67.5521 4.42618Z" fill="#FF749F" fill-opacity="0.35"/>
<path d="M59.3646 4.56289L59.5281 5.54947L59.5351 5.54824L59.3646 4.56289ZM43.8262 12.9866L43.362 13.8723C43.7621 14.082 44.2531 13.9974 44.56 13.666L43.8262 12.9866ZM42.4001 12.399L42.0326 13.329C42.0371 13.3308 42.0417 13.3326 42.0463 13.3343L42.4001 12.399ZM40.3419 11.475L40.6551 10.5253C40.6332 10.5181 40.611 10.5116 40.5886 10.5059L40.3419 11.475ZM38.587 11.0282L38.2616 11.9738C38.2875 11.9827 38.3138 11.9905 38.3403 11.9973L38.587 11.0282ZM35.6931 10.3768L35.1381 11.2086C35.2631 11.292 35.4052 11.3462 35.5541 11.3671L35.6931 10.3768ZM35.2636 10.1907L35.5323 9.22747C35.3893 9.18759 35.2393 9.18002 35.093 9.20533L35.2636 10.1907ZM35.0107 10.2345L34.8548 11.2222C34.963 11.2393 35.0733 11.2385 35.1812 11.2198L35.0107 10.2345ZM26.9178 10.1782L26.777 9.18816C26.7671 9.18957 26.7572 9.19113 26.7473 9.19285L26.9178 10.1782ZM22.8904 11.1401L23.0609 12.1254C23.1085 12.1172 23.1554 12.1055 23.2014 12.0905L22.8904 11.1401ZM22.376 11.2291L22.2055 10.2437C22.163 10.2511 22.1211 10.2612 22.0799 10.2739L22.376 11.2291ZM18.7206 12.7844L19.1891 13.6678C19.1938 13.6653 19.1984 13.6628 19.203 13.6603L18.7206 12.7844ZM8.40723 53.4664L7.5204 53.9285C7.52518 53.9377 7.53011 53.9468 7.53517 53.9558L8.40723 53.4664ZM24.8729 71.8025L24.294 72.6179C24.2998 72.622 24.3057 72.6261 24.3116 72.6301L24.8729 71.8025ZM55.8512 88.3379L55.4767 89.2651L55.4775 89.2654L55.8512 88.3379ZM57.0851 88.8351L56.7113 89.7626C57.0595 89.9029 57.457 89.8364 57.7405 89.5904L57.0851 88.8351ZM58.0446 88.0024L58.7001 88.7577C58.7042 88.754 58.7084 88.7504 58.7125 88.7467L58.0446 88.0024ZM81.5016 62.0464L82.3096 62.6356C82.3127 62.6313 82.3158 62.627 82.3189 62.6226L81.5016 62.0464ZM90.8316 39.2019L91.8183 39.3649C91.8199 39.3547 91.8215 39.3445 91.8228 39.3342L90.8316 39.2019ZM67.7039 3.43777C64.8665 3.002 61.9904 3.0936 59.1941 3.57754L59.5351 5.54824C62.1481 5.09604 64.8047 5.01595 67.4003 5.41459L67.7039 3.43777ZM59.2012 3.57634C53.012 4.60164 47.3719 7.68495 43.0924 12.3072L44.56 13.666C48.5449 9.36194 53.7867 6.50057 59.5281 5.54944L59.2012 3.57634ZM44.2904 12.1009C43.7839 11.8354 43.1848 11.6267 42.7539 11.4637L42.0463 13.3343C42.5602 13.5287 42.9945 13.6798 43.362 13.8723L44.2904 12.1009ZM42.7677 11.469C42.5777 11.394 42.2998 11.2516 41.8938 11.0543C41.5267 10.8758 41.0767 10.6644 40.6551 10.5253L40.0287 12.4247C40.3094 12.5172 40.6516 12.6742 41.0195 12.853C41.3486 13.013 41.7486 13.2168 42.0326 13.329L42.7677 11.469ZM40.5886 10.5059L38.8337 10.0591L38.3403 11.9973L40.0952 12.4441L40.5886 10.5059ZM38.9125 10.0826C37.8896 9.73058 36.8649 9.53153 35.8321 9.38653L35.5541 11.3671C36.5211 11.5029 37.4068 11.6796 38.2616 11.9738L38.9125 10.0826ZM36.2481 9.54498C36.0458 9.40998 35.8012 9.30249 35.5323 9.22747L34.9948 11.1539C35.0437 11.1676 35.0805 11.1815 35.1058 11.1926C35.1318 11.2041 35.1415 11.2109 35.1381 11.2086L36.2481 9.54498ZM35.093 9.20533L34.8401 9.2491L35.1812 11.2198L35.4341 11.176L35.093 9.20533ZM35.1665 9.24667C32.3852 8.8079 29.589 8.7884 26.777 9.18816L27.0585 11.1682C29.6754 10.7962 32.2716 10.8147 34.8548 11.2222L35.1665 9.24667ZM26.7473 9.19285L26.2758 9.27444L26.6168 11.2452L27.0883 11.1636L26.7473 9.19285ZM26.2758 9.27444C25.0306 9.48993 23.8018 9.78965 22.5794 10.1897L23.2014 12.0905C24.327 11.7221 25.4617 11.4451 26.6168 11.2452L26.2758 9.27444ZM22.7198 10.1547L22.2055 10.2437L22.5465 12.2144L23.0609 12.1254L22.7198 10.1547ZM22.0799 10.2739C20.7583 10.6837 19.4662 11.232 18.2381 11.9084L19.203 13.6603C20.3126 13.0492 21.4798 12.5539 22.6721 12.1842L22.0799 10.2739ZM18.252 11.9009C2.54631 20.2306 -0.126498 39.2527 7.5204 53.9285L9.29406 53.0043C2.00222 39.0099 4.72235 21.3404 19.1891 13.6678L18.252 11.9009ZM7.53517 53.9558C11.6923 61.3632 17.4285 67.7437 24.294 72.6179L25.4518 70.9871C18.8288 66.2851 13.2923 60.1277 9.27929 52.977L7.53517 53.9558ZM24.3116 72.6301C34.1182 79.2819 44.5461 84.8499 55.4767 89.2651L56.2258 87.4106C45.4273 83.0488 35.1246 77.5479 25.4343 70.975L24.3116 72.6301ZM55.4775 89.2654L56.7113 89.7626L57.4589 87.9076L56.225 87.4103L55.4775 89.2654ZM57.7405 89.5904L58.7001 88.7577L57.3892 87.2471L56.4297 88.0798L57.7405 89.5904ZM58.7125 88.7467C67.4806 80.8788 75.3787 72.1398 82.3096 62.6356L80.6936 61.4572C73.8453 70.8483 66.0411 79.4833 57.3768 87.2581L58.7125 88.7467ZM82.3189 62.6226C87.1884 55.7149 90.4356 47.7327 91.8183 39.3649L89.845 39.0388C88.5108 47.1133 85.3777 54.8123 80.6842 61.4702L82.3189 62.6226ZM91.8228 39.3342C94.0085 22.9654 85.1051 5.94269 67.6946 3.43638L67.4097 5.41598C83.4205 7.72079 91.9269 23.4434 89.8404 39.0695L91.8228 39.3342Z" fill="url(#paint2_linear_10714_95)" mask="url(#path-4-outside-1_10714_95)"/>
</g>
<g filter="url(#filter4_bd_10714_95)">
<path d="M78.9284 29.602C79.1122 31.4288 77.856 33.0986 76.1068 33.4498C75.1483 33.523 74.1747 33.2545 73.4485 32.6297C72.7224 32.0048 72.2627 31.1088 72.1743 30.1131L72.1513 29.9803C71.6327 26.9842 69.3259 24.5978 66.4004 24.0446C64.4896 23.7175 63.2054 21.909 63.494 20.0049C63.8253 18.0934 65.5902 16.8124 67.4522 17.1126C73.3492 18.2552 77.9295 23.0647 78.8402 29.0919L78.9284 29.602Z" fill="url(#paint3_linear_10714_95)"/>
<path d="M72.3735 30.0954L72.3727 30.0872L72.3713 30.079L72.3483 29.9461C71.8161 26.8706 69.4477 24.4173 66.4375 23.848L66.4375 23.848L66.4341 23.8474C64.6328 23.5391 63.4202 21.8339 63.6914 20.037C64.0055 18.2318 65.6691 17.0294 67.4173 17.3095C73.2283 18.4369 77.7444 23.1779 78.6424 29.1218L78.6424 29.1218L78.6431 29.1261L78.7301 29.629C78.8992 31.3464 77.7194 32.9156 76.0794 33.2513C75.1701 33.3179 74.2564 33.0609 73.579 32.478C72.8932 31.888 72.4574 31.0404 72.3735 30.0954Z" stroke="url(#paint4_linear_10714_95)" stroke-width="0.4"/>
</g>
<defs>
<filter id="filter0_b_10714_95" x="48.4412" y="12.8369" width="83.8625" height="83.1254" filterUnits="userSpaceOnUse" color-interpolation-filters="sRGB">
<feFlood flood-opacity="0" result="BackgroundImageFix"/>
<feGaussianBlur in="BackgroundImage" stdDeviation="6.5"/>
<feComposite in2="SourceAlpha" operator="in" result="effect1_backgroundBlur_10714_95"/>
<feBlend mode="normal" in="SourceGraphic" in2="effect1_backgroundBlur_10714_95" result="shape"/>
</filter>
<filter id="filter1_f_10714_95" x="46.3809" y="18.3378" width="72.5136" height="72.0484" filterUnits="userSpaceOnUse" color-interpolation-filters="sRGB">
<feFlood flood-opacity="0" result="BackgroundImageFix"/>
<feBlend mode="normal" in="SourceGraphic" in2="BackgroundImageFix" result="shape"/>
<feGaussianBlur stdDeviation="9" result="effect1_foregroundBlur_10714_95"/>
</filter>
<filter id="filter2_b_10714_95" x="83.0354" y="1.36481" width="38.8871" height="38.785" filterUnits="userSpaceOnUse" color-interpolation-filters="sRGB">
<feFlood flood-opacity="0" result="BackgroundImageFix"/>
<feGaussianBlur in="BackgroundImage" stdDeviation="6.5"/>
<feComposite in2="SourceAlpha" operator="in" result="effect1_backgroundBlur_10714_95"/>
<feBlend mode="normal" in="SourceGraphic" in2="effect1_backgroundBlur_10714_95" result="shape"/>
</filter>
<filter id="filter3_b_10714_95" x="-20.6006" y="-20.8427" width="136.749" height="134.678" filterUnits="userSpaceOnUse" color-interpolation-filters="sRGB">
<feFlood flood-opacity="0" result="BackgroundImageFix"/>
<feGaussianBlur in="BackgroundImage" stdDeviation="12"/>
<feComposite in2="SourceAlpha" operator="in" result="effect1_backgroundBlur_10714_95"/>
<feBlend mode="normal" in="SourceGraphic" in2="effect1_backgroundBlur_10714_95" result="shape"/>
</filter>
<filter id="filter4_bd_10714_95" x="48.4535" y="2.06897" width="45.4928" height="46.3926" filterUnits="userSpaceOnUse" color-interpolation-filters="sRGB">
<feFlood flood-opacity="0" result="BackgroundImageFix"/>
<feGaussianBlur in="BackgroundImage" stdDeviation="7.5"/>
<feComposite in2="SourceAlpha" operator="in" result="effect1_backgroundBlur_10714_95"/>
<feColorMatrix in="SourceAlpha" type="matrix" values="0 0 0 0 0 0 0 0 0 0 0 0 0 0 0 0 0 0 127 0" result="hardAlpha"/>
<feOffset dx="5" dy="5"/>
<feGaussianBlur stdDeviation="5"/>
<feColorMatrix type="matrix" values="0 0 0 0 1 0 0 0 0 0.321569 0 0 0 0 0.54902 0 0 0 0.5 0"/>
<feBlend mode="normal" in2="effect1_backgroundBlur_10714_95" result="effect2_dropShadow_10714_95"/>
<feBlend mode="normal" in="SourceGraphic" in2="effect2_dropShadow_10714_95" result="shape"/>
</filter>
<linearGradient id="paint0_linear_10714_95" x1="87.953" y1="64.1417" x2="30.4139" y2="60.2523" gradientUnits="userSpaceOnUse">
<stop stop-color="#FF759F"/>
<stop offset="1" stop-color="#FF196E"/>
</linearGradient>
<linearGradient id="paint1_linear_10714_95" x1="102.169" y1="22.6899" x2="89.4262" y2="22.9497" gradientUnits="userSpaceOnUse">
<stop stop-color="#FF759F"/>
<stop offset="1" stop-color="#FF196E"/>
</linearGradient>
<linearGradient id="paint2_linear_10714_95" x1="15.2881" y1="21.9621" x2="78.1957" y2="79.995" gradientUnits="userSpaceOnUse">
<stop stop-color="white" stop-opacity="0.25"/>
<stop offset="1" stop-color="white" stop-opacity="0"/>
</linearGradient>
<linearGradient id="paint3_linear_10714_95" x1="76.0536" y1="18.691" x2="61.0123" y2="21.6871" gradientUnits="userSpaceOnUse">
<stop stop-color="white"/>
<stop offset="1" stop-color="white" stop-opacity="0.2"/>
</linearGradient>
<linearGradient id="paint4_linear_10714_95" x1="65.422" y1="19.3761" x2="78.7253" y2="28.3488" gradientUnits="userSpaceOnUse">
<stop stop-color="white" stop-opacity="0.25"/>
<stop offset="1" stop-color="white" stop-opacity="0"/>
</linearGradient>
</defs>
</svg>
