<svg width="100%" height="100%" viewBox="0 0 107 100" fill="none" xmlns="http://www.w3.org/2000/svg">
<path d="M48.9722 7.59977L19.3635 19.2411C7.78638 23.7929 3.19566 34.9822 7.94888 47.0716L18.9189 74.9728C23.6587 87.028 34.6407 92.0945 46.2178 87.5427L75.8265 75.9013C87.4037 71.3495 91.9602 60.1737 87.2204 48.1185L76.2504 20.2173C71.4972 8.12788 60.5493 3.04796 48.9722 7.59977Z" fill="url(#paint0_linear_10714_528)"/>
<g opacity="0.5" filter="url(#filter0_f_10714_528)">
<path d="M51.7517 19.8623L29.5761 28.5387C21.5324 31.6859 18.4695 37.6596 21.2459 44.7557L30.6492 68.7894C33.4712 76.0018 39.7384 78.2177 47.782 75.0705L69.9576 66.3942C78.1309 63.1963 81.098 57.3674 78.2761 50.155L68.8727 26.1213C66.0963 19.0252 59.925 16.6645 51.7517 19.8623Z" fill="#30AD31"/>
</g>
<g filter="url(#filter1_b_10714_528)">
<mask id="path-3-outside-1_10714_528" maskUnits="userSpaceOnUse" x="30.6123" y="24.3211" width="76" height="76" fill="black">
<rect fill="white" x="30.6123" y="24.3211" width="76" height="76"/>
<path d="M84.2337 25.3211H52.4187C39.9789 25.3211 31.6123 34.0547 31.6123 47.0449V77.0252C31.6123 89.9787 39.9789 98.7122 52.4187 98.7122H84.2337C96.6735 98.7122 105.003 89.9787 105.003 77.0252V47.0449C105.003 34.0547 96.6735 25.3211 84.2337 25.3211Z"/>
</mask>
<path d="M84.2337 25.3211H52.4187C39.9789 25.3211 31.6123 34.0547 31.6123 47.0449V77.0252C31.6123 89.9787 39.9789 98.7122 52.4187 98.7122H84.2337C96.6735 98.7122 105.003 89.9787 105.003 77.0252V47.0449C105.003 34.0547 96.6735 25.3211 84.2337 25.3211Z" fill="#72DC60" fill-opacity="0.35"/>
<path d="M84.2337 26.3211C84.786 26.3211 85.2337 25.8734 85.2337 25.3211C85.2337 24.7688 84.786 24.3211 84.2337 24.3211V26.3211ZM84.2337 24.3211C83.6815 24.3211 83.2337 24.7688 83.2337 25.3211C83.2337 25.8734 83.6815 26.3211 84.2337 26.3211V24.3211ZM84.2337 24.3211H52.4187V26.3211H84.2337V24.3211ZM52.4187 24.3211C45.956 24.3211 40.4834 26.5952 36.6284 30.6199C32.777 34.6409 30.6123 40.333 30.6123 47.0449H32.6123C32.6123 40.7665 34.6309 35.5968 38.0727 32.0034C41.511 28.4137 46.4416 26.3211 52.4187 26.3211V24.3211ZM30.6123 47.0449V77.0252H32.6123V47.0449H30.6123ZM30.6123 77.0252C30.6123 83.7194 32.7775 89.4024 36.6288 93.4184C40.4837 97.4382 45.9561 99.7122 52.4187 99.7122V97.7122C46.4415 97.7122 41.5107 95.6196 38.0723 92.0341C34.6304 88.445 32.6123 83.2844 32.6123 77.0252H30.6123ZM52.4187 99.7122H84.2337V97.7122H52.4187V99.7122ZM84.2337 99.7122C90.6966 99.7122 96.1603 97.438 100.006 93.4175C103.848 89.401 106.003 83.7182 106.003 77.0252H104.003C104.003 83.2857 101.994 88.4464 98.5609 92.035C95.1319 95.6197 90.2107 97.7122 84.2337 97.7122V99.7122ZM106.003 77.0252V47.0449H104.003V77.0252H106.003ZM106.003 47.0449C106.003 40.3342 103.849 34.6422 100.007 30.6209C96.1606 26.5954 90.6966 24.3211 84.2337 24.3211V26.3211C90.2107 26.3211 95.1316 28.4136 98.5605 32.0025C101.993 35.5954 104.003 40.7653 104.003 47.0449H106.003Z" fill="url(#paint1_linear_10714_528)" mask="url(#path-3-outside-1_10714_528)"/>
</g>
<g filter="url(#filter2_bd_10714_528)">
<mask id="path-5-inside-2_10714_528" fill="white">
<path fill-rule="evenodd" clip-rule="evenodd" d="M86.5463 71.4158C88.0655 71.4158 89.2985 70.1828 89.2985 68.6636V61.8676C89.2985 60.3484 88.0655 59.1154 86.5463 59.1154H65.6592C64.4702 55.2 60.8667 52.3231 56.566 52.3231C51.3039 52.3231 47.0215 56.6054 47.0215 61.8676C47.0215 67.1334 51.3039 71.4158 56.566 71.4158C60.8667 71.4158 64.4702 68.5388 65.6592 64.6197H73.4093V68.6636C73.4093 70.1828 74.6422 71.4158 76.1614 71.4158C77.6806 71.4158 78.9136 70.1828 78.9136 68.6636V64.6197H83.7941V68.6636C83.7941 70.1828 85.0271 71.4158 86.5463 71.4158ZM52.5221 61.8672C52.5221 59.6361 54.3385 57.8233 56.5659 57.8233C58.7934 57.8233 60.6098 59.6361 60.6098 61.8672C60.6098 64.0946 58.7934 65.9074 56.5659 65.9074C54.3385 65.9074 52.5221 64.0946 52.5221 61.8672Z"/>
</mask>
<path fill-rule="evenodd" clip-rule="evenodd" d="M86.5463 71.4158C88.0655 71.4158 89.2985 70.1828 89.2985 68.6636V61.8676C89.2985 60.3484 88.0655 59.1154 86.5463 59.1154H65.6592C64.4702 55.2 60.8667 52.3231 56.566 52.3231C51.3039 52.3231 47.0215 56.6054 47.0215 61.8676C47.0215 67.1334 51.3039 71.4158 56.566 71.4158C60.8667 71.4158 64.4702 68.5388 65.6592 64.6197H73.4093V68.6636C73.4093 70.1828 74.6422 71.4158 76.1614 71.4158C77.6806 71.4158 78.9136 70.1828 78.9136 68.6636V64.6197H83.7941V68.6636C83.7941 70.1828 85.0271 71.4158 86.5463 71.4158ZM52.5221 61.8672C52.5221 59.6361 54.3385 57.8233 56.5659 57.8233C58.7934 57.8233 60.6098 59.6361 60.6098 61.8672C60.6098 64.0946 58.7934 65.9074 56.5659 65.9074C54.3385 65.9074 52.5221 64.0946 52.5221 61.8672Z" fill="url(#paint2_linear_10714_528)"/>
<path d="M65.6592 59.1154L65.4678 59.1735L65.5109 59.3154H65.6592V59.1154ZM65.6592 64.6197V64.4197H65.5108L65.4678 64.5617L65.6592 64.6197ZM73.4093 64.6197H73.6093V64.4197H73.4093V64.6197ZM78.9136 64.6197V64.4197H78.7136V64.6197H78.9136ZM83.7941 64.6197H83.9941V64.4197H83.7941V64.6197ZM89.0984 68.6636C89.0984 70.0723 87.955 71.2158 86.5463 71.2158V71.6158C88.1759 71.6158 89.4985 70.2933 89.4985 68.6636H89.0984ZM89.0984 61.8676V68.6636H89.4985V61.8676H89.0984ZM86.5463 59.3154C87.955 59.3154 89.0984 60.4588 89.0984 61.8676H89.4985C89.4985 60.2379 88.1759 58.9154 86.5463 58.9154V59.3154ZM65.6592 59.3154H86.5463V58.9154H65.6592V59.3154ZM56.566 52.5231C60.7744 52.5231 64.3032 55.3383 65.4678 59.1735L65.8505 59.0573C64.6373 55.0617 60.959 52.1231 56.566 52.1231V52.5231ZM47.2215 61.8676C47.2215 56.7159 51.4143 52.5231 56.566 52.5231V52.1231C51.1934 52.1231 46.8215 56.495 46.8215 61.8676H47.2215ZM56.566 71.2158C51.4144 71.2158 47.2215 67.023 47.2215 61.8676H46.8215C46.8215 67.2438 51.1934 71.6158 56.566 71.6158V71.2158ZM65.4678 64.5617C64.3032 68.4006 60.7744 71.2158 56.566 71.2158V71.6158C60.9591 71.6158 64.6373 68.6771 65.8506 64.6778L65.4678 64.5617ZM73.4093 64.4197H65.6592V64.8197H73.4093V64.4197ZM73.6093 68.6636V64.6197H73.2093V68.6636H73.6093ZM76.1614 71.2158C74.7527 71.2158 73.6093 70.0723 73.6093 68.6636H73.2093C73.2093 70.2933 74.5318 71.6158 76.1614 71.6158V71.2158ZM78.7136 68.6636C78.7136 70.0723 77.5702 71.2158 76.1614 71.2158V71.6158C77.7911 71.6158 79.1136 70.2933 79.1136 68.6636H78.7136ZM78.7136 64.6197V68.6636H79.1136V64.6197H78.7136ZM83.7941 64.4197H78.9136V64.8197H83.7941V64.4197ZM83.9941 68.6636V64.6197H83.5941V68.6636H83.9941ZM86.5463 71.2158C85.1375 71.2158 83.9941 70.0723 83.9941 68.6636H83.5941C83.5941 70.2933 84.9166 71.6158 86.5463 71.6158V71.2158ZM56.5659 57.6233C54.2282 57.6233 52.3221 59.5255 52.3221 61.8672H52.7221C52.7221 59.7467 54.4489 58.0233 56.5659 58.0233V57.6233ZM60.8098 61.8672C60.8098 59.5255 58.9037 57.6233 56.5659 57.6233V58.0233C58.683 58.0233 60.4098 59.7467 60.4098 61.8672H60.8098ZM56.5659 66.1074C58.9036 66.1074 60.8098 64.2053 60.8098 61.8672H60.4098C60.4098 63.9839 58.6831 65.7074 56.5659 65.7074V66.1074ZM52.3221 61.8672C52.3221 64.2053 54.2283 66.1074 56.5659 66.1074V65.7074C54.4487 65.7074 52.7221 63.9839 52.7221 61.8672H52.3221Z" fill="url(#paint3_linear_10714_528)" fill-opacity="0.5" mask="url(#path-5-inside-2_10714_528)"/>
</g>
<defs>
<filter id="filter0_f_10714_528" x="3.2439" y="1.46228" width="93.0725" height="92.0028" filterUnits="userSpaceOnUse" color-interpolation-filters="sRGB">
<feFlood flood-opacity="0" result="BackgroundImageFix"/>
<feBlend mode="normal" in="SourceGraphic" in2="BackgroundImageFix" result="shape"/>
<feGaussianBlur stdDeviation="8.5" result="effect1_foregroundBlur_10714_528"/>
</filter>
<filter id="filter1_b_10714_528" x="6.6123" y="0.321106" width="123.391" height="123.391" filterUnits="userSpaceOnUse" color-interpolation-filters="sRGB">
<feFlood flood-opacity="0" result="BackgroundImageFix"/>
<feGaussianBlur in="BackgroundImage" stdDeviation="12"/>
<feComposite in2="SourceAlpha" operator="in" result="effect1_backgroundBlur_10714_528"/>
<feBlend mode="normal" in="SourceGraphic" in2="effect1_backgroundBlur_10714_528" result="shape"/>
</filter>
<filter id="filter2_bd_10714_528" x="32.0215" y="37.3231" width="72.277" height="49.0927" filterUnits="userSpaceOnUse" color-interpolation-filters="sRGB">
<feFlood flood-opacity="0" result="BackgroundImageFix"/>
<feGaussianBlur in="BackgroundImage" stdDeviation="7.5"/>
<feComposite in2="SourceAlpha" operator="in" result="effect1_backgroundBlur_10714_528"/>
<feColorMatrix in="SourceAlpha" type="matrix" values="0 0 0 0 0 0 0 0 0 0 0 0 0 0 0 0 0 0 127 0" result="hardAlpha"/>
<feOffset dx="5" dy="5"/>
<feGaussianBlur stdDeviation="5"/>
<feColorMatrix type="matrix" values="0 0 0 0 0.454902 0 0 0 0 0.870588 0 0 0 0 0.376471 0 0 0 0.5 0"/>
<feBlend mode="normal" in2="effect1_backgroundBlur_10714_528" result="effect2_dropShadow_10714_528"/>
<feBlend mode="normal" in="SourceGraphic" in2="effect2_dropShadow_10714_528" result="shape"/>
</filter>
<linearGradient id="paint0_linear_10714_528" x1="68.3016" y1="-4.86714e-06" x2="42.2878" y2="75.259" gradientUnits="userSpaceOnUse">
<stop stop-color="#9BF763"/>
<stop offset="1" stop-color="#26AB5B"/>
</linearGradient>
<linearGradient id="paint1_linear_10714_528" x1="43.295" y1="33.8713" x2="90.1107" y2="91.8537" gradientUnits="userSpaceOnUse">
<stop stop-color="white" stop-opacity="0.25"/>
<stop offset="1" stop-color="white" stop-opacity="0"/>
</linearGradient>
<linearGradient id="paint2_linear_10714_528" x1="86.301" y1="55.7708" x2="39.4029" y2="59.1567" gradientUnits="userSpaceOnUse">
<stop stop-color="white"/>
<stop offset="1" stop-color="white" stop-opacity="0.2"/>
</linearGradient>
<linearGradient id="paint3_linear_10714_528" x1="51.5756" y1="58.7277" x2="87.4704" y2="59.1665" gradientUnits="userSpaceOnUse">
<stop stop-color="white"/>
<stop offset="1" stop-color="white" stop-opacity="0"/>
</linearGradient>
</defs>
</svg>
