<svg width="100%" height="100%" viewBox="0 0 99 96" fill="none" xmlns="http://www.w3.org/2000/svg">
<path d="M75.1693 18.5799L49.0404 11.5786C38.8239 8.84115 30.0308 14.1726 27.1721 24.8412L20.5747 49.4632C17.7241 60.1016 22.6735 69.1154 32.89 71.8529L59.0189 78.8541C69.2353 81.5916 77.9984 76.252 80.8489 65.6136L87.4464 40.9916C90.305 30.3231 85.3858 21.3174 75.1693 18.5799Z" fill="url(#paint0_linear_10714_327)"/>
<g opacity="0.5" filter="url(#filter0_f_10714_327)">
<rect x="26.6501" y="59.178" width="43.6506" height="43.4826" rx="10" transform="rotate(-72.4886 26.6501 59.178)" fill="#8237FF"/>
</g>
<g filter="url(#filter1_b_10714_327)">
<mask id="path-3-outside-1_10714_327" maskUnits="userSpaceOnUse" x="0" y="22.5433" width="74" height="74" fill="black">
<rect fill="white" y="22.5433" width="74" height="74"/>
<path d="M51.9841 23.5433H21.159C9.10625 23.5433 1 32.0051 1 44.5911V73.6386C1 86.189 9.10625 94.6508 21.159 94.6508H51.9841C64.0368 94.6508 72.1075 86.189 72.1075 73.6386V44.5911C72.1075 32.0051 64.0368 23.5433 51.9841 23.5433Z"/>
</mask>
<path d="M51.9841 23.5433H21.159C9.10625 23.5433 1 32.0051 1 44.5911V73.6386C1 86.189 9.10625 94.6508 21.159 94.6508H51.9841C64.0368 94.6508 72.1075 86.189 72.1075 73.6386V44.5911C72.1075 32.0051 64.0368 23.5433 51.9841 23.5433Z" fill="#BA90FF" fill-opacity="0.35"/>
<path d="M51.9841 24.5433C52.5364 24.5433 52.9841 24.0956 52.9841 23.5433C52.9841 22.991 52.5364 22.5433 51.9841 22.5433V24.5433ZM51.9841 22.5433C51.4318 22.5433 50.9841 22.991 50.9841 23.5433C50.9841 24.0956 51.4318 24.5433 51.9841 24.5433V22.5433ZM51.9841 22.5433H21.159V24.5433H51.9841V22.5433ZM21.159 22.5433C14.8898 22.5433 9.57906 24.7495 5.83755 28.6558C2.09962 32.5582 0 38.0814 0 44.5911H2C2 38.5149 3.9535 33.5141 7.28189 30.0392C10.6067 26.568 15.3754 24.5433 21.159 24.5433V22.5433ZM0 44.5911V73.6386H2V44.5911H0ZM0 73.6386C0 80.1313 2.10007 85.6455 5.83797 89.5433C9.57935 93.4447 14.8899 95.6508 21.159 95.6508V93.6508C15.3754 93.6508 10.6064 91.6261 7.28147 88.159C3.95305 84.6882 2 79.6963 2 73.6386H0ZM21.159 95.6508H51.9841V93.6508H21.159V95.6508ZM51.9841 95.6508C58.2534 95.6508 63.5555 93.4445 67.2882 89.5424C71.0171 85.6442 73.1075 80.1301 73.1075 73.6386H71.1075C71.1075 79.6975 69.1626 84.6895 65.8429 88.1599C62.5271 91.6263 57.7675 93.6508 51.9841 93.6508V95.6508ZM73.1075 73.6386V44.5911H71.1075V73.6386H73.1075ZM73.1075 44.5911C73.1075 38.0826 71.0175 32.5596 67.2886 28.6567C63.5558 24.7497 58.2534 22.5433 51.9841 22.5433V24.5433C57.7675 24.5433 62.5268 26.5678 65.8425 30.0383C69.1621 33.5128 71.1075 38.5137 71.1075 44.5911H73.1075Z" fill="url(#paint1_linear_10714_327)" mask="url(#path-3-outside-1_10714_327)"/>
</g>
<g filter="url(#filter2_bd_10714_327)">
<mask id="path-5-inside-2_10714_327" fill="white">
<path fill-rule="evenodd" clip-rule="evenodd" d="M16.3589 59.0976C16.3589 61.4442 18.2788 63.3641 20.6253 63.3641C22.9719 63.3641 24.8918 61.4442 24.8918 59.0976C24.8918 56.7511 22.9719 54.8347 20.6253 54.8347C18.2788 54.8347 16.3589 56.7511 16.3589 59.0976ZM36.5544 63.3644C34.2078 63.3644 32.2879 61.4445 32.2879 59.098C32.2879 56.7514 34.2078 54.8351 36.5544 54.8351C38.9009 54.8351 40.8208 56.7514 40.8208 59.098C40.8208 61.4445 38.9009 63.3644 36.5544 63.3644ZM52.4825 63.3648C50.136 63.3648 48.2161 61.4449 48.2161 59.0984C48.2161 56.7518 50.136 54.8355 52.4825 54.8355C54.8291 54.8355 56.7134 56.7518 56.7134 59.0984C56.7134 61.4449 54.8291 63.3648 52.4825 63.3648Z"/>
</mask>
<path fill-rule="evenodd" clip-rule="evenodd" d="M16.3589 59.0976C16.3589 61.4442 18.2788 63.3641 20.6253 63.3641C22.9719 63.3641 24.8918 61.4442 24.8918 59.0976C24.8918 56.7511 22.9719 54.8347 20.6253 54.8347C18.2788 54.8347 16.3589 56.7511 16.3589 59.0976ZM36.5544 63.3644C34.2078 63.3644 32.2879 61.4445 32.2879 59.098C32.2879 56.7514 34.2078 54.8351 36.5544 54.8351C38.9009 54.8351 40.8208 56.7514 40.8208 59.098C40.8208 61.4445 38.9009 63.3644 36.5544 63.3644ZM52.4825 63.3648C50.136 63.3648 48.2161 61.4449 48.2161 59.0984C48.2161 56.7518 50.136 54.8355 52.4825 54.8355C54.8291 54.8355 56.7134 56.7518 56.7134 59.0984C56.7134 61.4449 54.8291 63.3648 52.4825 63.3648Z" fill="url(#paint2_linear_10714_327)"/>
<path d="M20.6253 62.9641C18.4997 62.9641 16.7589 61.2232 16.7589 59.0976H15.9589C15.9589 61.6651 18.0578 63.7641 20.6253 63.7641V62.9641ZM24.4918 59.0976C24.4918 61.2232 22.7509 62.9641 20.6253 62.9641V63.7641C23.1928 63.7641 25.2918 61.6651 25.2918 59.0976H24.4918ZM20.6253 55.2347C22.7514 55.2347 24.4918 56.9724 24.4918 59.0976H25.2918C25.2918 56.5297 23.1923 54.4347 20.6253 54.4347V55.2347ZM16.7589 59.0976C16.7589 56.9724 18.4992 55.2347 20.6253 55.2347V54.4347C18.0583 54.4347 15.9589 56.5297 15.9589 59.0976H16.7589ZM31.8879 59.098C31.8879 61.6655 33.9869 63.7644 36.5544 63.7644V62.9644C34.4287 62.9644 32.6879 61.2236 32.6879 59.098H31.8879ZM36.5544 54.4351C33.9874 54.4351 31.8879 56.5301 31.8879 59.098H32.6879C32.6879 56.9728 34.4283 55.2351 36.5544 55.2351V54.4351ZM41.2208 59.098C41.2208 56.5301 39.1214 54.4351 36.5544 54.4351V55.2351C38.6805 55.2351 40.4208 56.9728 40.4208 59.098H41.2208ZM36.5544 63.7644C39.1218 63.7644 41.2208 61.6655 41.2208 59.098H40.4208C40.4208 61.2236 38.68 62.9644 36.5544 62.9644V63.7644ZM47.8161 59.0984C47.8161 61.6658 49.9151 63.7648 52.4825 63.7648V62.9648C50.3569 62.9648 48.6161 61.224 48.6161 59.0984H47.8161ZM52.4825 54.4355C49.9155 54.4355 47.8161 56.5305 47.8161 59.0984H48.6161C48.6161 56.9732 50.3564 55.2355 52.4825 55.2355V54.4355ZM57.1134 59.0984C57.1134 56.5348 55.0539 54.4355 52.4825 54.4355V55.2355C54.6042 55.2355 56.3134 56.9688 56.3134 59.0984H57.1134ZM52.4825 63.7648C55.0543 63.7648 57.1134 61.6615 57.1134 59.0984H56.3134C56.3134 61.2284 54.6038 62.9648 52.4825 62.9648V63.7648Z" fill="url(#paint3_linear_10714_327)" mask="url(#path-5-inside-2_10714_327)"/>
</g>
<defs>
<filter id="filter0_f_10714_327" x="9.19296" y="0.0931168" width="89.5161" height="89.6257" filterUnits="userSpaceOnUse" color-interpolation-filters="sRGB">
<feFlood flood-opacity="0" result="BackgroundImageFix"/>
<feBlend mode="normal" in="SourceGraphic" in2="BackgroundImageFix" result="shape"/>
<feGaussianBlur stdDeviation="10" result="effect1_foregroundBlur_10714_327"/>
</filter>
<filter id="filter1_b_10714_327" x="-24" y="-1.45668" width="121.107" height="121.108" filterUnits="userSpaceOnUse" color-interpolation-filters="sRGB">
<feFlood flood-opacity="0" result="BackgroundImageFix"/>
<feGaussianBlur in="BackgroundImage" stdDeviation="12"/>
<feComposite in2="SourceAlpha" operator="in" result="effect1_backgroundBlur_10714_327"/>
<feBlend mode="normal" in="SourceGraphic" in2="effect1_backgroundBlur_10714_327" result="shape"/>
</filter>
<filter id="filter2_bd_10714_327" x="1.35886" y="39.8347" width="70.3546" height="38.5301" filterUnits="userSpaceOnUse" color-interpolation-filters="sRGB">
<feFlood flood-opacity="0" result="BackgroundImageFix"/>
<feGaussianBlur in="BackgroundImage" stdDeviation="7.5"/>
<feComposite in2="SourceAlpha" operator="in" result="effect1_backgroundBlur_10714_327"/>
<feColorMatrix in="SourceAlpha" type="matrix" values="0 0 0 0 0 0 0 0 0 0 0 0 0 0 0 0 0 0 127 0" result="hardAlpha"/>
<feOffset dx="5" dy="5"/>
<feGaussianBlur stdDeviation="5"/>
<feColorMatrix type="matrix" values="0 0 0 0 0.577356 0 0 0 0 0.359375 0 0 0 0 0.9375 0 0 0 0.5 0"/>
<feBlend mode="normal" in2="effect1_backgroundBlur_10714_327" result="effect2_dropShadow_10714_327"/>
<feBlend mode="normal" in="SourceGraphic" in2="effect2_dropShadow_10714_327" result="shape"/>
</filter>
<linearGradient id="paint0_linear_10714_327" x1="62.0898" y1="15.0752" x2="45.9393" y2="75.3494" gradientUnits="userSpaceOnUse">
<stop stop-color="#BC94FF"/>
<stop offset="1" stop-color="#9F66FF"/>
</linearGradient>
<linearGradient id="paint1_linear_10714_327" x1="12.3192" y1="31.8274" x2="57.6782" y2="88.0057" gradientUnits="userSpaceOnUse">
<stop stop-color="white" stop-opacity="0.25"/>
<stop offset="1" stop-color="white" stop-opacity="0"/>
</linearGradient>
<linearGradient id="paint2_linear_10714_327" x1="53.8523" y1="56.3751" x2="9.89911" y2="63.1547" gradientUnits="userSpaceOnUse">
<stop stop-color="white"/>
<stop offset="1" stop-color="white" stop-opacity="0.2"/>
</linearGradient>
<linearGradient id="paint3_linear_10714_327" x1="22.7826" y1="55.8285" x2="24.6289" y2="66.6459" gradientUnits="userSpaceOnUse">
<stop stop-color="white" stop-opacity="0.25"/>
<stop offset="1" stop-color="white" stop-opacity="0"/>
</linearGradient>
</defs>
</svg>
