<svg width="100%" height="100%" viewBox="0 0 108 96" fill="none" xmlns="http://www.w3.org/2000/svg">
<path d="M66.8434 8.63574C62.5894 6.17374 57.5291 5.52231 52.7903 6.79205L17.8807 16.1461C7.98269 18.7982 2.1399 28.9234 4.78164 38.7825L12.2618 66.6989C14.9036 76.558 25.0615 82.3958 34.9241 79.7531L69.8338 70.3991C79.6964 67.7564 85.5781 57.6209 82.9364 47.7618L75.4562 19.8453C74.1874 15.1101 71.099 11.0897 66.8434 8.63574Z" fill="url(#paint0_linear_10714_357)"/>
<g filter="url(#filter0_f_10714_357)">
<path d="M57.1741 17.8171C54.4901 16.1715 51.3158 15.7041 48.3586 16.4964L26.5727 22.3339C20.3958 23.9891 16.8191 30.5674 18.5535 37.0405L23.4648 55.3696C25.1993 61.8427 31.608 65.7455 37.7629 64.0963L59.5487 58.2588C65.7036 56.6096 69.3046 50.0247 67.5701 43.5516L62.6589 25.2226C61.8258 22.1136 59.8591 19.4576 57.1741 17.8171Z" fill="#EF5641"/>
</g>
<g filter="url(#filter1_b_10714_357)">
<mask id="path-3-outside-1_10714_357" maskUnits="userSpaceOnUse" x="23" y="20" width="84" height="76" fill="black">
<rect fill="white" x="23" y="20" width="84" height="76"/>
<path d="M99.6192 27.0474C95.7442 23.1642 90.4767 21 85.0009 21H44.6617C33.2242 21 24 30.2283 24 41.6208V73.8792C24 85.2717 33.2651 94.5 44.6617 94.5H85.0009C96.3975 94.5 105.667 85.2717 105.667 73.8792V41.6208C105.667 36.1492 103.498 30.9225 99.6192 27.0474Z"/>
</mask>
<path d="M99.6192 27.0474C95.7442 23.1642 90.4767 21 85.0009 21H44.6617C33.2242 21 24 30.2283 24 41.6208V73.8792C24 85.2717 33.2651 94.5 44.6617 94.5H85.0009C96.3975 94.5 105.667 85.2717 105.667 73.8792V41.6208C105.667 36.1492 103.498 30.9225 99.6192 27.0474Z" fill="#FFAC95" fill-opacity="0.4"/>
<path d="M98.9114 27.7538C99.3015 28.1447 99.9347 28.1454 100.326 27.7553C100.717 27.3652 100.717 26.732 100.327 26.3411L98.9114 27.7538ZM100.326 26.3399C99.9352 25.9496 99.3021 25.95 98.9118 26.3407C98.5214 26.7314 98.5218 27.3646 98.9125 27.7549L100.326 26.3399ZM100.327 26.3411C96.2628 22.2682 90.7399 20 85.0009 20V22C90.2134 22 95.2255 24.0602 98.9114 27.7538L100.327 26.3411ZM85.0009 20H44.6617V22H85.0009V20ZM44.6617 20C32.6731 20 23 29.6749 23 41.6208H25C25 30.7818 33.7754 22 44.6617 22V20ZM23 41.6208V73.8792H25V41.6208H23ZM23 73.8792C23 85.8264 32.7152 95.5 44.6617 95.5V93.5C33.8149 93.5 25 84.7169 25 73.8792H23ZM44.6617 95.5H85.0009V93.5H44.6617V95.5ZM85.0009 95.5C96.9471 95.5 106.667 85.8267 106.667 73.8792H104.667C104.667 84.7167 95.8479 93.5 85.0009 93.5V95.5ZM106.667 73.8792V41.6208H104.667V73.8792H106.667ZM106.667 41.6208C106.667 35.8833 104.393 30.4022 100.326 26.3399L98.9125 27.7549C102.604 31.4428 104.667 36.4151 104.667 41.6208H106.667Z" fill="url(#paint1_linear_10714_357)" mask="url(#path-3-outside-1_10714_357)"/>
</g>
<g filter="url(#filter2_bd_10714_357)">
<mask id="path-5-inside-2_10714_357" fill="white">
<path d="M91.8244 47.3781L91.4977 47.7047L73.0778 62.4456C70.7952 64.2422 67.9736 65.2222 65.0785 65.2222C62.1753 65.2222 59.4027 64.2422 57.116 62.4456L38.5369 47.9497L38.002 47.4189C37.0669 46.1939 37.1894 44.4381 38.2919 43.3356C39.3495 42.2331 41.1053 42.1106 42.3752 43.0497L60.7502 57.7497C63.1553 59.7138 66.5485 59.7138 68.9169 57.7497L87.3286 43.0497C87.9452 42.4781 88.7619 42.1881 89.6194 42.2331C90.432 42.3147 91.2119 42.6863 91.7795 43.2947C92.8003 44.4789 92.8003 46.1939 91.8244 47.3781Z"/>
</mask>
<path d="M91.8244 47.3781L91.4977 47.7047L73.0778 62.4456C70.7952 64.2422 67.9736 65.2222 65.0785 65.2222C62.1753 65.2222 59.4027 64.2422 57.116 62.4456L38.5369 47.9497L38.002 47.4189C37.0669 46.1939 37.1894 44.4381 38.2919 43.3356C39.3495 42.2331 41.1053 42.1106 42.3752 43.0497L60.7502 57.7497C63.1553 59.7138 66.5485 59.7138 68.9169 57.7497L87.3286 43.0497C87.9452 42.4781 88.7619 42.1881 89.6194 42.2331C90.432 42.3147 91.2119 42.6863 91.7795 43.2947C92.8003 44.4789 92.8003 46.1939 91.8244 47.3781Z" fill="url(#paint2_linear_10714_357)"/>
<path d="M91.4977 47.7047L91.6227 47.8609L91.6313 47.854L91.6391 47.8461L91.4977 47.7047ZM73.0778 62.4456L73.2015 62.6027L73.2028 62.6017L73.0778 62.4456ZM57.116 62.4456L57.2396 62.2883L57.2391 62.2879L57.116 62.4456ZM38.5369 47.9497L38.396 48.0917L38.4044 48.1001L38.4138 48.1074L38.5369 47.9497ZM38.002 47.4189L37.843 47.5402L37.8513 47.5512L37.8611 47.5608L38.002 47.4189ZM38.2919 43.3356L38.4333 43.477L38.4362 43.474L38.2919 43.3356ZM42.3752 43.0497L42.5002 42.8934L42.4941 42.8889L42.3752 43.0497ZM60.7502 57.7497L60.8767 57.5948L60.8751 57.5935L60.7502 57.7497ZM68.9169 57.7497L68.7921 57.5934L68.7892 57.5958L68.9169 57.7497ZM87.3286 43.0497L87.4534 43.206L87.4592 43.2014L87.4646 43.1964L87.3286 43.0497ZM89.6194 42.2331L89.6394 42.0338L89.6298 42.0333L89.6194 42.2331ZM91.7795 43.2947L91.931 43.164L91.9257 43.1583L91.7795 43.2947ZM91.6829 47.2366L91.3563 47.5633L91.6391 47.8461L91.9658 47.5195L91.6829 47.2366ZM91.3727 47.5486L72.9528 62.2894L73.2028 62.6017L91.6227 47.8609L91.3727 47.5486ZM72.9541 62.2884C70.7066 64.0574 67.9285 65.0222 65.0785 65.0222V65.4222C68.0187 65.4222 70.8838 64.427 73.2015 62.6027L72.9541 62.2884ZM65.0785 65.0222C62.2211 65.0222 59.4918 64.0579 57.2396 62.2883L56.9925 62.6028C59.3136 64.4265 62.1295 65.4222 65.0785 65.4222V65.0222ZM57.2391 62.2879L38.6599 47.792L38.4138 48.1074L56.993 62.6032L57.2391 62.2879ZM38.6777 47.8078L38.1428 47.2769L37.8611 47.5608L38.396 48.0917L38.6777 47.8078ZM38.1609 47.2975C37.2874 46.1532 37.4007 44.5096 38.4333 43.477L38.1504 43.1941C36.9781 44.3665 36.8463 46.2345 37.843 47.5402L38.1609 47.2975ZM38.4362 43.474C39.4205 42.4479 41.063 42.328 42.2563 43.2105L42.4941 42.8889C41.1476 41.8931 39.2784 42.0182 38.1475 43.1971L38.4362 43.474ZM42.2503 43.2059L60.6253 57.9059L60.8751 57.5935L42.5001 42.8935L42.2503 43.2059ZM60.6237 57.9046C63.1018 59.9284 66.6016 59.9296 69.0445 57.9037L68.7892 57.5958C66.4955 59.498 63.2087 59.4992 60.8767 57.5948L60.6237 57.9046ZM69.0417 57.906L87.4534 43.206L87.2038 42.8934L68.7921 57.5934L69.0417 57.906ZM87.4646 43.1964C88.0404 42.6625 88.8038 42.3906 89.6089 42.4328L89.6298 42.0333C88.72 41.9857 87.85 42.2936 87.1926 42.9031L87.4646 43.1964ZM89.5994 42.432C90.3655 42.5091 91.1 42.8596 91.6332 43.4311L91.9257 43.1583C91.3238 42.513 90.4984 42.1204 89.6394 42.0341L89.5994 42.432ZM91.628 43.4253C92.5844 44.5348 92.5847 46.1409 91.67 47.2509L91.9787 47.5052C93.0158 46.2468 93.0161 44.4229 91.9309 43.1641L91.628 43.4253Z" fill="url(#paint3_linear_10714_357)" fill-opacity="0.5" mask="url(#path-5-inside-2_10714_357)"/>
</g>
<defs>
<filter id="filter0_f_10714_357" x="2.11609" y="0.120064" width="81.8897" height="80.354" filterUnits="userSpaceOnUse" color-interpolation-filters="sRGB">
<feFlood flood-opacity="0" result="BackgroundImageFix"/>
<feBlend mode="normal" in="SourceGraphic" in2="BackgroundImageFix" result="shape"/>
<feGaussianBlur stdDeviation="8" result="effect1_foregroundBlur_10714_357"/>
</filter>
<filter id="filter1_b_10714_357" x="8" y="5" width="113.667" height="105.5" filterUnits="userSpaceOnUse" color-interpolation-filters="sRGB">
<feFlood flood-opacity="0" result="BackgroundImageFix"/>
<feGaussianBlur in="BackgroundImage" stdDeviation="7.5"/>
<feComposite in2="SourceAlpha" operator="in" result="effect1_backgroundBlur_10714_357"/>
<feBlend mode="normal" in="SourceGraphic" in2="effect1_backgroundBlur_10714_357" result="shape"/>
</filter>
<filter id="filter2_bd_10714_357" x="22.375" y="27.2285" width="85.1758" height="52.9937" filterUnits="userSpaceOnUse" color-interpolation-filters="sRGB">
<feFlood flood-opacity="0" result="BackgroundImageFix"/>
<feGaussianBlur in="BackgroundImage" stdDeviation="7.5"/>
<feComposite in2="SourceAlpha" operator="in" result="effect1_backgroundBlur_10714_357"/>
<feColorMatrix in="SourceAlpha" type="matrix" values="0 0 0 0 0 0 0 0 0 0 0 0 0 0 0 0 0 0 127 0" result="hardAlpha"/>
<feOffset dx="5" dy="5"/>
<feGaussianBlur stdDeviation="5"/>
<feColorMatrix type="matrix" values="0 0 0 0 1 0 0 0 0 0.447059 0 0 0 0 0.368627 0 0 0 0.5 0"/>
<feBlend mode="normal" in2="effect1_backgroundBlur_10714_357" result="effect2_dropShadow_10714_357"/>
<feBlend mode="normal" in="SourceGraphic" in2="effect2_dropShadow_10714_357" result="shape"/>
</filter>
<linearGradient id="paint0_linear_10714_357" x1="50.2033" y1="46.1374" x2="-0.62813" y2="94.1727" gradientUnits="userSpaceOnUse">
<stop stop-color="#FFA78F"/>
<stop offset="1" stop-color="#F23E2C"/>
</linearGradient>
<linearGradient id="paint1_linear_10714_357" x1="37" y1="29.5628" x2="82.6171" y2="92.3383" gradientUnits="userSpaceOnUse">
<stop stop-color="white" stop-opacity="0.25"/>
<stop offset="1" stop-color="white" stop-opacity="0"/>
</linearGradient>
<linearGradient id="paint2_linear_10714_357" x1="88.6389" y1="46.3807" x2="27.4873" y2="51.1651" gradientUnits="userSpaceOnUse">
<stop stop-color="white"/>
<stop offset="1" stop-color="white" stop-opacity="0.2"/>
</linearGradient>
<linearGradient id="paint3_linear_10714_357" x1="90.1867" y1="54.2117" x2="36.9822" y2="59.5304" gradientUnits="userSpaceOnUse">
<stop stop-color="white"/>
<stop offset="1" stop-color="white" stop-opacity="0"/>
</linearGradient>
</defs>
</svg>
