<svg width="100%" height="100%" viewBox="0 0 102 90" fill="none" xmlns="http://www.w3.org/2000/svg">
<path d="M52.4986 54.3639C51.1163 51.4756 50.7476 49.1948 51.6744 45.736L51.9895 44.56C53.1972 40.0528 52.9379 36.8709 51.4607 33.3625C49.193 27.9212 44.0695 23.635 38.3407 22.1L38.0971 22.0347C32.4888 20.532 26.1254 21.6064 21.4297 24.9858C18.2575 27.3107 16.2881 30.0293 15.047 34.6613L14.7319 35.8373C13.8051 39.296 12.4056 41.1031 9.70415 42.8972C7.71584 44.2194 6.63259 46.3133 5.9875 48.7209C5.34166 51.1312 5.52103 53.6258 6.61134 55.9068C8.08728 58.6864 10.6327 60.8905 13.5555 61.9383C17.7505 63.5915 22.0281 64.9368 26.4184 66.1132C30.8059 67.2888 35.2165 68.1377 39.6454 68.929C42.6977 69.4823 46.0042 68.8462 48.6722 67.177C50.7542 65.746 52.1596 63.676 52.8054 61.2657C53.4505 58.8582 53.5594 56.5032 52.4986 54.3639Z" fill="url(#paint0_linear_10714_237)"/>
<path d="M30.9857 71.1881C29.6877 70.5252 21.2985 68.2773 19.843 68.2024C18.5932 68.1589 17.151 68.4502 16.7794 69.8371C16.4933 71.1784 16.9551 72.5537 17.8296 73.5817L17.8261 73.5838C18.9239 75.0373 20.3682 76.1616 22.0073 76.8653C22.8825 77.2336 23.8091 77.476 24.7827 77.609C26.5513 77.8183 28.3642 77.5668 30.0417 76.857L30.0397 76.8534C31.3111 76.4004 32.3986 75.4402 32.8215 74.1355C33.1931 72.7487 32.0898 71.7753 30.9857 71.1881Z" fill="url(#paint1_linear_10714_237)"/>
<g opacity="0.5" filter="url(#filter0_f_10714_237)">
<path d="M42.9233 49.9488C42.4048 48.144 42.3409 46.6833 42.954 44.395L43.1625 43.6169C43.9615 40.635 43.9942 38.5845 43.4608 36.3823C42.6448 32.9657 40.407 30.4386 37.7445 29.7252L37.6313 29.6949C35.0249 28.9965 31.9307 30.0063 29.5201 32.4286C27.8895 34.0922 26.8145 35.9519 25.9934 39.0165L25.7849 39.7945C25.1718 42.0828 24.414 43.3234 23.0345 44.6196C22.0192 45.5749 21.3984 46.9859 20.9716 48.5787C20.5443 50.1734 20.5073 51.7821 20.9162 53.2074C21.4848 54.9372 22.5929 56.2411 23.9382 56.7766C25.8618 57.6421 27.84 58.3039 29.8804 58.8507C31.9195 59.3971 33.9857 59.7304 36.0636 60.0256C37.4951 60.2341 39.1067 59.659 40.464 58.4453C41.5295 57.415 42.3031 56.0036 42.7304 54.4089C43.1571 52.8161 43.3251 51.2837 42.9233 49.9488Z" fill="#0062FF"/>
</g>
<g filter="url(#filter1_b_10714_237)">
<mask id="path-4-outside-1_10714_237" maskUnits="userSpaceOnUse" x="19.0139" y="-1.30507" width="84.4775" height="81.3885" fill="black">
<rect fill="white" x="19.0139" y="-1.30507" width="84.4775" height="81.3885"/>
<path d="M93.3276 39.1535C89.6904 36.3603 87.7415 33.6863 86.6837 28.6683L86.3241 26.9621C84.9457 20.423 82.5526 16.5271 78.3924 13.0037C71.97 7.52367 62.6487 5.36974 54.3374 7.1217L53.984 7.1962C45.8474 8.91134 38.4165 14.4074 34.6092 21.7663C32.0644 26.7914 31.3109 31.5398 32.7275 38.2599L33.0871 39.9661C34.1449 44.9841 33.5285 48.1989 31.2409 52.2409C29.5584 55.2181 29.5318 58.5944 30.2681 62.0873C31.0052 65.5842 32.8509 68.654 35.7216 70.8606C39.4079 73.4543 44.0872 74.6197 48.4991 74.0638C54.9282 73.4567 61.2632 72.4029 67.6327 71.0603C73.9982 69.7185 80.1814 67.9444 86.3507 66.085C90.6075 64.8136 94.4182 61.8585 96.744 57.9975C98.4757 54.8208 98.9292 51.2663 98.1921 47.7694C97.4558 44.2765 96.0687 41.1982 93.3276 39.1535Z"/>
</mask>
<path d="M93.3276 39.1535C89.6904 36.3603 87.7415 33.6863 86.6837 28.6683L86.3241 26.9621C84.9457 20.423 82.5526 16.5271 78.3924 13.0037C71.97 7.52367 62.6487 5.36974 54.3374 7.1217L53.984 7.1962C45.8474 8.91134 38.4165 14.4074 34.6092 21.7663C32.0644 26.7914 31.3109 31.5398 32.7275 38.2599L33.0871 39.9661C34.1449 44.9841 33.5285 48.1989 31.2409 52.2409C29.5584 55.2181 29.5318 58.5944 30.2681 62.0873C31.0052 65.5842 32.8509 68.654 35.7216 70.8606C39.4079 73.4543 44.0872 74.6197 48.4991 74.0638C54.9282 73.4567 61.2632 72.4029 67.6327 71.0603C73.9982 69.7185 80.1814 67.9444 86.3507 66.085C90.6075 64.8136 94.4182 61.8585 96.744 57.9975C98.4757 54.8208 98.9292 51.2663 98.1921 47.7694C97.4558 44.2765 96.0687 41.1982 93.3276 39.1535Z" fill="#3EA0FE" fill-opacity="0.35"/>
<path d="M92.7185 39.9466C93.1565 40.283 93.7843 40.2006 94.1207 39.7625C94.4571 39.3245 94.3747 38.6967 93.9366 38.3604L92.7185 39.9466ZM78.3924 13.0037L77.7433 13.7644L77.7461 13.7668L78.3924 13.0037ZM34.6092 21.7663L33.721 21.3068L33.7171 21.3145L34.6092 21.7663ZM31.2409 52.2409L30.3706 51.7483L30.3703 51.7489L31.2409 52.2409ZM35.7216 70.8606L35.1122 71.6535C35.1233 71.662 35.1347 71.6704 35.1462 71.6785L35.7216 70.8606ZM48.4991 74.0638L48.405 73.0682C48.3947 73.0692 48.3844 73.0704 48.374 73.0717L48.4991 74.0638ZM86.3507 66.085L86.0645 65.1268L86.0621 65.1275L86.3507 66.085ZM96.744 57.9975L97.6006 58.5135C97.608 58.5012 97.6151 58.4888 97.622 58.4762L96.744 57.9975ZM93.9255 38.3519C93.4828 38.0217 92.8562 38.1129 92.526 38.5555C92.1958 38.9982 92.287 39.6248 92.7296 39.955L93.9255 38.3519ZM93.9366 38.3604C92.1719 37.0052 90.8677 35.7176 89.8757 34.1985C88.8852 32.6816 88.1723 30.8818 87.6622 28.462L85.7052 28.8746C86.2529 31.4728 87.0434 33.519 88.2011 35.2919C89.3573 37.0626 90.846 38.5086 92.7185 39.9466L93.9366 38.3604ZM87.6622 28.462L87.3026 26.7558L85.3456 27.1684L85.7052 28.8746L87.6622 28.462ZM87.3026 26.7558C85.8824 20.0186 83.3827 15.9198 79.0387 12.2406L77.7461 13.7668C81.7224 17.1345 84.009 20.8275 85.3456 27.1684L87.3026 26.7558ZM79.0415 12.243C72.3686 6.54923 62.7267 4.33133 54.1311 6.14321L54.5436 8.1002C62.5707 6.40815 71.5713 8.4981 77.7433 13.7644L79.0415 12.243ZM54.1311 6.14321L53.7777 6.2177L54.1902 8.1747L54.5436 8.1002L54.1311 6.14321ZM53.7777 6.2177C45.359 7.9923 37.6716 13.671 33.7211 21.3068L35.4974 22.2259C39.1614 15.1438 46.3357 9.83037 54.1902 8.1747L53.7777 6.2177ZM33.7171 21.3145C31.0649 26.5516 30.2875 31.5331 31.749 38.4662L33.706 38.0536C32.3343 31.5464 33.0638 27.0313 35.5014 22.2181L33.7171 21.3145ZM31.749 38.4662L32.1086 40.1724L34.0656 39.7598L33.706 38.0536L31.749 38.4662ZM32.1086 40.1724C32.6202 42.5995 32.7143 44.5298 32.4309 46.3125C32.1476 48.0948 31.4767 49.794 30.3706 51.7483L32.1112 52.7334C33.2927 50.6457 34.0738 48.7166 34.4061 46.6265C34.7383 44.5367 34.6117 42.3506 34.0656 39.7598L32.1086 40.1724ZM30.3703 51.7489C28.5191 55.0246 28.5284 58.6822 29.2896 62.2935L31.2466 61.881C30.5353 58.5066 30.5976 55.4117 32.1115 52.7329L30.3703 51.7489ZM29.2896 62.2935C30.0731 66.0106 32.0422 69.2937 35.1122 71.6535L36.331 70.0678C33.6597 68.0144 31.9373 65.1577 31.2466 61.881L29.2896 62.2935ZM35.1462 71.6785C39.0346 74.4143 43.9633 75.6433 48.6241 75.056L48.374 73.0717C44.2111 73.5962 39.7813 72.4942 36.297 70.0428L35.1462 71.6785ZM48.5931 75.0594C55.0687 74.4479 61.4421 73.3872 67.8389 72.0388L67.4264 70.0818C61.0842 71.4187 54.7877 72.4655 48.405 73.0682L48.5931 75.0594ZM67.8389 72.0388C74.2478 70.6878 80.4644 68.9035 86.6392 67.0424L86.0621 65.1275C79.8983 66.9853 73.7486 68.7491 67.4264 70.0818L67.8389 72.0388ZM86.6368 67.0431C91.1342 65.7 95.1474 62.586 97.6006 58.5135L95.8874 57.4815C93.6891 61.1309 90.0809 63.9272 86.0645 65.1268L86.6368 67.0431ZM97.622 58.4762C99.4735 55.0798 99.9543 51.2809 99.1706 47.5631L97.2136 47.9756C97.9042 51.2516 97.478 54.5618 95.866 57.5189L97.622 58.4762ZM99.1706 47.5631C98.4094 43.9518 96.9414 40.6016 93.9255 38.3519L92.7296 39.955C95.196 41.7948 96.5023 44.6012 97.2136 47.9756L99.1706 47.5631Z" fill="url(#paint2_linear_10714_237)" mask="url(#path-4-outside-1_10714_237)"/>
</g>
<g filter="url(#filter2_b_10714_237)">
<mask id="path-6-outside-2_10714_237" maskUnits="userSpaceOnUse" x="55.7825" y="72.2825" width="28.3286" height="19.0617" fill="black">
<rect fill="white" x="55.7825" y="72.2825" width="28.3286" height="19.0617"/>
<path d="M76.7546 74.5806C74.6673 74.5751 62.4962 77.1407 60.5887 77.9883C58.9643 78.7425 57.3112 80.0493 57.7353 82.0613C58.2392 83.9598 59.7201 85.417 61.5032 86.1633L61.5001 86.1682C63.8442 87.3132 66.4173 87.8131 68.9667 87.6498C70.3233 87.5529 71.6638 87.262 72.9933 86.801C75.3878 85.9222 77.5402 84.4262 79.2227 82.4324L79.2178 82.4292C80.548 81.0267 81.3147 79.0957 81.0093 77.1553C80.5852 75.1433 78.5453 74.615 76.7546 74.5806Z"/>
</mask>
<path d="M76.7546 74.5806C74.6673 74.5751 62.4962 77.1407 60.5887 77.9883C58.9643 78.7425 57.3112 80.0493 57.7353 82.0613C58.2392 83.9598 59.7201 85.417 61.5032 86.1633L61.5001 86.1682C63.8442 87.3132 66.4173 87.8131 68.9667 87.6498C70.3233 87.5529 71.6638 87.262 72.9933 86.801C75.3878 85.9222 77.5402 84.4262 79.2227 82.4324L79.2178 82.4292C80.548 81.0267 81.3147 79.0957 81.0093 77.1553C80.5852 75.1433 78.5453 74.615 76.7546 74.5806Z" fill="#3EA0FE" fill-opacity="0.35"/>
<path d="M76.752 75.5806C77.3043 75.582 77.7532 75.1355 77.7546 74.5832C77.7561 74.0309 77.3096 73.582 76.7573 73.5806L76.752 75.5806ZM60.5887 77.9883L60.1826 77.0744C60.1776 77.0767 60.1725 77.0789 60.1675 77.0813L60.5887 77.9883ZM57.7353 82.0613L56.7568 82.2675C56.7603 82.2844 56.7643 82.3012 56.7688 82.3178L57.7353 82.0613ZM61.5032 86.1633L62.3445 86.7039C62.5043 86.4552 62.5459 86.1485 62.458 85.8662C62.3702 85.584 62.162 85.355 61.8893 85.2409L61.5032 86.1633ZM61.5001 86.1682L60.6587 85.6277C60.5044 85.8679 60.4601 86.1626 60.537 86.4375C60.6139 86.7125 60.8046 86.9414 61.0612 87.0667L61.5001 86.1682ZM68.9667 87.6498L69.0307 88.6477L69.0379 88.6472L68.9667 87.6498ZM72.9933 86.801L73.3209 87.7458C73.3266 87.7438 73.3322 87.7418 73.3379 87.7397L72.9933 86.801ZM79.2227 82.4324L79.9869 83.0773C80.171 82.8591 80.2531 82.5726 80.2125 82.29C80.1718 82.0074 80.0123 81.7556 79.7741 81.5982L79.2227 82.4324ZM79.2178 82.4292L78.4922 81.7411C78.2888 81.9556 78.1907 82.2491 78.2243 82.5429C78.2579 82.8366 78.4198 83.1004 78.6664 83.2634L79.2178 82.4292ZM81.0093 77.1553L81.9972 76.9998C81.9945 76.9828 81.9914 76.9659 81.9878 76.949L81.0093 77.1553ZM76.7739 73.5808C76.2217 73.5702 75.7654 74.0092 75.7548 74.5614C75.7442 75.1136 76.1832 75.5698 76.7354 75.5804L76.7739 73.5808ZM76.7573 73.5806C76.131 73.5789 74.887 73.7572 73.4461 74.0061C71.9665 74.2617 70.1774 74.6109 68.398 74.986C66.6185 75.3611 64.8407 75.7638 63.3838 76.1272C61.965 76.481 60.7549 76.8201 60.1826 77.0744L60.9948 78.9021C61.3762 78.7326 62.4028 78.4331 63.8678 78.0677C65.2948 77.7118 67.0478 77.3146 68.8105 76.943C70.5732 76.5714 72.3374 76.2273 73.7866 75.9769C75.2745 75.7199 76.3346 75.5795 76.752 75.5806L76.7573 73.5806ZM60.1675 77.0813C59.2911 77.4882 58.3238 78.0794 57.6272 78.911C56.9032 79.7752 56.4706 80.9097 56.7568 82.2675L58.7138 81.855C58.5759 81.2008 58.7577 80.6759 59.1604 80.1953C59.5904 79.6819 60.2619 79.2426 61.0099 78.8952L60.1675 77.0813ZM56.7688 82.3178C57.3668 84.5712 59.1043 86.2434 61.1171 87.0858L61.8893 85.2409C60.3358 84.5907 59.1115 83.3485 58.7018 81.8048L56.7688 82.3178ZM60.6619 85.6228L60.6587 85.6277L62.3414 86.7087L62.3445 86.7039L60.6619 85.6228ZM61.0612 87.0667C63.5618 88.2882 66.3083 88.8221 69.0307 88.6477L68.9028 86.6518C66.5263 86.8041 64.1265 86.3382 61.939 85.2697L61.0612 87.0667ZM69.0379 88.6472C70.4907 88.5435 71.9174 88.2324 73.3209 87.7458L72.6657 85.8562C71.4102 86.2915 70.1558 86.5623 68.8955 86.6523L69.0379 88.6472ZM73.3379 87.7397C75.895 86.8013 78.1921 85.2041 79.9869 83.0773L78.4584 81.7875C76.8882 83.6482 74.8806 85.0431 72.6488 85.8622L73.3379 87.7397ZM79.7741 81.5982L79.7693 81.595L78.6664 83.2634L78.6712 83.2666L79.7741 81.5982ZM79.9434 83.1174C81.4449 81.5342 82.3596 79.3029 81.9972 76.9998L80.0215 77.3107C80.2698 78.8885 79.6511 80.5192 78.4922 81.7411L79.9434 83.1174ZM81.9878 76.949C81.7016 75.5912 80.8479 74.7279 79.8366 74.2294C78.8636 73.7498 77.74 73.5993 76.7739 73.5808L76.7354 75.5804C77.56 75.5963 78.3516 75.7272 78.9523 76.0233C79.5147 76.3005 79.8929 76.7073 80.0308 77.3615L81.9878 76.949Z" fill="url(#paint3_linear_10714_237)" mask="url(#path-6-outside-2_10714_237)"/>
</g>
<g filter="url(#filter3_bd_10714_237)">
<path d="M67.6674 17.7709C66.2192 17.4459 64.7571 18.2916 64.3052 19.6612C64.1532 20.4233 64.2741 21.2307 64.7049 21.8742C65.1357 22.5177 65.8102 22.9737 66.6006 23.1414L66.705 23.1728C69.0589 23.8802 70.7497 25.9634 70.9092 28.3649C70.986 29.9301 72.3124 31.1365 73.8685 31.0901C75.4347 31.01 76.6343 29.7182 76.5744 28.1948C76.2307 23.3514 72.8164 19.2081 68.0681 17.8913L67.6674 17.7709Z" fill="url(#paint4_linear_10714_237)"/>
<path d="M66.6213 23.0436L66.6214 23.0433L66.6293 23.0457L66.7337 23.077C69.1263 23.796 70.8466 25.9139 71.009 28.3583L71.009 28.3583L71.0091 28.36C71.0831 29.8698 72.3626 31.0344 73.8645 30.9901C75.3768 30.9122 76.5313 29.666 76.4745 28.2003C76.1333 23.4005 72.7491 19.2932 68.0414 17.9877L68.0414 17.9877L68.0393 17.9871L67.642 17.8677C66.2473 17.5565 64.8397 18.3704 64.402 19.6867C64.2564 20.4248 64.3751 21.2018 64.788 21.8185C65.204 22.4399 65.8558 22.8811 66.6213 23.0436Z" stroke="url(#paint5_linear_10714_237)" stroke-opacity="0.5" stroke-width="0.2"/>
</g>
<defs>
<filter id="filter0_f_10714_237" x="5.62938" y="14.4781" width="53.1897" height="60.5894" filterUnits="userSpaceOnUse" color-interpolation-filters="sRGB">
<feFlood flood-opacity="0" result="BackgroundImageFix"/>
<feBlend mode="normal" in="SourceGraphic" in2="BackgroundImageFix" result="shape"/>
<feGaussianBlur stdDeviation="7.5" result="effect1_foregroundBlur_10714_237"/>
</filter>
<filter id="filter1_b_10714_237" x="13.8078" y="-9.47424" width="100.724" height="99.674" filterUnits="userSpaceOnUse" color-interpolation-filters="sRGB">
<feFlood flood-opacity="0" result="BackgroundImageFix"/>
<feGaussianBlur in="BackgroundImage" stdDeviation="7.5"/>
<feComposite in2="SourceAlpha" operator="in" result="effect1_backgroundBlur_10714_237"/>
<feBlend mode="normal" in="SourceGraphic" in2="effect1_backgroundBlur_10714_237" result="shape"/>
</filter>
<filter id="filter2_b_10714_237" x="41.6676" y="58.5806" width="55.4088" height="45.0994" filterUnits="userSpaceOnUse" color-interpolation-filters="sRGB">
<feFlood flood-opacity="0" result="BackgroundImageFix"/>
<feGaussianBlur in="BackgroundImage" stdDeviation="7.5"/>
<feComposite in2="SourceAlpha" operator="in" result="effect1_backgroundBlur_10714_237"/>
<feBlend mode="normal" in="SourceGraphic" in2="effect1_backgroundBlur_10714_237" result="shape"/>
</filter>
<filter id="filter3_bd_10714_237" x="49.2425" y="2.70139" width="42.334" height="43.39" filterUnits="userSpaceOnUse" color-interpolation-filters="sRGB">
<feFlood flood-opacity="0" result="BackgroundImageFix"/>
<feGaussianBlur in="BackgroundImage" stdDeviation="7.5"/>
<feComposite in2="SourceAlpha" operator="in" result="effect1_backgroundBlur_10714_237"/>
<feColorMatrix in="SourceAlpha" type="matrix" values="0 0 0 0 0 0 0 0 0 0 0 0 0 0 0 0 0 0 127 0" result="hardAlpha"/>
<feOffset dx="5" dy="5"/>
<feGaussianBlur stdDeviation="5"/>
<feColorMatrix type="matrix" values="0 0 0 0 0.15375 0 0 0 0 0.522433 0 0 0 0 0.9 0 0 0 0.5 0"/>
<feBlend mode="normal" in2="effect1_backgroundBlur_10714_237" result="effect2_dropShadow_10714_237"/>
<feBlend mode="normal" in="SourceGraphic" in2="effect2_dropShadow_10714_237" result="shape"/>
</filter>
<linearGradient id="paint0_linear_10714_237" x1="61.819" y1="28.3909" x2="1.64464" y2="57.4864" gradientUnits="userSpaceOnUse">
<stop stop-color="#39AFFD"/>
<stop offset="1" stop-color="#477FFF"/>
</linearGradient>
<linearGradient id="paint1_linear_10714_237" x1="33.5599" y1="71.6415" x2="22.3091" y2="82.476" gradientUnits="userSpaceOnUse">
<stop stop-color="#39AFFD"/>
<stop offset="1" stop-color="#477FFF"/>
</linearGradient>
<linearGradient id="paint2_linear_10714_237" x1="32.5803" y1="19.4834" x2="83.8985" y2="63.8996" gradientUnits="userSpaceOnUse">
<stop stop-color="white" stop-opacity="0.25"/>
<stop offset="1" stop-color="white" stop-opacity="0"/>
</linearGradient>
<linearGradient id="paint3_linear_10714_237" x1="60.9519" y1="78.964" x2="68.7465" y2="90.7532" gradientUnits="userSpaceOnUse">
<stop stop-color="white" stop-opacity="0.25"/>
<stop offset="1" stop-color="white" stop-opacity="0"/>
</linearGradient>
<linearGradient id="paint4_linear_10714_237" x1="76.1439" y1="21.1387" x2="72.2773" y2="32.9181" gradientUnits="userSpaceOnUse">
<stop stop-color="white"/>
<stop offset="1" stop-color="white" stop-opacity="0.2"/>
</linearGradient>
<linearGradient id="paint5_linear_10714_237" x1="71.3857" y1="29.2475" x2="74.065" y2="20.1915" gradientUnits="userSpaceOnUse">
<stop stop-color="white"/>
<stop offset="1" stop-color="white" stop-opacity="0"/>
</linearGradient>
</defs>
</svg>
