<svg width="100%" height="100%" viewBox="0 0 114 99" fill="none" xmlns="http://www.w3.org/2000/svg">
<path fill-rule="evenodd" clip-rule="evenodd" d="M55.7594 52.7059C59.0929 40.265 71.7733 32.8533 84.0817 36.1513C89.9925 37.7351 95.0252 41.6273 98.0728 46.9717C101.12 52.3161 101.933 58.6749 100.332 64.6492C96.9988 77.0901 84.3184 84.5018 72.01 81.2038C59.7015 77.9057 52.4259 65.1468 55.7594 52.7059ZM95.1015 82.6963L100.303 89.8326L100.419 89.8635C101.398 91.5806 100.808 93.7813 99.1016 94.7788C97.3951 95.7762 95.2179 95.1929 94.2387 93.4757L90.422 85.6869C90.0418 85.0228 89.94 84.2319 90.1391 83.4889C90.3382 82.7458 90.8219 82.1117 91.4831 81.7267C92.7547 80.9984 94.3645 81.4297 95.1015 82.6963Z" fill="url(#paint0_linear_10714_367)"/>
<g filter="url(#filter0_f_10714_367)">
<path d="M81.3349 46.4055C74.6287 44.6086 67.7199 48.6468 65.9037 55.4252C64.0874 62.2035 68.0515 69.1551 74.7577 70.952C81.4638 72.749 88.3726 68.7107 90.1889 61.9324C91.0611 58.6773 90.6182 55.2128 88.9578 52.3009C87.2973 49.3891 84.5553 47.2684 81.3349 46.4055Z" fill="#0062FF" fill-opacity="0.5"/>
</g>
<g filter="url(#filter1_b_10714_367)">
<g filter="url(#filter2_b_10714_367)">
<mask id="path-3-outside-1_10714_367" maskUnits="userSpaceOnUse" x="-1.9546" y="-1.22474" width="101.654" height="101.654" fill="black">
<rect fill="white" x="-1.9546" y="-1.22474" width="101.654" height="101.654"/>
<path fill-rule="evenodd" clip-rule="evenodd" d="M86.5134 33.6006C81.541 15.0435 62.6268 3.98799 44.2672 8.90743C35.4506 11.2698 27.9437 17.0755 23.3978 25.0473C18.852 33.0191 17.6397 42.504 20.0275 51.4155C24.9998 69.9726 43.9141 81.0281 62.2737 76.1087C80.6333 71.1892 91.4858 52.1577 86.5134 33.6006ZM27.8313 78.3369L20.072 88.9817L19.9001 89.0277C18.4396 91.589 19.3191 94.8715 21.8646 96.3594C24.4102 97.8473 27.6577 96.9771 29.1183 94.4158L34.8113 82.7978C35.3784 81.8073 35.5303 80.6275 35.2333 79.5191C34.9363 78.4108 34.2149 77.465 33.2285 76.8907C31.3319 75.8043 28.9306 76.4477 27.8313 78.3369Z"/>
</mask>
<path fill-rule="evenodd" clip-rule="evenodd" d="M86.5134 33.6006C81.541 15.0435 62.6268 3.98799 44.2672 8.90743C35.4506 11.2698 27.9437 17.0755 23.3978 25.0473C18.852 33.0191 17.6397 42.504 20.0275 51.4155C24.9998 69.9726 43.9141 81.0281 62.2737 76.1087C80.6333 71.1892 91.4858 52.1577 86.5134 33.6006ZM27.8313 78.3369L20.072 88.9817L19.9001 89.0277C18.4396 91.589 19.3191 94.8715 21.8646 96.3594C24.4102 97.8473 27.6577 96.9771 29.1183 94.4158L34.8113 82.7978C35.3784 81.8073 35.5303 80.6275 35.2333 79.5191C34.9363 78.4108 34.2149 77.465 33.2285 76.8907C31.3319 75.8043 28.9306 76.4477 27.8313 78.3369Z" fill="#3EA0FE" fill-opacity="0.35"/>
<path d="M23.3978 25.0473L22.5292 24.552L23.3978 25.0473ZM20.072 88.9817L20.8801 89.5707C20.7455 89.7554 20.5516 89.8884 20.3308 89.9476L20.072 88.9817ZM27.8313 78.3369L28.6956 78.8399C28.6783 78.8695 28.6596 78.8982 28.6394 78.926L27.8313 78.3369ZM19.9001 89.0277L19.0314 88.5324C19.1637 88.3004 19.3833 88.1309 19.6413 88.0618L19.9001 89.0277ZM21.8646 96.3594L21.36 97.2228L21.36 97.2228L21.8646 96.3594ZM29.1183 94.4158L30.0162 94.8558C30.0071 94.8746 29.9973 94.893 29.987 94.9112L29.1183 94.4158ZM34.8113 82.7978L33.9133 82.3577C33.9228 82.3385 33.9328 82.3195 33.9435 82.3009L34.8113 82.7978ZM33.2285 76.8907L33.7256 76.023L33.7317 76.0265L33.2285 76.8907ZM44.0084 7.9415C62.9111 2.87652 82.3666 14.261 87.4793 33.3418L85.5475 33.8594C80.7154 15.826 62.3424 5.09946 44.526 9.87335L44.0084 7.9415ZM22.5292 24.552C27.2065 16.3496 34.9322 10.3734 44.0084 7.9415L44.526 9.87335C35.9689 12.1662 28.6809 17.8015 24.2665 25.5427L22.5292 24.552ZM19.0615 51.6743C16.606 42.51 17.8521 32.7539 22.5292 24.552L24.2665 25.5427C19.8519 33.2843 18.6733 42.4981 20.9934 51.1566L19.0615 51.6743ZM62.5325 77.0746C43.6297 82.1396 24.1742 70.7551 19.0615 51.6743L20.9934 51.1566C25.8254 69.1901 44.1985 79.9166 62.0149 75.1427L62.5325 77.0746ZM87.4793 33.3418C92.592 52.4226 81.4353 72.0096 62.5325 77.0746L62.0149 75.1427C79.8313 70.3688 90.3795 51.8928 85.5475 33.8594L87.4793 33.3418ZM19.2639 88.3926L27.0232 77.7479L28.6394 78.926L20.8801 89.5707L19.2639 88.3926ZM19.6413 88.0618L19.8132 88.0157L20.3308 89.9476L20.1589 89.9937L19.6413 88.0618ZM21.36 97.2228C18.3413 95.4583 17.2994 91.5698 19.0314 88.5324L20.7688 89.5231C19.5798 91.6083 20.2969 94.2848 22.3693 95.4961L21.36 97.2228ZM29.987 94.9112C28.2507 97.9559 24.386 98.9914 21.36 97.2228L22.3692 95.4961C24.4344 96.7031 27.0647 95.9983 28.2496 93.9204L29.987 94.9112ZM35.7093 83.2378L30.0162 94.8558L28.2203 93.9758L33.9133 82.3577L35.7093 83.2378ZM36.1992 79.2603C36.5641 80.6221 36.3782 82.0737 35.6791 83.2946L33.9435 82.3009C34.3787 81.5408 34.4964 80.6329 34.2673 79.7779L36.1992 79.2603ZM33.7317 76.0265C34.9475 76.7344 35.8343 77.8985 36.1992 79.2603L34.2673 79.7779C34.0383 78.923 33.4823 78.1956 32.7254 77.7549L33.7317 76.0265ZM26.967 77.834C28.3427 75.4697 31.352 74.6633 33.7256 76.023L32.7315 77.7584C31.3118 76.9452 29.5185 77.4257 28.6956 78.8399L26.967 77.834Z" fill="url(#paint1_linear_10714_367)" mask="url(#path-3-outside-1_10714_367)"/>
</g>
</g>
<defs>
<filter id="filter0_f_10714_367" x="50.463" y="30.9785" width="55.1633" height="55.4007" filterUnits="userSpaceOnUse" color-interpolation-filters="sRGB">
<feFlood flood-opacity="0" result="BackgroundImageFix"/>
<feBlend mode="normal" in="SourceGraphic" in2="BackgroundImageFix" result="shape"/>
<feGaussianBlur stdDeviation="7.5" result="effect1_foregroundBlur_10714_367"/>
</filter>
<filter id="filter1_b_10714_367" x="-6.17017" y="-17.2623" width="118.89" height="139.348" filterUnits="userSpaceOnUse" color-interpolation-filters="sRGB">
<feFlood flood-opacity="0" result="BackgroundImageFix"/>
<feGaussianBlur in="BackgroundImage" stdDeviation="12"/>
<feComposite in2="SourceAlpha" operator="in" result="effect1_backgroundBlur_10714_367"/>
<feBlend mode="normal" in="SourceGraphic" in2="effect1_backgroundBlur_10714_367" result="shape"/>
</filter>
<filter id="filter2_b_10714_367" x="-6.17017" y="-17.2623" width="118.89" height="139.348" filterUnits="userSpaceOnUse" color-interpolation-filters="sRGB">
<feFlood flood-opacity="0" result="BackgroundImageFix"/>
<feGaussianBlur in="BackgroundImage" stdDeviation="12"/>
<feComposite in2="SourceAlpha" operator="in" result="effect1_backgroundBlur_10714_367"/>
<feBlend mode="normal" in="SourceGraphic" in2="effect1_backgroundBlur_10714_367" result="shape"/>
</filter>
<linearGradient id="paint0_linear_10714_367" x1="113.972" y1="44.1603" x2="44.518" y2="75.205" gradientUnits="userSpaceOnUse">
<stop stop-color="#39AFFD"/>
<stop offset="1" stop-color="#477FFF"/>
</linearGradient>
<linearGradient id="paint1_linear_10714_367" x1="67.5914" y1="12.3363" x2="19.5114" y2="93.3382" gradientUnits="userSpaceOnUse">
<stop stop-color="white" stop-opacity="0.25"/>
<stop offset="1" stop-color="white" stop-opacity="0"/>
</linearGradient>
</defs>
</svg>
