<svg width="100%" height="100%" viewBox="0 0 99 92" fill="none" xmlns="http://www.w3.org/2000/svg">
<g filter="url(#filter0_b_10714_349)">
<path d="M64.091 42.058C63.4369 41.038 62.5075 40.018 61.3026 39.372C60.3388 38.896 59.7191 38.114 59.1684 37.196C57.4127 34.272 58.4455 30.43 61.3715 28.696C64.8139 26.758 65.9154 22.44 63.9188 19.074L61.6125 15.062C59.6503 11.696 55.3473 10.506 51.9394 12.478C48.9101 14.11 45.0202 13.022 43.2646 10.132C42.7138 9.18 42.404 8.16 42.4728 7.14C42.5761 5.814 42.163 4.556 41.5434 3.536C40.2697 1.428 37.9633 0 35.4159 0H30.5622C28.0492 0.068 25.7428 1.428 24.4691 3.536C23.8151 4.556 23.4364 5.814 23.5053 7.14C23.5741 8.16 23.2643 9.18 22.7135 10.132C20.9579 13.022 17.068 14.11 14.0731 12.478C10.6308 10.506 6.36221 11.696 4.36563 15.062L2.05923 19.074C0.0970719 22.44 1.19863 26.758 4.60659 28.696C7.53262 30.43 8.56533 34.272 6.84414 37.196C6.25894 38.114 5.63931 38.896 4.67544 39.372C3.50503 40.018 2.47232 41.038 1.92153 42.058C0.647853 44.166 0.716701 46.818 1.99038 49.028L4.36563 53.108C5.63931 55.284 8.01455 56.644 10.4931 56.644C11.6635 56.644 13.0404 56.304 14.142 55.624C15.0026 55.046 16.0353 54.842 17.1713 54.842C20.5793 54.842 23.4364 57.664 23.5053 61.03C23.5053 64.94 26.6723 68 30.6654 68H35.3471C39.3058 68 42.4728 64.94 42.4728 61.03C42.5761 57.664 45.4333 54.842 48.8412 54.842C49.9428 54.842 50.9755 55.046 51.8705 55.624C52.9721 56.304 54.3146 56.644 55.5194 56.644C57.9635 56.644 60.3388 55.284 61.6125 53.108L64.0221 49.028C65.2614 46.75 65.3646 44.166 64.091 42.058Z" fill="url(#paint0_linear_10714_349)"/>
</g>
<g opacity="0.5" filter="url(#filter1_f_10714_349)">
<path d="M49.2491 38.3389C48.9118 37.8139 48.4326 37.2889 47.8113 36.9564C47.3143 36.7114 46.9948 36.3089 46.7108 35.8364C45.8056 34.3314 46.3381 32.3539 47.8468 31.4614C49.6218 30.4639 50.1898 28.2414 49.1603 26.5089L47.9711 24.4439C46.9593 22.7114 44.7406 22.0989 42.9834 23.1139C41.4214 23.9539 39.4157 23.3939 38.5104 21.9064C38.2264 21.4164 38.0667 20.8914 38.1022 20.3664C38.1554 19.6839 37.9424 19.0364 37.6229 18.5114C36.9662 17.4264 35.777 16.6914 34.4635 16.6914H31.9608C30.665 16.7264 29.4758 17.4264 28.819 18.5114C28.4818 19.0364 28.2866 19.6839 28.3221 20.3664C28.3576 20.8914 28.1978 21.4164 27.9138 21.9064C27.0086 23.3939 25.0028 23.9539 23.4586 23.1139C21.6836 22.0989 19.4827 22.7114 18.4532 24.4439L17.2639 26.5089C16.2522 28.2414 16.8202 30.4639 18.5774 31.4614C20.0862 32.3539 20.6186 34.3314 19.7312 35.8364C19.4294 36.3089 19.1099 36.7114 18.6129 36.9564C18.0094 37.2889 17.4769 37.8139 17.1929 38.3389C16.5362 39.4239 16.5717 40.7889 17.2284 41.9264L18.4532 44.0264C19.1099 45.1464 20.3347 45.8464 21.6126 45.8464C22.2161 45.8464 22.9261 45.6714 23.4941 45.3214C23.9379 45.0239 24.4704 44.9189 25.0561 44.9189C26.8133 44.9189 28.2866 46.3714 28.3221 48.1039C28.3221 50.1164 29.955 51.6914 32.014 51.6914H34.428C36.4692 51.6914 38.1022 50.1164 38.1022 48.1039C38.1554 46.3714 39.6287 44.9189 41.3859 44.9189C41.9539 44.9189 42.4864 45.0239 42.9479 45.3214C43.5159 45.6714 44.2081 45.8464 44.8294 45.8464C46.0896 45.8464 47.3143 45.1464 47.9711 44.0264L49.2136 41.9264C49.8525 40.7539 49.9058 39.4239 49.2491 38.3389Z" fill="#E31352"/>
</g>
<g filter="url(#filter2_b_10714_349)">
<mask id="path-3-outside-1_10714_349" maskUnits="userSpaceOnUse" x="19" y="8" width="80" height="84" fill="black">
<rect fill="white" x="19" y="8" width="80" height="84"/>
<path d="M96.4814 59.5108C95.6885 58.2858 94.5618 57.0608 93.1012 56.285C91.9328 55.7133 91.1817 54.7742 90.514 53.6717C88.3858 50.16 89.6377 45.5458 93.1847 43.4633C97.3577 41.1358 98.6931 35.95 96.2727 31.9075L93.4768 27.0892C91.0982 23.0467 85.882 21.6175 81.7507 23.9858C78.0785 25.9458 73.363 24.6392 71.2348 21.1683C70.5671 20.025 70.1915 18.8 70.275 17.575C70.4002 15.9825 69.8994 14.4717 69.1483 13.2467C67.6043 10.715 64.8084 9 61.7203 9H55.8364C52.7901 9.08167 49.9942 10.715 48.4502 13.2467C47.6574 14.4717 47.1983 15.9825 47.2818 17.575C47.3652 18.8 46.9897 20.025 46.322 21.1683C44.1938 24.6392 39.4783 25.9458 35.8478 23.9858C31.6748 21.6175 26.5003 23.0467 24.0799 27.0892L21.284 31.9075C18.9054 35.95 20.2408 41.1358 24.3721 43.4633C27.9191 45.5458 29.171 50.16 27.0845 53.6717C26.3751 54.7742 25.624 55.7133 24.4555 56.285C23.0367 57.0608 21.7848 58.2858 21.1171 59.5108C19.5731 62.0425 19.6566 65.2275 21.2006 67.8817L24.0799 72.7817C25.624 75.395 28.5033 77.0283 31.5079 77.0283C32.9267 77.0283 34.5959 76.62 35.9312 75.8033C36.9745 75.1092 38.2264 74.8642 39.6035 74.8642C43.7347 74.8642 47.1983 78.2533 47.2818 82.2958C47.2818 86.9917 51.1209 90.6667 55.9616 90.6667H61.6369C66.4358 90.6667 70.275 86.9917 70.275 82.2958C70.4002 78.2533 73.8638 74.8642 77.995 74.8642C79.3304 74.8642 80.5823 75.1092 81.6672 75.8033C83.0026 76.62 84.6301 77.0283 86.0906 77.0283C89.0534 77.0283 91.9328 75.395 93.4768 72.7817L96.3979 67.8817C97.9002 65.1458 98.0254 62.0425 96.4814 59.5108Z"/>
</mask>
<path d="M96.4814 59.5108C95.6885 58.2858 94.5618 57.0608 93.1012 56.285C91.9328 55.7133 91.1817 54.7742 90.514 53.6717C88.3858 50.16 89.6377 45.5458 93.1847 43.4633C97.3577 41.1358 98.6931 35.95 96.2727 31.9075L93.4768 27.0892C91.0982 23.0467 85.882 21.6175 81.7507 23.9858C78.0785 25.9458 73.363 24.6392 71.2348 21.1683C70.5671 20.025 70.1915 18.8 70.275 17.575C70.4002 15.9825 69.8994 14.4717 69.1483 13.2467C67.6043 10.715 64.8084 9 61.7203 9H55.8364C52.7901 9.08167 49.9942 10.715 48.4502 13.2467C47.6574 14.4717 47.1983 15.9825 47.2818 17.575C47.3652 18.8 46.9897 20.025 46.322 21.1683C44.1938 24.6392 39.4783 25.9458 35.8478 23.9858C31.6748 21.6175 26.5003 23.0467 24.0799 27.0892L21.284 31.9075C18.9054 35.95 20.2408 41.1358 24.3721 43.4633C27.9191 45.5458 29.171 50.16 27.0845 53.6717C26.3751 54.7742 25.624 55.7133 24.4555 56.285C23.0367 57.0608 21.7848 58.2858 21.1171 59.5108C19.5731 62.0425 19.6566 65.2275 21.2006 67.8817L24.0799 72.7817C25.624 75.395 28.5033 77.0283 31.5079 77.0283C32.9267 77.0283 34.5959 76.62 35.9312 75.8033C36.9745 75.1092 38.2264 74.8642 39.6035 74.8642C43.7347 74.8642 47.1983 78.2533 47.2818 82.2958C47.2818 86.9917 51.1209 90.6667 55.9616 90.6667H61.6369C66.4358 90.6667 70.275 86.9917 70.275 82.2958C70.4002 78.2533 73.8638 74.8642 77.995 74.8642C79.3304 74.8642 80.5823 75.1092 81.6672 75.8033C83.0026 76.62 84.6301 77.0283 86.0906 77.0283C89.0534 77.0283 91.9328 75.395 93.4768 72.7817L96.3979 67.8817C97.9002 65.1458 98.0254 62.0425 96.4814 59.5108Z" fill="#FF749F" fill-opacity="0.35"/>
<path d="M95.6419 60.0542C95.942 60.5178 96.5611 60.6504 97.0247 60.3503C97.4884 60.0502 97.621 59.4311 97.3209 58.9675L95.6419 60.0542ZM93.1012 56.285L93.5704 55.4019C93.5606 55.3967 93.5507 55.3916 93.5407 55.3867L93.1012 56.285ZM90.514 53.6717L91.3694 53.1537L91.3692 53.1534L90.514 53.6717ZM93.1847 43.4633L92.6976 42.59C92.6912 42.5936 92.6848 42.5972 92.6784 42.601L93.1847 43.4633ZM96.2727 31.9075L95.4077 32.4094L95.4147 32.4212L96.2727 31.9075ZM93.4768 27.0892L94.3418 26.5873L94.3387 26.582L93.4768 27.0892ZM81.7507 23.9858L82.2216 24.868C82.2305 24.8633 82.2393 24.8584 82.2481 24.8534L81.7507 23.9858ZM71.2348 21.1683L70.3712 21.6726C70.3748 21.6788 70.3785 21.685 70.3823 21.6911L71.2348 21.1683ZM70.275 17.575L69.278 17.4966L69.2773 17.507L70.275 17.575ZM69.1483 13.2467L68.2945 13.7674L68.2958 13.7694L69.1483 13.2467ZM55.8364 9V8C55.8275 8 55.8186 8.00012 55.8096 8.00036L55.8364 9ZM48.4502 13.2467L49.2897 13.79C49.2946 13.7825 49.2993 13.775 49.304 13.7673L48.4502 13.2467ZM47.2818 17.575L46.2832 17.6273C46.2834 17.6326 46.2837 17.6378 46.2841 17.643L47.2818 17.575ZM46.322 21.1683L47.1745 21.6911C47.1782 21.685 47.1819 21.6788 47.1855 21.6726L46.322 21.1683ZM35.8478 23.9858L35.3542 24.8555C35.3603 24.859 35.3665 24.8624 35.3727 24.8658L35.8478 23.9858ZM24.0799 27.0892L23.2219 26.5754L23.215 26.5873L24.0799 27.0892ZM21.284 31.9075L22.1459 32.4146L22.149 32.4094L21.284 31.9075ZM24.3721 43.4633L24.8784 42.601C24.8732 42.598 24.8681 42.595 24.8629 42.5921L24.3721 43.4633ZM27.0845 53.6717L27.9255 54.2128C27.9319 54.2028 27.9381 54.1927 27.9442 54.1825L27.0845 53.6717ZM24.4555 56.285L24.016 55.3867C24.0025 55.3934 23.989 55.4004 23.9757 55.4076L24.4555 56.285ZM21.1171 59.5108L21.9709 60.0315C21.9793 60.0177 21.9874 60.0036 21.9952 59.9894L21.1171 59.5108ZM21.2006 67.8817L20.3362 68.3845L20.3384 68.3883L21.2006 67.8817ZM24.0799 72.7817L23.2178 73.2883L23.219 73.2903L24.0799 72.7817ZM35.9312 75.8033L36.453 76.6564C36.4639 76.6498 36.4746 76.6429 36.4852 76.6359L35.9312 75.8033ZM47.2818 82.2958H48.2818C48.2818 82.289 48.2817 82.2821 48.2816 82.2752L47.2818 82.2958ZM70.275 82.2958L69.2755 82.2649C69.2751 82.2752 69.275 82.2855 69.275 82.2958H70.275ZM81.6672 75.8033L81.1283 76.6457C81.134 76.6493 81.1397 76.6529 81.1455 76.6564L81.6672 75.8033ZM93.4768 72.7817L92.6179 72.2696L92.6159 72.273L93.4768 72.7817ZM96.3979 67.8817L97.2569 68.3937C97.2629 68.3836 97.2688 68.3733 97.2745 68.363L96.3979 67.8817ZM97.3351 58.9902C97.0476 58.5186 96.4322 58.3695 95.9607 58.6571C95.4892 58.9446 95.3401 59.56 95.6276 60.0315L97.3351 58.9902ZM97.3209 58.9675C96.465 57.6451 95.2229 56.2797 93.5704 55.4019L92.6321 57.1681C93.9007 57.842 94.912 58.9265 95.6419 60.0542L97.3209 58.9675ZM93.5407 55.3867C92.6268 54.9396 91.9993 54.1938 91.3694 53.1537L89.6586 54.1897C90.364 55.3545 91.2388 56.487 92.6618 57.1833L93.5407 55.3867ZM91.3692 53.1534C89.541 50.1367 90.6065 46.1366 93.691 44.3257L92.6784 42.601C88.6688 44.9551 87.2305 50.1833 89.6588 54.19L91.3692 53.1534ZM93.6718 44.3367C98.3426 41.7315 99.838 35.9156 97.1307 31.3938L95.4147 32.4212C97.5481 35.9844 96.3728 40.5401 92.6976 42.59L93.6718 44.3367ZM97.1377 31.4056L94.3418 26.5873L92.6119 27.5911L95.4078 32.4094L97.1377 31.4056ZM94.3387 26.582C91.6843 22.0709 85.8635 20.4754 81.2534 23.1183L82.2481 24.8534C85.9004 22.7596 90.5121 24.0224 92.6149 27.5963L94.3387 26.582ZM81.2798 23.1036C78.0731 24.8152 73.9381 23.6641 72.0873 20.6456L70.3823 21.6911C72.7878 25.6142 78.0839 27.0765 82.2216 24.868L81.2798 23.1036ZM72.0983 20.664C71.5016 19.6423 71.2064 18.6159 71.2727 17.643L69.2773 17.507C69.1767 18.9841 69.6325 20.4077 70.3712 21.6726L72.0983 20.664ZM71.2719 17.6534C71.4174 15.8027 70.8345 14.0836 70.0008 12.7239L68.2958 13.7694C68.9643 14.8597 69.3829 16.1623 69.2781 17.4966L71.2719 17.6534ZM70.002 12.726C68.2897 9.91826 65.1817 8 61.7203 8V10C64.4351 10 66.9189 11.5117 68.2945 13.7673L70.002 12.726ZM61.7203 8H55.8364V10H61.7203V8ZM55.8096 8.00036C52.4262 8.09106 49.3181 9.90311 47.5965 12.726L49.304 13.7673C50.6704 11.5269 53.154 10.0723 55.8632 9.99964L55.8096 8.00036ZM47.6107 12.7033C46.7117 14.0923 46.1879 15.8096 46.2832 17.6273L48.2804 17.5227C48.2088 16.1554 48.603 14.8511 49.2897 13.79L47.6107 12.7033ZM46.2841 17.643C46.3504 18.6159 46.0551 19.6423 45.4585 20.664L47.1855 21.6726C47.9242 20.4077 48.3801 18.9841 48.2795 17.507L46.2841 17.643ZM45.4695 20.6456C43.6166 23.6674 39.4825 24.8117 36.3228 23.1059L35.3727 24.8658C39.4741 27.08 44.7709 25.611 47.1745 21.6911L45.4695 20.6456ZM36.3414 23.1161C31.6897 20.4761 25.9177 22.0731 23.222 26.5755L24.9379 27.6029C27.0829 24.0203 31.6599 22.7589 35.3542 24.8555L36.3414 23.1161ZM23.215 26.5873L20.4191 31.4056L22.149 32.4094L24.9449 27.5911L23.215 26.5873ZM20.4222 31.4004C17.7642 35.9176 19.2547 41.7281 23.8812 44.3346L24.8629 42.5921C21.2269 40.5436 20.0466 35.9824 22.1459 32.4146L20.4222 31.4004ZM23.8658 44.3257C26.9502 46.1366 28.0191 50.141 26.2248 53.1609L27.9442 54.1825C30.3229 50.179 28.888 44.9551 24.8784 42.601L23.8658 44.3257ZM26.2436 53.1306C25.5613 54.1908 24.9326 54.9383 24.016 55.3867L24.895 57.1833C26.3153 56.4884 27.1889 55.3575 27.9255 54.2128L26.2436 53.1306ZM23.9757 55.4076C22.4088 56.2644 21.0089 57.6198 20.2391 59.0323L21.9952 59.9894C22.5607 58.9519 23.6645 57.8573 24.9353 57.1624L23.9757 55.4076ZM20.2634 58.9902C18.5086 61.8674 18.6274 65.4471 20.3362 68.3845L22.065 67.3788C20.6857 65.0079 20.6376 62.2176 21.9709 60.0315L20.2634 58.9902ZM20.3384 68.3883L23.2178 73.2883L24.9421 72.275L22.0627 67.375L20.3384 68.3883ZM23.219 73.2903C24.943 76.2084 28.1499 78.0283 31.5079 78.0283V76.0283C28.8568 76.0283 26.3049 74.5816 24.9409 72.273L23.219 73.2903ZM31.5079 78.0283C33.0931 78.0283 34.9461 77.578 36.453 76.6564L35.4095 74.9502C34.2457 75.662 32.7603 76.0283 31.5079 76.0283V78.0283ZM36.4852 76.6359C37.304 76.0911 38.3358 75.8642 39.6035 75.8642V73.8642C38.117 73.8642 36.645 74.1273 35.3773 74.9708L36.4852 76.6359ZM39.6035 75.8642C43.1985 75.8642 46.2099 78.8261 46.282 82.3165L48.2816 82.2752C48.1867 77.6806 44.2709 73.8642 39.6035 73.8642V75.8642ZM46.2818 82.2958C46.2818 87.5799 50.6053 91.6667 55.9616 91.6667V89.6667C51.6366 89.6667 48.2818 86.4034 48.2818 82.2958H46.2818ZM55.9616 91.6667H61.6369V89.6667H55.9616V91.6667ZM61.6369 91.6667C66.9546 91.6667 71.275 87.5768 71.275 82.2958H69.275C69.275 86.4065 65.917 89.6667 61.6369 89.6667V91.6667ZM71.2745 82.3268C71.3829 78.8261 74.4021 75.8642 77.995 75.8642V73.8642C73.3254 73.8642 69.4174 77.6805 69.2755 82.2649L71.2745 82.3268ZM77.995 75.8642C79.2124 75.8642 80.2563 76.0878 81.1283 76.6457L82.2062 74.961C80.9082 74.1305 79.4483 73.8642 77.995 73.8642V75.8642ZM81.1455 76.6564C82.6505 77.5768 84.4612 78.0283 86.0906 78.0283V76.0283C84.799 76.0283 83.3548 75.6632 82.189 74.9502L81.1455 76.6564ZM86.0906 78.0283C89.4096 78.0283 92.6151 76.2061 94.3378 73.2903L92.6159 72.273C91.2505 74.5839 88.6973 76.0283 86.0906 76.0283V78.0283ZM94.3358 73.2937L97.2569 68.3937L95.539 67.3696L92.6179 72.2696L94.3358 73.2937ZM97.2745 68.363C98.9177 65.3704 99.0973 61.8796 97.3351 58.9902L95.6276 60.0315C96.9535 62.2055 96.8827 64.9213 95.5214 67.4003L97.2745 68.363Z" fill="url(#paint1_linear_10714_349)" mask="url(#path-3-outside-1_10714_349)"/>
</g>
<g filter="url(#filter3_bd_10714_349)">
<path d="M58.8513 61.0708C52.2997 61.0708 47 55.9667 47 49.5558C47 43.145 52.2997 38 58.8513 38C65.4029 38 70.5774 43.145 70.5774 49.5558C70.5774 55.9667 65.4029 61.0708 58.8513 61.0708Z" fill="url(#paint2_linear_10714_349)"/>
<path d="M58.8513 60.8708C52.4042 60.8708 47.2 55.8503 47.2 49.5558C47.2 43.2604 52.4051 38.2 58.8513 38.2C65.2947 38.2 70.3774 43.2577 70.3774 49.5558C70.3774 55.8531 65.2956 60.8708 58.8513 60.8708Z" stroke="url(#paint3_linear_10714_349)" stroke-width="0.4"/>
</g>
<defs>
<filter id="filter0_b_10714_349" x="-12" y="-13" width="90" height="94" filterUnits="userSpaceOnUse" color-interpolation-filters="sRGB">
<feFlood flood-opacity="0" result="BackgroundImageFix"/>
<feGaussianBlur in="BackgroundImage" stdDeviation="6.5"/>
<feComposite in2="SourceAlpha" operator="in" result="effect1_backgroundBlur_10714_349"/>
<feBlend mode="normal" in="SourceGraphic" in2="effect1_backgroundBlur_10714_349" result="shape"/>
</filter>
<filter id="filter1_f_10714_349" x="0.717773" y="0.691406" width="65" height="67" filterUnits="userSpaceOnUse" color-interpolation-filters="sRGB">
<feFlood flood-opacity="0" result="BackgroundImageFix"/>
<feBlend mode="normal" in="SourceGraphic" in2="BackgroundImageFix" result="shape"/>
<feGaussianBlur stdDeviation="8" result="effect1_foregroundBlur_10714_349"/>
</filter>
<filter id="filter2_b_10714_349" x="-5.00003" y="-16" width="127.583" height="131.667" filterUnits="userSpaceOnUse" color-interpolation-filters="sRGB">
<feFlood flood-opacity="0" result="BackgroundImageFix"/>
<feGaussianBlur in="BackgroundImage" stdDeviation="12"/>
<feComposite in2="SourceAlpha" operator="in" result="effect1_backgroundBlur_10714_349"/>
<feBlend mode="normal" in="SourceGraphic" in2="effect1_backgroundBlur_10714_349" result="shape"/>
</filter>
<filter id="filter3_bd_10714_349" x="32" y="23" width="53.5774" height="53.0708" filterUnits="userSpaceOnUse" color-interpolation-filters="sRGB">
<feFlood flood-opacity="0" result="BackgroundImageFix"/>
<feGaussianBlur in="BackgroundImage" stdDeviation="7.5"/>
<feComposite in2="SourceAlpha" operator="in" result="effect1_backgroundBlur_10714_349"/>
<feColorMatrix in="SourceAlpha" type="matrix" values="0 0 0 0 0 0 0 0 0 0 0 0 0 0 0 0 0 0 127 0" result="hardAlpha"/>
<feOffset dx="5" dy="5"/>
<feGaussianBlur stdDeviation="5"/>
<feColorMatrix type="matrix" values="0 0 0 0 1 0 0 0 0 0.321569 0 0 0 0 0.54902 0 0 0 0.5 0"/>
<feBlend mode="normal" in2="effect1_backgroundBlur_10714_349" result="effect2_dropShadow_10714_349"/>
<feBlend mode="normal" in="SourceGraphic" in2="effect2_dropShadow_10714_349" result="shape"/>
</filter>
<linearGradient id="paint0_linear_10714_349" x1="37.7117" y1="38.5536" x2="-19.7797" y2="64.8628" gradientUnits="userSpaceOnUse">
<stop stop-color="#FF759F"/>
<stop offset="1" stop-color="#FF196E"/>
</linearGradient>
<linearGradient id="paint1_linear_10714_349" x1="32.35" y1="18.5143" x2="84.9442" y2="80.3964" gradientUnits="userSpaceOnUse">
<stop stop-color="white" stop-opacity="0.25"/>
<stop offset="1" stop-color="white" stop-opacity="0"/>
</linearGradient>
<linearGradient id="paint2_linear_10714_349" x1="68.9058" y1="42.1661" x2="42.644" y2="43.0412" gradientUnits="userSpaceOnUse">
<stop stop-color="white"/>
<stop offset="1" stop-color="white" stop-opacity="0.2"/>
</linearGradient>
<linearGradient id="paint3_linear_10714_349" x1="50.7531" y1="40.6878" x2="65.3994" y2="59.2258" gradientUnits="userSpaceOnUse">
<stop stop-color="white" stop-opacity="0.25"/>
<stop offset="1" stop-color="white" stop-opacity="0"/>
</linearGradient>
</defs>
</svg>
