<svg width="100%" height="100%" viewBox="0 0 107 102" fill="none" xmlns="http://www.w3.org/2000/svg">
<path d="M53.3683 65.8039C53.039 65.994 52.6663 66.109 52.2808 66.1276L39.8583 66.7274C36.3325 66.8961 33.2995 66.552 30.5827 65.6798C24.6381 63.7738 19.6496 59.8015 16.5396 54.4889L6.29656 37.0072C5.11398 34.9898 5.37908 32.4132 6.94898 30.5941L21.0137 14.3457C21.8438 13.372 23.0054 12.6944 24.2749 12.4386L45.326 8.1363C47.6806 7.65158 50.0585 8.68497 51.2369 10.7013L61.4874 28.196C64.5956 33.4993 65.623 39.7861 64.3831 45.8989C63.8138 48.703 62.6275 51.5141 60.7602 54.4937L54.1795 65.014C53.9764 65.3422 53.6961 65.6112 53.3683 65.8039Z" fill="url(#paint0_linear_10714_470)"/>
<g filter="url(#filter0_f_10714_470)">
<path d="M47.8749 55.3881C47.6516 55.517 47.4025 55.6014 47.1487 55.6272L38.9687 56.458C36.647 56.6929 34.6681 56.5947 32.9165 56.1606C29.0839 55.2124 25.956 52.9605 24.1115 49.8162L18.0363 39.4696C17.3348 38.2757 17.6049 36.6846 18.7036 35.5098L28.5449 25.0147C29.1262 24.3863 29.9143 23.9272 30.7575 23.7229L44.7416 20.2986C46.3059 19.9134 47.8289 20.459 48.5277 21.6525L54.6074 32.0067C56.451 35.1454 56.8915 38.9652 55.8495 42.7626C55.3713 44.5046 54.4875 46.2739 53.1503 48.172L48.437 54.8732C48.2914 55.0821 48.0974 55.2576 47.8749 55.3881Z" fill="#1EA51F" fill-opacity="0.5"/>
</g>
<g filter="url(#filter1_b_10714_470)">
<mask id="path-3-outside-1_10714_470" maskUnits="userSpaceOnUse" x="24.2964" y="9.2229" width="83.9319" height="93.9684" fill="black">
<rect fill="white" x="24.2964" y="9.2229" width="83.9319" height="93.9684"/>
<path d="M60.1416 96.4105C59.6418 96.3337 59.1597 96.142 58.7446 95.8392L45.368 86.0807C41.5727 83.3094 38.7155 80.415 36.6261 77.2335C32.0522 70.2751 30.1909 61.9595 31.3936 53.8153L35.3416 27.0083C35.7967 23.9144 38.2183 21.447 41.3613 20.8608L69.4784 15.6608C71.1501 15.3386 72.9187 15.6025 74.4478 16.3967L99.8533 29.5041C102.698 30.9665 104.302 34.0328 103.843 37.1222L99.8922 63.9489C98.6954 72.0819 94.5223 79.5018 88.1439 84.8447C85.2174 87.2953 81.6455 89.2374 77.2273 90.786L61.6406 96.2643C61.1565 96.437 60.6419 96.4834 60.1416 96.4105Z"/>
</mask>
<path d="M60.1416 96.4105C59.6418 96.3337 59.1597 96.142 58.7446 95.8392L45.368 86.0807C41.5727 83.3094 38.7155 80.415 36.6261 77.2335C32.0522 70.2751 30.1909 61.9595 31.3936 53.8153L35.3416 27.0083C35.7967 23.9144 38.2183 21.447 41.3613 20.8608L69.4784 15.6608C71.1501 15.3386 72.9187 15.6025 74.4478 16.3967L99.8533 29.5041C102.698 30.9665 104.302 34.0328 103.843 37.1222L99.8922 63.9489C98.6954 72.0819 94.5223 79.5018 88.1439 84.8447C85.2174 87.2953 81.6455 89.2374 77.2273 90.786L61.6406 96.2643C61.1565 96.437 60.6419 96.4834 60.1416 96.4105Z" fill="#72DC60" fill-opacity="0.35"/>
<path d="M59.9896 97.3989C60.5354 97.4829 61.046 97.1084 61.1299 96.5625C61.2139 96.0167 60.8394 95.5061 60.2936 95.4221L59.9896 97.3989ZM58.7446 95.8392L59.334 95.0313L59.334 95.0313L58.7446 95.8392ZM45.368 86.0807L44.7783 86.8883L44.7787 86.8886L45.368 86.0807ZM36.6261 77.2335L37.4619 76.6846L37.4617 76.6842L36.6261 77.2335ZM31.3936 53.8153L32.3828 53.9614L32.3829 53.961L31.3936 53.8153ZM35.3416 27.0083L36.3309 27.154L36.331 27.1538L35.3416 27.0083ZM41.3613 20.8608L41.1794 19.8775L41.1779 19.8778L41.3613 20.8608ZM69.4784 15.6608L69.6603 16.6442L69.6677 16.6427L69.4784 15.6608ZM74.4478 16.3967L73.9868 17.2841L73.9893 17.2854L74.4478 16.3967ZM99.8533 29.5041L99.3948 30.3928L99.3961 30.3935L99.8533 29.5041ZM103.843 37.1222L102.854 36.9754L102.854 36.9765L103.843 37.1222ZM99.8922 63.9489L98.9028 63.8032L98.9028 63.8033L99.8922 63.9489ZM88.1439 84.8447L88.7859 85.6114L88.786 85.6113L88.1439 84.8447ZM77.2273 90.786L76.8966 89.8423L76.8958 89.8426L77.2273 90.786ZM61.6406 96.2643L61.309 95.3209L61.3046 95.3224L61.6406 96.2643ZM60.2857 95.421C59.7392 95.3413 59.2316 95.7198 59.152 96.2664C59.0724 96.8129 59.4509 97.3205 59.9974 97.4001L60.2857 95.421ZM60.2936 95.4221C59.944 95.3684 59.6135 95.2353 59.334 95.0313L58.1552 96.647C58.7059 97.0488 59.3396 97.2989 59.9896 97.3989L60.2936 95.4221ZM59.334 95.0313L45.9574 85.2728L44.7787 86.8886L58.1552 96.647L59.334 95.0313ZM45.9578 85.2731C42.2378 82.5568 39.4723 79.7456 37.4619 76.6846L35.7902 77.7825C37.9587 81.0843 40.9076 84.062 44.7783 86.8883L45.9578 85.2731ZM37.4617 76.6842C33.0207 69.928 31.2166 61.8593 32.3828 53.9614L30.4043 53.6692C29.1653 62.0597 31.0837 70.6223 35.7904 77.7828L37.4617 76.6842ZM32.3829 53.961L36.3309 27.154L34.3523 26.8626L30.4042 53.6696L32.3829 53.961ZM36.331 27.1538C36.7217 24.4971 38.807 22.3544 41.5446 21.8439L41.1779 19.8778C37.6295 20.5395 34.8716 23.3317 34.3523 26.8628L36.331 27.1538ZM41.5431 21.8441L69.6603 16.6441L69.2966 14.6775L41.1794 19.8775L41.5431 21.8441ZM69.6677 16.6427C71.114 16.364 72.6539 16.5918 73.9868 17.2841L74.9087 15.5093C73.1835 14.6132 71.1861 14.3132 69.2892 14.6789L69.6677 16.6427ZM73.9893 17.2854L99.3948 30.3928L100.312 28.6154L74.9063 15.508L73.9893 17.2854ZM99.3961 30.3935C101.872 31.6661 103.248 34.3226 102.854 36.9754L104.832 37.269C105.356 33.743 103.524 30.267 100.311 28.6148L99.3961 30.3935ZM102.854 36.9765L98.9028 63.8032L100.881 64.0946L104.833 37.2679L102.854 36.9765ZM98.9028 63.8033C97.7423 71.6903 93.6948 78.8905 87.5018 84.0781L88.786 85.6113C95.3497 80.1132 99.6486 72.4734 100.882 64.0945L98.9028 63.8033ZM87.5019 84.078C84.6862 86.4358 81.2265 88.3246 76.8966 89.8423L77.5581 91.7297C82.0645 90.1502 85.7487 88.1547 88.7859 85.6114L87.5019 84.078ZM76.8958 89.8426L61.309 95.3209L61.9721 97.2077L77.5589 91.7295L76.8958 89.8426ZM61.3046 95.3224C60.9789 95.4386 60.6295 95.4711 60.2857 95.421L59.9974 97.4001C60.6544 97.4958 61.3341 97.4353 61.9765 97.2062L61.3046 95.3224Z" fill="url(#paint1_linear_10714_470)" mask="url(#path-3-outside-1_10714_470)"/>
</g>
<g filter="url(#filter2_bd_10714_470)">
<path d="M61.8109 64.9431C61.0302 64.827 60.2933 64.4261 59.7808 63.7558L53.189 55.1258C52.1722 53.7865 52.4485 51.9088 53.8098 50.9271C55.1717 49.9415 57.1035 50.2264 58.125 51.5624L62.8685 57.7691L78.5203 46.459C79.8863 45.474 81.8181 45.759 82.8355 47.0943C83.8564 48.4343 83.5795 50.316 82.2188 51.2937L64.096 64.3911C63.4127 64.8856 62.5916 65.0591 61.8109 64.9431Z" fill="url(#paint2_linear_10714_470)"/>
<path d="M53.8684 51.0081L53.8683 51.0082C52.5528 51.9568 52.2856 53.7706 53.2686 55.0654L59.8603 63.6951C60.3559 64.3434 61.0689 64.7317 61.8256 64.8441C62.5819 64.9565 63.3764 64.7884 64.0374 64.3101L64.0374 64.31L82.1602 51.2127L82.1604 51.2125C83.475 50.2679 83.743 48.4504 82.756 47.1549C81.7715 45.8629 79.9011 45.5867 78.5789 46.5401L53.8684 51.0081ZM53.8684 51.0081C55.1863 50.0543 57.0569 50.3301 58.0455 51.6231L62.789 57.8298L62.8481 57.9071L62.927 57.8501L78.5788 46.5402L53.8684 51.0081Z" stroke="url(#paint3_linear_10714_470)" stroke-opacity="0.5" stroke-width="0.2"/>
</g>
<defs>
<filter id="filter0_f_10714_470" x="1.64941" y="4.17639" width="70.7529" height="68.4057" filterUnits="userSpaceOnUse" color-interpolation-filters="sRGB">
<feFlood flood-opacity="0" result="BackgroundImageFix"/>
<feBlend mode="normal" in="SourceGraphic" in2="BackgroundImageFix" result="shape"/>
<feGaussianBlur stdDeviation="8" result="effect1_foregroundBlur_10714_470"/>
</filter>
<filter id="filter1_b_10714_470" x="6.0368" y="-9.47324" width="122.884" height="130.917" filterUnits="userSpaceOnUse" color-interpolation-filters="sRGB">
<feFlood flood-opacity="0" result="BackgroundImageFix"/>
<feGaussianBlur in="BackgroundImage" stdDeviation="12"/>
<feComposite in2="SourceAlpha" operator="in" result="effect1_backgroundBlur_10714_470"/>
<feBlend mode="normal" in="SourceGraphic" in2="effect1_backgroundBlur_10714_470" result="shape"/>
</filter>
<filter id="filter2_bd_10714_470" x="37.576" y="30.8725" width="60.8754" height="49.1051" filterUnits="userSpaceOnUse" color-interpolation-filters="sRGB">
<feFlood flood-opacity="0" result="BackgroundImageFix"/>
<feGaussianBlur in="BackgroundImage" stdDeviation="7.5"/>
<feComposite in2="SourceAlpha" operator="in" result="effect1_backgroundBlur_10714_470"/>
<feColorMatrix in="SourceAlpha" type="matrix" values="0 0 0 0 0 0 0 0 0 0 0 0 0 0 0 0 0 0 127 0" result="hardAlpha"/>
<feOffset dx="5" dy="5"/>
<feGaussianBlur stdDeviation="5"/>
<feColorMatrix type="matrix" values="0 0 0 0 0.454902 0 0 0 0 0.870588 0 0 0 0 0.376471 0 0 0 0.5 0"/>
<feBlend mode="normal" in2="effect1_backgroundBlur_10714_470" result="effect2_dropShadow_10714_470"/>
<feBlend mode="normal" in="SourceGraphic" in2="effect2_dropShadow_10714_470" result="shape"/>
</filter>
<linearGradient id="paint0_linear_10714_470" x1="45.209" y1="0" x2="29.2501" y2="59.5331" gradientUnits="userSpaceOnUse">
<stop stop-color="#9BF763"/>
<stop offset="1" stop-color="#26AB5B"/>
</linearGradient>
<linearGradient id="paint1_linear_10714_470" x1="47.3767" y1="21.4467" x2="91.4625" y2="84.9134" gradientUnits="userSpaceOnUse">
<stop stop-color="white" stop-opacity="0.25"/>
<stop offset="1" stop-color="white" stop-opacity="0"/>
</linearGradient>
<linearGradient id="paint2_linear_10714_470" x1="81.1824" y1="49.9292" x2="48.0532" y2="46.3477" gradientUnits="userSpaceOnUse">
<stop stop-color="white"/>
<stop offset="1" stop-color="white" stop-opacity="0.2"/>
</linearGradient>
<linearGradient id="paint3_linear_10714_470" x1="56.3869" y1="49.5165" x2="81.4621" y2="53.5685" gradientUnits="userSpaceOnUse">
<stop stop-color="white"/>
<stop offset="1" stop-color="white" stop-opacity="0"/>
</linearGradient>
</defs>
</svg>
