<svg width="100%" height="100%" viewBox="0 0 126 105" fill="none" xmlns="http://www.w3.org/2000/svg">
<path d="M61.1007 64.9845C60.5947 66.0279 60.6349 67.2555 61.2051 68.2659L69.3075 82.1491C69.9932 83.3262 69.9261 84.7947 69.1372 85.907C68.3794 87.0387 67.038 87.6303 65.6911 87.4368L49.7689 85.3353C49.2134 85.2571 48.6484 85.3125 48.1143 85.4901L47.2957 85.7884C47.0271 85.9342 46.7822 86.1261 46.5791 86.3576L35.7527 98.2462C35.2123 98.8196 34.5061 99.2105 33.7291 99.3602C31.8175 99.6737 30.0034 98.4049 29.6413 96.5007L26.9127 80.6588C26.6957 79.5094 25.9344 78.5378 24.8712 78.0527L10.1098 71.4559C8.87496 70.9033 8.07334 69.6898 8.0531 68.3386C8.02188 66.9949 8.73678 65.7453 9.91278 65.0943L24.132 57.4443C25.2309 56.9103 25.9806 55.85 26.1197 54.6358L27.7916 38.6615C27.8386 38.3021 27.9397 37.9504 28.0985 37.6257L28.2933 37.3151C28.378 37.1063 28.4938 36.9169 28.6365 36.7451L28.9217 36.5043L29.3582 36.1057L30.6299 35.6422C31.8086 35.346 33.0562 35.6612 33.9488 36.4857L45.5733 47.5453C46.4166 48.3569 47.606 48.7002 48.751 48.4711L64.5579 45.177C65.8927 44.8958 67.2723 45.3854 68.1326 46.4406C68.9698 47.5077 69.1129 48.9612 68.5007 50.1733L61.1007 64.9845Z" fill="url(#paint0_linear_10714_119)"/>
<g opacity="0.5" filter="url(#filter0_f_10714_119)">
<path d="M47.1784 56.9508C40.2651 56.9508 34.6543 62.5628 34.6543 69.4749C34.6543 76.3894 40.2651 81.9989 47.1784 81.9989C54.1042 81.9989 59.7024 76.3894 59.7024 69.4749C59.7024 62.5628 54.1042 56.9508 47.1784 56.9508Z" fill="#FF3D22"/>
</g>
<g filter="url(#filter1_b_10714_119)">
<path d="M97.9668 62.6509C96.6913 63.3872 95.8588 64.7064 95.7382 66.1749L94.3629 86.5439C94.2449 88.2699 93.128 89.766 91.5061 90.3731C89.9029 91.0228 88.0711 90.6888 86.793 89.5256L71.5519 75.9701C71.0236 75.4922 70.3902 75.1477 69.7021 74.9538L68.6289 74.6841C68.2427 74.646 67.8485 74.6733 67.4701 74.7719L47.6167 79.5552C46.6399 79.7729 45.619 79.6805 44.6954 79.2843C42.4624 78.2516 41.4594 75.625 42.4356 73.3652L50.8562 54.7665C51.4471 53.4035 51.339 51.8396 50.5671 50.572L39.7496 33.1179C38.8452 31.657 38.8672 29.8101 39.8088 28.3752C40.7336 26.9403 42.3755 26.1361 44.0758 26.2897L64.4756 28.3801C66.0113 28.6018 67.555 28.0213 68.5666 26.844L81.7075 11.2419C82.013 10.8976 82.3699 10.6 82.7683 10.3717L83.1943 10.184C83.4322 10.0248 83.6889 9.90829 83.9613 9.82939L84.4328 9.77945L85.1757 9.6714L86.8429 10.0903C88.2932 10.619 89.3801 11.8394 89.7309 13.3422L94.0704 33.2525C94.3787 34.7067 95.3844 35.9152 96.7514 36.4902L115.716 44.2913C117.32 44.9469 118.421 46.4446 118.574 48.167C118.693 49.8854 117.808 51.5155 116.301 52.3535L97.9668 62.6509Z" fill="#FFAC95" fill-opacity="0.4"/>
<path d="M94.8617 86.5779L94.8618 86.5775L96.2365 66.2158C96.2366 66.2146 96.2367 66.2133 96.2368 66.2121C96.3451 64.9088 97.0841 63.7388 98.2145 63.0853C98.2152 63.0848 98.216 63.0844 98.2168 63.084L116.544 52.7905C116.544 52.7902 116.545 52.7899 116.545 52.7896C118.221 51.8572 119.206 50.044 119.072 48.1322L119.073 48.1322L119.072 48.1229C118.903 46.2148 117.683 44.5554 115.906 43.8288C115.906 43.8287 115.906 43.8286 115.905 43.8285L96.9453 36.0294C96.9447 36.0291 96.9442 36.0289 96.9436 36.0287C95.7274 35.5164 94.8335 34.4411 94.5596 33.1488L94.559 33.146L90.2194 13.2357L90.2194 13.2357L90.2178 13.2285C89.8284 11.5604 88.6221 10.2067 87.0142 9.62058C86.998 9.61468 86.9815 9.60962 86.9648 9.60542L85.2975 9.18647C85.2342 9.17056 85.1683 9.16721 85.1037 9.1766L84.3704 9.28325L83.9086 9.33217C83.8794 9.33527 83.8505 9.34094 83.8222 9.34912C83.5176 9.43735 83.2266 9.56684 82.9544 9.74332L82.5667 9.91407C82.5506 9.92116 82.5349 9.92909 82.5197 9.93784C82.0705 10.1952 81.672 10.5285 81.3335 10.9101L81.3334 10.91L81.3251 10.9198L68.1874 26.5181C68.1868 26.5187 68.1863 26.5194 68.1858 26.52C67.2854 27.5666 65.9124 28.0823 64.547 27.8852C64.5449 27.8849 64.5428 27.8846 64.5406 27.8843C64.5359 27.8837 64.5312 27.8831 64.5265 27.8827L44.1268 25.7923L44.1268 25.7922L44.1208 25.7917C42.2354 25.6214 40.415 26.5129 39.3896 28.1026C38.3422 29.7004 38.3185 31.7561 39.3245 33.3811L39.3246 33.3813L50.1401 50.8321C50.1404 50.8327 50.1407 50.8332 50.1411 50.8338C50.8269 51.9612 50.9233 53.3515 50.399 54.5641C50.3985 54.5653 50.398 54.5665 50.3974 54.5677L41.9801 73.159L41.9801 73.1589L41.9766 73.1669C40.8929 75.6755 42.0062 78.5915 44.4856 79.7381L44.4855 79.7383L44.4983 79.7438C45.519 80.1817 46.647 80.2836 47.7254 80.0432L47.7254 80.0433L47.7338 80.0413L67.5872 75.258L67.5872 75.258L67.5961 75.2557C67.9033 75.1757 68.2255 75.1509 68.5444 75.1784L69.5732 75.437C70.187 75.611 70.749 75.9179 71.2164 76.3409L71.2196 76.3438L86.4565 89.8954C86.4571 89.896 86.4578 89.8966 86.4585 89.8972C87.8759 91.1858 89.9069 91.5578 91.6873 90.8391C93.4892 90.162 94.7305 88.498 94.8617 86.5779Z" stroke="url(#paint1_linear_10714_119)" stroke-linecap="round" stroke-linejoin="round"/>
</g>
<defs>
<filter id="filter0_f_10714_119" x="14.6543" y="36.9508" width="65.0481" height="65.0481" filterUnits="userSpaceOnUse" color-interpolation-filters="sRGB">
<feFlood flood-opacity="0" result="BackgroundImageFix"/>
<feBlend mode="normal" in="SourceGraphic" in2="BackgroundImageFix" result="shape"/>
<feGaussianBlur stdDeviation="10" result="effect1_foregroundBlur_10714_119"/>
</filter>
<filter id="filter1_b_10714_119" x="14.0867" y="-15.3286" width="129.498" height="131.029" filterUnits="userSpaceOnUse" color-interpolation-filters="sRGB">
<feFlood flood-opacity="0" result="BackgroundImageFix"/>
<feGaussianBlur in="BackgroundImage" stdDeviation="12"/>
<feComposite in2="SourceAlpha" operator="in" result="effect1_backgroundBlur_10714_119"/>
<feBlend mode="normal" in="SourceGraphic" in2="effect1_backgroundBlur_10714_119" result="shape"/>
</filter>
<linearGradient id="paint0_linear_10714_119" x1="12.2127" y1="60.1216" x2="78.5567" y2="122.282" gradientUnits="userSpaceOnUse">
<stop stop-color="#FFA78F"/>
<stop offset="1" stop-color="#F23E2C"/>
</linearGradient>
<linearGradient id="paint1_linear_10714_119" x1="57.0936" y1="11.9352" x2="88.9815" y2="85.6844" gradientUnits="userSpaceOnUse">
<stop stop-color="white" stop-opacity="0.25"/>
<stop offset="1" stop-color="white" stop-opacity="0"/>
</linearGradient>
</defs>
</svg>
