<svg width="100%" height="100%" viewBox="0 0 108 102" fill="none" xmlns="http://www.w3.org/2000/svg">
<path d="M90.5903 12.1165L61.8598 4.4182C51.4385 1.62582 43.7358 6.10193 40.9343 16.5575L31.4457 51.9693C28.5982 62.5963 33.0676 70.1869 43.4889 72.9793L72.2194 80.6776C82.8087 83.515 90.3032 79.1301 93.1507 68.5031L102.639 33.0913C105.441 22.6357 101.18 14.9539 90.5903 12.1165Z" fill="url(#paint0_linear_10714_77)"/>
<g opacity="0.5" filter="url(#filter0_f_10714_77)">
<path d="M83.0836 21.8137L63.5092 16.5688C56.4091 14.6663 51.1612 17.7159 49.2525 24.8394L42.7878 48.9658C40.8478 56.206 43.8928 61.3776 50.993 63.2801L70.5673 68.525C77.7819 70.4581 82.888 67.4707 84.828 60.2304L91.2927 36.104C93.2014 28.9805 90.2982 23.7468 83.0836 21.8137Z" fill="#39B93A"/>
</g>
<g filter="url(#filter1_b_10714_77)">
<mask id="path-3-outside-1_10714_77" maskUnits="userSpaceOnUse" x="0" y="18" width="84" height="84" fill="black">
<rect fill="white" y="18" width="84" height="84"/>
<path d="M59.555 19H24.1525C10.31 19 1 28.7183 1 43.1733V76.5342C1 90.9483 10.31 100.667 24.1525 100.667H59.555C73.3975 100.667 82.6667 90.9483 82.6667 76.5342V43.1733C82.6667 28.7183 73.3975 19 59.555 19Z"/>
</mask>
<path d="M59.555 19H24.1525C10.31 19 1 28.7183 1 43.1733V76.5342C1 90.9483 10.31 100.667 24.1525 100.667H59.555C73.3975 100.667 82.6667 90.9483 82.6667 76.5342V43.1733C82.6667 28.7183 73.3975 19 59.555 19Z" fill="#72DC60" fill-opacity="0.35"/>
<path d="M59.555 20C60.1073 20 60.555 19.5523 60.555 19C60.555 18.4477 60.1073 18 59.555 18V20ZM59.555 18C59.0027 18 58.555 18.4477 58.555 19C58.555 19.5523 59.0027 20 59.555 20V18ZM59.555 18H24.1525V20H59.555V18ZM24.1525 18C16.9885 18 10.9293 20.5203 6.66314 24.9743C2.40056 29.4246 0 35.7291 0 43.1733H2C2 36.1626 4.25444 30.3804 8.10748 26.3578C11.9569 22.3388 17.474 20 24.1525 20V18ZM0 43.1733V76.5342H2V43.1733H0ZM0 76.5342C0 83.9587 2.40101 90.253 6.66356 94.6979C10.9296 99.1464 16.9885 101.667 24.1525 101.667V99.6667C17.474 99.6667 11.9566 97.3278 8.10706 93.3136C4.25399 89.2957 2 83.5238 2 76.5342H0ZM24.1525 101.667H59.555V99.6667H24.1525V101.667ZM59.555 101.667C66.7192 101.667 72.7684 99.1462 77.0244 94.697C81.2766 90.2517 83.6667 83.9575 83.6667 76.5342H81.6667C81.6667 83.525 79.4221 89.2971 75.5791 93.3145C71.74 97.328 66.2333 99.6667 59.555 99.6667V101.667ZM83.6667 76.5342V43.1733H81.6667V76.5342H83.6667ZM83.6667 43.1733C83.6667 35.7303 81.2771 29.4259 77.0248 24.9752C72.7687 20.5205 66.7192 18 59.555 18V20C66.2333 20 71.7397 22.3387 75.5787 26.3568C79.4217 30.3791 81.6667 36.1614 81.6667 43.1733H83.6667Z" fill="url(#paint1_linear_10714_77)" mask="url(#path-3-outside-1_10714_77)"/>
</g>
<g filter="url(#filter2_bd_10714_77)">
<mask id="path-5-inside-2_10714_77" fill="white">
<path d="M36.9864 73.0957C36.0717 73.0957 35.1571 72.7487 34.4588 72.0504L24.7691 62.3607C23.3726 60.9642 23.3726 58.702 24.7691 57.3096C26.1656 55.9131 28.4236 55.909 29.8201 57.3055L36.9864 64.4717L53.8424 47.6157C55.2389 46.2192 57.497 46.2192 58.8935 47.6157C60.29 49.0122 60.29 51.2744 58.8935 52.6709L39.514 72.0504C38.8157 72.7487 37.9011 73.0957 36.9864 73.0957Z"/>
</mask>
<path d="M36.9864 73.0957C36.0717 73.0957 35.1571 72.7487 34.4588 72.0504L24.7691 62.3607C23.3726 60.9642 23.3726 58.702 24.7691 57.3096C26.1656 55.9131 28.4236 55.909 29.8201 57.3055L36.9864 64.4717L53.8424 47.6157C55.2389 46.2192 57.497 46.2192 58.8935 47.6157C60.29 49.0122 60.29 51.2744 58.8935 52.6709L39.514 72.0504C38.8157 72.7487 37.9011 73.0957 36.9864 73.0957Z" fill="url(#paint2_linear_10714_77)"/>
<path d="M24.7691 57.3096L24.9103 57.4512L24.9105 57.451L24.7691 57.3096ZM36.9864 64.4717L36.845 64.6132L36.9864 64.7546L37.1278 64.6132L36.9864 64.4717ZM58.8935 52.6709L58.752 52.5295L58.8935 52.6709ZM39.514 72.0504L39.6554 72.1918L39.514 72.0504ZM36.9864 72.8957C36.1223 72.8957 35.2593 72.568 34.6002 71.909L34.3174 72.1918C35.0548 72.9293 36.0211 73.2957 36.9864 73.2957V72.8957ZM34.6002 71.909L24.9105 62.2192L24.6276 62.5021L34.3174 72.1918L34.6002 71.909ZM24.9105 62.2192C23.592 60.9007 23.5923 58.7653 24.9103 57.4512L24.6278 57.1679C23.1528 58.6386 23.1531 61.0276 24.6276 62.5021L24.9105 62.2192ZM24.9105 57.451C26.2292 56.1323 28.3606 56.1288 29.6787 57.4469L29.9616 57.1641C28.4867 55.6892 26.1019 55.6938 24.6276 57.1681L24.9105 57.451ZM29.6787 57.4469L36.845 64.6132L37.1278 64.3303L29.9616 57.1641L29.6787 57.4469ZM37.1278 64.6132L53.9838 47.7572L53.701 47.4743L36.845 64.3303L37.1278 64.6132ZM53.9838 47.7572C55.3022 46.4388 57.4337 46.4388 58.752 47.7572L59.0349 47.4743C57.5603 45.9997 55.1756 45.9997 53.701 47.4743L53.9838 47.7572ZM58.752 47.7572C60.0704 49.0756 60.0704 51.2111 58.752 52.5295L59.0349 52.8123C60.5095 51.3377 60.5095 48.9489 59.0349 47.4743L58.752 47.7572ZM58.752 52.5295L39.3726 71.909L39.6554 72.1918L59.0349 52.8123L58.752 52.5295ZM39.3726 71.909C38.7135 72.568 37.8504 72.8957 36.9864 72.8957V73.2957C37.9517 73.2957 38.918 72.9293 39.6554 72.1918L39.3726 71.909Z" fill="url(#paint3_linear_10714_77)" fill-opacity="0.5" mask="url(#path-5-inside-2_10714_77)"/>
</g>
<defs>
<filter id="filter0_f_10714_77" x="28.2145" y="2.01422" width="77.65" height="81.0855" filterUnits="userSpaceOnUse" color-interpolation-filters="sRGB">
<feFlood flood-opacity="0" result="BackgroundImageFix"/>
<feBlend mode="normal" in="SourceGraphic" in2="BackgroundImageFix" result="shape"/>
<feGaussianBlur stdDeviation="7" result="effect1_foregroundBlur_10714_77"/>
</filter>
<filter id="filter1_b_10714_77" x="-24" y="-6" width="131.667" height="131.667" filterUnits="userSpaceOnUse" color-interpolation-filters="sRGB">
<feFlood flood-opacity="0" result="BackgroundImageFix"/>
<feGaussianBlur in="BackgroundImage" stdDeviation="12"/>
<feComposite in2="SourceAlpha" operator="in" result="effect1_backgroundBlur_10714_77"/>
<feBlend mode="normal" in="SourceGraphic" in2="effect1_backgroundBlur_10714_77" result="shape"/>
</filter>
<filter id="filter2_bd_10714_77" x="8.72168" y="31.5684" width="66.2191" height="56.5274" filterUnits="userSpaceOnUse" color-interpolation-filters="sRGB">
<feFlood flood-opacity="0" result="BackgroundImageFix"/>
<feGaussianBlur in="BackgroundImage" stdDeviation="7.5"/>
<feComposite in2="SourceAlpha" operator="in" result="effect1_backgroundBlur_10714_77"/>
<feColorMatrix in="SourceAlpha" type="matrix" values="0 0 0 0 0 0 0 0 0 0 0 0 0 0 0 0 0 0 127 0" result="hardAlpha"/>
<feOffset dx="5" dy="5"/>
<feGaussianBlur stdDeviation="5"/>
<feColorMatrix type="matrix" values="0 0 0 0 0.454902 0 0 0 0 0.870588 0 0 0 0 0.376471 0 0 0 0.5 0"/>
<feBlend mode="normal" in2="effect1_backgroundBlur_10714_77" result="effect2_dropShadow_10714_77"/>
<feBlend mode="normal" in="SourceGraphic" in2="effect2_dropShadow_10714_77" result="shape"/>
</filter>
<linearGradient id="paint0_linear_10714_77" x1="107.076" y1="16.5338" x2="44.4202" y2="54.8808" gradientUnits="userSpaceOnUse">
<stop stop-color="#9BF763"/>
<stop offset="1" stop-color="#26AB5B"/>
</linearGradient>
<linearGradient id="paint1_linear_10714_77" x1="14" y1="28.5143" x2="66.0947" y2="93.0347" gradientUnits="userSpaceOnUse">
<stop stop-color="white" stop-opacity="0.25"/>
<stop offset="1" stop-color="white" stop-opacity="0"/>
</linearGradient>
<linearGradient id="paint2_linear_10714_77" x1="57.3729" y1="51.3587" x2="17.0652" y2="53.153" gradientUnits="userSpaceOnUse">
<stop stop-color="white"/>
<stop offset="1" stop-color="white" stop-opacity="0.2"/>
</linearGradient>
<linearGradient id="paint3_linear_10714_77" x1="27.6233" y1="55.467" x2="58.3776" y2="55.6988" gradientUnits="userSpaceOnUse">
<stop stop-color="white"/>
<stop offset="1" stop-color="white" stop-opacity="0"/>
</linearGradient>
</defs>
</svg>
