<svg width="100%" height="100%" viewBox="0 0 131 96" fill="none" xmlns="http://www.w3.org/2000/svg">
<path fill-rule="evenodd" clip-rule="evenodd" d="M30.0724 14.7028C30.5713 13.3968 31.0895 12.042 31.8183 10.7468C33.68 7.67991 36.9237 6.32444 39.8053 7.09656C41.4142 7.52132 43.1819 9.05643 44.066 10.3675L51.4758 20.9304L56.4773 22.2706C60.1583 23.2569 62.3577 26.8876 61.8194 31.1322C61.2409 35.1913 59.3681 42.644 57.6181 46.8119C55.9463 51.0007 52.3705 53.0394 48.51 52.005L43.5085 50.6648L31.5928 56.1767C30.3609 56.7777 28.3302 57.3014 26.7084 56.8669C26.6033 56.8419 26.5107 56.8171 26.418 56.7922C23.4814 56.0054 21.472 53.1597 21.3908 49.5817C21.4011 48.0811 21.6253 46.732 21.842 45.4282L21.842 45.4281L21.846 45.4038L22.055 44.1028C22.6572 39.8626 28.0241 19.8331 29.6147 15.8895L30.0724 14.7028ZM19.8834 17.0737C20.64 16.4158 21.7667 16.5026 22.4028 17.2707C23.0299 18.0407 22.9262 19.1995 22.1702 19.8554C20.066 21.6844 18.4406 24.4349 17.5914 27.6042C16.7428 30.7715 16.7745 33.9682 17.6824 36.6042C18.0091 37.5502 17.5196 38.6057 16.5895 38.9584C16.2427 39.0872 15.8728 39.1054 15.5223 39.0115C14.9573 38.8601 14.5063 38.4329 14.3111 37.8698C13.1646 34.5418 13.1047 30.5682 14.1462 26.681C15.1878 22.7939 17.2265 19.3827 19.8834 17.0737ZM17.7894 10.2356C17.1826 9.47276 16.0874 9.39897 15.3535 10.0614C11.3391 13.6636 8.23503 18.98 6.61536 25.0247C4.9946 31.0734 5.02513 37.2276 6.70059 42.3545C6.8828 42.9144 7.3177 43.3375 7.86349 43.4838C8.202 43.5745 8.55845 43.5525 8.89536 43.421C9.79904 43.0607 10.2817 42.0048 9.97596 41.0617C8.52751 36.6241 8.5156 31.2448 9.94335 25.9164C11.3705 20.5901 14.0705 15.9374 17.5437 12.8186C18.2795 12.1568 18.39 10.9989 17.7894 10.2356Z" fill="url(#paint0_linear_10714_574)"/>
<g filter="url(#filter0_b_10714_574)">
<mask id="path-2-outside-1_10714_574" maskUnits="userSpaceOnUse" x="33.5269" y="2.55237" width="97.9102" height="94.3747" fill="black">
<rect fill="white" x="33.5269" y="2.55237" width="97.9102" height="94.3747"/>
<path fill-rule="evenodd" clip-rule="evenodd" d="M87.1371 24.774C86.4246 22.9089 85.6846 20.9741 84.6437 19.1245C81.9851 14.7446 77.3528 12.8089 73.2376 13.9116C70.9399 14.5181 68.4155 16.7104 67.1529 18.5827L56.571 33.6676L49.4284 35.5815C44.1717 36.99 41.0307 42.175 41.7994 48.2367C42.6256 54.0334 45.3001 64.6767 47.7993 70.6287C50.1868 76.6107 55.2933 79.5222 60.8064 78.045L67.9491 76.1311L84.9658 84.0025C86.7251 84.8608 89.6251 85.6087 91.9412 84.9881C92.0912 84.9525 92.2236 84.917 92.3559 84.8816C96.5497 83.7578 99.4193 79.694 99.5352 74.5843C99.5204 72.4413 99.2002 70.5145 98.8908 68.6526L98.8851 68.6179L98.5867 66.7599C97.7266 60.7045 90.0622 32.1005 87.7907 26.4687L87.1371 24.774ZM101.688 28.1598C100.608 27.2203 98.9986 27.3442 98.0902 28.4411C97.1946 29.5408 97.3427 31.1957 98.4224 32.1323C101.427 34.7443 103.749 38.6723 104.961 43.1983C106.173 47.7215 106.128 52.2867 104.831 56.0512C104.365 57.4022 105.064 58.9094 106.392 59.4132C106.887 59.5971 107.416 59.6232 107.916 59.4891C108.723 59.2729 109.367 58.6627 109.646 57.8586C111.283 53.1058 111.369 47.4311 109.881 41.88C108.394 36.3288 105.482 31.4572 101.688 28.1598ZM104.678 18.3945C105.545 17.3051 107.109 17.1997 108.157 18.1457C113.89 23.2901 118.323 30.8824 120.636 39.5147C122.95 48.1529 122.907 56.9415 120.514 64.2632C120.254 65.0628 119.633 65.6671 118.853 65.876C118.37 66.0055 117.861 65.9742 117.38 65.7863C116.089 65.2718 115.4 63.7639 115.836 62.417C117.905 56.0797 117.922 48.3977 115.883 40.7882C113.845 33.1816 109.989 26.5373 105.029 22.0833C103.978 21.1381 103.82 19.4846 104.678 18.3945Z"/>
</mask>
<path fill-rule="evenodd" clip-rule="evenodd" d="M87.1371 24.774C86.4246 22.9089 85.6846 20.9741 84.6437 19.1245C81.9851 14.7446 77.3528 12.8089 73.2376 13.9116C70.9399 14.5181 68.4155 16.7104 67.1529 18.5827L56.571 33.6676L49.4284 35.5815C44.1717 36.99 41.0307 42.175 41.7994 48.2367C42.6256 54.0334 45.3001 64.6767 47.7993 70.6287C50.1868 76.6107 55.2933 79.5222 60.8064 78.045L67.9491 76.1311L84.9658 84.0025C86.7251 84.8608 89.6251 85.6087 91.9412 84.9881C92.0912 84.9525 92.2236 84.917 92.3559 84.8816C96.5497 83.7578 99.4193 79.694 99.5352 74.5843C99.5204 72.4413 99.2002 70.5145 98.8908 68.6526L98.8851 68.6179L98.5867 66.7599C97.7266 60.7045 90.0622 32.1005 87.7907 26.4687L87.1371 24.774ZM101.688 28.1598C100.608 27.2203 98.9986 27.3442 98.0902 28.4411C97.1946 29.5408 97.3427 31.1957 98.4224 32.1323C101.427 34.7443 103.749 38.6723 104.961 43.1983C106.173 47.7215 106.128 52.2867 104.831 56.0512C104.365 57.4022 105.064 58.9094 106.392 59.4132C106.887 59.5971 107.416 59.6232 107.916 59.4891C108.723 59.2729 109.367 58.6627 109.646 57.8586C111.283 53.1058 111.369 47.4311 109.881 41.88C108.394 36.3288 105.482 31.4572 101.688 28.1598ZM104.678 18.3945C105.545 17.3051 107.109 17.1997 108.157 18.1457C113.89 23.2901 118.323 30.8824 120.636 39.5147C122.95 48.1529 122.907 56.9415 120.514 64.2632C120.254 65.0628 119.633 65.6671 118.853 65.876C118.37 66.0055 117.861 65.9742 117.38 65.7863C116.089 65.2718 115.4 63.7639 115.836 62.417C117.905 56.0797 117.922 48.3977 115.883 40.7882C113.845 33.1816 109.989 26.5373 105.029 22.0833C103.978 21.1381 103.82 19.4846 104.678 18.3945Z" fill="#FF749F" fill-opacity="0.35"/>
<path d="M84.6437 19.1245L85.5152 18.6341C85.5098 18.6245 85.5043 18.615 85.4985 18.6056L84.6437 19.1245ZM87.1371 24.774L86.203 25.1309L86.2041 25.1338L87.1371 24.774ZM73.2376 13.9116L73.4929 14.8784L73.4964 14.8775L73.2376 13.9116ZM67.1529 18.5827L67.9716 19.157C67.9751 19.152 67.9786 19.1469 67.982 19.1418L67.1529 18.5827ZM56.571 33.6676L56.8299 34.6335C57.0567 34.5728 57.2549 34.4341 57.3897 34.2419L56.571 33.6676ZM49.4284 35.5815L49.1696 34.6155L49.4284 35.5815ZM41.7994 48.2367L40.8073 48.3625C40.808 48.3676 40.8086 48.3727 40.8094 48.3778L41.7994 48.2367ZM47.7993 70.6287L48.728 70.258C48.7258 70.2525 48.7236 70.247 48.7213 70.2416L47.7993 70.6287ZM67.9491 76.1311L68.3689 75.2235C68.1565 75.1252 67.9163 75.1046 67.6903 75.1652L67.9491 76.1311ZM84.9658 84.0025L85.4043 83.1037C85.3981 83.1007 85.3919 83.0977 85.3856 83.0949L84.9658 84.0025ZM91.9412 84.9881L91.7099 84.0153C91.7007 84.0174 91.6915 84.0198 91.6824 84.0222L91.9412 84.9881ZM99.5352 74.5843L100.535 74.607C100.535 74.5971 100.535 74.5873 100.535 74.5774L99.5352 74.5843ZM98.8908 68.6526L97.9044 68.8164L97.9044 68.8165L98.8908 68.6526ZM98.8851 68.6179L97.8977 68.7765L97.8986 68.7818L98.8851 68.6179ZM98.5867 66.7599L97.5966 66.9005C97.5975 66.9065 97.5984 66.9125 97.5994 66.9185L98.5867 66.7599ZM87.7907 26.4687L86.8577 26.8285C86.8595 26.8333 86.8614 26.838 86.8633 26.8428L87.7907 26.4687ZM98.0902 28.4411L97.32 27.8032L97.3148 27.8096L98.0902 28.4411ZM101.688 28.1598L101.032 28.9144L101.032 28.9147L101.688 28.1598ZM98.4224 32.1323L99.0784 31.3776L99.0777 31.377L98.4224 32.1323ZM104.831 56.0512L105.777 56.3777L105.777 56.3768L104.831 56.0512ZM106.392 59.4132L106.038 60.3483L106.044 60.3507L106.392 59.4132ZM109.646 57.8586L110.591 58.1862L110.591 58.1843L109.646 57.8586ZM108.157 18.1457L107.487 18.8881L107.489 18.89L108.157 18.1457ZM104.678 18.3945L103.895 17.772L103.892 17.7762L104.678 18.3945ZM120.514 64.2632L119.563 63.9526L119.563 63.9538L120.514 64.2632ZM117.38 65.7863L117.009 66.7153L117.016 66.7178L117.38 65.7863ZM115.836 62.417L114.886 62.1067L114.885 62.1086L115.836 62.417ZM105.029 22.0833L104.36 22.8268L104.361 22.8274L105.029 22.0833ZM83.7722 19.6149C84.7712 21.3901 85.4869 23.2564 86.203 25.1309L88.0713 24.4171C87.3624 22.5615 86.598 20.5582 85.5152 18.6341L83.7722 19.6149ZM73.4964 14.8775C77.1234 13.9057 81.3276 15.5886 83.7889 19.6434L85.4985 18.6056C82.6426 13.9006 77.5823 11.7121 72.9788 12.9456L73.4964 14.8775ZM67.982 19.1418C68.5495 18.3003 69.4235 17.3572 70.4305 16.5544C71.4435 15.7468 72.5249 15.134 73.4929 14.8784L72.9824 12.9447C71.6526 13.2957 70.3229 14.0824 69.1837 14.9906C68.0385 15.9036 67.0189 16.9929 66.3238 18.0237L67.982 19.1418ZM57.3897 34.2419L67.9716 19.157L66.3343 18.0085L55.7524 33.0933L57.3897 34.2419ZM49.6872 36.5474L56.8299 34.6335L56.3122 32.7017L49.1696 34.6155L49.6872 36.5474ZM42.7914 48.1109C42.0746 42.4581 44.9937 37.805 49.6872 36.5474L49.1696 34.6155C43.3496 36.175 39.9868 41.8919 40.8073 48.3625L42.7914 48.1109ZM48.7213 70.2416C46.2615 64.3833 43.6061 53.8255 42.7894 48.0956L40.8094 48.3778C41.6451 54.2412 44.3387 64.97 46.8773 71.0158L48.7213 70.2416ZM60.5476 77.079C55.6135 78.4011 50.9641 75.8607 48.728 70.258L46.8705 70.9994C49.4094 77.3607 54.9732 80.6432 61.0653 79.0109L60.5476 77.079ZM67.6903 75.1652L60.5476 77.079L61.0653 79.0109L68.2079 77.097L67.6903 75.1652ZM85.3856 83.0949L68.3689 75.2235L67.5293 77.0387L84.546 84.9101L85.3856 83.0949ZM91.6824 84.0222C89.6949 84.5548 87.0565 83.9099 85.4043 83.1037L84.5273 84.9012C86.3937 85.8118 89.5553 86.6627 92.2 85.9541L91.6824 84.0222ZM92.0971 83.9156C91.9637 83.9514 91.8443 83.9833 91.7099 84.0153L92.1725 85.961C92.3382 85.9216 92.4834 85.8827 92.6147 85.8475L92.0971 83.9156ZM98.5354 74.5616C98.4275 79.3227 95.7762 82.9298 92.0971 83.9156L92.6147 85.8475C97.3232 84.5858 100.411 80.0653 100.535 74.607L98.5354 74.5616ZM97.9044 68.8165C98.2149 70.6855 98.5211 72.5382 98.5352 74.5912L100.535 74.5774C100.52 72.3443 100.186 70.3435 99.8773 68.4886L97.9044 68.8165ZM97.8986 68.7818L97.9044 68.8164L99.8773 68.4887L99.8716 68.454L97.8986 68.7818ZM97.5994 66.9185L97.8977 68.7765L99.8724 68.4593L99.5741 66.6013L97.5994 66.9185ZM86.8633 26.8428C87.9712 29.5897 90.4389 38.0813 92.7521 46.7143C95.0651 55.3468 97.177 63.9459 97.5966 66.9005L99.5768 66.6193C99.1363 63.5185 96.9859 54.7879 94.6839 46.1967C92.382 37.6059 89.8817 28.9796 88.7181 26.0947L86.8633 26.8428ZM86.2041 25.1338L86.8577 26.8285L88.7237 26.1089L88.0702 24.4142L86.2041 25.1338ZM98.8604 29.0789C99.4056 28.4205 100.37 28.3384 101.032 28.9144L102.344 27.4053C100.846 26.1022 98.5916 26.2678 97.32 27.8033L98.8604 29.0789ZM99.0777 31.377C98.4015 30.7904 98.3149 29.7488 98.8656 29.0726L97.3148 27.8096C96.0743 29.3328 96.2839 31.601 97.767 32.8877L99.0777 31.377ZM105.927 42.9395C104.672 38.2557 102.259 34.142 99.0784 31.3776L97.7663 32.8871C100.596 35.3465 102.825 39.0888 103.995 43.4571L105.927 42.9395ZM105.777 56.3768C107.149 52.3924 107.181 47.6203 105.927 42.9395L103.995 43.4571C105.165 47.8227 105.107 52.1809 103.886 55.7256L105.777 56.3768ZM106.747 58.4782C105.93 58.1683 105.484 57.2235 105.777 56.3777L103.886 55.7247C103.245 57.5809 104.198 59.6505 106.038 60.3482L106.747 58.4782ZM107.657 58.5231C107.361 58.6026 107.045 58.5888 106.74 58.4758L106.044 60.3507C106.73 60.6054 107.47 60.6438 108.175 60.455L107.657 58.5231ZM108.701 57.5311C108.527 58.0319 108.134 58.3955 107.657 58.5231L108.175 60.455C109.313 60.1502 110.207 59.2934 110.591 58.1862L108.701 57.5311ZM108.915 42.1388C110.359 47.5255 110.264 52.9942 108.7 57.5329L110.591 58.1843C112.302 53.2174 112.379 47.3368 110.847 41.6212L108.915 42.1388ZM101.032 28.9147C104.656 32.0635 107.472 36.7522 108.915 42.1388L110.847 41.6212C109.316 35.9055 106.309 30.851 102.344 27.405L101.032 28.9147ZM108.827 17.4033C107.368 16.0869 105.136 16.2128 103.895 17.772L105.461 19.0171C105.954 18.3975 106.849 18.3125 107.487 18.8881L108.827 17.4033ZM121.602 39.2559C119.247 30.4671 114.724 22.6951 108.825 17.4014L107.489 18.89C113.056 23.8851 117.399 31.2977 119.67 39.7736L121.602 39.2559ZM121.464 64.5738C123.927 57.0397 123.958 48.0506 121.602 39.2559L119.67 39.7736C121.942 48.2552 121.887 56.8433 119.563 63.9526L121.464 64.5738ZM119.112 66.8419C120.236 66.5408 121.106 65.6766 121.465 64.5727L119.563 63.9538C119.402 64.449 119.029 64.7935 118.594 64.9101L119.112 66.8419ZM117.016 66.7178C117.688 66.9803 118.415 67.0287 119.112 66.8419L118.594 64.9101C118.324 64.9824 118.033 64.9681 117.743 64.8548L117.016 66.7178ZM114.885 62.1086C114.291 63.9396 115.213 65.9991 117.009 66.7152L117.75 64.8574C116.965 64.5445 116.508 63.5881 116.788 62.7254L114.885 62.1086ZM114.917 41.047C116.915 48.5039 116.884 55.9849 114.886 62.1067L116.787 62.7273C118.926 56.1745 118.929 48.2915 116.849 40.5294L114.917 41.047ZM104.361 22.8274C109.152 27.1299 112.92 33.5931 114.917 41.047L116.849 40.5294C114.77 32.7701 110.826 25.9447 105.697 21.3393L104.361 22.8274ZM103.892 17.7762C102.699 19.2933 102.93 21.5406 104.36 22.8268L105.698 21.3399C105.026 20.7357 104.942 19.676 105.464 19.0129L103.892 17.7762Z" fill="url(#paint1_linear_10714_574)" mask="url(#path-2-outside-1_10714_574)"/>
</g>
<defs>
<filter id="filter0_b_10714_574" x="16.6849" y="-11.3933" width="130.656" height="121.61" filterUnits="userSpaceOnUse" color-interpolation-filters="sRGB">
<feFlood flood-opacity="0" result="BackgroundImageFix"/>
<feGaussianBlur in="BackgroundImage" stdDeviation="12"/>
<feComposite in2="SourceAlpha" operator="in" result="effect1_backgroundBlur_10714_574"/>
<feBlend mode="normal" in="SourceGraphic" in2="effect1_backgroundBlur_10714_574" result="shape"/>
</filter>
<linearGradient id="paint0_linear_10714_574" x1="28.5515" y1="34.2905" x2="67.7643" y2="70.3384" gradientUnits="userSpaceOnUse">
<stop stop-color="#FF759F"/>
<stop offset="1" stop-color="#FF196E"/>
</linearGradient>
<linearGradient id="paint1_linear_10714_574" x1="49.1148" y1="29.2401" x2="109.48" y2="76.5491" gradientUnits="userSpaceOnUse">
<stop stop-color="white" stop-opacity="0.25"/>
<stop offset="1" stop-color="white" stop-opacity="0"/>
</linearGradient>
</defs>
</svg>
